M48
;Layer_Color=9474304
;FILE_FORMAT=2:5
INCH,LZ
;TYPE=PLATED
T1F00S00C0.00800
;TYPE=NON_PLATED
T2F00S00C0.01968
%
T01
X-00276Y-00566
X-0027599Y-00454
X-00304Y-00426
X-00337Y-00474
X-00256Y-00362
X-00248Y-00305
X-00276Y-00273
X-00289Y-00235
X-00241Y-00231
X-00238Y-00188
X-00222Y-00125
X-00229Y-00101
X-00235Y-00076
X-00294Y-0003
X-00392Y-00078
X-00449Y-00115
X-00484Y-00107
X-00504Y-00048
X-0033417Y-0025083
X-0017291Y-0016209
X-00084Y-00103
X-0005Y-00095
Y-0012
X-00026Y-00049
X0000194Y-0006694
X00101Y-00104
X00103Y-00025
X00186Y-00124
X00231Y-00088
X0031Y-0008
Y-0006
X00346Y-00027
X00335Y-00128
X003805Y-0023965
X003555Y-0036464
X00297Y-00321
X00166Y-00281
X00145Y-00301
X00122Y-00241
X00165Y-00206
X00147Y-00386
X00097Y-00441
X00077Y-00489
X00141Y-00581
X-0005577Y-00363
X-00055Y-00312
X-00073Y-00237
X-0013609Y-00362
X-0017546
X-0015577Y-0034231
Y-0038168
X0049485Y-0036514
X00509Y-003
X00552Y-00182
X005648Y-001128
X00485Y-00119
X0047Y-0007
Y-0005
X00507Y-00043
X005792Y000682
X00564Y00184
X0053526Y0024274
X0048177Y0021723
X0049Y00311
X00496Y00357
X0047977Y0039777
X00386Y00421
X00369Y00459
X00317Y00426
X00299Y00475
X00292Y00564
X00325Y00559
X00426Y00522
X00363Y00355
X0037771Y0033784
X00399Y00312
X00275Y00303
X00274Y00266
X00299
X00247Y001501
X00248Y00097
X00208Y00049
X00096Y00069
X00065Y00136
X0003Y00149
X00003Y00167
X00032Y00218
X00047Y00255
Y00278
X00064Y00294
X-00028Y00299
X-00025Y00244
X-00045Y00223
X-00064Y00275
X-00106Y00294
X-00136Y00312
X-00152Y00268
X-00163Y00245
X-00226Y00249
X-00228Y00291
X-0026Y00188
X-00313Y00191
X-00347Y00212
X-0033Y00232
X-0035Y00167
X-00329Y00061
X-00307Y00009
X-0027933Y0010004
X-0018261Y0006861
X-00163Y0008
X-0014Y00075
X-00102Y00042
X-00051Y00089
X-00024Y00009
X-00169Y00145
X-00153Y0046
X-00116Y00469
X-00093Y00474
X-00089Y00496
X-00111Y00509
X-00074Y00456
X00006Y00469
X0004193Y0044207
X0009Y00442
X00096Y00416
X00079Y00399
X0005Y0039
X00038Y00369
X00019Y00396
X-00001Y00409
X00117Y00397
X0020786Y0037514
X00231Y00375
X0025087Y0039187
X0024266Y0042534
X00221Y00408
X00172Y0055
Y00599
X00088Y00507
X00037
X-00048Y00551
Y00599
X-00144Y00609
X-00243Y0061
X-00231Y00472
X-0023Y0045
X-00294Y00472
X-00343Y00451
X-00373Y00406
X-00439Y00424
X-0041643Y00469
X-0041872Y0051128
X-00459Y00347
X-00498Y00309
X-00479Y00284
X-00544Y00247
X-00567Y00194
X-00501Y002
X-0047Y00188
X-00484Y00072
X-00451Y00076
X-00542Y00078
X-00574Y00126
X0040337Y0010937
T02
X-005328Y00009
M30
