G04*
G04 #@! TF.GenerationSoftware,Altium Limited,Altium Designer,20.2.6 (244)*
G04*
G04 Layer_Physical_Order=4*
G04 Layer_Color=16440176*
%FSLAX25Y25*%
%MOIN*%
G70*
G04*
G04 #@! TF.SameCoordinates,E73447B6-61B4-4EEF-956E-7A2C62B3FEF5*
G04*
G04*
G04 #@! TF.FilePolarity,Positive*
G04*
G01*
G75*
%ADD10C,0.01000*%
%ADD107C,0.00600*%
%ADD109C,0.01200*%
%ADD110C,0.00800*%
%ADD113C,0.01800*%
G36*
X-26388Y-46000D02*
X-26956Y-46030D01*
Y-44770D01*
X-26945Y-44776D01*
X-26924Y-44781D01*
X-26893Y-44785D01*
X-26800Y-44793D01*
X-26491Y-44800D01*
X-26388Y-44800D01*
Y-46000D01*
D02*
G37*
G36*
X-44231Y-12735D02*
X-44298Y-12671D01*
X-44366Y-12613D01*
X-44432Y-12563D01*
X-44499Y-12519D01*
X-44565Y-12482D01*
X-44631Y-12452D01*
X-44696Y-12429D01*
X-44761Y-12412D01*
X-44826Y-12403D01*
X-44891Y-12400D01*
X-44000Y-11509D01*
X-43997Y-11574D01*
X-43988Y-11638D01*
X-43971Y-11704D01*
X-43948Y-11769D01*
X-43918Y-11835D01*
X-43881Y-11901D01*
X-43837Y-11968D01*
X-43787Y-12034D01*
X-43729Y-12102D01*
X-43665Y-12169D01*
X-44231Y-12735D01*
D02*
G37*
G36*
X-6858Y-36732D02*
X-6477Y-36309D01*
X-5586Y-37200D01*
X-5598Y-37204D01*
X-5616Y-37215D01*
X-5642Y-37234D01*
X-5713Y-37295D01*
X-5936Y-37508D01*
X-6009Y-37580D01*
X-6858Y-36732D01*
D02*
G37*
G36*
X-9635Y-10969D02*
X-9571Y-10902D01*
X-9513Y-10835D01*
X-9463Y-10768D01*
X-9419Y-10701D01*
X-9382Y-10635D01*
X-9352Y-10569D01*
X-9329Y-10504D01*
X-9312Y-10439D01*
X-9303Y-10374D01*
X-9300Y-10309D01*
X-8409Y-11200D01*
X-8474Y-11203D01*
X-8539Y-11212D01*
X-8604Y-11229D01*
X-8669Y-11252D01*
X-8735Y-11282D01*
X-8801Y-11319D01*
X-8868Y-11363D01*
X-8935Y-11413D01*
X-9002Y-11471D01*
X-9069Y-11535D01*
X-9635Y-10969D01*
D02*
G37*
G36*
X-22111Y-7900D02*
X-22195Y-7903D01*
X-22276Y-7913D01*
X-22356Y-7930D01*
X-22433Y-7953D01*
X-22509Y-7982D01*
X-22583Y-8019D01*
X-22654Y-8062D01*
X-22724Y-8111D01*
X-22792Y-8167D01*
X-22857Y-8230D01*
Y-6970D01*
X-22792Y-7033D01*
X-22724Y-7089D01*
X-22654Y-7138D01*
X-22583Y-7181D01*
X-22509Y-7218D01*
X-22433Y-7247D01*
X-22356Y-7270D01*
X-22276Y-7287D01*
X-22195Y-7297D01*
X-22111Y-7300D01*
Y-7900D01*
D02*
G37*
G36*
X-49011Y-5100D02*
X-49095Y-5103D01*
X-49176Y-5113D01*
X-49256Y-5130D01*
X-49334Y-5153D01*
X-49409Y-5183D01*
X-49483Y-5219D01*
X-49554Y-5262D01*
X-49624Y-5311D01*
X-49692Y-5367D01*
X-49757Y-5430D01*
Y-4170D01*
X-49692Y-4233D01*
X-49624Y-4289D01*
X-49554Y-4338D01*
X-49483Y-4381D01*
X-49409Y-4417D01*
X-49334Y-4447D01*
X-49256Y-4470D01*
X-49176Y-4487D01*
X-49095Y-4497D01*
X-49011Y-4500D01*
Y-5100D01*
D02*
G37*
G36*
X-43865Y8269D02*
X-43929Y8202D01*
X-43987Y8134D01*
X-44037Y8068D01*
X-44081Y8001D01*
X-44118Y7935D01*
X-44148Y7869D01*
X-44171Y7804D01*
X-44188Y7739D01*
X-44197Y7674D01*
X-44200Y7609D01*
X-45091Y8500D01*
X-45026Y8503D01*
X-44962Y8512D01*
X-44896Y8529D01*
X-44831Y8552D01*
X-44765Y8582D01*
X-44699Y8619D01*
X-44632Y8663D01*
X-44565Y8713D01*
X-44498Y8771D01*
X-44431Y8835D01*
X-43865Y8269D01*
D02*
G37*
G36*
X-33712Y16200D02*
X-33811Y16199D01*
X-34064Y16179D01*
X-34132Y16168D01*
X-34193Y16153D01*
X-34246Y16136D01*
X-34291Y16117D01*
X-34328Y16095D01*
X-34357Y16070D01*
Y17330D01*
X-34328Y17305D01*
X-34291Y17283D01*
X-34246Y17264D01*
X-34193Y17247D01*
X-34132Y17233D01*
X-34064Y17221D01*
X-33903Y17205D01*
X-33811Y17201D01*
X-33712Y17200D01*
Y16200D01*
D02*
G37*
G36*
X-29311Y600D02*
X-29395Y597D01*
X-29476Y587D01*
X-29556Y570D01*
X-29634Y547D01*
X-29709Y518D01*
X-29783Y481D01*
X-29854Y438D01*
X-29924Y389D01*
X-29992Y333D01*
X-30057Y270D01*
Y1530D01*
X-29992Y1467D01*
X-29924Y1411D01*
X-29854Y1362D01*
X-29783Y1319D01*
X-29709Y1283D01*
X-29634Y1253D01*
X-29556Y1230D01*
X-29476Y1213D01*
X-29395Y1203D01*
X-29311Y1200D01*
Y600D01*
D02*
G37*
G36*
X-17433Y5698D02*
X-17495Y5756D01*
X-17560Y5806D01*
X-17628Y5850D01*
X-17699Y5886D01*
X-17773Y5916D01*
X-17850Y5939D01*
X-17930Y5956D01*
X-18013Y5965D01*
X-18100Y5968D01*
X-18189Y5964D01*
X-17363Y6916D01*
X-17355Y6824D01*
X-17341Y6736D01*
X-17322Y6651D01*
X-17298Y6570D01*
X-17268Y6492D01*
X-17233Y6418D01*
X-17193Y6347D01*
X-17147Y6279D01*
X-17097Y6215D01*
X-17040Y6155D01*
X-17433Y5698D01*
D02*
G37*
G36*
X-30065Y19769D02*
X-30129Y19702D01*
X-30187Y19635D01*
X-30237Y19568D01*
X-30281Y19501D01*
X-30318Y19435D01*
X-30348Y19369D01*
X-30371Y19304D01*
X-30388Y19239D01*
X-30397Y19174D01*
X-30400Y19109D01*
X-31291Y20000D01*
X-31226Y20003D01*
X-31161Y20012D01*
X-31096Y20029D01*
X-31031Y20052D01*
X-30965Y20082D01*
X-30899Y20119D01*
X-30832Y20163D01*
X-30766Y20213D01*
X-30698Y20271D01*
X-30631Y20335D01*
X-30065Y19769D01*
D02*
G37*
G36*
X-4366Y-36900D02*
X-4934Y-36930D01*
Y-35670D01*
X-4923Y-35676D01*
X-4902Y-35681D01*
X-4871Y-35685D01*
X-4778Y-35693D01*
X-4469Y-35700D01*
X-4366Y-35700D01*
Y-36900D01*
D02*
G37*
G36*
X1540Y-7094D02*
X1447Y-7096D01*
X1359Y-7103D01*
X1276Y-7115D01*
X1198Y-7131D01*
X1125Y-7152D01*
X1058Y-7177D01*
X995Y-7207D01*
X937Y-7241D01*
X884Y-7280D01*
X837Y-7324D01*
Y-6064D01*
X884Y-6108D01*
X937Y-6147D01*
X995Y-6181D01*
X1058Y-6211D01*
X1125Y-6237D01*
X1198Y-6257D01*
X1276Y-6273D01*
X1359Y-6285D01*
X1447Y-6292D01*
X1540Y-6294D01*
Y-7094D01*
D02*
G37*
G36*
X-3946Y-4500D02*
X-3864Y-4497D01*
X-3783Y-4488D01*
X-3703Y-4473D01*
X-3624Y-4452D01*
X-3546Y-4426D01*
X-3468Y-4393D01*
X-3392Y-4354D01*
X-3317Y-4310D01*
X-3242Y-4259D01*
X-3169Y-4202D01*
X-3309Y-5455D01*
X-3366Y-5387D01*
X-3426Y-5327D01*
X-3489Y-5274D01*
X-3555Y-5228D01*
X-3625Y-5189D01*
X-3697Y-5157D01*
X-3773Y-5132D01*
X-3851Y-5114D01*
X-3933Y-5103D01*
X-4017Y-5100D01*
X-3946Y-4500D01*
D02*
G37*
G36*
X-3788Y1200D02*
X-3705Y1203D01*
X-3624Y1213D01*
X-3544Y1230D01*
X-3466Y1253D01*
X-3391Y1283D01*
X-3317Y1319D01*
X-3246Y1362D01*
X-3176Y1411D01*
X-3108Y1467D01*
X-3043Y1530D01*
Y270D01*
X-3108Y333D01*
X-3176Y389D01*
X-3246Y438D01*
X-3317Y481D01*
X-3391Y518D01*
X-3466Y547D01*
X-3544Y570D01*
X-3624Y587D01*
X-3705Y597D01*
X-3788Y600D01*
Y1200D01*
D02*
G37*
G36*
X5220Y13157D02*
X5285Y13224D01*
X5398Y13355D01*
X5447Y13419D01*
X5526Y13545D01*
X5558Y13606D01*
X5584Y13666D01*
X5604Y13725D01*
X5619Y13782D01*
X6300Y12722D01*
X6237Y12733D01*
X6174Y12734D01*
X6110Y12728D01*
X6046Y12713D01*
X5981Y12690D01*
X5915Y12659D01*
X5849Y12620D01*
X5782Y12572D01*
X5715Y12516D01*
X5647Y12452D01*
X5220Y13157D01*
D02*
G37*
G36*
X-988Y17200D02*
X-889Y17201D01*
X-636Y17221D01*
X-568Y17233D01*
X-507Y17247D01*
X-454Y17264D01*
X-409Y17283D01*
X-372Y17305D01*
X-343Y17330D01*
Y16070D01*
X-372Y16095D01*
X-409Y16117D01*
X-454Y16136D01*
X-507Y16153D01*
X-568Y16168D01*
X-636Y16179D01*
X-797Y16195D01*
X-889Y16199D01*
X-988Y16200D01*
Y17200D01*
D02*
G37*
G36*
X48275Y-35914D02*
X48843Y-35884D01*
Y-37145D01*
X48832Y-37139D01*
X48811Y-37134D01*
X48779Y-37129D01*
X48686Y-37122D01*
X48377Y-37115D01*
X48275Y-37115D01*
Y-35914D01*
D02*
G37*
G36*
X21711Y-8500D02*
X21795Y-8497D01*
X21876Y-8487D01*
X21956Y-8470D01*
X22034Y-8447D01*
X22109Y-8417D01*
X22183Y-8381D01*
X22254Y-8338D01*
X22324Y-8289D01*
X22392Y-8233D01*
X22457Y-8170D01*
Y-9430D01*
X22392Y-9367D01*
X22324Y-9311D01*
X22254Y-9262D01*
X22183Y-9219D01*
X22109Y-9183D01*
X22034Y-9153D01*
X21956Y-9130D01*
X21876Y-9113D01*
X21795Y-9103D01*
X21711Y-9100D01*
Y-8500D01*
D02*
G37*
G36*
X33254Y-2300D02*
X33347Y-2298D01*
X33435Y-2291D01*
X33518Y-2279D01*
X33596Y-2263D01*
X33669Y-2242D01*
X33737Y-2217D01*
X33799Y-2187D01*
X33857Y-2153D01*
X33910Y-2114D01*
X33957Y-2070D01*
Y-3330D01*
X33910Y-3286D01*
X33857Y-3247D01*
X33799Y-3213D01*
X33737Y-3183D01*
X33669Y-3158D01*
X33596Y-3137D01*
X33518Y-3121D01*
X33435Y-3109D01*
X33347Y-3102D01*
X33254Y-3100D01*
Y-2300D01*
D02*
G37*
G36*
X19411Y5200D02*
X19495Y5203D01*
X19576Y5213D01*
X19656Y5230D01*
X19734Y5253D01*
X19809Y5283D01*
X19883Y5319D01*
X19954Y5362D01*
X20024Y5411D01*
X20092Y5467D01*
X20157Y5530D01*
Y4270D01*
X20092Y4333D01*
X20024Y4389D01*
X19954Y4438D01*
X19883Y4481D01*
X19809Y4518D01*
X19734Y4547D01*
X19656Y4570D01*
X19576Y4587D01*
X19495Y4597D01*
X19411Y4600D01*
Y5200D01*
D02*
G37*
G36*
X55731Y19635D02*
X55798Y19571D01*
X55866Y19513D01*
X55932Y19463D01*
X55999Y19419D01*
X56065Y19382D01*
X56131Y19352D01*
X56196Y19329D01*
X56261Y19312D01*
X56326Y19303D01*
X56391Y19300D01*
X55500Y18409D01*
X55497Y18474D01*
X55488Y18539D01*
X55471Y18604D01*
X55448Y18669D01*
X55418Y18735D01*
X55381Y18801D01*
X55337Y18868D01*
X55287Y18935D01*
X55229Y19002D01*
X55165Y19069D01*
X55731Y19635D01*
D02*
G37*
G36*
X-11743Y50270D02*
X-11790Y50314D01*
X-11843Y50353D01*
X-11901Y50387D01*
X-11964Y50417D01*
X-12031Y50442D01*
X-12104Y50463D01*
X-12182Y50479D01*
X-12265Y50491D01*
X-12353Y50498D01*
X-12446Y50500D01*
Y51300D01*
X-12353Y51302D01*
X-12265Y51309D01*
X-12182Y51321D01*
X-12104Y51337D01*
X-12031Y51358D01*
X-11964Y51383D01*
X-11901Y51413D01*
X-11843Y51447D01*
X-11790Y51486D01*
X-11743Y51530D01*
Y50270D01*
D02*
G37*
G36*
X-28165Y47869D02*
X-28229Y47802D01*
X-28287Y47734D01*
X-28337Y47668D01*
X-28381Y47601D01*
X-28418Y47535D01*
X-28448Y47469D01*
X-28471Y47404D01*
X-28488Y47339D01*
X-28497Y47274D01*
X-28500Y47209D01*
X-29391Y48100D01*
X-29326Y48103D01*
X-29261Y48112D01*
X-29196Y48129D01*
X-29131Y48152D01*
X-29065Y48182D01*
X-28999Y48219D01*
X-28932Y48263D01*
X-28866Y48313D01*
X-28798Y48371D01*
X-28731Y48435D01*
X-28165Y47869D01*
D02*
G37*
G36*
X-22209Y47353D02*
X-22187Y47296D01*
X-22160Y47237D01*
X-22128Y47177D01*
X-22090Y47116D01*
X-22047Y47054D01*
X-21944Y46926D01*
X-21884Y46859D01*
X-21818Y46792D01*
X-22224Y46066D01*
X-22292Y46130D01*
X-22359Y46186D01*
X-22426Y46234D01*
X-22492Y46273D01*
X-22558Y46303D01*
X-22622Y46325D01*
X-22686Y46339D01*
X-22749Y46344D01*
X-22812Y46341D01*
X-22874Y46329D01*
X-22225Y47409D01*
X-22209Y47353D01*
D02*
G37*
G36*
X-33610Y45686D02*
X-33557Y45647D01*
X-33499Y45613D01*
X-33437Y45583D01*
X-33369Y45557D01*
X-33296Y45537D01*
X-33218Y45521D01*
X-33135Y45509D01*
X-33047Y45502D01*
X-32954Y45500D01*
Y44700D01*
X-33047Y44698D01*
X-33135Y44691D01*
X-33218Y44679D01*
X-33296Y44663D01*
X-33369Y44642D01*
X-33437Y44617D01*
X-33499Y44587D01*
X-33557Y44553D01*
X-33610Y44514D01*
X-33657Y44470D01*
Y45730D01*
X-33610Y45686D01*
D02*
G37*
G36*
X-43333Y43108D02*
X-43173Y43026D01*
X-43093Y42992D01*
X-43013Y42964D01*
X-42933Y42941D01*
X-42853Y42923D01*
X-42772Y42910D01*
X-42692Y42903D01*
X-42612Y42900D01*
X-42466Y42300D01*
X-42551Y42296D01*
X-42633Y42285D01*
X-42710Y42267D01*
X-42783Y42241D01*
X-42852Y42207D01*
X-42917Y42166D01*
X-42977Y42118D01*
X-43034Y42062D01*
X-43086Y41999D01*
X-43133Y41929D01*
X-43413Y43157D01*
X-43333Y43108D01*
D02*
G37*
G36*
X-45192Y35267D02*
X-45124Y35211D01*
X-45054Y35162D01*
X-44983Y35119D01*
X-44909Y35083D01*
X-44833Y35053D01*
X-44756Y35030D01*
X-44676Y35013D01*
X-44595Y35003D01*
X-44512Y35000D01*
Y34400D01*
X-44595Y34397D01*
X-44676Y34387D01*
X-44756Y34370D01*
X-44833Y34347D01*
X-44909Y34317D01*
X-44983Y34281D01*
X-45054Y34238D01*
X-45124Y34189D01*
X-45192Y34133D01*
X-45257Y34070D01*
Y35330D01*
X-45192Y35267D01*
D02*
G37*
G36*
X-49180Y31560D02*
X-49125Y31526D01*
X-49065Y31497D01*
X-49000Y31471D01*
X-48930Y31449D01*
X-48856Y31432D01*
X-48777Y31418D01*
X-48693Y31408D01*
X-48512Y31400D01*
X-48412Y30600D01*
X-48505Y30597D01*
X-48592Y30590D01*
X-48674Y30577D01*
X-48751Y30559D01*
X-48822Y30536D01*
X-48887Y30508D01*
X-48946Y30475D01*
X-49000Y30437D01*
X-49049Y30394D01*
X-49091Y30345D01*
X-49231Y31598D01*
X-49180Y31560D01*
D02*
G37*
G36*
X-11243Y28770D02*
X-11290Y28814D01*
X-11343Y28853D01*
X-11401Y28887D01*
X-11463Y28917D01*
X-11531Y28942D01*
X-11604Y28963D01*
X-11682Y28979D01*
X-11765Y28991D01*
X-11853Y28998D01*
X-11946Y29000D01*
Y29800D01*
X-11853Y29802D01*
X-11765Y29809D01*
X-11682Y29821D01*
X-11604Y29837D01*
X-11531Y29858D01*
X-11463Y29883D01*
X-11401Y29913D01*
X-11343Y29947D01*
X-11290Y29986D01*
X-11243Y30030D01*
Y28770D01*
D02*
G37*
G36*
X-46995Y28398D02*
X-46981Y28335D01*
X-46961Y28270D01*
X-46934Y28206D01*
X-46902Y28141D01*
X-46862Y28075D01*
X-46817Y28009D01*
X-46765Y27943D01*
X-46707Y27876D01*
X-46643Y27809D01*
X-47159Y27193D01*
X-47226Y27257D01*
X-47294Y27314D01*
X-47361Y27363D01*
X-47427Y27406D01*
X-47494Y27440D01*
X-47560Y27468D01*
X-47625Y27488D01*
X-47691Y27500D01*
X-47756Y27506D01*
X-47820Y27503D01*
X-47002Y28462D01*
X-46995Y28398D01*
D02*
G37*
G36*
X-15843Y26170D02*
X-15890Y26214D01*
X-15943Y26253D01*
X-16001Y26287D01*
X-16063Y26317D01*
X-16131Y26342D01*
X-16204Y26363D01*
X-16282Y26379D01*
X-16365Y26391D01*
X-16453Y26398D01*
X-16546Y26400D01*
Y27200D01*
X-16453Y27202D01*
X-16365Y27209D01*
X-16282Y27221D01*
X-16204Y27237D01*
X-16131Y27257D01*
X-16063Y27283D01*
X-16001Y27313D01*
X-15943Y27347D01*
X-15890Y27386D01*
X-15843Y27430D01*
Y26170D01*
D02*
G37*
G36*
X-53497Y24626D02*
X-53488Y24562D01*
X-53471Y24496D01*
X-53448Y24431D01*
X-53418Y24365D01*
X-53381Y24299D01*
X-53337Y24232D01*
X-53287Y24166D01*
X-53229Y24098D01*
X-53165Y24031D01*
X-53731Y23465D01*
X-53798Y23529D01*
X-53865Y23587D01*
X-53932Y23637D01*
X-53999Y23681D01*
X-54065Y23718D01*
X-54131Y23748D01*
X-54196Y23771D01*
X-54261Y23788D01*
X-54326Y23797D01*
X-54391Y23800D01*
X-53500Y24691D01*
X-53497Y24626D01*
D02*
G37*
G36*
X-33643Y22570D02*
X-33690Y22614D01*
X-33743Y22653D01*
X-33801Y22687D01*
X-33863Y22717D01*
X-33931Y22742D01*
X-34004Y22763D01*
X-34082Y22779D01*
X-34165Y22791D01*
X-34253Y22798D01*
X-34346Y22800D01*
Y23600D01*
X-34253Y23602D01*
X-34165Y23609D01*
X-34082Y23621D01*
X-34004Y23637D01*
X-33931Y23658D01*
X-33863Y23683D01*
X-33801Y23713D01*
X-33743Y23747D01*
X-33690Y23786D01*
X-33643Y23830D01*
Y22570D01*
D02*
G37*
G36*
X-1111Y24100D02*
X-1195Y24097D01*
X-1276Y24087D01*
X-1356Y24070D01*
X-1433Y24047D01*
X-1509Y24017D01*
X-1583Y23981D01*
X-1654Y23938D01*
X-1724Y23889D01*
X-1792Y23833D01*
X-1857Y23770D01*
Y25030D01*
X-1792Y24967D01*
X-1724Y24911D01*
X-1654Y24862D01*
X-1583Y24819D01*
X-1509Y24782D01*
X-1433Y24753D01*
X-1356Y24730D01*
X-1276Y24713D01*
X-1195Y24703D01*
X-1111Y24700D01*
Y24100D01*
D02*
G37*
G36*
X1965Y21131D02*
X2029Y21198D01*
X2087Y21265D01*
X2137Y21332D01*
X2181Y21399D01*
X2218Y21465D01*
X2248Y21531D01*
X2271Y21596D01*
X2288Y21662D01*
X2297Y21726D01*
X2300Y21791D01*
X3191Y20900D01*
X3126Y20897D01*
X3062Y20888D01*
X2996Y20871D01*
X2931Y20848D01*
X2865Y20818D01*
X2799Y20781D01*
X2732Y20737D01*
X2665Y20687D01*
X2598Y20629D01*
X2531Y20565D01*
X1965Y21131D01*
D02*
G37*
G36*
X3514Y24714D02*
X3571Y24775D01*
X3622Y24840D01*
X3666Y24908D01*
X3704Y24979D01*
X3736Y25053D01*
X3761Y25131D01*
X3780Y25212D01*
X3793Y25296D01*
X3800Y25383D01*
X3800Y25473D01*
X4709Y24600D01*
X4617Y24596D01*
X4530Y24587D01*
X4445Y24571D01*
X4364Y24550D01*
X4286Y24522D01*
X4212Y24489D01*
X4141Y24450D01*
X4073Y24405D01*
X4008Y24355D01*
X3947Y24298D01*
X3514Y24714D01*
D02*
G37*
G36*
X-1446Y41300D02*
X-1353Y41302D01*
X-1265Y41309D01*
X-1182Y41321D01*
X-1104Y41337D01*
X-1031Y41357D01*
X-963Y41383D01*
X-901Y41413D01*
X-843Y41447D01*
X-790Y41486D01*
X-743Y41530D01*
Y40270D01*
X-790Y40314D01*
X-843Y40353D01*
X-901Y40387D01*
X-963Y40417D01*
X-1031Y40442D01*
X-1104Y40463D01*
X-1182Y40479D01*
X-1265Y40491D01*
X-1353Y40498D01*
X-1446Y40500D01*
Y41300D01*
D02*
G37*
G36*
X-10340Y49600D02*
X-10245Y49603D01*
X-10159Y49611D01*
X-10080Y49625D01*
X-10010Y49645D01*
X-9947Y49670D01*
X-9893Y49700D01*
X-9847Y49737D01*
X-9808Y49778D01*
X-9778Y49826D01*
X-9756Y49879D01*
X-9214Y48757D01*
X-9241Y48765D01*
X-9277Y48772D01*
X-9320Y48779D01*
X-9432Y48789D01*
X-9660Y48798D01*
X-9852Y48800D01*
X-10340Y49600D01*
D02*
G37*
G36*
X-635Y46231D02*
X-571Y46298D01*
X-513Y46365D01*
X-463Y46432D01*
X-419Y46499D01*
X-382Y46565D01*
X-352Y46631D01*
X-329Y46696D01*
X-312Y46762D01*
X-303Y46826D01*
X-300Y46891D01*
X591Y46000D01*
X526Y45997D01*
X461Y45988D01*
X396Y45971D01*
X331Y45948D01*
X265Y45918D01*
X199Y45881D01*
X132Y45837D01*
X65Y45787D01*
X-2Y45729D01*
X-69Y45665D01*
X-635Y46231D01*
D02*
G37*
G36*
X7806Y43430D02*
X7863Y43492D01*
X7913Y43556D01*
X7958Y43624D01*
X7996Y43695D01*
X8029Y43770D01*
X8055Y43848D01*
X8076Y43929D01*
X8090Y44013D01*
X8098Y44100D01*
X8100Y44191D01*
X8991Y43300D01*
X8900Y43298D01*
X8813Y43290D01*
X8728Y43275D01*
X8647Y43255D01*
X8570Y43229D01*
X8495Y43196D01*
X8424Y43158D01*
X8356Y43113D01*
X8292Y43063D01*
X8230Y43006D01*
X7806Y43430D01*
D02*
G37*
G36*
X20711Y41100D02*
X20795Y41103D01*
X20876Y41113D01*
X20956Y41130D01*
X21034Y41153D01*
X21109Y41183D01*
X21183Y41219D01*
X21254Y41262D01*
X21324Y41311D01*
X21392Y41367D01*
X21457Y41430D01*
Y40170D01*
X21392Y40233D01*
X21324Y40289D01*
X21254Y40338D01*
X21183Y40381D01*
X21109Y40418D01*
X21034Y40447D01*
X20956Y40470D01*
X20876Y40487D01*
X20795Y40497D01*
X20711Y40500D01*
Y41100D01*
D02*
G37*
G36*
X25564Y42049D02*
X25462Y42048D01*
X25054Y42020D01*
X25021Y42012D01*
X24998Y42002D01*
X24984Y41991D01*
X24823Y43241D01*
X25353Y43249D01*
X25564Y42049D01*
D02*
G37*
G36*
X31246Y26200D02*
X31153Y26198D01*
X31065Y26191D01*
X30982Y26179D01*
X30904Y26163D01*
X30831Y26142D01*
X30764Y26117D01*
X30701Y26087D01*
X30643Y26053D01*
X30590Y26014D01*
X30543Y25970D01*
Y27230D01*
X30590Y27186D01*
X30643Y27147D01*
X30701Y27113D01*
X30764Y27083D01*
X30831Y27057D01*
X30904Y27037D01*
X30982Y27021D01*
X31065Y27009D01*
X31153Y27002D01*
X31246Y27000D01*
Y26200D01*
D02*
G37*
G36*
X46766Y40377D02*
X47334Y40407D01*
Y39147D01*
X47323Y39153D01*
X47302Y39158D01*
X47271Y39162D01*
X47178Y39170D01*
X46869Y39177D01*
X46766Y39177D01*
Y40377D01*
D02*
G37*
D10*
X-35000Y16700D02*
X300D01*
D107*
X-10863Y5800D02*
X-6200D01*
X-5300Y4900D02*
X20800D01*
X-6200Y5800D02*
X-5300Y4900D01*
X-18171Y6861D02*
X-17110Y5800D01*
X-10863D01*
X-18261Y6861D02*
X-18171D01*
X-3100Y-8800D02*
X23100D01*
X-23500Y-7600D02*
X-4300D01*
X-3100Y-8800D01*
X-43700Y42600D02*
X7400D01*
X-43900Y42400D02*
X-43700Y42600D01*
X7400D02*
X9000Y44200D01*
X17088Y40800D02*
X22100D01*
X-30700Y900D02*
X-2400D01*
X-2700Y-4800D02*
X-2600Y-4900D01*
X-50400Y-4800D02*
X-2700D01*
X-45900Y34700D02*
X10988D01*
X17088Y40800D01*
X3625Y24400D02*
X4700Y25475D01*
Y25500D01*
X-2500Y24400D02*
X3625D01*
D109*
X29420Y39777D02*
X47977D01*
X26549Y42649D02*
X29420Y39777D01*
X24266Y42534D02*
X24381Y42649D01*
X26549D01*
X42415Y-36514D02*
X49485D01*
X39900Y-34000D02*
X42415Y-36514D01*
X29500Y-34000D02*
X39900D01*
X27200Y-36300D02*
X29500Y-34000D01*
X-5577Y-36300D02*
X27200D01*
X-27599Y-45400D02*
X-14677D01*
X-5577Y-36300D01*
D110*
X194Y-6694D02*
X21306D01*
X25300Y-2700D02*
X34600D01*
X21306Y-6694D02*
X25300Y-2700D01*
X29900Y26600D02*
X48200D01*
X56400Y18400D01*
X-23100Y47200D02*
X-22792D01*
X-22692Y47100D01*
X-19292Y43700D01*
X-45100Y7600D02*
X-40700Y12000D01*
X4629D02*
X6229Y13600D01*
X-40700Y12000D02*
X4629D01*
X-44900Y-11500D02*
X-41900Y-14500D01*
X-12600D02*
X-8400Y-10300D01*
X-41900Y-14500D02*
X-12600D01*
X24266Y42534D02*
X24300Y42500D01*
X6229Y13600D02*
X6500D01*
X-24700Y49200D02*
X-9300D01*
X-8900Y49600D01*
X-19292Y43700D02*
X-2600D01*
X600Y46900D01*
X-36331Y40900D02*
X-100D01*
X-36440Y40791D02*
X-36331Y40900D01*
X-37300Y40600D02*
X-37109Y40791D01*
X-36440D01*
X2000Y20600D02*
X3200Y21800D01*
X-29800Y20600D02*
X2000D01*
X-31300Y19100D02*
X-29800Y20600D01*
X-34300Y45100D02*
X-28800D01*
X-24700Y49200D01*
X-29400Y47200D02*
X-25700Y50900D01*
X-11100D01*
X-52900Y23200D02*
X-33000D01*
X-54400Y24700D02*
X-52900Y23200D01*
X-49800Y30900D02*
X-49700Y31000D01*
X-21100D01*
X-47900Y28400D02*
X-47800D01*
X-46200Y26800D01*
X-19500Y29400D02*
X-10600D01*
X-21100Y31000D02*
X-19500Y29400D01*
X-46200Y26800D02*
X-15200D01*
D113*
X34600Y-2700D02*
D03*
X29900Y26600D02*
D03*
X20800Y4900D02*
D03*
X-23100Y47200D02*
D03*
X-35000Y16700D02*
D03*
X24266Y42534D02*
D03*
X47977Y39777D02*
D03*
X49485Y-36514D02*
D03*
X-27599Y-45400D02*
D03*
X56400Y18400D02*
D03*
X22100Y40800D02*
D03*
X-2400Y900D02*
D03*
X194Y-6694D02*
D03*
X-2600Y-4900D02*
D03*
X-45900Y34700D02*
D03*
X-23500Y-7600D02*
D03*
X23100Y-8800D02*
D03*
X-18261Y6861D02*
D03*
X-43900Y42400D02*
D03*
X9000Y44200D02*
D03*
X-44900Y-11500D02*
D03*
X-8400Y-10300D02*
D03*
X-8900Y49600D02*
D03*
X-45100Y7600D02*
D03*
X6500Y13600D02*
D03*
X4700Y25500D02*
D03*
X-50400Y-4800D02*
D03*
X-2500Y24400D02*
D03*
X-30700Y900D02*
D03*
X-100Y40900D02*
D03*
X-37300Y40600D02*
D03*
X-31300Y19100D02*
D03*
X3200Y21800D02*
D03*
X300Y16700D02*
D03*
X600Y46900D02*
D03*
X-29400Y47200D02*
D03*
X-34300Y45100D02*
D03*
X-11100Y50900D02*
D03*
X-54400Y24700D02*
D03*
X-33000Y23200D02*
D03*
X-49800Y30900D02*
D03*
X-47900Y28400D02*
D03*
X-10600Y29400D02*
D03*
X-15200Y26800D02*
D03*
X-5577Y-36300D02*
D03*
M02*
