G04*
G04 #@! TF.GenerationSoftware,Altium Limited,Altium Designer,20.2.6 (244)*
G04*
G04 Layer_Color=8388736*
%FSLAX25Y25*%
%MOIN*%
G70*
G04*
G04 #@! TF.SameCoordinates,E73447B6-61B4-4EEF-956E-7A2C62B3FEF5*
G04*
G04*
G04 #@! TF.FilePolarity,Negative*
G04*
G01*
G75*
%ADD26C,0.01595*%
G04:AMPARAMS|DCode=43|XSize=10mil|YSize=10mil|CornerRadius=1.25mil|HoleSize=0mil|Usage=FLASHONLY|Rotation=90.000|XOffset=0mil|YOffset=0mil|HoleType=Round|Shape=RoundedRectangle|*
%AMROUNDEDRECTD43*
21,1,0.01000,0.00750,0,0,90.0*
21,1,0.00750,0.01000,0,0,90.0*
1,1,0.00250,0.00375,0.00375*
1,1,0.00250,0.00375,-0.00375*
1,1,0.00250,-0.00375,-0.00375*
1,1,0.00250,-0.00375,0.00375*
%
%ADD43ROUNDEDRECTD43*%
G04:AMPARAMS|DCode=44|XSize=10mil|YSize=10mil|CornerRadius=1.25mil|HoleSize=0mil|Usage=FLASHONLY|Rotation=180.000|XOffset=0mil|YOffset=0mil|HoleType=Round|Shape=RoundedRectangle|*
%AMROUNDEDRECTD44*
21,1,0.01000,0.00750,0,0,180.0*
21,1,0.00750,0.01000,0,0,180.0*
1,1,0.00250,-0.00375,0.00375*
1,1,0.00250,0.00375,0.00375*
1,1,0.00250,0.00375,-0.00375*
1,1,0.00250,-0.00375,-0.00375*
%
%ADD44ROUNDEDRECTD44*%
%ADD51R,0.01378X0.01476*%
%ADD52R,0.01476X0.01378*%
%ADD55C,0.00992*%
%ADD64C,0.01181*%
%ADD65C,0.01800*%
%ADD66R,0.02375X0.02375*%
%ADD67R,0.03477X0.03320*%
%ADD68R,0.06299X0.09843*%
G04:AMPARAMS|DCode=69|XSize=74.93mil|YSize=55.24mil|CornerRadius=0mil|HoleSize=0mil|Usage=FLASHONLY|Rotation=28.000|XOffset=0mil|YOffset=0mil|HoleType=Round|Shape=Rectangle|*
%AMROTATEDRECTD69*
4,1,4,-0.02011,-0.04198,-0.04605,0.00680,0.02011,0.04198,0.04605,-0.00680,-0.02011,-0.04198,0.0*
%
%ADD69ROTATEDRECTD69*%

G04:AMPARAMS|DCode=70|XSize=47.37mil|YSize=27.69mil|CornerRadius=0mil|HoleSize=0mil|Usage=FLASHONLY|Rotation=28.000|XOffset=0mil|YOffset=0mil|HoleType=Round|Shape=Rectangle|*
%AMROTATEDRECTD70*
4,1,4,-0.01441,-0.02334,-0.02741,0.00110,0.01441,0.02334,0.02741,-0.00110,-0.01441,-0.02334,0.0*
%
%ADD70ROTATEDRECTD70*%

%ADD71R,0.05131X0.08280*%
%ADD72C,0.03162*%
%ADD73R,0.04540X0.04343*%
G04:AMPARAMS|DCode=74|XSize=47.37mil|YSize=35.56mil|CornerRadius=10.89mil|HoleSize=0mil|Usage=FLASHONLY|Rotation=180.000|XOffset=0mil|YOffset=0mil|HoleType=Round|Shape=RoundedRectangle|*
%AMROUNDEDRECTD74*
21,1,0.04737,0.01378,0,0,180.0*
21,1,0.02559,0.03556,0,0,180.0*
1,1,0.02178,-0.01280,0.00689*
1,1,0.02178,0.01280,0.00689*
1,1,0.02178,0.01280,-0.00689*
1,1,0.02178,-0.01280,-0.00689*
%
%ADD74ROUNDEDRECTD74*%
G04:AMPARAMS|DCode=75|XSize=47.37mil|YSize=35.56mil|CornerRadius=10.89mil|HoleSize=0mil|Usage=FLASHONLY|Rotation=270.000|XOffset=0mil|YOffset=0mil|HoleType=Round|Shape=RoundedRectangle|*
%AMROUNDEDRECTD75*
21,1,0.04737,0.01378,0,0,270.0*
21,1,0.02559,0.03556,0,0,270.0*
1,1,0.02178,-0.00689,-0.01280*
1,1,0.02178,-0.00689,0.01280*
1,1,0.02178,0.00689,0.01280*
1,1,0.02178,0.00689,-0.01280*
%
%ADD75ROUNDEDRECTD75*%
%ADD76R,0.03792X0.03635*%
%ADD77R,0.04540X0.02572*%
G04:AMPARAMS|DCode=78|XSize=29.65mil|YSize=27.69mil|CornerRadius=6.46mil|HoleSize=0mil|Usage=FLASHONLY|Rotation=0.000|XOffset=0mil|YOffset=0mil|HoleType=Round|Shape=RoundedRectangle|*
%AMROUNDEDRECTD78*
21,1,0.02965,0.01476,0,0,0.0*
21,1,0.01673,0.02769,0,0,0.0*
1,1,0.01292,0.00837,-0.00738*
1,1,0.01292,-0.00837,-0.00738*
1,1,0.01292,-0.00837,0.00738*
1,1,0.01292,0.00837,0.00738*
%
%ADD78ROUNDEDRECTD78*%
%ADD79R,0.07493X0.05721*%
%ADD80R,0.02375X0.02965*%
%ADD81R,0.04737X0.04343*%
G04:AMPARAMS|DCode=82|XSize=29.65mil|YSize=27.69mil|CornerRadius=6.46mil|HoleSize=0mil|Usage=FLASHONLY|Rotation=270.000|XOffset=0mil|YOffset=0mil|HoleType=Round|Shape=RoundedRectangle|*
%AMROUNDEDRECTD82*
21,1,0.02965,0.01476,0,0,270.0*
21,1,0.01673,0.02769,0,0,270.0*
1,1,0.01292,-0.00738,-0.00837*
1,1,0.01292,-0.00738,0.00837*
1,1,0.01292,0.00738,0.00837*
1,1,0.01292,0.00738,-0.00837*
%
%ADD82ROUNDEDRECTD82*%
%ADD83R,0.01784X0.01883*%
%ADD84R,0.01883X0.01784*%
%ADD85R,0.04147X0.04540*%
%ADD86O,0.03162X0.06509*%
%ADD87R,0.02055X0.02362*%
%ADD88R,0.03950X0.03950*%
%ADD89R,0.04540X0.02965*%
G04:AMPARAMS|DCode=90|XSize=47.37mil|YSize=27.69mil|CornerRadius=0mil|HoleSize=0mil|Usage=FLASHONLY|Rotation=151.000|XOffset=0mil|YOffset=0mil|HoleType=Round|Shape=Rectangle|*
%AMROTATEDRECTD90*
4,1,4,0.02743,0.00062,0.01401,-0.02359,-0.02743,-0.00062,-0.01401,0.02359,0.02743,0.00062,0.0*
%
%ADD90ROTATEDRECTD90*%

G04:AMPARAMS|DCode=91|XSize=74.93mil|YSize=55.24mil|CornerRadius=0mil|HoleSize=0mil|Usage=FLASHONLY|Rotation=151.000|XOffset=0mil|YOffset=0mil|HoleType=Round|Shape=Rectangle|*
%AMROTATEDRECTD91*
4,1,4,0.04616,0.00600,0.01938,-0.04232,-0.04616,-0.00600,-0.01938,0.04232,0.04616,0.00600,0.0*
%
%ADD91ROTATEDRECTD91*%

%ADD92R,0.02178X0.03950*%
%ADD93R,0.02670X0.01784*%
%ADD94R,0.01784X0.02670*%
%ADD95R,0.08871X0.08871*%
%ADD96R,0.15367X0.04658*%
%ADD97R,0.17729X0.07099*%
%ADD98R,0.13398X0.04737*%
%ADD99R,0.03950X0.04343*%
%ADD100R,0.05524X0.04343*%
%ADD101R,0.03241X0.03398*%
%ADD102R,0.03398X0.03241*%
%ADD103C,0.02769*%
%ADD104C,0.02600*%
G36*
X36252Y57497D02*
X36304Y57487D01*
X36353Y57470D01*
X36400Y57447D01*
X36444Y57418D01*
X36483Y57384D01*
X36518Y57344D01*
X36547Y57300D01*
X36570Y57253D01*
X36587Y57204D01*
X36597Y57152D01*
X36601Y57100D01*
X36601Y52850D01*
X36599Y52826D01*
X36598Y52802D01*
X36598Y52800D01*
X36597Y52798D01*
X36593Y52774D01*
X36588Y52750D01*
X36588Y52748D01*
X36587Y52746D01*
X36579Y52723D01*
X36572Y52701D01*
X36571Y52699D01*
X36570Y52697D01*
X36560Y52675D01*
X36549Y52653D01*
X36548Y52652D01*
X36547Y52650D01*
X36534Y52630D01*
X36521Y52609D01*
X36519Y52608D01*
X36518Y52606D01*
X36503Y52588D01*
X36487Y52570D01*
X36485Y52568D01*
X36483Y52567D01*
X36466Y52551D01*
X36448Y52535D01*
X36446Y52533D01*
X36444Y52532D01*
X36425Y52519D01*
X36404Y52505D01*
X36402Y52504D01*
X36400Y52503D01*
X36380Y52492D01*
X36358Y52481D01*
X36355Y52481D01*
X36353Y52480D01*
X36331Y52472D01*
X36308Y52464D01*
X36306Y52464D01*
X36304Y52463D01*
X36280Y52458D01*
X36257Y52453D01*
X36255Y52453D01*
X36252Y52453D01*
X36229Y52451D01*
X36204Y52449D01*
X36202Y52449D01*
X36200Y52449D01*
X36176Y52451D01*
X36152Y52452D01*
X36150Y52452D01*
X36148Y52453D01*
X36124Y52457D01*
X36101Y52462D01*
X36098Y52462D01*
X36096Y52463D01*
X36073Y52471D01*
X36051Y52478D01*
X36049Y52479D01*
X36047Y52480D01*
X36025Y52490D01*
X36003Y52501D01*
X36002Y52502D01*
X36000Y52503D01*
X35980Y52516D01*
X35960Y52529D01*
X33959Y54029D01*
X33958Y54031D01*
X33956Y54032D01*
X33937Y54048D01*
X33920Y54063D01*
X33918Y54065D01*
X33917Y54066D01*
X33901Y54084D01*
X33885Y54102D01*
X33883Y54104D01*
X33882Y54106D01*
X33869Y54125D01*
X33855Y54146D01*
X33854Y54148D01*
X33853Y54150D01*
X33842Y54171D01*
X33831Y54193D01*
X33831Y54195D01*
X33830Y54197D01*
X33822Y54219D01*
X33814Y54242D01*
X33814Y54244D01*
X33813Y54246D01*
X33808Y54269D01*
X33803Y54293D01*
X33803Y54295D01*
X33803Y54298D01*
X33801Y54322D01*
X33799Y54346D01*
X33799Y54348D01*
X33799Y54350D01*
X33799Y56100D01*
X33803Y56152D01*
X33813Y56204D01*
X33830Y56253D01*
X33841Y56277D01*
X33853Y56300D01*
X33863Y56315D01*
X33882Y56344D01*
X33917Y56384D01*
X34917Y57384D01*
X34956Y57418D01*
X35000Y57447D01*
X35047Y57470D01*
X35096Y57487D01*
X35148Y57497D01*
X35200Y57501D01*
X36200D01*
X36252Y57497D01*
D02*
G37*
G36*
X39752Y57497D02*
X39804Y57487D01*
X39853Y57470D01*
X39900Y57447D01*
X39944Y57418D01*
X39983Y57384D01*
X40983Y56384D01*
X41018Y56344D01*
X41028Y56330D01*
X41047Y56300D01*
X41070Y56253D01*
X41087Y56204D01*
X41097Y56152D01*
X41101Y56100D01*
X41101Y54350D01*
X41101Y54348D01*
X41101Y54346D01*
X41099Y54322D01*
X41097Y54298D01*
X41097Y54295D01*
X41097Y54293D01*
X41092Y54269D01*
X41087Y54246D01*
X41087Y54244D01*
X41086Y54242D01*
X41078Y54219D01*
X41070Y54197D01*
X41069Y54195D01*
X41069Y54193D01*
X41058Y54171D01*
X41047Y54150D01*
X41046Y54148D01*
X41045Y54146D01*
X41031Y54125D01*
X41018Y54106D01*
X41017Y54104D01*
X41015Y54102D01*
X40999Y54085D01*
X40984Y54066D01*
X40982Y54065D01*
X40980Y54063D01*
X40962Y54048D01*
X40944Y54032D01*
X40942Y54031D01*
X40940Y54029D01*
X38941Y52529D01*
X38920Y52516D01*
X38901Y52503D01*
X38899Y52502D01*
X38897Y52501D01*
X38875Y52490D01*
X38853Y52480D01*
X38851Y52479D01*
X38849Y52478D01*
X38827Y52470D01*
X38804Y52463D01*
X38802Y52462D01*
X38800Y52462D01*
X38776Y52457D01*
X38752Y52452D01*
X38750Y52452D01*
X38748Y52452D01*
X38724Y52451D01*
X38700Y52449D01*
X38698Y52449D01*
X38696Y52449D01*
X38671Y52451D01*
X38648Y52452D01*
X38645Y52453D01*
X38643Y52453D01*
X38620Y52458D01*
X38596Y52463D01*
X38594Y52464D01*
X38592Y52464D01*
X38569Y52472D01*
X38547Y52480D01*
X38545Y52481D01*
X38543Y52481D01*
X38521Y52492D01*
X38500Y52503D01*
X38498Y52504D01*
X38496Y52505D01*
X38476Y52519D01*
X38456Y52532D01*
X38454Y52533D01*
X38453Y52535D01*
X38434Y52551D01*
X38417Y52566D01*
X38415Y52568D01*
X38414Y52570D01*
X38398Y52588D01*
X38382Y52606D01*
X38381Y52608D01*
X38379Y52609D01*
X38366Y52630D01*
X38353Y52649D01*
X38352Y52652D01*
X38351Y52653D01*
X38340Y52675D01*
X38330Y52697D01*
X38329Y52699D01*
X38328Y52701D01*
X38320Y52723D01*
X38313Y52746D01*
X38312Y52748D01*
X38312Y52750D01*
X38307Y52774D01*
X38303Y52798D01*
X38302Y52800D01*
X38302Y52802D01*
X38301Y52826D01*
X38299Y52850D01*
X38299Y57100D01*
X38303Y57152D01*
X38313Y57204D01*
X38330Y57253D01*
X38353Y57300D01*
X38382Y57344D01*
X38416Y57384D01*
X38456Y57418D01*
X38500Y57447D01*
X38547Y57470D01*
X38596Y57487D01*
X38648Y57497D01*
X38700Y57501D01*
X39700Y57501D01*
X39752Y57497D01*
D02*
G37*
G36*
X42145Y49618D02*
X42196Y49608D01*
X42246Y49591D01*
X42293Y49568D01*
X42322Y49549D01*
X42336Y49539D01*
X42376Y49504D01*
Y49504D01*
X42376D01*
X42410Y49465D01*
X42420Y49450D01*
X42439Y49421D01*
X42463Y49374D01*
X42480Y49325D01*
X42490Y49273D01*
X42493Y49221D01*
X42493Y44971D01*
X42492Y44947D01*
X42490Y44923D01*
X42490Y44921D01*
X42490Y44918D01*
X42485Y44895D01*
X42481Y44871D01*
X42480Y44869D01*
X42480Y44867D01*
X42472Y44844D01*
X42465Y44821D01*
X42463Y44819D01*
X42463Y44817D01*
X42452Y44796D01*
X42442Y44774D01*
X42441Y44772D01*
X42440Y44770D01*
X42426Y44751D01*
X42413Y44730D01*
X42412Y44728D01*
X42410Y44727D01*
X42395Y44709D01*
X42379Y44690D01*
X42377Y44689D01*
X42376Y44687D01*
X42358Y44672D01*
X42340Y44655D01*
X42338Y44654D01*
X42336Y44653D01*
X42317Y44640D01*
X42297Y44626D01*
X42295Y44625D01*
X42293Y44624D01*
X42271Y44613D01*
X42250Y44602D01*
X42248Y44601D01*
X42246Y44600D01*
X42223Y44592D01*
X42200Y44585D01*
X42198Y44584D01*
X42196Y44583D01*
X42173Y44579D01*
X42149Y44574D01*
X42147Y44574D01*
X42145Y44573D01*
X42121Y44572D01*
X42097Y44570D01*
X42095Y44570D01*
X42092Y44570D01*
X42069Y44571D01*
X42044Y44573D01*
X42042Y44573D01*
X42040Y44573D01*
X42017Y44578D01*
X41993Y44582D01*
X41991Y44583D01*
X41989Y44583D01*
X41966Y44591D01*
X41943Y44599D01*
X41941Y44600D01*
X41939Y44600D01*
X41918Y44611D01*
X41896Y44621D01*
X41894Y44623D01*
X41892Y44624D01*
X41872Y44637D01*
X41852Y44650D01*
X39852Y46150D01*
X39850Y46152D01*
X39848Y46153D01*
X39830Y46169D01*
X39812Y46184D01*
X39811Y46186D01*
X39809Y46187D01*
X39793Y46205D01*
X39777Y46223D01*
X39776Y46225D01*
X39774Y46227D01*
X39761Y46246D01*
X39747Y46266D01*
X39746Y46268D01*
X39745Y46270D01*
X39735Y46292D01*
X39724Y46313D01*
X39723Y46315D01*
X39722Y46317D01*
X39714Y46341D01*
X39706Y46363D01*
X39706Y46365D01*
X39705Y46367D01*
X39700Y46391D01*
X39696Y46414D01*
X39695Y46416D01*
X39695Y46418D01*
X39693Y46443D01*
X39692Y46466D01*
X39692Y46468D01*
X39691Y46471D01*
X39691Y48221D01*
X39695Y48273D01*
X39705Y48324D01*
X39722Y48374D01*
X39745Y48420D01*
X39745Y48421D01*
D01*
X39745Y48421D01*
X39760Y48443D01*
X39774Y48465D01*
X39809Y48504D01*
X40809Y49504D01*
X40809D01*
Y49504D01*
X40848Y49539D01*
X40863Y49549D01*
X40892Y49568D01*
X40938Y49591D01*
X40939Y49591D01*
X40989Y49608D01*
X41030Y49616D01*
X41040Y49618D01*
X41092Y49622D01*
X41092D01*
X41092D01*
X42092D01*
X42145Y49618D01*
D02*
G37*
G36*
X45645Y49618D02*
X45696Y49608D01*
X45746Y49591D01*
X45793Y49568D01*
X45836Y49539D01*
X45876Y49504D01*
X46876Y48504D01*
D01*
D01*
X46876Y48504D01*
X46910Y48465D01*
X46920Y48450D01*
X46940Y48421D01*
X46963Y48374D01*
X46980Y48325D01*
X46990Y48273D01*
X46993Y48221D01*
X46993Y46471D01*
X46993Y46468D01*
X46993Y46466D01*
X46991Y46443D01*
X46990Y46418D01*
X46989Y46416D01*
X46989Y46414D01*
X46984Y46390D01*
X46980Y46367D01*
X46979Y46365D01*
X46978Y46363D01*
X46970Y46340D01*
X46963Y46317D01*
X46962Y46315D01*
X46961Y46313D01*
X46950Y46292D01*
X46940Y46270D01*
X46938Y46268D01*
X46937Y46266D01*
X46924Y46246D01*
X46910Y46227D01*
X46909Y46225D01*
X46908Y46223D01*
X46892Y46205D01*
X46876Y46187D01*
X46874Y46186D01*
X46873Y46184D01*
X46854Y46169D01*
X46836Y46153D01*
X46835Y46152D01*
X46833Y46150D01*
X44833Y44650D01*
X44812Y44637D01*
X44793Y44624D01*
X44791Y44623D01*
X44789Y44621D01*
X44767Y44611D01*
X44746Y44600D01*
X44744Y44600D01*
X44742Y44599D01*
X44719Y44591D01*
X44696Y44583D01*
X44694Y44583D01*
X44692Y44582D01*
X44668Y44578D01*
X44645Y44573D01*
X44642Y44573D01*
X44640Y44573D01*
X44617Y44572D01*
X44592Y44570D01*
X44590Y44570D01*
X44588Y44570D01*
X44564Y44572D01*
X44540Y44573D01*
X44538Y44574D01*
X44536Y44574D01*
X44512Y44579D01*
X44489Y44583D01*
X44486Y44584D01*
X44484Y44585D01*
X44462Y44592D01*
X44439Y44600D01*
X44437Y44601D01*
X44435Y44602D01*
X44414Y44613D01*
X44392Y44624D01*
X44390Y44625D01*
X44388Y44626D01*
X44368Y44640D01*
X44348Y44653D01*
X44347Y44654D01*
X44345Y44655D01*
X44327Y44671D01*
X44309Y44687D01*
X44307Y44689D01*
X44306Y44690D01*
X44290Y44708D01*
X44274Y44727D01*
X44273Y44728D01*
X44272Y44730D01*
X44259Y44750D01*
X44245Y44770D01*
X44244Y44772D01*
X44243Y44774D01*
X44233Y44796D01*
X44222Y44817D01*
X44221Y44820D01*
X44220Y44821D01*
X44213Y44844D01*
X44205Y44867D01*
X44205Y44869D01*
X44204Y44871D01*
X44200Y44895D01*
X44195Y44918D01*
X44195Y44921D01*
X44194Y44923D01*
X44193Y44946D01*
X44192Y44971D01*
X44192Y49221D01*
X44195Y49273D01*
X44205Y49325D01*
X44222Y49374D01*
X44245Y49421D01*
X44274Y49465D01*
X44309Y49504D01*
X44348Y49539D01*
X44392Y49568D01*
X44439Y49591D01*
X44489Y49608D01*
X44540Y49618D01*
X44592Y49622D01*
X45592D01*
X45645Y49618D01*
D02*
G37*
G36*
X56405Y10051D02*
X53768D01*
X53442Y10186D01*
X53193Y10435D01*
X53058Y10761D01*
Y10937D01*
Y11113D01*
X53193Y11439D01*
X53442Y11688D01*
X53768Y11823D01*
X53944D01*
X53944Y11823D01*
X56405Y11823D01*
X56405Y10051D01*
D02*
G37*
G36*
X44603Y11688D02*
X44853Y11439D01*
X44987Y11113D01*
Y10937D01*
Y10761D01*
X44853Y10435D01*
X44603Y10186D01*
X44278Y10051D01*
X44102D01*
X44102Y10051D01*
X41641Y10051D01*
X41641Y11823D01*
X44102Y11823D01*
X44278D01*
X44603Y11688D01*
D02*
G37*
G36*
X25863Y7673D02*
X25916Y7669D01*
X25967Y7659D01*
X26017Y7642D01*
X26062Y7620D01*
X26064Y7619D01*
D01*
X26064Y7619D01*
X26085Y7604D01*
X26107Y7590D01*
X26147Y7555D01*
X27147Y6555D01*
X27176Y6521D01*
X27181Y6516D01*
X27210Y6472D01*
X27233Y6425D01*
X27242Y6401D01*
X27250Y6376D01*
X27261Y6324D01*
X27264Y6272D01*
Y6272D01*
Y6272D01*
X27264Y5272D01*
X27261Y5220D01*
X27250Y5168D01*
X27233Y5119D01*
X27222Y5095D01*
X27210Y5071D01*
X27181Y5028D01*
X27147Y4989D01*
X27147D01*
Y4989D01*
X27107Y4954D01*
X27064Y4925D01*
X27040Y4913D01*
X27016Y4902D01*
X26967Y4885D01*
X26915Y4874D01*
X26863Y4871D01*
X22613Y4871D01*
X22589Y4873D01*
X22565Y4874D01*
X22563Y4874D01*
X22561Y4874D01*
X22537Y4879D01*
X22514Y4884D01*
X22512Y4884D01*
X22509Y4885D01*
X22487Y4892D01*
X22464Y4900D01*
X22462Y4901D01*
X22460Y4902D01*
X22438Y4912D01*
X22416Y4923D01*
X22415Y4924D01*
X22413Y4925D01*
X22393Y4938D01*
X22373Y4951D01*
X22371Y4953D01*
X22369Y4954D01*
X22351Y4970D01*
X22333Y4985D01*
X22331Y4987D01*
X22330Y4989D01*
X22314Y5006D01*
X22298Y5024D01*
X22297Y5026D01*
X22295Y5028D01*
X22282Y5048D01*
X22268Y5068D01*
X22267Y5070D01*
X22266Y5071D01*
X22255Y5093D01*
X22244Y5114D01*
X22244Y5116D01*
X22243Y5119D01*
X22235Y5141D01*
X22227Y5164D01*
X22227Y5166D01*
X22226Y5168D01*
X22221Y5192D01*
X22216Y5215D01*
X22216Y5217D01*
X22216Y5220D01*
X22214Y5243D01*
X22212Y5268D01*
X22212Y5270D01*
X22212Y5272D01*
X22214Y5296D01*
X22215Y5320D01*
X22216Y5322D01*
X22216Y5324D01*
X22220Y5348D01*
X22225Y5371D01*
X22226Y5373D01*
X22226Y5376D01*
X22234Y5398D01*
X22241Y5421D01*
X22242Y5423D01*
X22243Y5425D01*
X22253Y5447D01*
X22264Y5469D01*
X22265Y5470D01*
X22266Y5472D01*
X22279Y5492D01*
X22292Y5512D01*
X23792Y7513D01*
X23794Y7514D01*
X23795Y7516D01*
X23811Y7534D01*
X23827Y7552D01*
X23828Y7554D01*
X23830Y7555D01*
X23848Y7571D01*
X23866Y7587D01*
X23867Y7588D01*
X23869Y7590D01*
X23889Y7603D01*
X23909Y7617D01*
X23911Y7618D01*
X23913Y7619D01*
X23934Y7630D01*
X23956Y7641D01*
X23958Y7641D01*
X23960Y7642D01*
X23982Y7650D01*
X24005Y7658D01*
X24007Y7659D01*
X24009Y7659D01*
X24033Y7664D01*
X24057Y7669D01*
X24059Y7669D01*
X24061Y7669D01*
X24085Y7671D01*
X24109Y7673D01*
X24111Y7673D01*
X24113Y7673D01*
X25863Y7673D01*
D02*
G37*
G36*
X44603Y7751D02*
X44853Y7502D01*
X44987Y7176D01*
Y7000D01*
Y6824D01*
X44853Y6498D01*
X44603Y6249D01*
X44278Y6114D01*
X44102D01*
X44102Y6114D01*
X41641Y6114D01*
Y7886D01*
X44102Y7886D01*
X44278D01*
X44603Y7751D01*
D02*
G37*
G36*
X56405Y7886D02*
X56405Y6114D01*
X53944Y6114D01*
X53768D01*
X53442Y6249D01*
X53193Y6498D01*
X53058Y6824D01*
Y7000D01*
Y7176D01*
X53193Y7502D01*
X53442Y7751D01*
X53768Y7886D01*
X53944D01*
X53944Y7886D01*
X56405Y7886D01*
D02*
G37*
G36*
X26915Y3169D02*
X26967Y3159D01*
X27016Y3142D01*
X27064Y3119D01*
X27107Y3090D01*
X27142Y3060D01*
X27147Y3055D01*
Y3055D01*
X27147D01*
X27151Y3051D01*
X27181Y3016D01*
X27210Y2972D01*
X27233Y2925D01*
X27250Y2876D01*
X27261Y2824D01*
X27264Y2772D01*
X27264Y1772D01*
X27261Y1720D01*
X27250Y1668D01*
X27233Y1619D01*
X27210Y1572D01*
X27181Y1528D01*
X27147Y1488D01*
X26147Y489D01*
X26107Y454D01*
X26064Y425D01*
X26017Y402D01*
X25967Y385D01*
X25916Y375D01*
X25863Y371D01*
X25863D01*
D01*
X24113Y371D01*
X24111Y371D01*
X24109Y371D01*
X24085Y373D01*
X24061Y375D01*
X24059Y375D01*
X24056Y375D01*
X24033Y380D01*
X24009Y385D01*
X24007Y385D01*
X24005Y386D01*
X23983Y394D01*
X23960Y402D01*
X23958Y403D01*
X23956Y403D01*
X23934Y414D01*
X23913Y425D01*
X23911Y426D01*
X23909Y427D01*
X23889Y441D01*
X23869Y454D01*
X23867Y455D01*
X23866Y457D01*
X23848Y473D01*
X23830Y489D01*
X23828Y490D01*
X23827Y492D01*
X23811Y510D01*
X23795Y528D01*
X23794Y530D01*
X23792Y531D01*
X22293Y2531D01*
X22279Y2552D01*
X22266Y2572D01*
X22265Y2573D01*
X22264Y2575D01*
X22253Y2597D01*
X22243Y2619D01*
X22242Y2621D01*
X22241Y2623D01*
X22234Y2645D01*
X22226Y2668D01*
X22226Y2670D01*
X22225Y2672D01*
X22220Y2696D01*
X22216Y2720D01*
X22216Y2722D01*
X22215Y2724D01*
X22214Y2748D01*
X22212Y2772D01*
X22212Y2774D01*
X22212Y2776D01*
X22214Y2800D01*
X22216Y2824D01*
X22216Y2826D01*
X22216Y2829D01*
X22221Y2852D01*
X22226Y2876D01*
X22227Y2878D01*
X22227Y2880D01*
X22235Y2902D01*
X22243Y2925D01*
X22244Y2927D01*
X22245Y2929D01*
X22255Y2951D01*
X22266Y2972D01*
X22267Y2974D01*
X22268Y2976D01*
X22282Y2996D01*
X22295Y3016D01*
X22297Y3018D01*
X22298Y3019D01*
X22314Y3037D01*
X22330Y3055D01*
X22331Y3057D01*
X22333Y3059D01*
X22351Y3074D01*
X22369Y3090D01*
X22371Y3091D01*
X22373Y3093D01*
X22393Y3106D01*
X22413Y3119D01*
X22415Y3120D01*
X22417Y3121D01*
X22438Y3131D01*
X22460Y3142D01*
X22462Y3143D01*
X22464Y3144D01*
X22486Y3151D01*
X22510Y3159D01*
X22512Y3160D01*
X22514Y3160D01*
X22537Y3165D01*
X22561Y3169D01*
X22563Y3170D01*
X22565Y3170D01*
X22589Y3171D01*
X22613Y3173D01*
X26863Y3173D01*
D01*
D01*
X26863D01*
X26915Y3169D01*
D02*
G37*
G36*
X44603Y3814D02*
X44853Y3565D01*
X44987Y3239D01*
Y3063D01*
Y2887D01*
X44853Y2561D01*
X44603Y2312D01*
X44278Y2177D01*
X44102D01*
Y2177D01*
X41641Y2177D01*
X41641Y3949D01*
X44278D01*
X44603Y3814D01*
D02*
G37*
G36*
X56405Y3949D02*
X56405Y2177D01*
X53944Y2177D01*
X53768D01*
X53442Y2312D01*
X53193Y2561D01*
X53058Y2887D01*
Y3063D01*
Y3239D01*
X53193Y3565D01*
X53442Y3814D01*
X53768Y3949D01*
X53944D01*
X56405Y3949D01*
D02*
G37*
G36*
X-7060Y-31314D02*
X-7009Y-31325D01*
X-6959Y-31341D01*
X-6912Y-31365D01*
X-6869Y-31394D01*
X-6829Y-31428D01*
X-6795Y-31468D01*
X-6765Y-31511D01*
X-6742Y-31558D01*
X-6725Y-31608D01*
X-6715Y-31659D01*
X-6712Y-31712D01*
Y-32814D01*
X-6715Y-32866D01*
X-6725Y-32918D01*
X-6742Y-32968D01*
X-6765Y-33015D01*
X-6795Y-33058D01*
X-6829Y-33098D01*
X-6869Y-33132D01*
X-6912Y-33161D01*
X-6959Y-33184D01*
X-7009Y-33201D01*
X-7060Y-33212D01*
X-7113Y-33215D01*
X-10018D01*
X-10070Y-33212D01*
X-10121Y-33201D01*
X-10171Y-33184D01*
X-10373Y-33101D01*
X-10373Y-33101D01*
X-10397Y-33089D01*
X-10420Y-33077D01*
X-10464Y-33048D01*
X-10503Y-33014D01*
X-10504Y-33014D01*
X-10659Y-32859D01*
X-10659Y-32859D01*
X-10693Y-32819D01*
X-10722Y-32776D01*
X-10746Y-32729D01*
X-10829Y-32526D01*
X-10846Y-32476D01*
X-10857Y-32425D01*
X-10860Y-32373D01*
Y-32263D01*
Y-32153D01*
X-10857Y-32101D01*
X-10846Y-32050D01*
X-10829Y-32000D01*
X-10746Y-31797D01*
X-10746Y-31797D01*
X-10734Y-31774D01*
X-10722Y-31750D01*
X-10693Y-31707D01*
X-10659Y-31667D01*
X-10659Y-31667D01*
X-10503Y-31512D01*
X-10464Y-31478D01*
X-10450Y-31468D01*
X-10420Y-31449D01*
X-10373Y-31425D01*
X-10171Y-31341D01*
X-10171Y-31341D01*
X-10121Y-31325D01*
X-10090Y-31319D01*
X-10070Y-31314D01*
X-10018Y-31311D01*
X-10018D01*
X-10018D01*
X-7113D01*
X-7060Y-31314D01*
D02*
G37*
G36*
X-21084D02*
X-21033Y-31325D01*
X-20999Y-31336D01*
X-20983Y-31341D01*
X-20983Y-31341D01*
X-20781Y-31425D01*
X-20781Y-31425D01*
X-20749Y-31441D01*
X-20734Y-31449D01*
X-20690Y-31478D01*
X-20651Y-31512D01*
X-20651Y-31512D01*
X-20496Y-31667D01*
X-20461Y-31707D01*
X-20451Y-31721D01*
X-20432Y-31750D01*
X-20409Y-31797D01*
X-20325Y-32000D01*
X-20325Y-32000D01*
X-20308Y-32050D01*
X-20302Y-32081D01*
X-20298Y-32101D01*
X-20294Y-32153D01*
Y-32153D01*
Y-32153D01*
Y-32263D01*
Y-32373D01*
Y-32373D01*
Y-32373D01*
X-20298Y-32425D01*
X-20308Y-32476D01*
X-20320Y-32510D01*
X-20325Y-32526D01*
X-20325Y-32526D01*
X-20409Y-32728D01*
X-20409Y-32729D01*
X-20424Y-32760D01*
X-20432Y-32776D01*
X-20461Y-32819D01*
X-20496Y-32859D01*
X-20496Y-32859D01*
X-20651Y-33014D01*
X-20651Y-33014D01*
X-20690Y-33048D01*
X-20734Y-33077D01*
X-20781Y-33101D01*
X-20983Y-33184D01*
X-21033Y-33201D01*
X-21084Y-33212D01*
X-21137Y-33215D01*
X-24042D01*
X-24094Y-33212D01*
X-24146Y-33201D01*
X-24195Y-33184D01*
X-24242Y-33161D01*
X-24286Y-33132D01*
X-24325Y-33098D01*
X-24360Y-33058D01*
X-24389Y-33015D01*
X-24412Y-32968D01*
X-24429Y-32918D01*
X-24439Y-32866D01*
X-24443Y-32814D01*
Y-31712D01*
X-24439Y-31659D01*
X-24429Y-31608D01*
X-24412Y-31558D01*
X-24389Y-31511D01*
X-24360Y-31468D01*
X-24325Y-31428D01*
X-24286Y-31394D01*
X-24242Y-31365D01*
X-24195Y-31341D01*
X-24146Y-31325D01*
X-24094Y-31314D01*
X-24042Y-31311D01*
X-21137D01*
X-21137D01*
X-21137D01*
X-21084Y-31314D01*
D02*
G37*
G36*
X-11037Y-27338D02*
X-10985Y-27348D01*
X-10936Y-27365D01*
X-10888Y-27388D01*
X-10845Y-27417D01*
X-10806Y-27452D01*
X-10771Y-27491D01*
X-10742Y-27535D01*
X-10719Y-27582D01*
X-10702Y-27632D01*
X-10691Y-27683D01*
X-10688Y-27735D01*
Y-30531D01*
Y-30640D01*
Y-30640D01*
Y-30640D01*
X-10691Y-30693D01*
X-10702Y-30744D01*
X-10713Y-30778D01*
X-10719Y-30794D01*
X-10719Y-30794D01*
X-10802Y-30996D01*
X-10802Y-30996D01*
X-10818Y-31028D01*
X-10826Y-31043D01*
X-10855Y-31087D01*
X-10889Y-31126D01*
X-10889Y-31126D01*
X-11044Y-31281D01*
X-11045Y-31281D01*
X-11084Y-31316D01*
X-11128Y-31345D01*
X-11174Y-31368D01*
X-11377Y-31452D01*
X-11427Y-31469D01*
X-11478Y-31479D01*
X-11530Y-31483D01*
X-11750D01*
X-11802Y-31479D01*
X-11853Y-31469D01*
X-11903Y-31452D01*
X-12106Y-31368D01*
X-12106Y-31368D01*
X-12129Y-31357D01*
X-12153Y-31345D01*
X-12196Y-31316D01*
X-12236Y-31281D01*
X-12236Y-31281D01*
X-12391Y-31126D01*
X-12391Y-31126D01*
X-12425Y-31087D01*
X-12455Y-31043D01*
X-12478Y-30996D01*
X-12562Y-30794D01*
X-12578Y-30744D01*
X-12589Y-30693D01*
X-12592Y-30640D01*
Y-30531D01*
Y-27735D01*
X-12589Y-27683D01*
X-12578Y-27632D01*
X-12562Y-27582D01*
X-12539Y-27535D01*
X-12509Y-27491D01*
X-12475Y-27452D01*
X-12435Y-27417D01*
X-12392Y-27388D01*
X-12345Y-27365D01*
X-12295Y-27348D01*
X-12244Y-27338D01*
X-12191Y-27335D01*
X-11089D01*
X-11037Y-27338D01*
D02*
G37*
G36*
X-13005D02*
X-12954Y-27348D01*
X-12904Y-27365D01*
X-12857Y-27388D01*
X-12813Y-27417D01*
X-12774Y-27452D01*
X-12739Y-27491D01*
X-12710Y-27535D01*
X-12687Y-27582D01*
X-12670Y-27632D01*
X-12660Y-27683D01*
X-12657Y-27735D01*
X-12657Y-30531D01*
Y-30640D01*
Y-30640D01*
Y-30640D01*
X-12660Y-30693D01*
X-12670Y-30744D01*
X-12682Y-30778D01*
X-12687Y-30794D01*
X-12687Y-30794D01*
X-12771Y-30996D01*
X-12771Y-30996D01*
X-12787Y-31028D01*
X-12794Y-31043D01*
X-12823Y-31087D01*
X-12858Y-31126D01*
X-12858Y-31126D01*
X-13013Y-31281D01*
X-13013Y-31281D01*
X-13052Y-31316D01*
X-13096Y-31345D01*
X-13143Y-31368D01*
X-13346Y-31452D01*
X-13395Y-31469D01*
X-13447Y-31479D01*
X-13499Y-31483D01*
X-13718D01*
X-13771Y-31479D01*
X-13822Y-31469D01*
X-13872Y-31452D01*
X-14074Y-31368D01*
X-14074Y-31368D01*
X-14097Y-31357D01*
X-14121Y-31345D01*
X-14165Y-31316D01*
X-14204Y-31281D01*
X-14204Y-31281D01*
X-14359Y-31126D01*
X-14359Y-31126D01*
X-14394Y-31087D01*
X-14423Y-31043D01*
X-14446Y-30996D01*
X-14530Y-30794D01*
X-14547Y-30744D01*
X-14557Y-30693D01*
X-14561Y-30640D01*
Y-30531D01*
Y-27735D01*
X-14557Y-27683D01*
X-14547Y-27632D01*
X-14530Y-27582D01*
X-14507Y-27535D01*
X-14478Y-27491D01*
X-14443Y-27452D01*
X-14404Y-27417D01*
X-14360Y-27388D01*
X-14313Y-27365D01*
X-14264Y-27348D01*
X-14212Y-27338D01*
X-14160Y-27335D01*
X-13058D01*
X-13005Y-27338D01*
D02*
G37*
G36*
X-14974D02*
X-14922Y-27348D01*
X-14873Y-27365D01*
X-14826Y-27388D01*
X-14782Y-27417D01*
X-14742Y-27452D01*
X-14708Y-27491D01*
X-14679Y-27535D01*
X-14656Y-27582D01*
X-14639Y-27632D01*
X-14628Y-27683D01*
X-14625Y-27735D01*
Y-30531D01*
Y-30640D01*
Y-30640D01*
Y-30640D01*
X-14628Y-30693D01*
X-14639Y-30744D01*
X-14650Y-30778D01*
X-14656Y-30794D01*
X-14656Y-30794D01*
X-14739Y-30996D01*
X-14739Y-30996D01*
X-14755Y-31028D01*
X-14763Y-31043D01*
X-14792Y-31087D01*
X-14826Y-31126D01*
X-14827Y-31126D01*
X-14981Y-31281D01*
X-14981Y-31281D01*
X-15021Y-31316D01*
X-15065Y-31345D01*
X-15112Y-31368D01*
X-15314Y-31452D01*
X-15364Y-31469D01*
X-15415Y-31479D01*
X-15468Y-31483D01*
X-15687D01*
X-15739Y-31479D01*
X-15790Y-31469D01*
X-15840Y-31452D01*
X-16043Y-31368D01*
X-16043Y-31368D01*
X-16066Y-31357D01*
X-16090Y-31345D01*
X-16133Y-31316D01*
X-16173Y-31281D01*
X-16173Y-31281D01*
X-16328Y-31126D01*
X-16328Y-31126D01*
X-16362Y-31087D01*
X-16392Y-31043D01*
X-16415Y-30996D01*
X-16499Y-30794D01*
X-16515Y-30744D01*
X-16526Y-30693D01*
X-16529Y-30640D01*
Y-30531D01*
Y-27735D01*
X-16526Y-27683D01*
X-16515Y-27632D01*
X-16499Y-27582D01*
X-16476Y-27535D01*
X-16446Y-27491D01*
X-16412Y-27452D01*
X-16372Y-27417D01*
X-16329Y-27388D01*
X-16282Y-27365D01*
X-16232Y-27348D01*
X-16181Y-27338D01*
X-16128Y-27335D01*
X-15026D01*
X-14974Y-27338D01*
D02*
G37*
G36*
X-16942D02*
X-16891Y-27348D01*
X-16841Y-27365D01*
X-16794Y-27388D01*
X-16750Y-27417D01*
X-16711Y-27452D01*
X-16676Y-27491D01*
X-16647Y-27535D01*
X-16624Y-27582D01*
X-16607Y-27632D01*
X-16597Y-27683D01*
X-16594Y-27735D01*
Y-30531D01*
Y-30640D01*
Y-30640D01*
Y-30640D01*
X-16597Y-30693D01*
X-16607Y-30744D01*
X-16619Y-30778D01*
X-16624Y-30794D01*
X-16624Y-30794D01*
X-16708Y-30996D01*
X-16708Y-30996D01*
X-16724Y-31028D01*
X-16731Y-31043D01*
X-16760Y-31087D01*
X-16795Y-31126D01*
X-16795Y-31126D01*
X-16950Y-31281D01*
X-16950Y-31281D01*
X-16989Y-31316D01*
X-17033Y-31345D01*
X-17080Y-31368D01*
X-17283Y-31452D01*
X-17332Y-31469D01*
X-17384Y-31479D01*
X-17436Y-31483D01*
X-17655D01*
X-17708Y-31479D01*
X-17759Y-31469D01*
X-17809Y-31452D01*
X-18011Y-31368D01*
X-18011Y-31368D01*
X-18034Y-31357D01*
X-18058Y-31345D01*
X-18102Y-31316D01*
X-18141Y-31281D01*
X-18141Y-31281D01*
X-18296Y-31126D01*
X-18296Y-31126D01*
X-18331Y-31087D01*
X-18360Y-31043D01*
X-18383Y-30996D01*
X-18467Y-30794D01*
X-18484Y-30744D01*
X-18494Y-30693D01*
X-18498Y-30640D01*
Y-30531D01*
X-18498Y-30531D01*
Y-27735D01*
X-18494Y-27683D01*
X-18484Y-27632D01*
X-18467Y-27582D01*
X-18444Y-27535D01*
X-18415Y-27491D01*
X-18380Y-27452D01*
X-18341Y-27417D01*
X-18297Y-27388D01*
X-18250Y-27365D01*
X-18201Y-27348D01*
X-18149Y-27338D01*
X-18097Y-27335D01*
X-16995D01*
X-16942Y-27338D01*
D02*
G37*
G36*
X-18911D02*
X-18859Y-27348D01*
X-18810Y-27365D01*
X-18763Y-27388D01*
X-18719Y-27417D01*
X-18679Y-27452D01*
X-18645Y-27491D01*
X-18616Y-27535D01*
X-18593Y-27582D01*
X-18576Y-27632D01*
X-18565Y-27683D01*
X-18562Y-27735D01*
Y-30531D01*
Y-30640D01*
Y-30640D01*
Y-30640D01*
X-18565Y-30693D01*
X-18576Y-30744D01*
X-18587Y-30778D01*
X-18593Y-30794D01*
X-18593Y-30794D01*
X-18677Y-30996D01*
X-18677Y-30996D01*
X-18692Y-31028D01*
X-18700Y-31043D01*
X-18729Y-31087D01*
X-18764Y-31126D01*
X-18764Y-31126D01*
X-18918Y-31281D01*
X-18918Y-31281D01*
X-18958Y-31316D01*
X-19002Y-31345D01*
X-19049Y-31368D01*
X-19251Y-31452D01*
X-19301Y-31469D01*
X-19352Y-31479D01*
X-19405Y-31483D01*
X-19624D01*
X-19676Y-31479D01*
X-19727Y-31469D01*
X-19777Y-31452D01*
X-19980Y-31368D01*
X-19980Y-31368D01*
X-20003Y-31357D01*
X-20027Y-31345D01*
X-20070Y-31316D01*
X-20110Y-31281D01*
X-20110Y-31281D01*
X-20265Y-31126D01*
X-20265Y-31126D01*
X-20299Y-31087D01*
X-20329Y-31043D01*
X-20352Y-30996D01*
X-20436Y-30794D01*
X-20452Y-30744D01*
X-20463Y-30693D01*
X-20466Y-30640D01*
Y-30531D01*
Y-27735D01*
X-20463Y-27683D01*
X-20452Y-27632D01*
X-20436Y-27582D01*
X-20413Y-27535D01*
X-20383Y-27491D01*
X-20349Y-27452D01*
X-20309Y-27417D01*
X-20266Y-27388D01*
X-20219Y-27365D01*
X-20169Y-27348D01*
X-20118Y-27338D01*
X-20065Y-27335D01*
X-18963D01*
X-18911Y-27338D01*
D02*
G37*
G36*
X-7060Y-33283D02*
X-7009Y-33293D01*
X-6959Y-33310D01*
X-6912Y-33333D01*
X-6869Y-33362D01*
X-6829Y-33397D01*
X-6795Y-33436D01*
X-6765Y-33480D01*
X-6742Y-33527D01*
X-6725Y-33577D01*
X-6715Y-33628D01*
X-6712Y-33680D01*
Y-34783D01*
X-6715Y-34835D01*
X-6725Y-34886D01*
X-6742Y-34936D01*
X-6765Y-34983D01*
X-6795Y-35027D01*
X-6829Y-35066D01*
X-6869Y-35101D01*
X-6912Y-35130D01*
X-6959Y-35153D01*
X-7009Y-35170D01*
X-7060Y-35180D01*
X-7113Y-35184D01*
X-10018D01*
X-10070Y-35180D01*
X-10121Y-35170D01*
X-10171Y-35153D01*
X-10373Y-35069D01*
X-10373Y-35069D01*
X-10397Y-35058D01*
X-10420Y-35046D01*
X-10464Y-35017D01*
X-10503Y-34982D01*
X-10504Y-34982D01*
X-10659Y-34827D01*
X-10659Y-34827D01*
X-10693Y-34788D01*
X-10722Y-34744D01*
X-10746Y-34697D01*
X-10829Y-34495D01*
X-10846Y-34445D01*
X-10857Y-34394D01*
X-10860Y-34341D01*
Y-34231D01*
Y-34122D01*
X-10857Y-34069D01*
X-10846Y-34018D01*
X-10829Y-33968D01*
X-10746Y-33766D01*
X-10746Y-33766D01*
X-10734Y-33743D01*
X-10722Y-33719D01*
X-10693Y-33675D01*
X-10659Y-33636D01*
X-10659Y-33636D01*
X-10503Y-33481D01*
X-10464Y-33446D01*
X-10450Y-33437D01*
X-10420Y-33417D01*
X-10373Y-33394D01*
X-10171Y-33310D01*
X-10171Y-33310D01*
X-10121Y-33293D01*
X-10090Y-33287D01*
X-10070Y-33283D01*
X-10018Y-33279D01*
X-10018D01*
X-10018D01*
X-9908D01*
X-9908Y-33279D01*
X-7113D01*
X-7060Y-33283D01*
D02*
G37*
G36*
X-21246Y-33279D02*
X-21137D01*
X-21137D01*
X-21137D01*
X-21084Y-33283D01*
X-21033Y-33293D01*
X-20999Y-33305D01*
X-20983Y-33310D01*
X-20983Y-33310D01*
X-20781Y-33394D01*
X-20781Y-33394D01*
X-20749Y-33409D01*
X-20734Y-33417D01*
X-20690Y-33446D01*
X-20651Y-33481D01*
X-20651Y-33481D01*
X-20496Y-33636D01*
X-20461Y-33675D01*
X-20451Y-33690D01*
X-20432Y-33719D01*
X-20409Y-33766D01*
X-20325Y-33968D01*
X-20325Y-33968D01*
X-20308Y-34018D01*
X-20302Y-34049D01*
X-20298Y-34069D01*
X-20294Y-34122D01*
Y-34122D01*
Y-34122D01*
Y-34231D01*
Y-34341D01*
Y-34341D01*
Y-34341D01*
X-20298Y-34394D01*
X-20308Y-34445D01*
X-20320Y-34479D01*
X-20325Y-34495D01*
X-20325Y-34495D01*
X-20409Y-34697D01*
X-20409Y-34697D01*
X-20424Y-34729D01*
X-20432Y-34744D01*
X-20461Y-34788D01*
X-20496Y-34827D01*
X-20496Y-34827D01*
X-20651Y-34982D01*
X-20651Y-34982D01*
X-20690Y-35017D01*
X-20734Y-35046D01*
X-20781Y-35069D01*
X-20983Y-35153D01*
X-21033Y-35170D01*
X-21084Y-35180D01*
X-21137Y-35184D01*
X-24042D01*
X-24094Y-35180D01*
X-24146Y-35170D01*
X-24195Y-35153D01*
X-24242Y-35130D01*
X-24286Y-35101D01*
X-24325Y-35066D01*
X-24360Y-35027D01*
X-24389Y-34983D01*
X-24412Y-34936D01*
X-24429Y-34886D01*
X-24439Y-34835D01*
X-24443Y-34783D01*
Y-33680D01*
X-24439Y-33628D01*
X-24429Y-33577D01*
X-24412Y-33527D01*
X-24389Y-33480D01*
X-24360Y-33436D01*
X-24325Y-33397D01*
X-24286Y-33362D01*
X-24242Y-33333D01*
X-24195Y-33310D01*
X-24146Y-33293D01*
X-24094Y-33283D01*
X-24042Y-33279D01*
X-21246Y-33279D01*
D02*
G37*
G36*
X-7060Y-35251D02*
X-7009Y-35262D01*
X-6959Y-35278D01*
X-6912Y-35302D01*
X-6869Y-35331D01*
X-6829Y-35365D01*
X-6795Y-35405D01*
X-6765Y-35448D01*
X-6742Y-35495D01*
X-6725Y-35545D01*
X-6715Y-35596D01*
X-6712Y-35649D01*
Y-36751D01*
X-6715Y-36803D01*
X-6725Y-36855D01*
X-6742Y-36905D01*
X-6765Y-36952D01*
X-6795Y-36995D01*
X-6829Y-37035D01*
X-6869Y-37069D01*
X-6912Y-37098D01*
X-6959Y-37121D01*
X-7009Y-37138D01*
X-7060Y-37149D01*
X-7113Y-37152D01*
X-10018D01*
X-10070Y-37149D01*
X-10121Y-37138D01*
X-10171Y-37121D01*
X-10373Y-37038D01*
X-10373Y-37038D01*
X-10397Y-37026D01*
X-10420Y-37014D01*
X-10464Y-36985D01*
X-10503Y-36951D01*
X-10504Y-36951D01*
X-10659Y-36796D01*
X-10659Y-36796D01*
X-10693Y-36756D01*
X-10722Y-36713D01*
X-10746Y-36666D01*
X-10829Y-36463D01*
X-10846Y-36413D01*
X-10857Y-36362D01*
X-10860Y-36310D01*
Y-36200D01*
Y-36090D01*
X-10857Y-36038D01*
X-10846Y-35987D01*
X-10829Y-35937D01*
X-10746Y-35734D01*
X-10746Y-35734D01*
X-10734Y-35711D01*
X-10722Y-35687D01*
X-10693Y-35644D01*
X-10659Y-35604D01*
X-10659Y-35604D01*
X-10503Y-35449D01*
X-10464Y-35415D01*
X-10450Y-35405D01*
X-10420Y-35386D01*
X-10373Y-35362D01*
X-10171Y-35278D01*
X-10171Y-35278D01*
X-10121Y-35262D01*
X-10090Y-35256D01*
X-10070Y-35251D01*
X-10018Y-35248D01*
X-10018D01*
X-10018D01*
X-7113D01*
X-7060Y-35251D01*
D02*
G37*
G36*
X-21084D02*
X-21033Y-35262D01*
X-20999Y-35273D01*
X-20983Y-35278D01*
X-20983Y-35278D01*
X-20781Y-35362D01*
X-20781Y-35362D01*
X-20749Y-35378D01*
X-20734Y-35386D01*
X-20690Y-35415D01*
X-20651Y-35449D01*
X-20651Y-35449D01*
X-20496Y-35604D01*
X-20461Y-35644D01*
X-20451Y-35658D01*
X-20432Y-35687D01*
X-20409Y-35734D01*
X-20325Y-35937D01*
X-20325Y-35937D01*
X-20308Y-35987D01*
X-20302Y-36018D01*
X-20298Y-36038D01*
X-20294Y-36090D01*
Y-36090D01*
Y-36090D01*
Y-36200D01*
Y-36310D01*
Y-36310D01*
Y-36310D01*
X-20298Y-36362D01*
X-20308Y-36413D01*
X-20320Y-36447D01*
X-20325Y-36463D01*
X-20325Y-36463D01*
X-20409Y-36665D01*
X-20409Y-36666D01*
X-20424Y-36697D01*
X-20432Y-36713D01*
X-20461Y-36756D01*
X-20496Y-36796D01*
X-20496Y-36796D01*
X-20651Y-36951D01*
X-20651Y-36951D01*
X-20690Y-36985D01*
X-20734Y-37014D01*
X-20781Y-37038D01*
X-20983Y-37121D01*
X-21033Y-37138D01*
X-21084Y-37149D01*
X-21137Y-37152D01*
X-24042D01*
X-24094Y-37149D01*
X-24146Y-37138D01*
X-24195Y-37121D01*
X-24242Y-37098D01*
X-24286Y-37069D01*
X-24325Y-37035D01*
X-24360Y-36995D01*
X-24389Y-36952D01*
X-24412Y-36905D01*
X-24429Y-36855D01*
X-24439Y-36803D01*
X-24443Y-36751D01*
Y-35649D01*
X-24439Y-35596D01*
X-24429Y-35545D01*
X-24412Y-35495D01*
X-24389Y-35448D01*
X-24360Y-35405D01*
X-24325Y-35365D01*
X-24286Y-35331D01*
X-24242Y-35302D01*
X-24195Y-35278D01*
X-24146Y-35262D01*
X-24094Y-35251D01*
X-24042Y-35248D01*
X-21137D01*
X-21137D01*
X-21137D01*
X-21084Y-35251D01*
D02*
G37*
G36*
X-7060Y-37220D02*
X-7009Y-37230D01*
X-6959Y-37247D01*
X-6912Y-37270D01*
X-6869Y-37299D01*
X-6829Y-37334D01*
X-6795Y-37373D01*
X-6765Y-37417D01*
X-6742Y-37464D01*
X-6725Y-37514D01*
X-6715Y-37565D01*
X-6712Y-37617D01*
Y-38720D01*
X-6715Y-38772D01*
X-6725Y-38823D01*
X-6742Y-38873D01*
X-6765Y-38920D01*
X-6795Y-38964D01*
X-6829Y-39003D01*
X-6869Y-39038D01*
X-6912Y-39067D01*
X-6959Y-39090D01*
X-7009Y-39107D01*
X-7060Y-39117D01*
X-7113Y-39121D01*
X-9908Y-39121D01*
X-10018D01*
X-10070Y-39117D01*
X-10121Y-39107D01*
X-10171Y-39090D01*
X-10373Y-39006D01*
X-10373Y-39006D01*
X-10397Y-38995D01*
X-10420Y-38983D01*
X-10464Y-38954D01*
X-10503Y-38919D01*
X-10504Y-38919D01*
X-10659Y-38764D01*
X-10659Y-38764D01*
X-10693Y-38725D01*
X-10722Y-38681D01*
X-10746Y-38634D01*
X-10829Y-38432D01*
X-10846Y-38382D01*
X-10857Y-38331D01*
X-10860Y-38278D01*
Y-38168D01*
Y-38059D01*
X-10857Y-38006D01*
X-10846Y-37955D01*
X-10829Y-37905D01*
X-10746Y-37703D01*
X-10746Y-37703D01*
X-10734Y-37680D01*
X-10722Y-37656D01*
X-10693Y-37612D01*
X-10659Y-37573D01*
X-10659Y-37573D01*
X-10503Y-37418D01*
X-10464Y-37383D01*
X-10450Y-37374D01*
X-10420Y-37354D01*
X-10373Y-37331D01*
X-10171Y-37247D01*
X-10171Y-37247D01*
X-10121Y-37230D01*
X-10090Y-37224D01*
X-10070Y-37220D01*
X-10018Y-37216D01*
X-10018D01*
X-10018D01*
X-7113D01*
X-7060Y-37220D01*
D02*
G37*
G36*
X-21246Y-37216D02*
X-21137D01*
X-21137D01*
X-21137D01*
X-21084Y-37220D01*
X-21033Y-37230D01*
X-20999Y-37242D01*
X-20983Y-37247D01*
X-20983Y-37247D01*
X-20781Y-37331D01*
X-20781Y-37331D01*
X-20749Y-37346D01*
X-20734Y-37354D01*
X-20690Y-37383D01*
X-20651Y-37418D01*
X-20651Y-37418D01*
X-20496Y-37573D01*
X-20461Y-37612D01*
X-20451Y-37627D01*
X-20432Y-37656D01*
X-20409Y-37703D01*
X-20325Y-37905D01*
X-20325Y-37905D01*
X-20308Y-37955D01*
X-20302Y-37986D01*
X-20298Y-38006D01*
X-20294Y-38059D01*
Y-38059D01*
Y-38059D01*
Y-38168D01*
Y-38278D01*
Y-38278D01*
Y-38278D01*
X-20298Y-38331D01*
X-20308Y-38382D01*
X-20320Y-38416D01*
X-20325Y-38432D01*
X-20325Y-38432D01*
X-20409Y-38634D01*
X-20409Y-38634D01*
X-20424Y-38666D01*
X-20432Y-38681D01*
X-20461Y-38725D01*
X-20496Y-38764D01*
X-20496Y-38764D01*
X-20651Y-38919D01*
X-20651Y-38919D01*
X-20690Y-38954D01*
X-20734Y-38983D01*
X-20781Y-39006D01*
X-20983Y-39090D01*
X-21033Y-39107D01*
X-21084Y-39117D01*
X-21137Y-39121D01*
X-21246D01*
X-21246Y-39121D01*
X-24042Y-39121D01*
X-24094Y-39117D01*
X-24146Y-39107D01*
X-24195Y-39090D01*
X-24242Y-39067D01*
X-24286Y-39038D01*
X-24325Y-39003D01*
X-24360Y-38964D01*
X-24389Y-38920D01*
X-24412Y-38873D01*
X-24429Y-38823D01*
X-24439Y-38772D01*
X-24443Y-38720D01*
Y-37617D01*
X-24439Y-37565D01*
X-24429Y-37514D01*
X-24412Y-37464D01*
X-24389Y-37417D01*
X-24360Y-37373D01*
X-24325Y-37334D01*
X-24286Y-37299D01*
X-24242Y-37270D01*
X-24195Y-37247D01*
X-24146Y-37230D01*
X-24094Y-37220D01*
X-24042Y-37216D01*
X-21246Y-37216D01*
D02*
G37*
G36*
X-7060Y-39188D02*
X-7009Y-39199D01*
X-6959Y-39215D01*
X-6912Y-39239D01*
X-6869Y-39268D01*
X-6829Y-39302D01*
X-6795Y-39342D01*
X-6765Y-39385D01*
X-6742Y-39432D01*
X-6725Y-39482D01*
X-6715Y-39533D01*
X-6712Y-39586D01*
Y-40688D01*
X-6715Y-40740D01*
X-6725Y-40792D01*
X-6742Y-40842D01*
X-6765Y-40889D01*
X-6795Y-40932D01*
X-6829Y-40972D01*
X-6869Y-41006D01*
X-6912Y-41035D01*
X-6959Y-41058D01*
X-7009Y-41075D01*
X-7060Y-41086D01*
X-7113Y-41089D01*
X-10018D01*
X-10070Y-41086D01*
X-10121Y-41075D01*
X-10171Y-41058D01*
X-10373Y-40975D01*
X-10373Y-40975D01*
X-10397Y-40963D01*
X-10420Y-40951D01*
X-10464Y-40922D01*
X-10503Y-40888D01*
X-10504Y-40888D01*
X-10659Y-40733D01*
X-10659Y-40733D01*
X-10693Y-40693D01*
X-10722Y-40650D01*
X-10746Y-40603D01*
X-10829Y-40400D01*
X-10846Y-40350D01*
X-10857Y-40299D01*
X-10860Y-40247D01*
Y-40137D01*
Y-40027D01*
X-10857Y-39975D01*
X-10846Y-39924D01*
X-10829Y-39874D01*
X-10746Y-39671D01*
X-10746Y-39671D01*
X-10734Y-39648D01*
X-10722Y-39624D01*
X-10693Y-39581D01*
X-10659Y-39541D01*
X-10659Y-39541D01*
X-10503Y-39386D01*
X-10464Y-39352D01*
X-10450Y-39342D01*
X-10420Y-39323D01*
X-10373Y-39299D01*
X-10171Y-39215D01*
X-10171Y-39215D01*
X-10121Y-39199D01*
X-10090Y-39193D01*
X-10070Y-39188D01*
X-10018Y-39185D01*
X-10018D01*
X-10018D01*
X-7113D01*
X-7060Y-39188D01*
D02*
G37*
G36*
X-21084D02*
X-21033Y-39199D01*
X-20999Y-39210D01*
X-20983Y-39215D01*
X-20983Y-39215D01*
X-20781Y-39299D01*
X-20781Y-39299D01*
X-20749Y-39315D01*
X-20734Y-39323D01*
X-20690Y-39352D01*
X-20651Y-39386D01*
X-20651Y-39386D01*
X-20496Y-39541D01*
X-20461Y-39581D01*
X-20451Y-39595D01*
X-20432Y-39624D01*
X-20409Y-39671D01*
X-20325Y-39874D01*
X-20325Y-39874D01*
X-20308Y-39924D01*
X-20302Y-39955D01*
X-20298Y-39975D01*
X-20294Y-40027D01*
Y-40027D01*
Y-40027D01*
Y-40137D01*
Y-40247D01*
Y-40247D01*
Y-40247D01*
X-20298Y-40299D01*
X-20308Y-40350D01*
X-20320Y-40384D01*
X-20325Y-40400D01*
X-20325Y-40400D01*
X-20409Y-40602D01*
X-20409Y-40603D01*
X-20424Y-40634D01*
X-20432Y-40650D01*
X-20461Y-40693D01*
X-20496Y-40733D01*
X-20496Y-40733D01*
X-20651Y-40888D01*
X-20651Y-40888D01*
X-20690Y-40922D01*
X-20734Y-40951D01*
X-20781Y-40975D01*
X-20983Y-41058D01*
X-21033Y-41075D01*
X-21084Y-41086D01*
X-21137Y-41089D01*
X-21246D01*
X-21246Y-41089D01*
X-24042Y-41089D01*
X-24094Y-41086D01*
X-24146Y-41075D01*
X-24195Y-41058D01*
X-24242Y-41035D01*
X-24286Y-41006D01*
X-24325Y-40972D01*
X-24360Y-40932D01*
X-24389Y-40889D01*
X-24412Y-40842D01*
X-24429Y-40792D01*
X-24439Y-40740D01*
X-24443Y-40688D01*
Y-39586D01*
X-24439Y-39533D01*
X-24429Y-39482D01*
X-24412Y-39432D01*
X-24389Y-39385D01*
X-24360Y-39342D01*
X-24325Y-39302D01*
X-24286Y-39268D01*
X-24242Y-39239D01*
X-24195Y-39215D01*
X-24146Y-39199D01*
X-24094Y-39188D01*
X-24042Y-39185D01*
X-21137D01*
X-21137D01*
X-21137D01*
X-21084Y-39188D01*
D02*
G37*
G36*
X-11478Y-40921D02*
X-11427Y-40931D01*
X-11393Y-40942D01*
X-11377Y-40948D01*
X-11377Y-40948D01*
X-11175Y-41032D01*
X-11174Y-41032D01*
X-11143Y-41047D01*
X-11128Y-41055D01*
X-11084Y-41084D01*
X-11045Y-41119D01*
X-11044Y-41119D01*
X-10889Y-41274D01*
X-10855Y-41313D01*
X-10845Y-41328D01*
X-10826Y-41357D01*
X-10802Y-41404D01*
X-10719Y-41606D01*
X-10719Y-41606D01*
X-10702Y-41656D01*
X-10696Y-41687D01*
X-10691Y-41707D01*
X-10688Y-41760D01*
Y-41760D01*
Y-41760D01*
Y-41869D01*
Y-44665D01*
X-10691Y-44717D01*
X-10702Y-44768D01*
X-10719Y-44818D01*
X-10742Y-44865D01*
X-10771Y-44909D01*
X-10806Y-44948D01*
X-10845Y-44983D01*
X-10888Y-45012D01*
X-10936Y-45035D01*
X-10985Y-45052D01*
X-11037Y-45062D01*
X-11089Y-45065D01*
X-12191Y-45065D01*
X-12244Y-45062D01*
X-12295Y-45052D01*
X-12345Y-45035D01*
X-12392Y-45012D01*
X-12435Y-44983D01*
X-12475Y-44948D01*
X-12509Y-44909D01*
X-12539Y-44865D01*
X-12562Y-44818D01*
X-12578Y-44768D01*
X-12589Y-44717D01*
X-12592Y-44665D01*
Y-41869D01*
Y-41760D01*
X-12589Y-41707D01*
X-12578Y-41656D01*
X-12562Y-41606D01*
X-12478Y-41404D01*
X-12478Y-41404D01*
X-12466Y-41381D01*
X-12455Y-41357D01*
X-12425Y-41313D01*
X-12391Y-41274D01*
X-12391Y-41274D01*
X-12236Y-41119D01*
X-12196Y-41084D01*
X-12182Y-41074D01*
X-12153Y-41055D01*
X-12106Y-41032D01*
X-11903Y-40948D01*
X-11903Y-40948D01*
X-11853Y-40931D01*
X-11823Y-40925D01*
X-11802Y-40921D01*
X-11750Y-40917D01*
X-11750D01*
X-11750D01*
X-11530D01*
X-11530D01*
X-11530D01*
X-11478Y-40921D01*
D02*
G37*
G36*
X-13447D02*
X-13395Y-40931D01*
X-13362Y-40942D01*
X-13346Y-40948D01*
X-13346Y-40948D01*
X-13143Y-41032D01*
X-13143Y-41032D01*
X-13112Y-41047D01*
X-13096Y-41055D01*
X-13052Y-41084D01*
X-13013Y-41119D01*
X-13013Y-41119D01*
X-12858Y-41274D01*
X-12823Y-41313D01*
X-12814Y-41328D01*
X-12794Y-41357D01*
X-12771Y-41404D01*
X-12687Y-41606D01*
X-12687Y-41606D01*
X-12670Y-41656D01*
X-12664Y-41687D01*
X-12660Y-41707D01*
X-12657Y-41760D01*
Y-41760D01*
Y-41760D01*
Y-41869D01*
X-12657Y-41869D01*
Y-44665D01*
X-12660Y-44717D01*
X-12670Y-44768D01*
X-12687Y-44818D01*
X-12710Y-44865D01*
X-12739Y-44909D01*
X-12774Y-44948D01*
X-12813Y-44983D01*
X-12857Y-45012D01*
X-12904Y-45035D01*
X-12954Y-45052D01*
X-13005Y-45062D01*
X-13058Y-45065D01*
X-14160D01*
X-14212Y-45062D01*
X-14264Y-45052D01*
X-14313Y-45035D01*
X-14360Y-45012D01*
X-14404Y-44983D01*
X-14443Y-44948D01*
X-14478Y-44909D01*
X-14507Y-44865D01*
X-14530Y-44818D01*
X-14547Y-44768D01*
X-14557Y-44717D01*
X-14561Y-44665D01*
Y-41869D01*
Y-41760D01*
X-14557Y-41707D01*
X-14547Y-41656D01*
X-14530Y-41606D01*
X-14446Y-41404D01*
X-14446Y-41404D01*
X-14435Y-41381D01*
X-14423Y-41357D01*
X-14394Y-41313D01*
X-14359Y-41274D01*
X-14359Y-41274D01*
X-14204Y-41119D01*
X-14165Y-41084D01*
X-14150Y-41074D01*
X-14121Y-41055D01*
X-14074Y-41032D01*
X-13872Y-40948D01*
X-13872Y-40948D01*
X-13822Y-40931D01*
X-13791Y-40925D01*
X-13771Y-40921D01*
X-13718Y-40917D01*
X-13718D01*
X-13718D01*
X-13499D01*
X-13499D01*
X-13499D01*
X-13447Y-40921D01*
D02*
G37*
G36*
X-15415D02*
X-15364Y-40931D01*
X-15330Y-40942D01*
X-15314Y-40948D01*
X-15314Y-40948D01*
X-15112Y-41032D01*
X-15112Y-41032D01*
X-15080Y-41047D01*
X-15065Y-41055D01*
X-15021Y-41084D01*
X-14981Y-41119D01*
X-14981Y-41119D01*
X-14826Y-41274D01*
X-14792Y-41313D01*
X-14782Y-41328D01*
X-14763Y-41357D01*
X-14739Y-41404D01*
X-14656Y-41606D01*
X-14656Y-41606D01*
X-14639Y-41656D01*
X-14633Y-41687D01*
X-14628Y-41707D01*
X-14625Y-41760D01*
Y-41760D01*
Y-41760D01*
Y-41869D01*
X-14625Y-41869D01*
X-14625Y-44665D01*
X-14628Y-44717D01*
X-14639Y-44768D01*
X-14656Y-44818D01*
X-14679Y-44865D01*
X-14708Y-44909D01*
X-14742Y-44948D01*
X-14782Y-44983D01*
X-14826Y-45012D01*
X-14873Y-45035D01*
X-14922Y-45052D01*
X-14974Y-45062D01*
X-15026Y-45065D01*
X-16128Y-45065D01*
X-16181Y-45062D01*
X-16232Y-45052D01*
X-16282Y-45035D01*
X-16329Y-45012D01*
X-16372Y-44983D01*
X-16412Y-44948D01*
X-16446Y-44909D01*
X-16476Y-44865D01*
X-16499Y-44818D01*
X-16515Y-44768D01*
X-16526Y-44717D01*
X-16529Y-44665D01*
Y-41869D01*
Y-41760D01*
X-16526Y-41707D01*
X-16515Y-41656D01*
X-16499Y-41606D01*
X-16415Y-41404D01*
X-16415Y-41404D01*
X-16403Y-41381D01*
X-16392Y-41357D01*
X-16362Y-41313D01*
X-16328Y-41274D01*
X-16328Y-41274D01*
X-16173Y-41119D01*
X-16133Y-41084D01*
X-16119Y-41074D01*
X-16090Y-41055D01*
X-16043Y-41032D01*
X-15840Y-40948D01*
X-15840Y-40948D01*
X-15790Y-40931D01*
X-15760Y-40925D01*
X-15739Y-40921D01*
X-15687Y-40917D01*
X-15687D01*
X-15687D01*
X-15468D01*
X-15468D01*
X-15468D01*
X-15415Y-40921D01*
D02*
G37*
G36*
X-17384D02*
X-17332Y-40931D01*
X-17299Y-40942D01*
X-17283Y-40948D01*
X-17283Y-40948D01*
X-17080Y-41032D01*
X-17080Y-41032D01*
X-17049Y-41047D01*
X-17033Y-41055D01*
X-16989Y-41084D01*
X-16950Y-41119D01*
X-16950Y-41119D01*
X-16795Y-41274D01*
X-16760Y-41313D01*
X-16751Y-41328D01*
X-16731Y-41357D01*
X-16708Y-41404D01*
X-16624Y-41606D01*
X-16624Y-41606D01*
X-16607Y-41656D01*
X-16601Y-41687D01*
X-16597Y-41707D01*
X-16594Y-41760D01*
Y-41760D01*
Y-41760D01*
Y-41869D01*
X-16594Y-41869D01*
X-16594Y-44665D01*
X-16597Y-44717D01*
X-16607Y-44768D01*
X-16624Y-44818D01*
X-16647Y-44865D01*
X-16676Y-44909D01*
X-16711Y-44948D01*
X-16750Y-44983D01*
X-16794Y-45012D01*
X-16841Y-45035D01*
X-16891Y-45052D01*
X-16942Y-45062D01*
X-16995Y-45065D01*
X-18097Y-45065D01*
X-18149Y-45062D01*
X-18201Y-45052D01*
X-18250Y-45035D01*
X-18297Y-45012D01*
X-18341Y-44983D01*
X-18380Y-44948D01*
X-18415Y-44909D01*
X-18444Y-44865D01*
X-18467Y-44818D01*
X-18484Y-44768D01*
X-18494Y-44717D01*
X-18498Y-44665D01*
X-18498Y-41869D01*
Y-41760D01*
X-18494Y-41707D01*
X-18484Y-41656D01*
X-18467Y-41606D01*
X-18383Y-41404D01*
X-18383Y-41404D01*
X-18372Y-41381D01*
X-18360Y-41357D01*
X-18331Y-41313D01*
X-18296Y-41274D01*
X-18296Y-41274D01*
X-18141Y-41119D01*
X-18102Y-41084D01*
X-18087Y-41074D01*
X-18058Y-41055D01*
X-18011Y-41032D01*
X-17809Y-40948D01*
X-17809Y-40948D01*
X-17759Y-40931D01*
X-17728Y-40925D01*
X-17708Y-40921D01*
X-17655Y-40917D01*
X-17655D01*
X-17655D01*
X-17436D01*
X-17436D01*
X-17436D01*
X-17384Y-40921D01*
D02*
G37*
G36*
X-19352D02*
X-19301Y-40931D01*
X-19267Y-40942D01*
X-19251Y-40948D01*
X-19251Y-40948D01*
X-19049Y-41032D01*
X-19049Y-41032D01*
X-19017Y-41047D01*
X-19002Y-41055D01*
X-18958Y-41084D01*
X-18918Y-41119D01*
X-18918Y-41119D01*
X-18763Y-41274D01*
X-18729Y-41313D01*
X-18719Y-41328D01*
X-18700Y-41357D01*
X-18677Y-41404D01*
X-18593Y-41606D01*
X-18593Y-41606D01*
X-18576Y-41656D01*
X-18570Y-41687D01*
X-18565Y-41707D01*
X-18562Y-41760D01*
Y-41760D01*
Y-41760D01*
Y-41869D01*
X-18562Y-41869D01*
Y-44665D01*
X-18565Y-44717D01*
X-18576Y-44768D01*
X-18593Y-44818D01*
X-18616Y-44865D01*
X-18645Y-44909D01*
X-18679Y-44948D01*
X-18719Y-44983D01*
X-18763Y-45012D01*
X-18810Y-45035D01*
X-18859Y-45052D01*
X-18911Y-45062D01*
X-18963Y-45065D01*
X-20065D01*
X-20118Y-45062D01*
X-20169Y-45052D01*
X-20219Y-45035D01*
X-20266Y-45012D01*
X-20309Y-44983D01*
X-20349Y-44948D01*
X-20383Y-44909D01*
X-20413Y-44865D01*
X-20436Y-44818D01*
X-20452Y-44768D01*
X-20463Y-44717D01*
X-20466Y-44665D01*
X-20466Y-41869D01*
Y-41760D01*
X-20463Y-41707D01*
X-20452Y-41656D01*
X-20436Y-41606D01*
X-20352Y-41404D01*
X-20352Y-41404D01*
X-20340Y-41381D01*
X-20329Y-41357D01*
X-20299Y-41313D01*
X-20265Y-41274D01*
X-20265Y-41274D01*
X-20110Y-41119D01*
X-20070Y-41084D01*
X-20056Y-41074D01*
X-20027Y-41055D01*
X-19980Y-41032D01*
X-19777Y-40948D01*
X-19777Y-40948D01*
X-19727Y-40931D01*
X-19697Y-40925D01*
X-19676Y-40921D01*
X-19624Y-40917D01*
X-19624D01*
X-19624D01*
X-19405D01*
X-19405D01*
X-19405D01*
X-19352Y-40921D01*
D02*
G37*
D26*
X43314Y10937D02*
D03*
X42527Y7000D02*
D03*
X43225Y3063D02*
D03*
X54732Y3063D02*
D03*
X54821Y7000D02*
D03*
X54821Y10937D02*
D03*
D43*
X24863Y6272D02*
D03*
X24863Y1772D02*
D03*
D44*
X41092Y47221D02*
D03*
X45592D02*
D03*
X35200Y55100D02*
D03*
X39700Y55100D02*
D03*
D51*
X-24023Y17094D02*
D03*
X-25991Y17094D02*
D03*
X-27960Y17094D02*
D03*
X-27960Y23098D02*
D03*
X-25991D02*
D03*
X-24023Y23098D02*
D03*
D52*
X-28993Y19112D02*
D03*
X-28993Y21080D02*
D03*
X-22989D02*
D03*
X-22989Y19112D02*
D03*
D55*
X-22368Y-32263D02*
D03*
Y-34231D02*
D03*
X-23491Y-36200D02*
D03*
Y-38168D02*
D03*
Y-40137D02*
D03*
X-19514Y-42991D02*
D03*
X-17546D02*
D03*
X-15577Y-44074D02*
D03*
X-13609D02*
D03*
X-11640D02*
D03*
X-8786Y-40137D02*
D03*
Y-38168D02*
D03*
X-7703Y-36200D02*
D03*
Y-34231D02*
D03*
X-7703Y-32263D02*
D03*
X-11640Y-29409D02*
D03*
X-13609Y-29409D02*
D03*
X-15577Y-28287D02*
D03*
X-17546D02*
D03*
X-19514D02*
D03*
D64*
X-50671Y900D02*
G03*
X-50671Y900I-2608J0D01*
G01*
D65*
X36200Y57100D02*
G03*
X34200Y55100I0J-2000D01*
G01*
Y55100D02*
G03*
X36200Y53100I2000J0D01*
G01*
X22863Y2772D02*
G03*
X26863Y2772I2000J0D01*
G01*
Y5272D02*
G03*
X22863Y5272I-2000J0D01*
G01*
X42092Y49221D02*
G03*
X40270Y48044I0J-2000D01*
G01*
D02*
G03*
X40270Y46398I1823J-823D01*
G01*
D02*
G03*
X42092Y45221I1823J823D01*
G01*
X46592Y47221D02*
G03*
X44592Y49221I-2000J0D01*
G01*
Y45221D02*
G03*
X46592Y47221I0J2000D01*
G01*
X40523Y54277D02*
G03*
X40700Y55100I-1823J823D01*
G01*
X38700Y53100D02*
G03*
X40523Y54277I0J2000D01*
G01*
X40700Y55100D02*
G03*
X38700Y57100I-2000J-0D01*
G01*
X36200Y53100D02*
Y57100D01*
X22863Y5272D02*
X26863D01*
X22863Y2772D02*
X26863Y2772D01*
X24863Y2772D02*
Y5272D01*
X42092Y47221D02*
X44592Y47221D01*
X42092Y45221D02*
Y45221D01*
X42092Y47221D02*
X42092Y45221D01*
X42092Y49221D02*
X42092Y47221D01*
X42092Y49221D02*
Y49221D01*
X44592Y47221D02*
X44592Y48221D01*
Y49221D01*
Y49221D01*
X44592Y45221D02*
Y45221D01*
X44592Y47221D01*
X38700Y53100D02*
Y53100D01*
Y53100D02*
Y53100D01*
Y55100D01*
Y57100D01*
Y57100D01*
D66*
X6323Y50900D02*
D03*
X11343D02*
D03*
X-2043Y34168D02*
D03*
X-2043Y37514D02*
D03*
Y40861D02*
D03*
Y44207D02*
D03*
Y47554D02*
D03*
X-2043Y50900D02*
D03*
X-4602Y31609D02*
D03*
Y35841D02*
D03*
Y39187D02*
D03*
Y42534D02*
D03*
Y45880D02*
D03*
Y49227D02*
D03*
Y52573D02*
D03*
Y57396D02*
D03*
Y62219D02*
D03*
X-370Y31609D02*
D03*
X1303Y34168D02*
D03*
X4650D02*
D03*
X7996D02*
D03*
X11343D02*
D03*
X14689Y34168D02*
D03*
X17248Y35841D02*
D03*
Y39187D02*
D03*
X14689Y40861D02*
D03*
X2976Y31609D02*
D03*
X6323D02*
D03*
X9669D02*
D03*
X13016D02*
D03*
X17248D02*
D03*
X14689Y37514D02*
D03*
X17248Y42534D02*
D03*
Y45880D02*
D03*
Y49227D02*
D03*
X17248Y52573D02*
D03*
Y62219D02*
D03*
X1303Y44207D02*
D03*
X6323Y37514D02*
D03*
X11343Y44207D02*
D03*
X14689D02*
D03*
Y47554D02*
D03*
Y50900D02*
D03*
X17248Y57396D02*
D03*
X1303Y50900D02*
D03*
X1303Y37514D02*
D03*
X11343D02*
D03*
D67*
X15491Y26563D02*
D03*
X18955D02*
D03*
X7691D02*
D03*
X11155D02*
D03*
D68*
X49023Y7000D02*
D03*
D69*
X-39716Y-52788D02*
D03*
X-46000Y-40969D02*
D03*
D70*
X-35340Y-44665D02*
D03*
X-36819Y-41884D02*
D03*
D71*
X18244Y20063D02*
D03*
X8402D02*
D03*
D72*
X-9677Y-17600D02*
D03*
X51723Y-33500D02*
D03*
X-39993Y30916D02*
D03*
X31523Y-55800D02*
D03*
X17123Y-45400D02*
D03*
X23923Y-5500D02*
D03*
X11423Y-19700D02*
D03*
X-33477Y-34400D02*
D03*
D73*
X52606Y-23682D02*
D03*
X52606Y-11280D02*
D03*
D74*
X-2077Y-43056D02*
D03*
Y-37544D02*
D03*
X23256Y60578D02*
D03*
X23256Y55067D02*
D03*
X194Y-9610D02*
D03*
X194Y-15122D02*
D03*
X34802Y27271D02*
D03*
X34802Y21759D02*
D03*
X-21633Y-53900D02*
D03*
Y-48388D02*
D03*
X-39186Y-4756D02*
D03*
X-39186Y756D02*
D03*
X25723Y-32644D02*
D03*
X25723Y-38156D02*
D03*
X-27577Y-48444D02*
D03*
Y-53956D02*
D03*
D75*
X-10277Y-48700D02*
D03*
X-15789Y-48700D02*
D03*
X-4833Y-48900D02*
D03*
X679D02*
D03*
X-15833Y-54700D02*
D03*
X-10321D02*
D03*
X-4833Y-54972D02*
D03*
X679D02*
D03*
D76*
X40710Y39777D02*
D03*
X44568Y39777D02*
D03*
X10355Y-5651D02*
D03*
X6497Y-5651D02*
D03*
X45169Y21723D02*
D03*
X41310Y21723D02*
D03*
D77*
X5980Y-15043D02*
D03*
X5980Y-12483D02*
D03*
X5980Y-9924D02*
D03*
X14642Y-9924D02*
D03*
X14642Y-12483D02*
D03*
X14642Y-15043D02*
D03*
D78*
X22923Y30191D02*
D03*
Y33735D02*
D03*
X-10177Y-1572D02*
D03*
X-10177Y1972D02*
D03*
X-18377Y22639D02*
D03*
X-18377Y19096D02*
D03*
X9623Y-41772D02*
D03*
Y-38228D02*
D03*
X-39277Y54672D02*
D03*
Y51128D02*
D03*
D79*
X44487Y31205D02*
D03*
D80*
X47637Y35732D02*
D03*
X41338Y35732D02*
D03*
X47637Y26677D02*
D03*
X44487Y26677D02*
D03*
X41338Y26677D02*
D03*
X44487Y35732D02*
D03*
D81*
X-25788Y2350D02*
D03*
Y-3950D02*
D03*
D82*
X-16206Y-12400D02*
D03*
X-19749Y-12400D02*
D03*
X17123Y-38600D02*
D03*
X20666Y-38600D02*
D03*
X-27635Y12576D02*
D03*
X-24092Y12576D02*
D03*
X-48486Y-8000D02*
D03*
X-44942Y-8000D02*
D03*
X-53449Y12600D02*
D03*
X-49905Y12600D02*
D03*
X-45849D02*
D03*
X-42305Y12600D02*
D03*
D83*
X-14324Y4253D02*
D03*
Y-1653D02*
D03*
X-16293Y-1653D02*
D03*
X-18261D02*
D03*
X-20230Y-1653D02*
D03*
X-20230Y4253D02*
D03*
X-18261D02*
D03*
X-16293Y4253D02*
D03*
D84*
X-14324Y2284D02*
D03*
X-14324Y316D02*
D03*
X-20230D02*
D03*
X-20230Y2284D02*
D03*
D85*
X-14720Y-7200D02*
D03*
X-20035Y-7200D02*
D03*
X24820Y-12800D02*
D03*
X30135D02*
D03*
X19780Y-33300D02*
D03*
X14465D02*
D03*
D86*
X-32777Y33572D02*
D03*
X-27777D02*
D03*
X-22777D02*
D03*
X-17777D02*
D03*
X-32777Y55028D02*
D03*
X-27777D02*
D03*
X-22777D02*
D03*
X-17777D02*
D03*
D87*
X-45114Y900D02*
D03*
X-45114Y-2643D02*
D03*
X-48350Y-2643D02*
D03*
X-48350Y4443D02*
D03*
X-45114Y4443D02*
D03*
D88*
X29134Y53407D02*
D03*
X29134Y59312D02*
D03*
D89*
X3923Y-43350D02*
D03*
Y-37050D02*
D03*
D90*
X35300Y-44482D02*
D03*
X36826Y-41728D02*
D03*
D91*
X39533Y-52681D02*
D03*
X46022Y-40973D02*
D03*
D92*
X19164Y-28002D02*
D03*
X21723Y-28002D02*
D03*
X24282Y-28002D02*
D03*
X19164Y-20798D02*
D03*
X21723D02*
D03*
X24282D02*
D03*
D93*
X-52454Y22953D02*
D03*
X-52454Y20984D02*
D03*
X-52454Y19016D02*
D03*
X-52454Y17047D02*
D03*
X-43300Y19016D02*
D03*
X-43300Y20984D02*
D03*
X-43300Y22953D02*
D03*
X-43300Y17047D02*
D03*
D94*
X-49846Y16408D02*
D03*
X-47877Y16408D02*
D03*
X-45909Y16408D02*
D03*
X-45909Y23593D02*
D03*
X-47877Y23593D02*
D03*
X-49846Y23593D02*
D03*
D95*
X-15577Y-36200D02*
D03*
D96*
X37723Y-19235D02*
D03*
X37723Y-28565D02*
D03*
D97*
X-44377Y-28315D02*
D03*
X-44377Y-17685D02*
D03*
D98*
X2423Y-22669D02*
D03*
Y-31331D02*
D03*
D99*
X16986Y-50063D02*
D03*
X24860Y-50063D02*
D03*
X24860Y-57937D02*
D03*
D100*
X17773D02*
D03*
D101*
X-27577Y-38968D02*
D03*
Y-42432D02*
D03*
Y-29968D02*
D03*
Y-33432D02*
D03*
D102*
X-17291Y-23100D02*
D03*
X-20755Y-23100D02*
D03*
Y-18900D02*
D03*
X-17291Y-18900D02*
D03*
D103*
X-53280Y900D02*
D03*
D104*
X-13609Y-36200D02*
D03*
X-17546D02*
D03*
X-15577Y-34231D02*
D03*
Y-38168D02*
D03*
M02*
