G04*
G04 #@! TF.GenerationSoftware,Altium Limited,Altium Designer,20.2.6 (244)*
G04*
G04 Layer_Color=0*
%FSLAX25Y25*%
%MOIN*%
G70*
G04*
G04 #@! TF.SameCoordinates,E73447B6-61B4-4EEF-956E-7A2C62B3FEF5*
G04*
G04*
G04 #@! TF.FilePolarity,Positive*
G04*
G01*
G75*
%ADD12C,0.00787*%
%ADD136C,0.00197*%
D12*
X-26693Y-34356D02*
X-26693Y-64644D01*
X-26693Y-34356D02*
X26693Y-34356D01*
X26693Y-64644D02*
X26693Y-34356D01*
X-26693Y-64644D02*
X26693Y-64644D01*
X-37493Y32190D02*
X-11194Y32190D01*
X-11194Y59986D01*
X-37493D02*
X-11194D01*
X-37493Y32190D02*
Y59986D01*
D136*
X25796Y34591D02*
X27758Y35506D01*
X26320Y36030D02*
X27235Y34068D01*
X23674Y37512D02*
X26885Y39009D01*
X26669Y31089D02*
X29880Y32586D01*
X23674Y37512D02*
X26669Y31089D01*
X26885Y39009D02*
X29880Y32586D01*
X52443Y20251D02*
X54608D01*
X53526Y19169D02*
X53526Y21334D01*
X51754Y16708D02*
X55297Y16708D01*
X51754Y23795D02*
X55297Y23795D01*
X55297Y16708D01*
X51754Y16708D02*
X51754Y23795D01*
X44560Y-30986D02*
Y-28820D01*
X43477Y-29903D02*
X45642D01*
X41016Y-28131D02*
X41016Y-31675D01*
X48103Y-31675D02*
Y-28131D01*
X41016Y-31675D02*
X48103Y-31675D01*
X41016Y-28131D02*
X48103Y-28131D01*
M02*
