G04*
G04 #@! TF.GenerationSoftware,Altium Limited,Altium Designer,20.2.6 (244)*
G04*
G04 Layer_Physical_Order=1*
G04 Layer_Color=255*
%FSLAX25Y25*%
%MOIN*%
G70*
G04*
G04 #@! TF.SameCoordinates,E73447B6-61B4-4EEF-956E-7A2C62B3FEF5*
G04*
G04*
G04 #@! TF.FilePolarity,Positive*
G04*
G01*
G75*
%ADD10C,0.01000*%
%ADD24R,0.01575X0.01575*%
%ADD25R,0.02677X0.02520*%
%ADD26C,0.01595*%
G04:AMPARAMS|DCode=27|XSize=66.93mil|YSize=47.24mil|CornerRadius=0mil|HoleSize=0mil|Usage=FLASHONLY|Rotation=28.000|XOffset=0mil|YOffset=0mil|HoleType=Round|Shape=Rectangle|*
%AMROTATEDRECTD27*
4,1,4,-0.01846,-0.03657,-0.04064,0.00515,0.01846,0.03657,0.04064,-0.00515,-0.01846,-0.03657,0.0*
%
%ADD27ROTATEDRECTD27*%

G04:AMPARAMS|DCode=28|XSize=39.37mil|YSize=19.68mil|CornerRadius=0mil|HoleSize=0mil|Usage=FLASHONLY|Rotation=28.000|XOffset=0mil|YOffset=0mil|HoleType=Round|Shape=Rectangle|*
%AMROTATEDRECTD28*
4,1,4,-0.01276,-0.01793,-0.02200,-0.00055,0.01276,0.01793,0.02200,0.00055,-0.01276,-0.01793,0.0*
%
%ADD28ROTATEDRECTD28*%

%ADD29R,0.04331X0.07480*%
%ADD30R,0.03740X0.03543*%
G04:AMPARAMS|DCode=31|XSize=39.37mil|YSize=27.56mil|CornerRadius=6.89mil|HoleSize=0mil|Usage=FLASHONLY|Rotation=180.000|XOffset=0mil|YOffset=0mil|HoleType=Round|Shape=RoundedRectangle|*
%AMROUNDEDRECTD31*
21,1,0.03937,0.01378,0,0,180.0*
21,1,0.02559,0.02756,0,0,180.0*
1,1,0.01378,-0.01280,0.00689*
1,1,0.01378,0.01280,0.00689*
1,1,0.01378,0.01280,-0.00689*
1,1,0.01378,-0.01280,-0.00689*
%
%ADD31ROUNDEDRECTD31*%
G04:AMPARAMS|DCode=32|XSize=39.37mil|YSize=27.56mil|CornerRadius=6.89mil|HoleSize=0mil|Usage=FLASHONLY|Rotation=270.000|XOffset=0mil|YOffset=0mil|HoleType=Round|Shape=RoundedRectangle|*
%AMROUNDEDRECTD32*
21,1,0.03937,0.01378,0,0,270.0*
21,1,0.02559,0.02756,0,0,270.0*
1,1,0.01378,-0.00689,-0.01280*
1,1,0.01378,-0.00689,0.01280*
1,1,0.01378,0.00689,0.01280*
1,1,0.01378,0.00689,-0.01280*
%
%ADD32ROUNDEDRECTD32*%
%ADD33R,0.02992X0.02835*%
%ADD34R,0.03740X0.01772*%
G04:AMPARAMS|DCode=35|XSize=21.65mil|YSize=19.68mil|CornerRadius=2.46mil|HoleSize=0mil|Usage=FLASHONLY|Rotation=0.000|XOffset=0mil|YOffset=0mil|HoleType=Round|Shape=RoundedRectangle|*
%AMROUNDEDRECTD35*
21,1,0.02165,0.01476,0,0,0.0*
21,1,0.01673,0.01968,0,0,0.0*
1,1,0.00492,0.00837,-0.00738*
1,1,0.00492,-0.00837,-0.00738*
1,1,0.00492,-0.00837,0.00738*
1,1,0.00492,0.00837,0.00738*
%
%ADD35ROUNDEDRECTD35*%
%ADD36R,0.06693X0.04921*%
%ADD37R,0.01575X0.02165*%
%ADD38R,0.03937X0.03543*%
G04:AMPARAMS|DCode=39|XSize=21.65mil|YSize=19.68mil|CornerRadius=2.46mil|HoleSize=0mil|Usage=FLASHONLY|Rotation=270.000|XOffset=0mil|YOffset=0mil|HoleType=Round|Shape=RoundedRectangle|*
%AMROUNDEDRECTD39*
21,1,0.02165,0.01476,0,0,270.0*
21,1,0.01673,0.01968,0,0,270.0*
1,1,0.00492,-0.00738,-0.00837*
1,1,0.00492,-0.00738,0.00837*
1,1,0.00492,0.00738,0.00837*
1,1,0.00492,0.00738,-0.00837*
%
%ADD39ROUNDEDRECTD39*%
%ADD40R,0.00984X0.01083*%
%ADD41R,0.01083X0.00984*%
%ADD42R,0.03347X0.03740*%
G04:AMPARAMS|DCode=43|XSize=10mil|YSize=10mil|CornerRadius=1.25mil|HoleSize=0mil|Usage=FLASHONLY|Rotation=90.000|XOffset=0mil|YOffset=0mil|HoleType=Round|Shape=RoundedRectangle|*
%AMROUNDEDRECTD43*
21,1,0.01000,0.00750,0,0,90.0*
21,1,0.00750,0.01000,0,0,90.0*
1,1,0.00250,0.00375,0.00375*
1,1,0.00250,0.00375,-0.00375*
1,1,0.00250,-0.00375,-0.00375*
1,1,0.00250,-0.00375,0.00375*
%
%ADD43ROUNDEDRECTD43*%
G04:AMPARAMS|DCode=44|XSize=10mil|YSize=10mil|CornerRadius=1.25mil|HoleSize=0mil|Usage=FLASHONLY|Rotation=180.000|XOffset=0mil|YOffset=0mil|HoleType=Round|Shape=RoundedRectangle|*
%AMROUNDEDRECTD44*
21,1,0.01000,0.00750,0,0,180.0*
21,1,0.00750,0.01000,0,0,180.0*
1,1,0.00250,-0.00375,0.00375*
1,1,0.00250,0.00375,0.00375*
1,1,0.00250,0.00375,-0.00375*
1,1,0.00250,-0.00375,-0.00375*
%
%ADD44ROUNDEDRECTD44*%
%ADD45O,0.02362X0.05709*%
%ADD46R,0.03150X0.03150*%
%ADD47R,0.03740X0.02165*%
G04:AMPARAMS|DCode=48|XSize=39.37mil|YSize=19.68mil|CornerRadius=0mil|HoleSize=0mil|Usage=FLASHONLY|Rotation=151.000|XOffset=0mil|YOffset=0mil|HoleType=Round|Shape=Rectangle|*
%AMROTATEDRECTD48*
4,1,4,0.02199,-0.00094,0.01245,-0.01815,-0.02199,0.00094,-0.01245,0.01815,0.02199,-0.00094,0.0*
%
%ADD48ROTATEDRECTD48*%

G04:AMPARAMS|DCode=49|XSize=66.93mil|YSize=47.24mil|CornerRadius=0mil|HoleSize=0mil|Usage=FLASHONLY|Rotation=151.000|XOffset=0mil|YOffset=0mil|HoleType=Round|Shape=Rectangle|*
%AMROTATEDRECTD49*
4,1,4,0.04072,0.00444,0.01782,-0.03688,-0.04072,-0.00444,-0.01782,0.03688,0.04072,0.00444,0.0*
%
%ADD49ROTATEDRECTD49*%

%ADD50R,0.01378X0.03150*%
%ADD51R,0.01378X0.01476*%
%ADD52R,0.01476X0.01378*%
%ADD53R,0.01870X0.00984*%
%ADD54R,0.00984X0.01870*%
%ADD55C,0.00992*%
%ADD56R,0.08071X0.08071*%
%ADD57R,0.14567X0.03858*%
%ADD58R,0.16929X0.06299*%
%ADD59R,0.12598X0.03937*%
%ADD60R,0.03150X0.03543*%
%ADD61R,0.04724X0.03543*%
%ADD62R,0.02441X0.02598*%
%ADD63R,0.02598X0.02441*%
%ADD64C,0.01181*%
%ADD65C,0.01800*%
%ADD68R,0.06299X0.09843*%
%ADD87R,0.02055X0.02362*%
%ADD105C,0.02362*%
%ADD106C,0.01181*%
%ADD107C,0.00600*%
%ADD108C,0.01400*%
%ADD109C,0.01200*%
%ADD110C,0.00800*%
%ADD111C,0.02000*%
%ADD112C,0.01968*%
%ADD113C,0.01800*%
G36*
X17986Y61431D02*
X17952Y61396D01*
X17922Y61335D01*
X17896Y61251D01*
X17874Y61143D01*
X17856Y61011D01*
X17838Y60754D01*
X17847Y60526D01*
X17829Y60526D01*
X17824Y60243D01*
X16624D01*
X16623Y60471D01*
X16617Y60558D01*
X16587Y60559D01*
X16594Y60571D01*
X16601Y60593D01*
X16606Y60625D01*
X16610Y60658D01*
X16569Y61251D01*
X16550Y61335D01*
X16527Y61396D01*
X16501Y61431D01*
X16473Y61444D01*
X18023D01*
X17986Y61431D01*
D02*
G37*
G36*
X-3879Y61431D02*
X-3926Y61396D01*
X-3967Y61335D01*
X-4002Y61251D01*
X-4033Y61143D01*
X-4057Y61011D01*
X-4076Y60856D01*
X-4098Y60471D01*
X-4101Y60243D01*
X-5301D01*
X-5302Y60471D01*
X-5310Y60603D01*
X-5356Y60608D01*
X-5345Y60622D01*
X-5336Y60645D01*
X-5328Y60678D01*
X-5321Y60721D01*
X-5319Y60740D01*
X-5363Y61431D01*
X-5378Y61444D01*
X-3827D01*
X-3879Y61431D01*
D02*
G37*
G36*
X17825Y59274D02*
X17847Y59274D01*
X17843Y59264D01*
X17839Y59244D01*
X17835Y59214D01*
X17830Y59122D01*
X17829Y59096D01*
X17874Y58472D01*
X17896Y58363D01*
X17922Y58280D01*
X17952Y58219D01*
X17986Y58183D01*
X18023Y58171D01*
X16473D01*
X16501Y58183D01*
X16527Y58219D01*
X16550Y58280D01*
X16569Y58363D01*
X16586Y58472D01*
X16610Y58759D01*
X16615Y58906D01*
X16594Y59229D01*
X16587Y59241D01*
X16623Y59242D01*
X16624Y59372D01*
X17824D01*
X17825Y59274D01*
D02*
G37*
G36*
X-4098Y59144D02*
X-4057Y58604D01*
X-4033Y58472D01*
X-4002Y58363D01*
X-3967Y58280D01*
X-3926Y58219D01*
X-3879Y58183D01*
X-3827Y58171D01*
X-5378D01*
X-5363Y58183D01*
X-5350Y58219D01*
X-5339Y58280D01*
X-5329Y58363D01*
X-5313Y58604D01*
X-5310Y58839D01*
X-5328Y59122D01*
X-5336Y59155D01*
X-5345Y59179D01*
X-5356Y59192D01*
X-5304Y59198D01*
X-5301Y59372D01*
X-4101D01*
X-4098Y59144D01*
D02*
G37*
G36*
X27571Y58112D02*
X27559Y58226D01*
X27523Y58328D01*
X27463Y58418D01*
X27379Y58496D01*
X27271Y58562D01*
X27139Y58616D01*
X26983Y58658D01*
X26803Y58688D01*
X26599Y58706D01*
X26371Y58712D01*
Y59912D01*
X26599Y59918D01*
X26803Y59936D01*
X26983Y59966D01*
X27139Y60008D01*
X27271Y60062D01*
X27379Y60128D01*
X27463Y60206D01*
X27523Y60296D01*
X27559Y60398D01*
X27571Y60512D01*
Y58112D01*
D02*
G37*
G36*
X29773Y55939D02*
X29791Y55735D01*
X29806Y55735D01*
X29798Y55722D01*
X29795Y55710D01*
X29821Y55551D01*
X29863Y55394D01*
X29917Y55261D01*
X29983Y55151D01*
X30061Y55067D01*
X30151Y55006D01*
X30253Y54970D01*
X30367Y54958D01*
X27967D01*
X28081Y54970D01*
X28183Y55006D01*
X28273Y55067D01*
X28351Y55151D01*
X28417Y55261D01*
X28471Y55394D01*
X28513Y55551D01*
X28543Y55733D01*
X28547Y55779D01*
X28547Y55781D01*
X28547Y55781D01*
X28561Y55939D01*
X28567Y56170D01*
X29767D01*
X29773Y55939D01*
D02*
G37*
G36*
X17986Y56609D02*
X17952Y56573D01*
X17922Y56513D01*
X17896Y56429D01*
X17874Y56321D01*
X17856Y56189D01*
X17836Y55904D01*
X17847Y55626D01*
X17828Y55626D01*
X17824Y55421D01*
X16624D01*
X16623Y55649D01*
X16622Y55658D01*
X16587Y55659D01*
X16594Y55671D01*
X16601Y55693D01*
X16606Y55725D01*
X16611Y55767D01*
X16612Y55797D01*
X16569Y56429D01*
X16550Y56513D01*
X16527Y56573D01*
X16501Y56609D01*
X16473Y56621D01*
X18023D01*
X17986Y56609D01*
D02*
G37*
G36*
X-3879D02*
X-3926Y56573D01*
X-3967Y56513D01*
X-4002Y56429D01*
X-4033Y56321D01*
X-4057Y56189D01*
X-4076Y56033D01*
X-4098Y55649D01*
X-4101Y55421D01*
X-5301D01*
X-5302Y55649D01*
X-5312Y55803D01*
X-5356Y55808D01*
X-5345Y55822D01*
X-5336Y55845D01*
X-5328Y55878D01*
X-5321Y55921D01*
X-5320Y55930D01*
X-5363Y56609D01*
X-5378Y56621D01*
X-3827D01*
X-3879Y56609D01*
D02*
G37*
G36*
X33381Y55696D02*
X33386Y55669D01*
X33398Y55639D01*
X33417Y55604D01*
X33441Y55566D01*
X33473Y55523D01*
X33555Y55425D01*
X33664Y55312D01*
X33239Y54888D01*
X33191Y54935D01*
X33103Y55010D01*
X33063Y55039D01*
X33026Y55062D01*
X32992Y55079D01*
X32961Y55089D01*
X32933Y55094D01*
X32907Y55093D01*
X32884Y55086D01*
X33382Y55719D01*
X33381Y55696D01*
D02*
G37*
G36*
X-28944Y54228D02*
X-28953Y54304D01*
X-28977Y54372D01*
X-29017Y54432D01*
X-29074Y54484D01*
X-29147Y54528D01*
X-29237Y54564D01*
X-29342Y54592D01*
X-29464Y54612D01*
X-29602Y54624D01*
X-29756Y54628D01*
Y55428D01*
X-29602Y55432D01*
X-29464Y55444D01*
X-29342Y55464D01*
X-29237Y55492D01*
X-29147Y55528D01*
X-29074Y55572D01*
X-29017Y55624D01*
X-28977Y55684D01*
X-28953Y55752D01*
X-28944Y55828D01*
Y54228D01*
D02*
G37*
G36*
X-31602Y55752D02*
X-31578Y55684D01*
X-31537Y55624D01*
X-31480Y55572D01*
X-31407Y55528D01*
X-31318Y55492D01*
X-31212Y55464D01*
X-31090Y55444D01*
X-30952Y55432D01*
X-30798Y55428D01*
Y54628D01*
X-30952Y54624D01*
X-31090Y54612D01*
X-31212Y54592D01*
X-31318Y54564D01*
X-31407Y54528D01*
X-31480Y54484D01*
X-31537Y54432D01*
X-31578Y54372D01*
X-31602Y54304D01*
X-31610Y54228D01*
Y55828D01*
X-31602Y55752D01*
D02*
G37*
G36*
X-33944Y54228D02*
X-33953Y54304D01*
X-33977Y54372D01*
X-34017Y54432D01*
X-34074Y54484D01*
X-34147Y54528D01*
X-34237Y54564D01*
X-34342Y54592D01*
X-34464Y54612D01*
X-34602Y54624D01*
X-34756Y54628D01*
Y55428D01*
X-34602Y55432D01*
X-34464Y55444D01*
X-34342Y55464D01*
X-34237Y55492D01*
X-34147Y55528D01*
X-34074Y55572D01*
X-34017Y55624D01*
X-33977Y55684D01*
X-33953Y55752D01*
X-33944Y55828D01*
Y54228D01*
D02*
G37*
G36*
X22135Y53699D02*
X22090Y53733D01*
X22037Y53750D01*
X21976Y53751D01*
X21907Y53736D01*
X21831Y53704D01*
X21746Y53657D01*
X21654Y53594D01*
X21554Y53514D01*
X21446Y53419D01*
X21330Y53307D01*
X20906Y53732D01*
X21018Y53847D01*
X21193Y54055D01*
X21256Y54147D01*
X21303Y54232D01*
X21335Y54308D01*
X21350Y54377D01*
X21349Y54438D01*
X21331Y54491D01*
X21298Y54536D01*
X22135Y53699D01*
D02*
G37*
G36*
X17826Y54374D02*
X17847Y54374D01*
X17843Y54364D01*
X17839Y54344D01*
X17835Y54314D01*
X17831Y54247D01*
X17874Y53649D01*
X17896Y53541D01*
X17922Y53457D01*
X17952Y53397D01*
X17986Y53361D01*
X18023Y53349D01*
X16473D01*
X16501Y53361D01*
X16527Y53397D01*
X16550Y53457D01*
X16569Y53541D01*
X16586Y53649D01*
X16610Y53937D01*
X16613Y54031D01*
X16594Y54329D01*
X16587Y54341D01*
X16623Y54342D01*
X16624Y54549D01*
X17824D01*
X17826Y54374D01*
D02*
G37*
G36*
X-4098Y54321D02*
X-4057Y53781D01*
X-4033Y53649D01*
X-4002Y53541D01*
X-3967Y53457D01*
X-3926Y53397D01*
X-3879Y53361D01*
X-3827Y53349D01*
X-5378D01*
X-5363Y53361D01*
X-5350Y53397D01*
X-5339Y53457D01*
X-5329Y53541D01*
X-5313Y53781D01*
X-5309Y54034D01*
X-5328Y54322D01*
X-5336Y54355D01*
X-5345Y54378D01*
X-5356Y54392D01*
X-5304Y54398D01*
X-5301Y54549D01*
X-4101D01*
X-4098Y54321D01*
D02*
G37*
G36*
X-38241Y55559D02*
X-38206Y55531D01*
X-38155Y55507D01*
X-38091Y55486D01*
X-38012Y55468D01*
X-37918Y55454D01*
X-37685Y55435D01*
X-37395Y55428D01*
X-37387Y54628D01*
X-37545Y54624D01*
X-37685Y54612D01*
X-37809Y54592D01*
X-37916Y54564D01*
X-38005Y54528D01*
X-38078Y54484D01*
X-38134Y54432D01*
X-38173Y54372D01*
X-38194Y54304D01*
X-38195Y54287D01*
X-38136Y54185D01*
X-38043Y54053D01*
X-37926Y53908D01*
X-37622Y53582D01*
X-38286Y53114D01*
X-38446Y53270D01*
X-38736Y53515D01*
X-38865Y53605D01*
X-38984Y53674D01*
X-39091Y53721D01*
X-39189Y53746D01*
X-39275Y53750D01*
X-39351Y53732D01*
X-39417Y53692D01*
X-38221Y54695D01*
X-38261Y55589D01*
X-38241Y55559D01*
D02*
G37*
G36*
X36200Y52850D02*
X34200Y54350D01*
X34200Y56100D01*
X35200Y57100D01*
X36200D01*
X36200Y52850D01*
D02*
G37*
G36*
X40700Y56100D02*
X40700Y54350D01*
X38700Y52850D01*
X38700Y57100D01*
X39700Y57100D01*
X40700Y56100D01*
D02*
G37*
G36*
X41892Y53337D02*
X41956Y53287D01*
X42024Y53242D01*
X42095Y53204D01*
X42170Y53171D01*
X42248Y53145D01*
X42329Y53124D01*
X42413Y53110D01*
X42500Y53102D01*
X42591Y53100D01*
X41700Y52209D01*
X41698Y52300D01*
X41690Y52387D01*
X41675Y52472D01*
X41655Y52552D01*
X41629Y52630D01*
X41596Y52705D01*
X41558Y52776D01*
X41513Y52844D01*
X41463Y52908D01*
X41406Y52970D01*
X41830Y53394D01*
X41892Y53337D01*
D02*
G37*
G36*
X-40293Y50211D02*
X-40329Y50271D01*
X-40386Y50325D01*
X-40463Y50373D01*
X-40560Y50414D01*
X-40677Y50449D01*
X-40815Y50478D01*
X-40973Y50500D01*
X-41073Y50507D01*
X-41229Y50498D01*
Y50517D01*
X-41349Y50525D01*
X-41567Y50528D01*
Y51728D01*
X-41349Y51731D01*
X-41229Y51740D01*
Y51758D01*
X-41218Y51753D01*
X-41197Y51748D01*
X-41169Y51744D01*
X-40973Y51757D01*
X-40815Y51779D01*
X-40677Y51808D01*
X-40560Y51843D01*
X-40463Y51884D01*
X-40386Y51931D01*
X-40329Y51985D01*
X-40293Y52046D01*
Y50211D01*
D02*
G37*
G36*
X-21690Y53101D02*
X-21722Y53039D01*
X-21733Y52967D01*
X-21723Y52884D01*
X-21691Y52791D01*
X-21637Y52688D01*
X-21563Y52574D01*
X-21467Y52451D01*
X-21350Y52317D01*
X-21211Y52173D01*
X-21845Y51676D01*
X-21994Y51819D01*
X-22265Y52045D01*
X-22387Y52128D01*
X-22500Y52192D01*
X-22603Y52235D01*
X-22699Y52258D01*
X-22785Y52262D01*
X-22862Y52245D01*
X-22930Y52208D01*
X-21637Y53154D01*
X-21690Y53101D01*
D02*
G37*
G36*
X-16706Y53022D02*
X-16743Y52964D01*
X-16757Y52895D01*
X-16750Y52816D01*
X-16722Y52726D01*
X-16671Y52626D01*
X-16599Y52515D01*
X-16506Y52393D01*
X-16390Y52261D01*
X-16253Y52118D01*
X-16915Y51649D01*
X-17067Y51796D01*
X-17345Y52029D01*
X-17470Y52116D01*
X-17587Y52184D01*
X-17696Y52231D01*
X-17795Y52259D01*
X-17886Y52267D01*
X-17967Y52254D01*
X-18041Y52223D01*
X-16648Y53069D01*
X-16706Y53022D01*
D02*
G37*
G36*
X43502Y52100D02*
X43510Y52013D01*
X43525Y51929D01*
X43545Y51847D01*
X43571Y51770D01*
X43604Y51695D01*
X43642Y51624D01*
X43687Y51556D01*
X43737Y51492D01*
X43794Y51430D01*
X43370Y51006D01*
X43308Y51063D01*
X43244Y51113D01*
X43176Y51158D01*
X43105Y51196D01*
X43030Y51229D01*
X42952Y51255D01*
X42871Y51275D01*
X42787Y51290D01*
X42700Y51298D01*
X42609Y51300D01*
X43500Y52191D01*
X43502Y52100D01*
D02*
G37*
G36*
X-10759Y51735D02*
X-10723Y51728D01*
X-10680Y51721D01*
X-10568Y51711D01*
X-10340Y51702D01*
X-10148Y51700D01*
X-9660Y50900D01*
X-9755Y50897D01*
X-9841Y50889D01*
X-9920Y50875D01*
X-9990Y50855D01*
X-10053Y50830D01*
X-10107Y50800D01*
X-10153Y50763D01*
X-10192Y50722D01*
X-10222Y50674D01*
X-10244Y50621D01*
X-10786Y51744D01*
X-10759Y51735D01*
D02*
G37*
G36*
X15459Y51443D02*
X15477Y51392D01*
X15507Y51347D01*
X15550Y51308D01*
X15605Y51275D01*
X15673Y51248D01*
X15752Y51227D01*
X15844Y51212D01*
X15948Y51203D01*
X16064Y51200D01*
Y50600D01*
X15948Y50597D01*
X15844Y50588D01*
X15752Y50573D01*
X15673Y50552D01*
X15605Y50525D01*
X15550Y50492D01*
X15507Y50453D01*
X15477Y50408D01*
X15459Y50357D01*
X15452Y50300D01*
Y51500D01*
X15459Y51443D01*
D02*
G37*
G36*
X7110Y51642D02*
X7146Y51612D01*
X7206Y51586D01*
X7290Y51563D01*
X7398Y51544D01*
X7530Y51528D01*
X7866Y51507D01*
X8298Y51500D01*
Y51459D01*
X8313Y51457D01*
X8298Y51391D01*
Y50300D01*
X8070Y50298D01*
X8049Y50297D01*
X8033Y50229D01*
X8020Y50242D01*
X7996Y50254D01*
X7963Y50265D01*
X7920Y50274D01*
X7867Y50282D01*
X7844Y50284D01*
X7398Y50256D01*
X7290Y50237D01*
X7206Y50214D01*
X7146Y50188D01*
X7110Y50158D01*
X7098Y50125D01*
Y51675D01*
X7110Y51642D01*
D02*
G37*
G36*
X2091Y51623D02*
X2127Y51576D01*
X2187Y51535D01*
X2271Y51499D01*
X2379Y51469D01*
X2511Y51444D01*
X2667Y51425D01*
X3051Y51403D01*
X3279Y51400D01*
Y50200D01*
X3051Y50199D01*
X2997Y50196D01*
X2991Y50145D01*
X2978Y50156D01*
X2954Y50165D01*
X2921Y50173D01*
X2878Y50180D01*
X2826Y50185D01*
X2091Y50139D01*
X2079Y50125D01*
Y51675D01*
X2091Y51623D01*
D02*
G37*
G36*
X10567Y50125D02*
X10555Y50139D01*
X10519Y50152D01*
X10459Y50163D01*
X10375Y50173D01*
X10135Y50188D01*
X9872Y50192D01*
X9579Y50173D01*
X9546Y50165D01*
X9522Y50156D01*
X9509Y50145D01*
X9503Y50198D01*
X9367Y50200D01*
Y51400D01*
X9595Y51403D01*
X10135Y51444D01*
X10267Y51469D01*
X10375Y51499D01*
X10459Y51535D01*
X10519Y51576D01*
X10555Y51623D01*
X10567Y51675D01*
Y50125D01*
D02*
G37*
G36*
X5547D02*
X5536Y50158D01*
X5500Y50188D01*
X5440Y50214D01*
X5355Y50237D01*
X5247Y50256D01*
X5115Y50272D01*
X4817Y50291D01*
X4580Y50274D01*
X4537Y50265D01*
X4504Y50254D01*
X4480Y50242D01*
X4467Y50229D01*
X4451Y50298D01*
X4347Y50300D01*
Y50752D01*
X4187Y51457D01*
X4347Y51472D01*
Y51500D01*
X4575Y51502D01*
X5247Y51544D01*
X5355Y51563D01*
X5440Y51586D01*
X5500Y51612D01*
X5536Y51642D01*
X5547Y51675D01*
Y50125D01*
D02*
G37*
G36*
X-2819D02*
X-2827Y50196D01*
X-2851Y50260D01*
X-2891Y50316D01*
X-2947Y50365D01*
X-3019Y50406D01*
X-3107Y50440D01*
X-3211Y50466D01*
X-3331Y50485D01*
X-3467Y50496D01*
X-3619Y50500D01*
Y51300D01*
X-3467Y51304D01*
X-3331Y51315D01*
X-3211Y51334D01*
X-3107Y51360D01*
X-3019Y51394D01*
X-2947Y51435D01*
X-2891Y51484D01*
X-2851Y51540D01*
X-2827Y51604D01*
X-2819Y51675D01*
Y50125D01*
D02*
G37*
G36*
X44893Y50101D02*
X44917Y49759D01*
X44927Y49695D01*
X44940Y49639D01*
X44954Y49593D01*
X44971Y49555D01*
X44989Y49525D01*
X44196D01*
X44214Y49555D01*
X44230Y49593D01*
X44245Y49639D01*
X44258Y49695D01*
X44268Y49759D01*
X44284Y49913D01*
X44291Y50101D01*
X44292Y50208D01*
X44892D01*
X44893Y50101D01*
D02*
G37*
G36*
X-8030Y49854D02*
X-7998Y49806D01*
X-7958Y49764D01*
X-7910Y49728D01*
X-7855Y49697D01*
X-7791Y49672D01*
X-7720Y49652D01*
X-7642Y49638D01*
X-7555Y49630D01*
X-7460Y49627D01*
X-7899Y48827D01*
X-7998Y48826D01*
X-8441Y48796D01*
X-8491Y48786D01*
X-8533Y48775D01*
X-8569Y48763D01*
X-8054Y49907D01*
X-8030Y49854D01*
D02*
G37*
G36*
X18032Y49931D02*
X18055Y49867D01*
X18095Y49811D01*
X18151Y49762D01*
X18223Y49721D01*
X18311Y49687D01*
X18416Y49661D01*
X18535Y49642D01*
X18671Y49630D01*
X18823Y49627D01*
Y48827D01*
X18671Y48823D01*
X18535Y48812D01*
X18416Y48793D01*
X18311Y48767D01*
X18223Y48733D01*
X18151Y48692D01*
X18095Y48643D01*
X18055Y48586D01*
X18032Y48523D01*
X18023Y48451D01*
Y50002D01*
X18032Y49931D01*
D02*
G37*
G36*
X-5378Y48451D02*
X-5386Y48523D01*
X-5410Y48586D01*
X-5450Y48643D01*
X-5506Y48692D01*
X-5578Y48733D01*
X-5666Y48767D01*
X-5770Y48793D01*
X-5890Y48812D01*
X-6026Y48823D01*
X-6178Y48827D01*
Y49627D01*
X-6026Y49630D01*
X-5890Y49642D01*
X-5770Y49661D01*
X-5666Y49687D01*
X-5578Y49721D01*
X-5506Y49762D01*
X-5450Y49811D01*
X-5410Y49867D01*
X-5386Y49931D01*
X-5378Y50002D01*
Y48451D01*
D02*
G37*
G36*
X29204Y46930D02*
X29160Y46977D01*
X29111Y47020D01*
X29056Y47058D01*
X28996Y47090D01*
X28930Y47118D01*
X28859Y47140D01*
X28782Y47158D01*
X28700Y47170D01*
X28612Y47178D01*
X28519Y47180D01*
X28599Y47980D01*
X28692Y47982D01*
X28864Y47999D01*
X28943Y48013D01*
X29017Y48031D01*
X29086Y48054D01*
X29151Y48081D01*
X29211Y48111D01*
X29266Y48146D01*
X29316Y48185D01*
X29204Y46930D01*
D02*
G37*
G36*
X-12202Y48071D02*
X-12134Y48013D01*
X-12068Y47963D01*
X-12001Y47919D01*
X-11935Y47882D01*
X-11869Y47852D01*
X-11804Y47829D01*
X-11738Y47812D01*
X-11674Y47803D01*
X-11609Y47800D01*
X-12500Y46909D01*
X-12503Y46974D01*
X-12512Y47038D01*
X-12529Y47104D01*
X-12552Y47169D01*
X-12582Y47235D01*
X-12619Y47301D01*
X-12663Y47368D01*
X-12713Y47434D01*
X-12771Y47502D01*
X-12835Y47569D01*
X-12269Y48135D01*
X-12202Y48071D01*
D02*
G37*
G36*
X-8723Y48097D02*
X-8667Y48067D01*
X-8606Y48040D01*
X-8540Y48017D01*
X-8470Y47998D01*
X-8396Y47982D01*
X-8316Y47969D01*
X-8144Y47955D01*
X-8050Y47954D01*
X-7894Y47154D01*
X-7988Y47151D01*
X-8075Y47143D01*
X-8157Y47130D01*
X-8232Y47111D01*
X-8302Y47087D01*
X-8365Y47058D01*
X-8423Y47024D01*
X-8474Y46984D01*
X-8520Y46939D01*
X-8559Y46889D01*
X-8774Y48130D01*
X-8723Y48097D01*
D02*
G37*
G36*
X15472Y48263D02*
X15496Y48203D01*
X15536Y48151D01*
X15592Y48106D01*
X15664Y48068D01*
X15752Y48036D01*
X15856Y48012D01*
X15976Y47994D01*
X16112Y47984D01*
X16264Y47980D01*
Y47180D01*
X16111Y47176D01*
X15973Y47164D01*
X15852Y47144D01*
X15746Y47116D01*
X15657Y47080D01*
X15584Y47036D01*
X15527Y46984D01*
X15486Y46924D01*
X15461Y46856D01*
X15452Y46780D01*
X15464Y48329D01*
X15472Y48263D01*
D02*
G37*
G36*
X-2819Y46778D02*
X-2827Y46850D01*
X-2851Y46913D01*
X-2891Y46970D01*
X-2947Y47018D01*
X-3019Y47060D01*
X-3107Y47093D01*
X-3211Y47120D01*
X-3331Y47139D01*
X-3467Y47150D01*
X-3619Y47154D01*
Y47954D01*
X-3467Y47957D01*
X-3331Y47969D01*
X-3211Y47987D01*
X-3107Y48014D01*
X-3019Y48047D01*
X-2947Y48089D01*
X-2891Y48138D01*
X-2851Y48194D01*
X-2827Y48258D01*
X-2819Y48329D01*
Y46778D01*
D02*
G37*
G36*
X-5378Y45105D02*
X-5386Y45176D01*
X-5410Y45240D01*
X-5450Y45296D01*
X-5506Y45345D01*
X-5578Y45386D01*
X-5666Y45420D01*
X-5770Y45447D01*
X-5890Y45465D01*
X-6026Y45477D01*
X-6063Y45478D01*
X-6149Y45469D01*
X-6229Y45455D01*
X-6302Y45436D01*
X-6368Y45411D01*
X-6427Y45380D01*
X-6479Y45344D01*
X-6524Y45302D01*
X-6562Y45254D01*
X-6593Y45202D01*
X-6985Y46399D01*
X-6937Y46376D01*
X-6884Y46356D01*
X-6825Y46338D01*
X-6762Y46323D01*
X-6618Y46299D01*
X-6539Y46291D01*
X-6271Y46280D01*
X-6178Y46035D01*
Y46280D01*
X-6026Y46284D01*
X-5890Y46295D01*
X-5770Y46314D01*
X-5666Y46340D01*
X-5578Y46374D01*
X-5506Y46415D01*
X-5450Y46464D01*
X-5410Y46521D01*
X-5386Y46584D01*
X-5378Y46656D01*
Y45105D01*
D02*
G37*
G36*
X626Y46000D02*
X562Y45995D01*
X497Y45983D01*
X433Y45965D01*
X368Y45940D01*
X302Y45909D01*
X236Y45871D01*
X170Y45827D01*
X103Y45775D01*
X36Y45718D01*
X-31Y45653D01*
X-622Y46194D01*
X-557Y46262D01*
X-500Y46329D01*
X-450Y46396D01*
X-408Y46463D01*
X-372Y46529D01*
X-343Y46595D01*
X-321Y46661D01*
X-307Y46726D01*
X-299Y46791D01*
X-299Y46856D01*
X626Y46000D01*
D02*
G37*
G36*
X-10706Y46756D02*
X-10700Y46691D01*
X-10688Y46625D01*
X-10668Y46560D01*
X-10640Y46494D01*
X-10605Y46427D01*
X-10563Y46361D01*
X-10514Y46294D01*
X-10457Y46226D01*
X-10393Y46159D01*
X-11009Y45643D01*
X-11076Y45707D01*
X-11209Y45817D01*
X-11275Y45862D01*
X-11341Y45902D01*
X-11406Y45934D01*
X-11470Y45961D01*
X-11535Y45981D01*
X-11598Y45995D01*
X-11662Y46002D01*
X-10704Y46820D01*
X-10706Y46756D01*
D02*
G37*
G36*
X18018Y46423D02*
X18036Y46372D01*
X18067Y46327D01*
X18109Y46288D01*
X18164Y46255D01*
X18232Y46228D01*
X18311Y46207D01*
X18403Y46192D01*
X18507Y46183D01*
X18623Y46180D01*
Y45580D01*
X18507Y45577D01*
X18403Y45568D01*
X18311Y45553D01*
X18232Y45532D01*
X18164Y45505D01*
X18109Y45472D01*
X18067Y45433D01*
X18036Y45388D01*
X18018Y45337D01*
X18011Y45280D01*
Y46480D01*
X18018Y46423D01*
D02*
G37*
G36*
X36271Y45256D02*
X36204Y45318D01*
X36135Y45373D01*
X36064Y45421D01*
X35991Y45464D01*
X35917Y45499D01*
X35841Y45528D01*
X35763Y45551D01*
X35683Y45567D01*
X35602Y45577D01*
X35519Y45580D01*
X35505Y46180D01*
X35588Y46184D01*
X35670Y46194D01*
X35749Y46211D01*
X35827Y46234D01*
X35902Y46264D01*
X35974Y46301D01*
X36045Y46345D01*
X36113Y46395D01*
X36180Y46452D01*
X36244Y46516D01*
X36271Y45256D01*
D02*
G37*
G36*
X46592Y48221D02*
X46592Y46471D01*
X44592Y44971D01*
X44592Y49221D01*
X45592D01*
X46592Y48221D01*
D02*
G37*
G36*
X42092Y44971D02*
X40092Y46471D01*
X40092Y48221D01*
X41092Y49221D01*
X42092D01*
X42092Y44971D01*
D02*
G37*
G36*
X-702Y44982D02*
X-862Y44817D01*
X-1113Y44522D01*
X-1205Y44391D01*
X-1274Y44272D01*
X-1320Y44165D01*
X-1344Y44069D01*
X-1345Y43985D01*
X-1324Y43912D01*
X-1280Y43851D01*
X-2399Y44971D01*
X-2338Y44926D01*
X-2265Y44905D01*
X-2181Y44906D01*
X-2085Y44930D01*
X-1978Y44976D01*
X-1859Y45046D01*
X-1729Y45137D01*
X-1587Y45252D01*
X-1268Y45548D01*
X-702Y44982D01*
D02*
G37*
G36*
X-16106Y47071D02*
X-16038Y47015D01*
X-15971Y46968D01*
X-15905Y46929D01*
X-15840Y46898D01*
X-15775Y46876D01*
X-15711Y46862D01*
X-15648Y46857D01*
X-15586Y46860D01*
X-15524Y46872D01*
X-15513Y45787D01*
X-14428Y45776D01*
X-14440Y45714D01*
X-14443Y45652D01*
X-14438Y45588D01*
X-14424Y45525D01*
X-14402Y45460D01*
X-14371Y45395D01*
X-14332Y45329D01*
X-14285Y45262D01*
X-14229Y45194D01*
X-14165Y45126D01*
X-14888Y44719D01*
X-14956Y44784D01*
X-15087Y44898D01*
X-15150Y44947D01*
X-15274Y45028D01*
X-15334Y45060D01*
X-15393Y45087D01*
X-15450Y45108D01*
X-15506Y45124D01*
X-15513Y45787D01*
X-16176Y45794D01*
X-16192Y45850D01*
X-16213Y45907D01*
X-16240Y45966D01*
X-16272Y46026D01*
X-16353Y46150D01*
X-16402Y46213D01*
X-16516Y46344D01*
X-16581Y46411D01*
X-16174Y47135D01*
X-16106Y47071D01*
D02*
G37*
G36*
X-23643Y44370D02*
X-23690Y44414D01*
X-23743Y44453D01*
X-23801Y44487D01*
X-23864Y44517D01*
X-23931Y44543D01*
X-24004Y44563D01*
X-24082Y44579D01*
X-24165Y44591D01*
X-24253Y44598D01*
X-24346Y44600D01*
Y45400D01*
X-24253Y45402D01*
X-24165Y45409D01*
X-24082Y45421D01*
X-24004Y45437D01*
X-23931Y45458D01*
X-23864Y45483D01*
X-23801Y45513D01*
X-23743Y45547D01*
X-23690Y45586D01*
X-23643Y45630D01*
Y44370D01*
D02*
G37*
G36*
X15459Y44763D02*
X15477Y44712D01*
X15507Y44668D01*
X15550Y44629D01*
X15605Y44596D01*
X15673Y44568D01*
X15752Y44548D01*
X15844Y44532D01*
X15948Y44524D01*
X16064Y44521D01*
Y43920D01*
X15948Y43918D01*
X15844Y43909D01*
X15752Y43894D01*
X15673Y43872D01*
X15605Y43845D01*
X15550Y43813D01*
X15507Y43773D01*
X15477Y43729D01*
X15459Y43677D01*
X15452Y43620D01*
Y44820D01*
X15459Y44763D01*
D02*
G37*
G36*
X9704Y44773D02*
X9772Y44717D01*
X9842Y44668D01*
X9914Y44625D01*
X9988Y44589D01*
X10064Y44560D01*
X10142Y44537D01*
X10207Y44523D01*
X10273Y44534D01*
X10351Y44555D01*
X10417Y44582D01*
X10471Y44615D01*
X10513Y44654D01*
X10543Y44699D01*
X10561Y44750D01*
X10567Y44807D01*
Y43607D01*
X10561Y43664D01*
X10543Y43715D01*
X10513Y43760D01*
X10471Y43799D01*
X10417Y43832D01*
X10351Y43859D01*
X10273Y43880D01*
X10210Y43891D01*
X10147Y43877D01*
X10069Y43854D01*
X9994Y43824D01*
X9920Y43788D01*
X9849Y43744D01*
X9780Y43695D01*
X9713Y43638D01*
X9648Y43575D01*
X9638Y44835D01*
X9704Y44773D01*
D02*
G37*
G36*
X2073Y44750D02*
X2091Y44699D01*
X2122Y44654D01*
X2165Y44615D01*
X2220Y44582D01*
X2287Y44555D01*
X2366Y44534D01*
X2458Y44519D01*
X2562Y44510D01*
X2679Y44507D01*
Y43907D01*
X2562Y43904D01*
X2458Y43895D01*
X2366Y43880D01*
X2287Y43859D01*
X2220Y43832D01*
X2165Y43799D01*
X2122Y43760D01*
X2091Y43715D01*
X2073Y43664D01*
X2067Y43607D01*
Y44807D01*
X2073Y44750D01*
D02*
G37*
G36*
X3550Y43577D02*
X3484Y43640D01*
X3417Y43696D01*
X3347Y43745D01*
X3276Y43788D01*
X3202Y43825D01*
X3126Y43854D01*
X3049Y43877D01*
X2969Y43894D01*
X2888Y43904D01*
X2804Y43907D01*
Y44507D01*
X2888Y44510D01*
X2969Y44520D01*
X3049Y44537D01*
X3126Y44560D01*
X3202Y44590D01*
X3276Y44626D01*
X3347Y44669D01*
X3417Y44718D01*
X3484Y44774D01*
X3550Y44837D01*
Y43577D01*
D02*
G37*
G36*
X23623Y41904D02*
X23576Y41948D01*
X23523Y41987D01*
X23465Y42021D01*
X23403Y42051D01*
X23335Y42076D01*
X23262Y42097D01*
X23184Y42113D01*
X23101Y42125D01*
X23013Y42132D01*
X22920Y42134D01*
Y42934D01*
X23013Y42936D01*
X23101Y42943D01*
X23184Y42955D01*
X23262Y42971D01*
X23335Y42991D01*
X23403Y43017D01*
X23465Y43047D01*
X23523Y43081D01*
X23576Y43120D01*
X23623Y43164D01*
Y41904D01*
D02*
G37*
G36*
X18032Y43238D02*
X18055Y43174D01*
X18095Y43118D01*
X18151Y43069D01*
X18223Y43028D01*
X18311Y42994D01*
X18416Y42968D01*
X18535Y42949D01*
X18671Y42938D01*
X18823Y42934D01*
Y42134D01*
X18671Y42130D01*
X18535Y42119D01*
X18416Y42100D01*
X18311Y42074D01*
X18223Y42040D01*
X18151Y41999D01*
X18095Y41950D01*
X18055Y41894D01*
X18032Y41830D01*
X18023Y41758D01*
Y43309D01*
X18032Y43238D01*
D02*
G37*
G36*
X-5378Y41758D02*
X-5386Y41830D01*
X-5410Y41894D01*
X-5450Y41950D01*
X-5506Y41999D01*
X-5578Y42040D01*
X-5666Y42074D01*
X-5770Y42100D01*
X-5890Y42119D01*
X-6026Y42130D01*
X-6178Y42134D01*
Y42934D01*
X-6026Y42938D01*
X-5890Y42949D01*
X-5770Y42968D01*
X-5666Y42994D01*
X-5578Y43028D01*
X-5506Y43069D01*
X-5450Y43118D01*
X-5410Y43174D01*
X-5386Y43238D01*
X-5378Y43309D01*
Y41758D01*
D02*
G37*
G36*
X30927Y43702D02*
X30992Y43652D01*
X31060Y43608D01*
X31131Y43572D01*
X31205Y43542D01*
X31282Y43519D01*
X31362Y43503D01*
X31445Y43494D01*
X31531Y43492D01*
X31620Y43497D01*
X31630Y42530D01*
X32596Y42520D01*
X32592Y42431D01*
X32594Y42345D01*
X32603Y42262D01*
X32619Y42182D01*
X32642Y42105D01*
X32672Y42031D01*
X32708Y41960D01*
X32752Y41892D01*
X32802Y41827D01*
X32859Y41765D01*
X32400Y41376D01*
X32339Y41432D01*
X32275Y41483D01*
X32208Y41529D01*
X32137Y41569D01*
X32062Y41605D01*
X31984Y41635D01*
X31903Y41659D01*
X31818Y41679D01*
X31730Y41693D01*
X31638Y41702D01*
X31630Y42530D01*
X30802Y42538D01*
X30793Y42630D01*
X30779Y42718D01*
X30759Y42803D01*
X30735Y42884D01*
X30705Y42962D01*
X30669Y43037D01*
X30629Y43108D01*
X30583Y43175D01*
X30532Y43239D01*
X30476Y43300D01*
X30865Y43759D01*
X30927Y43702D01*
D02*
G37*
G36*
X25169Y42460D02*
X25179Y42395D01*
X25195Y42330D01*
X25218Y42265D01*
X25248Y42199D01*
X25285Y42133D01*
X25329Y42066D01*
X25379Y41999D01*
X25437Y41932D01*
X25501Y41865D01*
X24935Y41299D01*
X24868Y41363D01*
X24801Y41421D01*
X24734Y41471D01*
X24667Y41515D01*
X24601Y41552D01*
X24535Y41582D01*
X24470Y41605D01*
X24405Y41622D01*
X24340Y41631D01*
X24275Y41634D01*
X25166Y42525D01*
X25169Y42460D01*
D02*
G37*
G36*
X-1260Y41568D02*
X-1236Y41508D01*
X-1196Y41455D01*
X-1140Y41408D01*
X-1068Y41369D01*
X-1014Y41350D01*
X-974Y41365D01*
X-912Y41396D01*
X-855Y41431D01*
X-803Y41471D01*
X-756Y41516D01*
X-752Y41294D01*
X-620Y41284D01*
X-468Y41280D01*
Y40480D01*
X-620Y40476D01*
X-733Y40466D01*
X-729Y40256D01*
X-777Y40299D01*
X-831Y40337D01*
X-889Y40370D01*
X-952Y40400D01*
X-990Y40413D01*
X-1068Y40382D01*
X-1140Y40338D01*
X-1196Y40287D01*
X-1236Y40227D01*
X-1260Y40160D01*
X-1268Y40085D01*
Y40472D01*
X-1343Y40478D01*
X-1436Y40480D01*
X-1456Y41280D01*
X-1363Y41283D01*
X-1275Y41290D01*
X-1268Y41291D01*
Y41636D01*
X-1260Y41568D01*
D02*
G37*
G36*
X15459Y41343D02*
X15477Y41292D01*
X15507Y41247D01*
X15550Y41208D01*
X15605Y41175D01*
X15673Y41148D01*
X15752Y41127D01*
X15844Y41112D01*
X15948Y41103D01*
X16064Y41100D01*
Y40500D01*
X15948Y40497D01*
X15844Y40488D01*
X15752Y40473D01*
X15673Y40452D01*
X15605Y40425D01*
X15550Y40392D01*
X15507Y40353D01*
X15477Y40308D01*
X15459Y40257D01*
X15452Y40200D01*
Y41400D01*
X15459Y41343D01*
D02*
G37*
G36*
X10219Y40936D02*
X10167Y40864D01*
X10120Y40790D01*
X10080Y40715D01*
X10046Y40639D01*
X10019Y40562D01*
X9997Y40483D01*
X9982Y40403D01*
X9972Y40322D01*
X9969Y40239D01*
X9369Y40190D01*
X9366Y40274D01*
X9355Y40356D01*
X9338Y40435D01*
X9314Y40511D01*
X9282Y40584D01*
X9244Y40655D01*
X9199Y40723D01*
X9147Y40788D01*
X9087Y40851D01*
X9021Y40911D01*
X10278Y41008D01*
X10219Y40936D01*
D02*
G37*
G36*
X21457Y40170D02*
X21392Y40233D01*
X21324Y40289D01*
X21254Y40338D01*
X21183Y40381D01*
X21109Y40418D01*
X21034Y40447D01*
X20956Y40470D01*
X20876Y40487D01*
X20795Y40497D01*
X20711Y40500D01*
Y41100D01*
X20795Y41103D01*
X20876Y41113D01*
X20956Y41130D01*
X21034Y41153D01*
X21109Y41183D01*
X21183Y41219D01*
X21254Y41262D01*
X21324Y41311D01*
X21392Y41367D01*
X21457Y41430D01*
Y40170D01*
D02*
G37*
G36*
X39504Y42077D02*
X39515Y42056D01*
X39534Y42029D01*
X39560Y41995D01*
X39680Y41862D01*
X39748Y41796D01*
X40166Y41443D01*
X40354Y41313D01*
X40528Y41213D01*
X40688Y41143D01*
X40834Y41104D01*
X40966Y41096D01*
X41084Y41118D01*
X41188Y41170D01*
X39238Y39803D01*
X39317Y39881D01*
X39359Y39979D01*
X39365Y40096D01*
X39335Y40234D01*
X39268Y40391D01*
X39165Y40568D01*
X39026Y40764D01*
X38851Y40981D01*
X38742Y41097D01*
X38644Y41185D01*
X38623Y41196D01*
X38609Y41200D01*
X38628Y41219D01*
X38391Y41474D01*
X39342Y41933D01*
X39500Y42091D01*
X39504Y42077D01*
D02*
G37*
G36*
X46061Y40501D02*
X46085Y40433D01*
X46125Y40373D01*
X46181Y40321D01*
X46253Y40277D01*
X46341Y40241D01*
X46445Y40213D01*
X46565Y40193D01*
X46701Y40181D01*
X46734Y40180D01*
X46812Y40186D01*
X46895Y40198D01*
X46973Y40214D01*
X47046Y40235D01*
X47114Y40260D01*
X47176Y40290D01*
X47234Y40324D01*
X47287Y40363D01*
X47334Y40407D01*
Y39147D01*
X47287Y39191D01*
X47234Y39230D01*
X47176Y39264D01*
X47114Y39294D01*
X47046Y39320D01*
X46973Y39340D01*
X46895Y39356D01*
X46812Y39368D01*
X46734Y39374D01*
X46701Y39373D01*
X46565Y39361D01*
X46445Y39341D01*
X46341Y39313D01*
X46253Y39277D01*
X46181Y39233D01*
X46125Y39181D01*
X46085Y39121D01*
X46061Y39053D01*
X46053Y38977D01*
Y40577D01*
X46061Y40501D01*
D02*
G37*
G36*
X18018Y39730D02*
X18036Y39679D01*
X18067Y39634D01*
X18109Y39595D01*
X18164Y39562D01*
X18232Y39535D01*
X18311Y39514D01*
X18403Y39499D01*
X18507Y39490D01*
X18623Y39487D01*
Y38887D01*
X18507Y38884D01*
X18403Y38875D01*
X18311Y38860D01*
X18232Y38839D01*
X18164Y38812D01*
X18109Y38779D01*
X18067Y38740D01*
X18036Y38695D01*
X18018Y38644D01*
X18011Y38587D01*
Y39787D01*
X18018Y39730D01*
D02*
G37*
G36*
X24445Y38557D02*
X24379Y38620D01*
X24311Y38676D01*
X24242Y38726D01*
X24170Y38769D01*
X24096Y38805D01*
X24021Y38835D01*
X23943Y38858D01*
X23864Y38874D01*
X23782Y38884D01*
X23699Y38887D01*
Y39487D01*
X23782Y39491D01*
X23864Y39501D01*
X23943Y39517D01*
X24021Y39540D01*
X24096Y39570D01*
X24170Y39606D01*
X24242Y39649D01*
X24311Y39699D01*
X24379Y39755D01*
X24445Y39817D01*
Y38557D01*
D02*
G37*
G36*
X8557Y39277D02*
X8523Y39222D01*
X8494Y39162D01*
X8468Y39097D01*
X8446Y39028D01*
X8428Y38953D01*
X8414Y38874D01*
X8404Y38791D01*
X8396Y38609D01*
X7596Y38513D01*
X7593Y38606D01*
X7586Y38694D01*
X7573Y38776D01*
X7555Y38852D01*
X7533Y38923D01*
X7505Y38989D01*
X7472Y39048D01*
X7434Y39102D01*
X7390Y39151D01*
X7342Y39194D01*
X8595Y39328D01*
X8557Y39277D01*
D02*
G37*
G36*
X-5378Y38412D02*
X-5386Y38483D01*
X-5410Y38547D01*
X-5450Y38603D01*
X-5506Y38652D01*
X-5578Y38694D01*
X-5666Y38727D01*
X-5770Y38754D01*
X-5890Y38772D01*
X-6026Y38784D01*
X-6178Y38787D01*
Y39587D01*
X-6026Y39591D01*
X-5890Y39602D01*
X-5770Y39621D01*
X-5666Y39647D01*
X-5578Y39681D01*
X-5506Y39723D01*
X-5450Y39771D01*
X-5410Y39828D01*
X-5386Y39891D01*
X-5378Y39963D01*
Y38412D01*
D02*
G37*
G36*
X11496Y39090D02*
X11771D01*
X11774Y38981D01*
X12052Y38872D01*
X11998Y38844D01*
X11951Y38809D01*
X11909Y38767D01*
X11872Y38717D01*
X11841Y38660D01*
X11820Y38606D01*
X11827Y38578D01*
X11858Y38490D01*
X11896Y38418D01*
X11941Y38362D01*
X11993Y38322D01*
X12052Y38298D01*
X12118Y38290D01*
X11772Y38287D01*
X11771Y38263D01*
X11720Y38287D01*
X10571Y38278D01*
X10647Y38286D01*
X10715Y38311D01*
X10775Y38352D01*
X10827Y38409D01*
X10871Y38482D01*
X10907Y38571D01*
X10935Y38677D01*
X10955Y38798D01*
X10961Y38864D01*
X10948Y39054D01*
X10938Y39121D01*
X10912Y39238D01*
X10896Y39288D01*
X10879Y39332D01*
X11496Y39090D01*
D02*
G37*
G36*
X1467Y39074D02*
X2091D01*
X2087Y38847D01*
X2271Y38780D01*
X2236Y38759D01*
X2206Y38730D01*
X2179Y38692D01*
X2155Y38645D01*
X2136Y38589D01*
X2119Y38525D01*
X2107Y38452D01*
X2098Y38370D01*
X2091Y38180D01*
X1091Y38215D01*
X1090Y38280D01*
X806Y38278D01*
X860Y38286D01*
X908Y38310D01*
X951Y38350D01*
X988Y38406D01*
X1019Y38478D01*
X1045Y38566D01*
X1065Y38669D01*
X1079Y38788D01*
X1088Y38923D01*
X1088Y38951D01*
X1087Y39213D01*
X1467Y39074D01*
D02*
G37*
G36*
X5733Y38955D02*
X5855Y38848D01*
X5891Y38876D01*
X5893Y38858D01*
X5903Y38835D01*
X5920Y38805D01*
X5945Y38770D01*
X6408Y38366D01*
X6492Y38314D01*
X6559Y38284D01*
X6609Y38276D01*
X6642Y38290D01*
X5548Y37195D01*
X5561Y37228D01*
X5553Y37278D01*
X5523Y37345D01*
X5471Y37429D01*
X5397Y37530D01*
X5183Y37783D01*
X4882Y38104D01*
X4699Y38290D01*
X5548Y39138D01*
X5733Y38955D01*
D02*
G37*
G36*
X15459Y38057D02*
X15477Y38006D01*
X15507Y37961D01*
X15550Y37922D01*
X15605Y37889D01*
X15673Y37862D01*
X15752Y37841D01*
X15844Y37826D01*
X15948Y37817D01*
X16064Y37814D01*
Y37214D01*
X15948Y37211D01*
X15844Y37202D01*
X15752Y37187D01*
X15673Y37166D01*
X15605Y37139D01*
X15550Y37106D01*
X15507Y37067D01*
X15477Y37022D01*
X15459Y36971D01*
X15452Y36914D01*
Y38114D01*
X15459Y38057D01*
D02*
G37*
G36*
X-2819Y36914D02*
X-2825Y36971D01*
X-2843Y37022D01*
X-2873Y37067D01*
X-2915Y37106D01*
X-2969Y37139D01*
X-3035Y37166D01*
X-3113Y37187D01*
X-3203Y37202D01*
X-3305Y37211D01*
X-3419Y37214D01*
Y37814D01*
X-3305Y37817D01*
X-3203Y37826D01*
X-3113Y37841D01*
X-3035Y37862D01*
X-2969Y37889D01*
X-2915Y37922D01*
X-2873Y37961D01*
X-2843Y38006D01*
X-2825Y38057D01*
X-2819Y38114D01*
Y36914D01*
D02*
G37*
G36*
X20143Y36884D02*
X20077Y36947D01*
X20010Y37003D01*
X19940Y37053D01*
X19869Y37095D01*
X19795Y37132D01*
X19719Y37161D01*
X19642Y37185D01*
X19562Y37201D01*
X19481Y37211D01*
X19397Y37214D01*
Y37814D01*
X19481Y37817D01*
X19562Y37827D01*
X19642Y37844D01*
X19719Y37867D01*
X19795Y37897D01*
X19869Y37933D01*
X19940Y37976D01*
X20010Y38025D01*
X20077Y38081D01*
X20143Y38144D01*
Y36884D01*
D02*
G37*
G36*
X45211Y38376D02*
X45143Y38351D01*
X45083Y38311D01*
X45031Y38254D01*
X44987Y38181D01*
X44951Y38091D01*
X44923Y37986D01*
X44903Y37864D01*
X44891Y37726D01*
X44888Y37587D01*
X44891Y37451D01*
X44902Y37315D01*
X44921Y37195D01*
X44947Y37091D01*
X44981Y37003D01*
X45022Y36931D01*
X45071Y36875D01*
X45128Y36835D01*
X45191Y36811D01*
X45263Y36803D01*
X43712D01*
X43783Y36811D01*
X43847Y36835D01*
X43903Y36875D01*
X43952Y36931D01*
X43993Y37003D01*
X44027Y37091D01*
X44054Y37195D01*
X44072Y37315D01*
X44084Y37451D01*
X44087Y37587D01*
X44083Y37726D01*
X44071Y37864D01*
X44051Y37986D01*
X44023Y38091D01*
X43987Y38181D01*
X43943Y38254D01*
X43891Y38311D01*
X43831Y38351D01*
X43763Y38376D01*
X43687Y38384D01*
X45287D01*
X45211Y38376D01*
D02*
G37*
G36*
X23091Y36600D02*
X23000Y36598D01*
X22913Y36590D01*
X22828Y36575D01*
X22748Y36555D01*
X22670Y36529D01*
X22595Y36496D01*
X22524Y36458D01*
X22456Y36413D01*
X22392Y36363D01*
X22330Y36306D01*
X21906Y36730D01*
X21963Y36792D01*
X22013Y36856D01*
X22058Y36924D01*
X22096Y36995D01*
X22129Y37070D01*
X22155Y37148D01*
X22175Y37229D01*
X22190Y37313D01*
X22198Y37400D01*
X22200Y37491D01*
X23091Y36600D01*
D02*
G37*
G36*
X-32474Y36845D02*
X-32451Y36609D01*
X-32430Y36514D01*
X-32404Y36433D01*
X-32372Y36366D01*
X-32334Y36315D01*
X-32290Y36278D01*
X-32240Y36256D01*
X-32184Y36249D01*
X-33370D01*
X-33314Y36256D01*
X-33264Y36278D01*
X-33221Y36315D01*
X-33182Y36366D01*
X-33150Y36433D01*
X-33124Y36514D01*
X-33103Y36609D01*
X-33089Y36720D01*
X-33080Y36845D01*
X-33077Y36985D01*
X-32477D01*
X-32474Y36845D01*
D02*
G37*
G36*
X-22373Y36945D02*
X-22342Y36610D01*
X-22314Y36474D01*
X-22279Y36358D01*
X-22236Y36264D01*
X-22185Y36190D01*
X-22127Y36138D01*
X-22060Y36107D01*
X-21986Y36096D01*
X-23569D01*
X-23494Y36107D01*
X-23428Y36138D01*
X-23369Y36190D01*
X-23318Y36264D01*
X-23275Y36358D01*
X-23240Y36474D01*
X-23212Y36610D01*
X-23193Y36767D01*
X-23181Y36945D01*
X-23177Y37145D01*
X-22377D01*
X-22373Y36945D01*
D02*
G37*
G36*
X-27373Y36945D02*
X-27342Y36609D01*
X-27314Y36473D01*
X-27279Y36358D01*
X-27236Y36263D01*
X-27185Y36190D01*
X-27126Y36137D01*
X-27059Y36106D01*
X-26985Y36095D01*
X-28570D01*
X-28495Y36106D01*
X-28429Y36137D01*
X-28370Y36190D01*
X-28319Y36263D01*
X-28275Y36358D01*
X-28240Y36473D01*
X-28212Y36609D01*
X-28193Y36767D01*
X-28181Y36945D01*
X-28177Y37145D01*
X-27377D01*
X-27373Y36945D01*
D02*
G37*
G36*
X40562Y36803D02*
X40574Y35915D01*
X40567Y35972D01*
X40549Y36023D01*
X40518Y36068D01*
X40475Y36107D01*
X40419Y36140D01*
X40352Y36167D01*
X40273Y36188D01*
X40181Y36203D01*
X40078Y36212D01*
X39962Y36215D01*
Y36815D01*
X40562Y36803D01*
D02*
G37*
G36*
X4636Y36555D02*
X4634Y36521D01*
X4640Y36485D01*
X4651Y36446D01*
X4670Y36404D01*
X4695Y36360D01*
X4727Y36314D01*
X4765Y36266D01*
X4810Y36214D01*
X4862Y36161D01*
X4437Y35736D01*
X4377Y35795D01*
X4265Y35892D01*
X4214Y35930D01*
X4166Y35962D01*
X4122Y35987D01*
X4080Y36004D01*
X4042Y36015D01*
X4007Y36020D01*
X3975Y36017D01*
X4644Y36587D01*
X4636Y36555D01*
D02*
G37*
G36*
X18018Y36457D02*
X18036Y36406D01*
X18067Y36361D01*
X18109Y36322D01*
X18164Y36289D01*
X18232Y36262D01*
X18311Y36241D01*
X18403Y36226D01*
X18507Y36217D01*
X18623Y36214D01*
Y35614D01*
X18507Y35611D01*
X18403Y35602D01*
X18311Y35587D01*
X18232Y35566D01*
X18164Y35539D01*
X18109Y35506D01*
X18067Y35467D01*
X18036Y35422D01*
X18018Y35371D01*
X18011Y35314D01*
Y36514D01*
X18018Y36457D01*
D02*
G37*
G36*
X-5378Y35066D02*
X-5386Y35137D01*
X-5410Y35201D01*
X-5450Y35257D01*
X-5506Y35306D01*
X-5578Y35347D01*
X-5666Y35381D01*
X-5770Y35407D01*
X-5890Y35426D01*
X-6026Y35437D01*
X-6178Y35441D01*
Y36241D01*
X-6026Y36245D01*
X-5890Y36256D01*
X-5770Y36275D01*
X-5666Y36301D01*
X-5578Y36335D01*
X-5506Y36376D01*
X-5450Y36425D01*
X-5410Y36481D01*
X-5386Y36545D01*
X-5378Y36616D01*
Y35066D01*
D02*
G37*
G36*
X8400Y35591D02*
X8411Y35455D01*
X8430Y35335D01*
X8456Y35231D01*
X8490Y35143D01*
X8531Y35071D01*
X8580Y35015D01*
X8636Y34975D01*
X8700Y34951D01*
X8771Y34943D01*
X7221D01*
X7292Y34951D01*
X7356Y34975D01*
X7412Y35015D01*
X7461Y35071D01*
X7502Y35143D01*
X7536Y35231D01*
X7562Y35335D01*
X7581Y35455D01*
X7592Y35591D01*
X7596Y35743D01*
X8396D01*
X8400Y35591D01*
D02*
G37*
G36*
X4953Y35427D02*
X4962Y35323D01*
X4977Y35231D01*
X4998Y35151D01*
X5025Y35084D01*
X5058Y35029D01*
X5097Y34986D01*
X5142Y34956D01*
X5193Y34937D01*
X5250Y34931D01*
X4050D01*
X4107Y34937D01*
X4158Y34956D01*
X4203Y34986D01*
X4242Y35029D01*
X4275Y35084D01*
X4302Y35151D01*
X4323Y35231D01*
X4338Y35323D01*
X4347Y35427D01*
X4350Y35543D01*
X4950D01*
X4953Y35427D01*
D02*
G37*
G36*
X40562Y34662D02*
X40556Y34669D01*
X40538Y34675D01*
X40508Y34681D01*
X40466Y34686D01*
X40346Y34694D01*
X39962Y34700D01*
Y35300D01*
X40078Y35303D01*
X40181Y35312D01*
X40273Y35327D01*
X40352Y35348D01*
X40420Y35375D01*
X40475Y35408D01*
X40518Y35447D01*
X40549Y35492D01*
X40568Y35543D01*
X40574Y35600D01*
X40562Y34662D01*
D02*
G37*
G36*
X48424Y36706D02*
X48460Y36619D01*
X48519Y36542D01*
X48601Y36475D01*
X48708Y36419D01*
X48838Y36373D01*
X48991Y36337D01*
X49168Y36311D01*
X49369Y36296D01*
X49593Y36291D01*
Y35109D01*
X49369Y35105D01*
X48991Y35069D01*
X48838Y35038D01*
X48708Y34997D01*
X48601Y34948D01*
X48519Y34890D01*
X48460Y34823D01*
X48424Y34747D01*
X48412Y34662D01*
Y35109D01*
X48381Y35109D01*
Y36291D01*
X48412Y36291D01*
Y36803D01*
X48424Y36706D01*
D02*
G37*
G36*
X38965Y34554D02*
X38909Y34493D01*
X38858Y34428D01*
X38814Y34360D01*
X38775Y34289D01*
X38743Y34214D01*
X38716Y34137D01*
X38696Y34056D01*
X38682Y33972D01*
X38674Y33884D01*
X38671Y33793D01*
X37780Y34684D01*
X37871Y34686D01*
X37959Y34694D01*
X38043Y34709D01*
X38124Y34729D01*
X38202Y34755D01*
X38276Y34788D01*
X38347Y34826D01*
X38415Y34871D01*
X38480Y34922D01*
X38541Y34978D01*
X38965Y34554D01*
D02*
G37*
G36*
X-2819Y33392D02*
X-2827Y33464D01*
X-2851Y33527D01*
X-2891Y33584D01*
X-2947Y33633D01*
X-3019Y33674D01*
X-3107Y33708D01*
X-3211Y33734D01*
X-3331Y33753D01*
X-3467Y33764D01*
X-3619Y33768D01*
Y34568D01*
X-3467Y34571D01*
X-3331Y34583D01*
X-3211Y34602D01*
X-3107Y34628D01*
X-3019Y34662D01*
X-2947Y34703D01*
X-2891Y34752D01*
X-2851Y34808D01*
X-2827Y34872D01*
X-2819Y34943D01*
Y33392D01*
D02*
G37*
G36*
X-45273Y34054D02*
X-45336Y33989D01*
X-45392Y33922D01*
X-45442Y33852D01*
X-45485Y33781D01*
X-45522Y33707D01*
X-45551Y33632D01*
X-45575Y33555D01*
X-45591Y33475D01*
X-45601Y33393D01*
X-45604Y33310D01*
X-46204Y33313D01*
X-46208Y33396D01*
X-46218Y33478D01*
X-46234Y33558D01*
X-46257Y33635D01*
X-46286Y33711D01*
X-46323Y33785D01*
X-46365Y33856D01*
X-46415Y33926D01*
X-46471Y33994D01*
X-46533Y34060D01*
X-45273Y34054D01*
D02*
G37*
G36*
X-16604Y34193D02*
X-16584Y34189D01*
X-16553Y34185D01*
X-16450Y34178D01*
X-15972Y34172D01*
Y32972D01*
X-16610Y32945D01*
Y34198D01*
X-16604Y34193D01*
D02*
G37*
G36*
X23970Y34611D02*
X24026Y34574D01*
X24109Y34541D01*
X24218Y34513D01*
X24352Y34489D01*
X24512Y34469D01*
X24911Y34443D01*
X25413Y34435D01*
Y33035D01*
X25149Y33033D01*
X24352Y32980D01*
X24218Y32956D01*
X24109Y32928D01*
X24026Y32896D01*
X23970Y32859D01*
X23939Y32817D01*
Y34652D01*
X23970Y34611D01*
D02*
G37*
G36*
X21907Y32817D02*
X21879Y32852D01*
X21824Y32883D01*
X21743Y32910D01*
X21635Y32934D01*
X21501Y32954D01*
X21153Y32984D01*
X20433Y33000D01*
Y34400D01*
X20694Y34402D01*
X21486Y34463D01*
X21621Y34491D01*
X21731Y34523D01*
X21815Y34561D01*
X21874Y34604D01*
X21907Y34652D01*
Y32817D01*
D02*
G37*
G36*
X11885Y33398D02*
X11834Y33380D01*
X11789Y33349D01*
X11750Y33306D01*
X11717Y33251D01*
X11690Y33184D01*
X11670Y33104D01*
X11654Y33013D01*
X11646Y32909D01*
X11643Y32792D01*
X11043D01*
X11039Y32909D01*
X11030Y33013D01*
X11016Y33104D01*
X10994Y33184D01*
X10967Y33251D01*
X10934Y33306D01*
X10896Y33349D01*
X10851Y33380D01*
X10800Y33398D01*
X10742Y33404D01*
X11942D01*
X11885Y33398D01*
D02*
G37*
G36*
X2007Y33384D02*
X1943Y33360D01*
X1887Y33320D01*
X1838Y33264D01*
X1797Y33192D01*
X1763Y33104D01*
X1737Y33000D01*
X1718Y32880D01*
X1707Y32744D01*
X1703Y32592D01*
X903D01*
X899Y32744D01*
X888Y32880D01*
X869Y33000D01*
X843Y33104D01*
X809Y33192D01*
X768Y33264D01*
X719Y33320D01*
X663Y33360D01*
X599Y33384D01*
X528Y33392D01*
X2079D01*
X2007Y33384D01*
D02*
G37*
G36*
X9972Y32868D02*
X9981Y32764D01*
X9996Y32672D01*
X10017Y32592D01*
X10044Y32525D01*
X10077Y32470D01*
X10116Y32427D01*
X10161Y32397D01*
X10212Y32378D01*
X10269Y32372D01*
X9069D01*
X9126Y32378D01*
X9177Y32397D01*
X9222Y32427D01*
X9261Y32470D01*
X9294Y32525D01*
X9321Y32592D01*
X9342Y32672D01*
X9357Y32764D01*
X9366Y32868D01*
X9369Y32984D01*
X9969D01*
X9972Y32868D01*
D02*
G37*
G36*
X-13609Y32100D02*
X-14500Y31209D01*
X-14504Y31221D01*
X-14515Y31239D01*
X-14534Y31265D01*
X-14595Y31336D01*
X-14808Y31559D01*
X-14880Y31632D01*
X-14032Y32480D01*
X-13609Y32100D01*
D02*
G37*
G36*
X47821Y32186D02*
X47853Y32104D01*
X47908Y32032D01*
X47984Y31969D01*
X48081Y31916D01*
X48201Y31872D01*
X48342Y31839D01*
X48504Y31815D01*
X48689Y31800D01*
X48895Y31795D01*
Y30614D01*
X48689Y30609D01*
X48504Y30595D01*
X48342Y30571D01*
X48289Y30558D01*
X48288Y30549D01*
X48280Y30556D01*
X48201Y30537D01*
X48081Y30494D01*
X47984Y30440D01*
X47908Y30378D01*
X47853Y30305D01*
X47821Y30223D01*
X47810Y30131D01*
Y30612D01*
X47702Y30614D01*
X47810Y31296D01*
Y32278D01*
X47821Y32186D01*
D02*
G37*
G36*
X13559Y30839D02*
X13508Y30821D01*
X13463Y30790D01*
X13424Y30747D01*
X13391Y30692D01*
X13364Y30625D01*
X13343Y30545D01*
X13328Y30454D01*
X13319Y30349D01*
X13316Y30233D01*
X12716D01*
X12713Y30349D01*
X12704Y30454D01*
X12689Y30545D01*
X12668Y30625D01*
X12641Y30692D01*
X12608Y30747D01*
X12569Y30790D01*
X12524Y30821D01*
X12473Y30839D01*
X12416Y30845D01*
X13616D01*
X13559Y30839D01*
D02*
G37*
G36*
X3519D02*
X3468Y30821D01*
X3423Y30790D01*
X3384Y30747D01*
X3351Y30692D01*
X3324Y30625D01*
X3303Y30545D01*
X3288Y30454D01*
X3279Y30349D01*
X3276Y30233D01*
X2676D01*
X2673Y30349D01*
X2664Y30454D01*
X2649Y30545D01*
X2628Y30625D01*
X2601Y30692D01*
X2568Y30747D01*
X2529Y30790D01*
X2484Y30821D01*
X2433Y30839D01*
X2376Y30845D01*
X3576D01*
X3519Y30839D01*
D02*
G37*
G36*
X334Y30825D02*
X270Y30801D01*
X214Y30761D01*
X165Y30705D01*
X124Y30633D01*
X90Y30545D01*
X64Y30441D01*
X45Y30321D01*
X34Y30185D01*
X30Y30033D01*
X-770D01*
X-774Y30185D01*
X-785Y30321D01*
X-804Y30441D01*
X-830Y30545D01*
X-864Y30633D01*
X-905Y30705D01*
X-954Y30761D01*
X-1010Y30801D01*
X-1074Y30825D01*
X-1146Y30833D01*
X405D01*
X334Y30825D01*
D02*
G37*
G36*
X41165Y30024D02*
X41153Y30136D01*
X41117Y30236D01*
X41058Y30325D01*
X40974Y30402D01*
X40867Y30466D01*
X40735Y30520D01*
X40580Y30561D01*
X40401Y30591D01*
X40199Y30608D01*
X39972Y30614D01*
Y31795D01*
X40199Y31801D01*
X40401Y31819D01*
X40580Y31848D01*
X40735Y31890D01*
X40867Y31943D01*
X40974Y32008D01*
X41058Y32085D01*
X41117Y32173D01*
X41153Y32274D01*
X41165Y32386D01*
Y30024D01*
D02*
G37*
G36*
X7098Y30833D02*
X7034Y30825D01*
X6977Y30801D01*
X6927Y30761D01*
X6883Y30705D01*
X6846Y30633D01*
X6815Y30545D01*
X6794Y30451D01*
X6800Y30423D01*
X6821Y30351D01*
X6848Y30284D01*
X6879Y30222D01*
X6915Y30166D01*
X6956Y30115D01*
X7002Y30069D01*
X6762Y30059D01*
X6761Y30033D01*
X6166D01*
X5743Y30015D01*
X5785Y30064D01*
X5822Y30118D01*
X5854Y30177D01*
X5883Y30241D01*
X5907Y30309D01*
X5926Y30383D01*
X5931Y30409D01*
X5925Y30446D01*
X5897Y30551D01*
X5861Y30641D01*
X5817Y30714D01*
X5765Y30771D01*
X5705Y30812D01*
X5637Y30837D01*
X5561Y30845D01*
X7098Y30833D01*
D02*
G37*
G36*
X-27059Y31038D02*
X-27126Y31006D01*
X-27185Y30954D01*
X-27236Y30880D01*
X-27279Y30786D01*
X-27314Y30670D01*
X-27342Y30534D01*
X-27362Y30376D01*
X-27373Y30198D01*
X-27377Y29999D01*
X-28177D01*
X-28181Y30198D01*
X-28212Y30534D01*
X-28240Y30670D01*
X-28275Y30786D01*
X-28319Y30880D01*
X-28370Y30954D01*
X-28429Y31006D01*
X-28495Y31038D01*
X-28570Y31048D01*
X-26985D01*
X-27059Y31038D01*
D02*
G37*
G36*
X18023Y30833D02*
X18026Y30824D01*
X18028Y30795D01*
X18034Y30492D01*
X18035Y29885D01*
X16836D01*
X16832Y30067D01*
X16804Y30373D01*
X16780Y30498D01*
X16748Y30604D01*
X16710Y30690D01*
X16665Y30758D01*
X16612Y30806D01*
X16553Y30835D01*
X16487Y30845D01*
X18023Y30833D01*
D02*
G37*
G36*
X-3819Y32242D02*
X-3793Y32097D01*
X-3751Y31949D01*
X-3691Y31799D01*
X-3615Y31645D01*
X-3522Y31489D01*
X-3411Y31329D01*
X-3284Y31167D01*
X-3165Y31030D01*
X-2913Y30810D01*
X-2891Y30800D01*
X-2875Y30797D01*
X-3698Y29843D01*
X-3702Y29849D01*
X-3714Y29863D01*
X-3794Y29949D01*
X-3882Y30037D01*
X-3995Y30146D01*
X-4323Y30417D01*
X-4482Y30528D01*
X-4639Y30621D01*
X-4792Y30698D01*
X-4943Y30757D01*
X-5091Y30799D01*
X-5236Y30825D01*
X-5378Y30833D01*
X-3827Y32384D01*
X-3819Y32242D01*
D02*
G37*
G36*
X-22059Y31038D02*
X-22126Y31006D01*
X-22185Y30954D01*
X-22236Y30880D01*
X-22279Y30786D01*
X-22314Y30670D01*
X-22342Y30534D01*
X-22361Y30376D01*
X-22368Y30276D01*
X-22357Y30170D01*
X-22341Y30092D01*
X-22321Y30019D01*
X-22297Y29950D01*
X-22268Y29887D01*
X-22234Y29829D01*
X-22196Y29775D01*
X-22154Y29726D01*
X-23414Y29759D01*
X-23369Y29805D01*
X-23328Y29857D01*
X-23293Y29914D01*
X-23262Y29976D01*
X-23236Y30043D01*
X-23215Y30116D01*
X-23198Y30193D01*
X-23188Y30269D01*
X-23212Y30534D01*
X-23240Y30670D01*
X-23275Y30786D01*
X-23318Y30880D01*
X-23370Y30954D01*
X-23428Y31006D01*
X-23495Y31038D01*
X-23570Y31048D01*
X-21984D01*
X-22059Y31038D01*
D02*
G37*
G36*
X-49203Y30226D02*
X-49249Y30181D01*
X-49291Y30130D01*
X-49327Y30074D01*
X-49358Y30012D01*
X-49385Y29946D01*
X-49407Y29874D01*
X-49424Y29796D01*
X-49436Y29714D01*
X-49443Y29626D01*
X-49446Y29533D01*
X-50246Y29578D01*
X-50248Y29671D01*
X-50265Y29843D01*
X-50280Y29921D01*
X-50300Y29995D01*
X-50323Y30064D01*
X-50352Y30128D01*
X-50384Y30187D01*
X-50421Y30241D01*
X-50462Y30290D01*
X-49203Y30226D01*
D02*
G37*
G36*
X-39450Y29859D02*
X-39501Y29813D01*
X-39546Y29759D01*
X-39585Y29697D01*
X-39618Y29629D01*
X-39645Y29553D01*
X-39666Y29469D01*
X-39681Y29378D01*
X-39690Y29279D01*
X-39693Y29173D01*
X-40293D01*
X-40296Y29279D01*
X-40305Y29378D01*
X-40320Y29469D01*
X-40341Y29553D01*
X-40368Y29629D01*
X-40401Y29697D01*
X-40440Y29759D01*
X-40485Y29813D01*
X-40536Y29859D01*
X-40593Y29898D01*
X-39393D01*
X-39450Y29859D01*
D02*
G37*
G36*
X-11243Y28770D02*
X-11290Y28814D01*
X-11343Y28853D01*
X-11401Y28887D01*
X-11463Y28917D01*
X-11531Y28942D01*
X-11604Y28963D01*
X-11682Y28979D01*
X-11765Y28991D01*
X-11853Y28998D01*
X-11946Y29000D01*
Y29800D01*
X-11853Y29802D01*
X-11765Y29809D01*
X-11682Y29821D01*
X-11604Y29837D01*
X-11531Y29858D01*
X-11463Y29883D01*
X-11401Y29913D01*
X-11343Y29947D01*
X-11290Y29986D01*
X-11243Y30030D01*
Y28770D01*
D02*
G37*
G36*
X35206Y29296D02*
X35217Y29158D01*
X35238Y29036D01*
X35265Y28931D01*
X35302Y28841D01*
X35346Y28768D01*
X35397Y28711D01*
X35458Y28671D01*
X35526Y28646D01*
X35601Y28638D01*
X34001D01*
X34078Y28646D01*
X34146Y28671D01*
X34205Y28711D01*
X34258Y28768D01*
X34301Y28841D01*
X34337Y28931D01*
X34365Y29036D01*
X34385Y29158D01*
X34398Y29296D01*
X34402Y29450D01*
X35201D01*
X35206Y29296D01*
D02*
G37*
G36*
X23934Y30805D02*
X23901Y30695D01*
X23903Y30569D01*
X23938Y30425D01*
X24007Y30264D01*
X24110Y30085D01*
X24247Y29890D01*
X24418Y29677D01*
X24861Y29200D01*
X24013Y28351D01*
X23766Y28590D01*
X23323Y28966D01*
X23127Y29103D01*
X22949Y29206D01*
X22788Y29275D01*
X22644Y29310D01*
X22517Y29311D01*
X22408Y29278D01*
X22316Y29212D01*
X24001Y30897D01*
X23934Y30805D01*
D02*
G37*
G36*
X11646Y28295D02*
X11654Y28190D01*
X11670Y28099D01*
X11690Y28019D01*
X11717Y27952D01*
X11750Y27897D01*
X11789Y27854D01*
X11834Y27823D01*
X11885Y27805D01*
X11942Y27799D01*
X10742D01*
X10800Y27805D01*
X10851Y27823D01*
X10896Y27854D01*
X10934Y27897D01*
X10967Y27952D01*
X10994Y28019D01*
X11016Y28099D01*
X11030Y28190D01*
X11039Y28295D01*
X11043Y28411D01*
X11643D01*
X11646Y28295D01*
D02*
G37*
G36*
X48837Y27748D02*
X48718Y27625D01*
X48531Y27404D01*
X48463Y27307D01*
X48412Y27218D01*
X48379Y27137D01*
X48362Y27065D01*
Y27001D01*
X48379Y26946D01*
X48412Y26899D01*
X47564Y27748D01*
X47611Y27714D01*
X47666Y27697D01*
X47729D01*
X47802Y27714D01*
X47882Y27748D01*
X47971Y27799D01*
X48069Y27867D01*
X48175Y27951D01*
X48412Y28172D01*
X48837Y27748D01*
D02*
G37*
G36*
X45079Y28768D02*
X45669D01*
X45556Y28756D01*
X45456Y28720D01*
X45367Y28661D01*
X45290Y28577D01*
X45226Y28470D01*
X45172Y28339D01*
X45131Y28183D01*
X45120Y28113D01*
X45124Y28043D01*
X45145Y27937D01*
X45169Y27854D01*
X45196Y27795D01*
X45228Y27760D01*
X45263Y27748D01*
X45082D01*
X45078Y27575D01*
X43897D01*
X43892Y27748D01*
X43712D01*
X43747Y27760D01*
X43778Y27795D01*
X43806Y27854D01*
X43830Y27937D01*
X43851Y28043D01*
X43858Y28098D01*
X43844Y28183D01*
X43802Y28339D01*
X43749Y28470D01*
X43684Y28577D01*
X43608Y28661D01*
X43519Y28720D01*
X43418Y28756D01*
X43306Y28768D01*
X43894D01*
X43897Y28929D01*
X45078D01*
X45079Y28768D01*
D02*
G37*
G36*
X-47296Y27725D02*
X-47334Y27672D01*
X-47368Y27613D01*
X-47397Y27550D01*
X-47421Y27481D01*
X-47441Y27408D01*
X-47457Y27330D01*
X-47468Y27247D01*
X-47475Y27159D01*
X-47477Y27066D01*
X-48277Y27043D01*
X-48280Y27136D01*
X-48287Y27224D01*
X-48298Y27307D01*
X-48315Y27384D01*
X-48336Y27457D01*
X-48362Y27524D01*
X-48393Y27586D01*
X-48428Y27643D01*
X-48469Y27695D01*
X-48513Y27742D01*
X-47254Y27773D01*
X-47296Y27725D01*
D02*
G37*
G36*
X14191Y28290D02*
X14601Y27943D01*
X14713Y27868D01*
X14813Y27813D01*
X14901Y27779D01*
X14977Y27765D01*
X15040Y27772D01*
X15091Y27799D01*
X14176Y27041D01*
X14212Y27083D01*
X14231Y27135D01*
X14232Y27196D01*
X14214Y27266D01*
X14180Y27347D01*
X14127Y27436D01*
X14057Y27535D01*
X13969Y27644D01*
X13740Y27890D01*
X14031Y28447D01*
X14191Y28290D01*
D02*
G37*
G36*
X-15843Y26170D02*
X-15890Y26214D01*
X-15943Y26253D01*
X-16001Y26287D01*
X-16063Y26317D01*
X-16131Y26342D01*
X-16204Y26363D01*
X-16282Y26379D01*
X-16365Y26391D01*
X-16453Y26398D01*
X-16546Y26400D01*
Y27200D01*
X-16453Y27202D01*
X-16365Y27209D01*
X-16282Y27221D01*
X-16204Y27237D01*
X-16131Y27257D01*
X-16063Y27283D01*
X-16001Y27313D01*
X-15943Y27347D01*
X-15890Y27386D01*
X-15843Y27430D01*
Y26170D01*
D02*
G37*
G36*
X20296Y27707D02*
X20338Y27614D01*
X20408Y27531D01*
X20506Y27460D01*
X20632Y27400D01*
X20786Y27351D01*
X20968Y27312D01*
X21178Y27285D01*
X21416Y27268D01*
X21682Y27263D01*
Y25863D01*
X21416Y25857D01*
X20968Y25814D01*
X20786Y25775D01*
X20632Y25726D01*
X20506Y25666D01*
X20408Y25595D01*
X20338Y25512D01*
X20296Y25419D01*
X20282Y25315D01*
Y27811D01*
X20296Y27707D01*
D02*
G37*
G36*
X48381Y26692D02*
X48375Y26627D01*
X48384Y26557D01*
X48406Y26481D01*
X48443Y26399D01*
X48493Y26311D01*
X48558Y26217D01*
X48637Y26118D01*
X48730Y26013D01*
X48837Y25902D01*
X48708Y25182D01*
X48570Y25315D01*
X48331Y25522D01*
X48229Y25595D01*
X48138Y25649D01*
X48059Y25683D01*
X47991Y25696D01*
X47936Y25690D01*
X47892Y25664D01*
X47859Y25618D01*
X48400Y26750D01*
X48381Y26692D01*
D02*
G37*
G36*
X42042Y25598D02*
X41978Y25574D01*
X41922Y25534D01*
X41873Y25479D01*
X41832Y25407D01*
X41798Y25319D01*
X41772Y25214D01*
X41753Y25095D01*
X41742Y24959D01*
X41738Y24806D01*
X40938D01*
X40934Y24959D01*
X40923Y25095D01*
X40904Y25214D01*
X40878Y25319D01*
X40844Y25407D01*
X40803Y25479D01*
X40754Y25534D01*
X40698Y25574D01*
X40634Y25598D01*
X40562Y25607D01*
X42113D01*
X42042Y25598D01*
D02*
G37*
G36*
X15955Y25321D02*
X15904Y25303D01*
X15859Y25272D01*
X15820Y25229D01*
X15787Y25174D01*
X15760Y25107D01*
X15739Y25027D01*
X15724Y24936D01*
X15715Y24831D01*
X15712Y24715D01*
X15112D01*
X15109Y24831D01*
X15100Y24936D01*
X15085Y25027D01*
X15064Y25107D01*
X15037Y25174D01*
X15004Y25229D01*
X14965Y25272D01*
X14920Y25303D01*
X14869Y25321D01*
X14812Y25327D01*
X16012D01*
X15955Y25321D01*
D02*
G37*
G36*
X11698D02*
X11647Y25303D01*
X11602Y25272D01*
X11563Y25229D01*
X11530Y25174D01*
X11503Y25107D01*
X11482Y25027D01*
X11467Y24936D01*
X11458Y24831D01*
X11455Y24715D01*
X10855D01*
X10852Y24831D01*
X10843Y24936D01*
X10828Y25027D01*
X10807Y25107D01*
X10780Y25174D01*
X10747Y25229D01*
X10708Y25272D01*
X10663Y25303D01*
X10612Y25321D01*
X10555Y25327D01*
X11755D01*
X11698Y25321D01*
D02*
G37*
G36*
X-45603Y25002D02*
X-45588Y24810D01*
X-45576Y24732D01*
X-45560Y24666D01*
X-45541Y24612D01*
X-45518Y24570D01*
X-45492Y24540D01*
X-45462Y24522D01*
X-45428Y24516D01*
X-46389D01*
X-46354Y24522D01*
X-46322Y24540D01*
X-46295Y24570D01*
X-46271Y24612D01*
X-46250Y24666D01*
X-46234Y24732D01*
X-46221Y24810D01*
X-46212Y24900D01*
X-46204Y25116D01*
X-45604D01*
X-45603Y25002D01*
D02*
G37*
G36*
X-47476Y25164D02*
X-47438Y24588D01*
X-47426Y24548D01*
X-47412Y24524D01*
X-47397Y24516D01*
X-48357D01*
X-48342Y24524D01*
X-48328Y24548D01*
X-48316Y24588D01*
X-48306Y24644D01*
X-48297Y24716D01*
X-48284Y24908D01*
X-48277Y25316D01*
X-47477D01*
X-47476Y25164D01*
D02*
G37*
G36*
X-49445Y25164D02*
X-49406Y24588D01*
X-49394Y24548D01*
X-49381Y24524D01*
X-49365Y24516D01*
X-50326D01*
X-50310Y24524D01*
X-50297Y24548D01*
X-50285Y24588D01*
X-50274Y24644D01*
X-50266Y24715D01*
X-50253Y24908D01*
X-50246Y25315D01*
X-49446D01*
X-49445Y25164D01*
D02*
G37*
G36*
X-16657Y23891D02*
X-16452Y23729D01*
X-16504Y23675D01*
X-16462Y23615D01*
X-16483Y23614D01*
X-16509Y23605D01*
X-16541Y23589D01*
X-16579Y23564D01*
X-16623Y23532D01*
X-16712Y23457D01*
X-17067Y23040D01*
X-17203Y22846D01*
X-17305Y22670D01*
X-17373Y22512D01*
X-17406Y22372D01*
X-17405Y22250D01*
X-17369Y22145D01*
X-17299Y22059D01*
X-19056Y23619D01*
X-18961Y23558D01*
X-18850Y23529D01*
X-18722Y23532D01*
X-18579Y23569D01*
X-18420Y23637D01*
X-18245Y23738D01*
X-18054Y23871D01*
X-17847Y24037D01*
X-17386Y24466D01*
X-17380Y24462D01*
X-17188Y24644D01*
X-16657Y23891D01*
D02*
G37*
G36*
X45228Y25595D02*
X45196Y25559D01*
X45169Y25500D01*
X45145Y25418D01*
X45124Y25311D01*
X45107Y25181D01*
X45085Y24851D01*
X45078Y24425D01*
X43897D01*
X43895Y24650D01*
X43851Y25311D01*
X43830Y25418D01*
X43806Y25500D01*
X43778Y25559D01*
X43747Y25595D01*
X43712Y25607D01*
X45263D01*
X45228Y25595D01*
D02*
G37*
G36*
X-25589Y24460D02*
X-25566Y24209D01*
X-25547Y24107D01*
X-25522Y24020D01*
X-25492Y23950D01*
X-25456Y23895D01*
X-25414Y23856D01*
X-25367Y23832D01*
X-25314Y23824D01*
X-26668D01*
X-26616Y23832D01*
X-26569Y23856D01*
X-26527Y23895D01*
X-26491Y23950D01*
X-26461Y24020D01*
X-26436Y24107D01*
X-26416Y24209D01*
X-26402Y24326D01*
X-26394Y24460D01*
X-26391Y24609D01*
X-25591D01*
X-25589Y24460D01*
D02*
G37*
G36*
X-27376Y24472D02*
X-27343Y23952D01*
X-27331Y23896D01*
X-27317Y23856D01*
X-27301Y23832D01*
X-27283Y23824D01*
X-28577D01*
X-28501Y23832D01*
X-28433Y23856D01*
X-28373Y23896D01*
X-28321Y23952D01*
X-28277Y24024D01*
X-28241Y24112D01*
X-28213Y24216D01*
X-28193Y24336D01*
X-28181Y24472D01*
X-28177Y24624D01*
X-27377D01*
X-27376Y24472D01*
D02*
G37*
G36*
X-22341Y24038D02*
X-22392Y24020D01*
X-22445Y23997D01*
X-22500Y23969D01*
X-22557Y23935D01*
X-22676Y23851D01*
X-22738Y23801D01*
X-22889Y23662D01*
X-22936Y23614D01*
X-23181Y23326D01*
X-23272Y23198D01*
X-23340Y23082D01*
X-23387Y22977D01*
X-23412Y22882D01*
X-23416Y22799D01*
X-23398Y22727D01*
X-23358Y22666D01*
X-24406Y23812D01*
X-24349Y23768D01*
X-24280Y23746D01*
X-24199Y23748D01*
X-24106Y23771D01*
X-24002Y23818D01*
X-23885Y23887D01*
X-23756Y23979D01*
X-23615Y24093D01*
X-23577Y24128D01*
X-23538Y24184D01*
X-23500Y24250D01*
X-23470Y24314D01*
X-23450Y24378D01*
X-23438Y24441D01*
X-23436Y24502D01*
X-23442Y24563D01*
X-23456Y24623D01*
X-22341Y24038D01*
D02*
G37*
G36*
X16091Y23791D02*
X16103Y23176D01*
X16099Y23181D01*
X16089Y23186D01*
X16072Y23190D01*
X16048Y23193D01*
X15980Y23199D01*
X15828Y23203D01*
X15763Y23203D01*
Y23803D01*
X16091Y23791D01*
D02*
G37*
G36*
X41742Y23774D02*
X41754Y23636D01*
X41774Y23514D01*
X41802Y23408D01*
X41838Y23319D01*
X41882Y23246D01*
X41934Y23189D01*
X41994Y23149D01*
X42062Y23124D01*
X42138Y23116D01*
X40538D01*
X40614Y23124D01*
X40682Y23149D01*
X40742Y23189D01*
X40794Y23246D01*
X40838Y23319D01*
X40874Y23408D01*
X40902Y23514D01*
X40922Y23636D01*
X40934Y23774D01*
X40938Y23928D01*
X41738D01*
X41742Y23774D01*
D02*
G37*
G36*
X45084Y24083D02*
X45101Y23881D01*
X45131Y23702D01*
X45172Y23547D01*
X45226Y23416D01*
X45290Y23309D01*
X45367Y23225D01*
X45456Y23165D01*
X45556Y23129D01*
X45669Y23116D01*
X43684Y23128D01*
X43725Y23140D01*
X43761Y23175D01*
X43793Y23234D01*
X43820Y23317D01*
X43844Y23424D01*
X43863Y23553D01*
X43888Y23884D01*
X43897Y24309D01*
X45078D01*
X45084Y24083D01*
D02*
G37*
G36*
X-53497Y24626D02*
X-53488Y24562D01*
X-53471Y24496D01*
X-53448Y24431D01*
X-53418Y24365D01*
X-53381Y24299D01*
X-53337Y24232D01*
X-53287Y24166D01*
X-53238Y24108D01*
X-53208Y24079D01*
X-52672Y23627D01*
X-52524Y23528D01*
X-52390Y23455D01*
X-52270Y23407D01*
X-52166Y23386D01*
X-52076Y23391D01*
X-52002Y23421D01*
X-53365Y22546D01*
X-53310Y22596D01*
X-53280Y22660D01*
X-53275Y22738D01*
X-53295Y22830D01*
X-53341Y22937D01*
X-53411Y23057D01*
X-53506Y23191D01*
X-53627Y23339D01*
X-53830Y23557D01*
X-53865Y23587D01*
X-53932Y23637D01*
X-53999Y23681D01*
X-54065Y23718D01*
X-54131Y23748D01*
X-54196Y23771D01*
X-54261Y23788D01*
X-54326Y23797D01*
X-54391Y23800D01*
X-53500Y24691D01*
X-53497Y24626D01*
D02*
G37*
G36*
X-32247Y23705D02*
X-32199Y23661D01*
X-32145Y23623D01*
X-32086Y23590D01*
X-32021Y23562D01*
X-31950Y23539D01*
X-31874Y23521D01*
X-31792Y23508D01*
X-31704Y23501D01*
X-31611Y23498D01*
X-31713Y22698D01*
X-31806Y22696D01*
X-31978Y22680D01*
X-32057Y22667D01*
X-32132Y22649D01*
X-32201Y22627D01*
X-32266Y22602D01*
X-32326Y22572D01*
X-32382Y22539D01*
X-32433Y22501D01*
X-32290Y23753D01*
X-32247Y23705D01*
D02*
G37*
G36*
X-28637Y22372D02*
X-28645Y22434D01*
X-28669Y22489D01*
X-28709Y22538D01*
X-28765Y22581D01*
X-28837Y22616D01*
X-28925Y22646D01*
X-29029Y22669D01*
X-29149Y22685D01*
X-29285Y22695D01*
X-29437Y22698D01*
Y23498D01*
X-29285Y23501D01*
X-29029Y23527D01*
X-28925Y23550D01*
X-28837Y23580D01*
X-28765Y23616D01*
X-28709Y23658D01*
X-28669Y23707D01*
X-28645Y23762D01*
X-28637Y23824D01*
Y22372D01*
D02*
G37*
G36*
X46652Y22792D02*
X46688Y22691D01*
X46748Y22603D01*
X46832Y22526D01*
X46939Y22461D01*
X47070Y22408D01*
X47225Y22367D01*
X47404Y22337D01*
X47430Y22335D01*
X47499Y22339D01*
X47522Y22345D01*
X47534Y22353D01*
Y22326D01*
X47607Y22319D01*
X47834Y22313D01*
Y21132D01*
X47607Y21126D01*
X47534Y21120D01*
Y21093D01*
X47522Y21100D01*
X47499Y21107D01*
X47466Y21113D01*
X47461Y21114D01*
X47404Y21109D01*
X47225Y21079D01*
X47070Y21038D01*
X46939Y20985D01*
X46832Y20920D01*
X46748Y20843D01*
X46688Y20754D01*
X46652Y20654D01*
X46641Y20542D01*
Y22904D01*
X46652Y22792D01*
D02*
G37*
G36*
X36746Y22481D02*
X36771Y22414D01*
X36812Y22354D01*
X36871Y22302D01*
X36946Y22259D01*
X37038Y22223D01*
X37146Y22195D01*
X37271Y22175D01*
X37413Y22163D01*
X37571Y22159D01*
Y21359D01*
X37413Y21355D01*
X37271Y21343D01*
X37146Y21324D01*
X37038Y21296D01*
X36946Y21260D01*
X36871Y21216D01*
X36812Y21164D01*
X36771Y21105D01*
X36746Y21037D01*
X36737Y20962D01*
Y22557D01*
X36746Y22481D01*
D02*
G37*
G36*
X39826Y20959D02*
X39818Y21035D01*
X39794Y21103D01*
X39754Y21163D01*
X39698Y21215D01*
X39626Y21259D01*
X39538Y21295D01*
X39434Y21323D01*
X39314Y21343D01*
X39178Y21355D01*
X39026Y21359D01*
Y22159D01*
X39178Y22163D01*
X39314Y22175D01*
X39434Y22195D01*
X39538Y22223D01*
X39626Y22259D01*
X39698Y22303D01*
X39754Y22355D01*
X39794Y22415D01*
X39818Y22483D01*
X39826Y22559D01*
Y20959D01*
D02*
G37*
G36*
X-33938Y21690D02*
X-33890Y21646D01*
X-33837Y21607D01*
X-33779Y21573D01*
X-33714Y21545D01*
X-33644Y21522D01*
X-33568Y21504D01*
X-33486Y21491D01*
X-33398Y21483D01*
X-33305Y21480D01*
X-33425Y20680D01*
X-33518Y20678D01*
X-33691Y20663D01*
X-33770Y20650D01*
X-33844Y20633D01*
X-33914Y20612D01*
X-33979Y20587D01*
X-34040Y20559D01*
X-34096Y20526D01*
X-34147Y20490D01*
X-33979Y21739D01*
X-33938Y21690D01*
D02*
G37*
G36*
X-22255Y21705D02*
X-22231Y21658D01*
X-22191Y21616D01*
X-22135Y21580D01*
X-22063Y21550D01*
X-21975Y21525D01*
X-21871Y21505D01*
X-21751Y21491D01*
X-21615Y21483D01*
X-21463Y21480D01*
Y20680D01*
X-21615Y20677D01*
X-21871Y20655D01*
X-21975Y20636D01*
X-22063Y20611D01*
X-22135Y20581D01*
X-22191Y20545D01*
X-22231Y20503D01*
X-22255Y20456D01*
X-22263Y20403D01*
Y21757D01*
X-22255Y21705D01*
D02*
G37*
G36*
X-29719Y20403D02*
X-29728Y20456D01*
X-29752Y20503D01*
X-29792Y20545D01*
X-29847Y20581D01*
X-29919Y20611D01*
X-30007Y20636D01*
X-30112Y20655D01*
X-30231Y20669D01*
X-30367Y20677D01*
X-30520Y20680D01*
Y21480D01*
X-30367Y21483D01*
X-30112Y21505D01*
X-30007Y21525D01*
X-29919Y21550D01*
X-29847Y21580D01*
X-29792Y21616D01*
X-29752Y21658D01*
X-29728Y21705D01*
X-29719Y21757D01*
Y20403D01*
D02*
G37*
G36*
X-29719Y18435D02*
X-29728Y18487D01*
X-29752Y18534D01*
X-29792Y18576D01*
X-29847Y18612D01*
X-29919Y18643D01*
X-30007Y18667D01*
X-30112Y18687D01*
X-30182Y18695D01*
X-30212Y18691D01*
X-30290Y18675D01*
X-30362Y18654D01*
X-30430Y18628D01*
X-30492Y18598D01*
X-30550Y18563D01*
X-30602Y18523D01*
X-30649Y18478D01*
X-30666Y19738D01*
X-30617Y19695D01*
X-30564Y19657D01*
X-30506Y19623D01*
X-30443Y19593D01*
X-30375Y19568D01*
X-30302Y19548D01*
X-30224Y19532D01*
X-30201Y19529D01*
X-30112Y19537D01*
X-30007Y19556D01*
X-29919Y19581D01*
X-29847Y19612D01*
X-29792Y19647D01*
X-29752Y19689D01*
X-29728Y19736D01*
X-29719Y19789D01*
Y18435D01*
D02*
G37*
G36*
X-50885Y21084D02*
X-50818Y21028D01*
X-50751Y20980D01*
X-50685Y20941D01*
X-50619Y20910D01*
X-50554Y20887D01*
X-50490Y20872D01*
X-50426Y20866D01*
X-50363Y20867D01*
X-50300Y20877D01*
X-50864Y20000D01*
X-50300Y19123D01*
X-50363Y19133D01*
X-50426Y19134D01*
X-50490Y19128D01*
X-50554Y19113D01*
X-50619Y19090D01*
X-50685Y19059D01*
X-50751Y19020D01*
X-50818Y18972D01*
X-50885Y18916D01*
X-50953Y18852D01*
X-51380Y19557D01*
X-51315Y19624D01*
X-51201Y19755D01*
X-51153Y19819D01*
X-51074Y19945D01*
X-51045Y20000D01*
X-51074Y20055D01*
X-51111Y20117D01*
X-51153Y20181D01*
X-51255Y20310D01*
X-51315Y20376D01*
X-51380Y20443D01*
X-50953Y21148D01*
X-50885Y21084D01*
D02*
G37*
G36*
X-42371Y19462D02*
X-42353Y19431D01*
X-42323Y19404D01*
X-42281Y19381D01*
X-42227Y19361D01*
X-42161Y19345D01*
X-42083Y19332D01*
X-41993Y19323D01*
X-41777Y19316D01*
Y18716D01*
X-41891Y18714D01*
X-42083Y18699D01*
X-42161Y18687D01*
X-42227Y18671D01*
X-42281Y18651D01*
X-42323Y18628D01*
X-42353Y18600D01*
X-42371Y18570D01*
X-42377Y18536D01*
Y19496D01*
X-42371Y19462D01*
D02*
G37*
G36*
X-22255Y19736D02*
X-22231Y19689D01*
X-22191Y19647D01*
X-22135Y19612D01*
X-22063Y19581D01*
X-21975Y19556D01*
X-21871Y19537D01*
X-21751Y19523D01*
X-21615Y19515D01*
X-21463Y19512D01*
Y18712D01*
X-21615Y18709D01*
X-21871Y18687D01*
X-21975Y18667D01*
X-22063Y18643D01*
X-22135Y18612D01*
X-22191Y18576D01*
X-22231Y18535D01*
X-22255Y18487D01*
X-22263Y18435D01*
Y19789D01*
X-22255Y19736D01*
D02*
G37*
G36*
X-19437Y18316D02*
X-19445Y18392D01*
X-19469Y18459D01*
X-19510Y18518D01*
X-19568Y18570D01*
X-19643Y18613D01*
X-19734Y18649D01*
X-19842Y18676D01*
X-19967Y18696D01*
X-20109Y18708D01*
X-20267Y18712D01*
Y19512D01*
X-20108Y19516D01*
X-19965Y19528D01*
X-19838Y19547D01*
X-19729Y19575D01*
X-19636Y19611D01*
X-19560Y19654D01*
X-19501Y19706D01*
X-19459Y19765D01*
X-19433Y19832D01*
X-19424Y19907D01*
X-19437Y18316D01*
D02*
G37*
G36*
X-17317Y19820D02*
X-17292Y19753D01*
X-17250Y19694D01*
X-17191Y19642D01*
X-17116Y19599D01*
X-17023Y19563D01*
X-16914Y19536D01*
X-16789Y19516D01*
X-16646Y19504D01*
X-16487Y19500D01*
Y18700D01*
X-16646Y18696D01*
X-16788Y18684D01*
X-16913Y18664D01*
X-17022Y18637D01*
X-17114Y18601D01*
X-17189Y18558D01*
X-17247Y18506D01*
X-17289Y18447D01*
X-17314Y18380D01*
X-17322Y18305D01*
X-17325Y19895D01*
X-17317Y19820D01*
D02*
G37*
G36*
X-55798Y19300D02*
X-55790Y19213D01*
X-55775Y19128D01*
X-55755Y19048D01*
X-55729Y18970D01*
X-55696Y18895D01*
X-55658Y18824D01*
X-55613Y18756D01*
X-55563Y18692D01*
X-55506Y18630D01*
X-55930Y18206D01*
X-55992Y18263D01*
X-56056Y18313D01*
X-56124Y18358D01*
X-56195Y18396D01*
X-56270Y18429D01*
X-56348Y18455D01*
X-56428Y18475D01*
X-56513Y18490D01*
X-56600Y18498D01*
X-56691Y18500D01*
X-55800Y19391D01*
X-55798Y19300D01*
D02*
G37*
G36*
X-1517Y18817D02*
X-3331Y18134D01*
X-3232Y18242D01*
X-3160Y18338D01*
X-3115Y18423D01*
X-3097Y18496D01*
X-3107Y18559D01*
X-3144Y18609D01*
X-3209Y18649D01*
X-3300Y18677D01*
X-3419Y18694D01*
X-3566Y18700D01*
X-2766Y19500D01*
X-2608Y19506D01*
X-2455Y19523D01*
X-2307Y19551D01*
X-2163Y19590D01*
X-2024Y19641D01*
X-1890Y19704D01*
X-1760Y19777D01*
X-1636Y19862D01*
X-1515Y19958D01*
X-1400Y20066D01*
X-1517Y18817D01*
D02*
G37*
G36*
X1543Y17343D02*
X1475Y17272D01*
X1361Y17139D01*
X1316Y17077D01*
X1277Y17017D01*
X1247Y16959D01*
X1223Y16905D01*
X1208Y16852D01*
X1199Y16803D01*
X1198Y16756D01*
X405Y17594D01*
X452Y17592D01*
X502Y17598D01*
X555Y17612D01*
X610Y17634D01*
X668Y17663D01*
X728Y17700D01*
X791Y17745D01*
X856Y17798D01*
X995Y17926D01*
X1543Y17343D01*
D02*
G37*
G36*
X-25593Y18468D02*
X-25570Y18212D01*
X-25560Y18159D01*
X-25367Y18160D01*
X-25410Y18113D01*
X-25449Y18060D01*
X-25484Y18002D01*
X-25501Y17964D01*
X-25494Y17948D01*
X-25458Y17892D01*
X-25416Y17852D01*
X-25368Y17828D01*
X-25314Y17820D01*
X-25553D01*
X-25559Y17798D01*
X-25575Y17720D01*
X-25587Y17637D01*
X-25593Y17549D01*
X-25596Y17456D01*
X-26396Y17452D01*
X-26398Y17545D01*
X-26405Y17633D01*
X-26417Y17716D01*
X-26433Y17794D01*
X-26440Y17820D01*
X-26668D01*
X-26616Y17828D01*
X-26570Y17852D01*
X-26529Y17892D01*
X-26494Y17948D01*
X-26490Y17957D01*
X-26509Y17997D01*
X-26544Y18054D01*
X-26583Y18107D01*
X-26627Y18154D01*
X-26431Y18155D01*
X-26420Y18212D01*
X-26407Y18332D01*
X-26398Y18468D01*
X-26396Y18620D01*
X-25596D01*
X-25593Y18468D01*
D02*
G37*
G36*
X-47397Y17331D02*
X-48357D01*
X-48324Y17337D01*
X-48295Y17358D01*
X-48269Y17392D01*
X-48247Y17440D01*
X-48228Y17502D01*
X-48213Y17577D01*
X-48201Y17666D01*
X-48187Y17885D01*
X-48185Y18015D01*
X-47385D01*
X-47397Y17331D01*
D02*
G37*
G36*
X-46101Y18694D02*
X-46093Y18638D01*
X-46078Y18581D01*
X-46055Y18522D01*
X-46025Y18461D01*
X-45988Y18398D01*
X-45943Y18334D01*
X-45891Y18268D01*
X-45765Y18131D01*
X-46095Y17801D01*
X-45601D01*
X-45600Y17709D01*
X-45583Y17440D01*
X-45575Y17396D01*
X-45566Y17362D01*
X-45556Y17338D01*
X-45544Y17323D01*
X-45531Y17319D01*
X-46389Y17331D01*
X-46391Y17335D01*
X-46393Y17349D01*
X-46395Y17373D01*
X-46400Y17631D01*
Y17632D01*
X-46400Y17632D01*
X-46534Y17743D01*
X-46598Y17788D01*
X-46661Y17825D01*
X-46722Y17855D01*
X-46781Y17878D01*
X-46838Y17893D01*
X-46894Y17901D01*
X-46948Y17901D01*
X-46101Y18748D01*
X-46101Y18694D01*
D02*
G37*
G36*
X-53377Y16567D02*
X-53383Y16601D01*
X-53401Y16632D01*
X-53431Y16659D01*
X-53473Y16682D01*
X-53527Y16702D01*
X-53593Y16718D01*
X-53671Y16731D01*
X-53761Y16740D01*
X-53977Y16747D01*
Y17347D01*
X-53863Y17349D01*
X-53671Y17364D01*
X-53593Y17376D01*
X-53527Y17392D01*
X-53473Y17412D01*
X-53431Y17436D01*
X-53401Y17462D01*
X-53383Y17493D01*
X-53377Y17527D01*
Y16567D01*
D02*
G37*
G36*
X-27275Y17758D02*
X-27251Y17703D01*
X-27211Y17654D01*
X-27155Y17612D01*
X-27083Y17576D01*
X-26995Y17546D01*
X-26976Y17542D01*
X-26956Y17546D01*
X-26868Y17576D01*
X-26796Y17612D01*
X-26740Y17654D01*
X-26700Y17703D01*
X-26676Y17758D01*
X-26668Y17820D01*
Y17500D01*
X-26635Y17497D01*
X-26483Y17494D01*
Y16694D01*
X-26635Y16691D01*
X-26668Y16687D01*
Y16368D01*
X-26676Y16430D01*
X-26700Y16485D01*
X-26740Y16534D01*
X-26796Y16577D01*
X-26868Y16613D01*
X-26956Y16642D01*
X-26976Y16646D01*
X-26995Y16642D01*
X-27083Y16613D01*
X-27155Y16577D01*
X-27211Y16534D01*
X-27251Y16485D01*
X-27275Y16430D01*
X-27283Y16368D01*
X-27336Y16360D01*
X-27382Y16336D01*
X-27424Y16296D01*
X-27460Y16240D01*
X-27491Y16168D01*
X-27516Y16080D01*
X-27535Y15976D01*
X-27549Y15856D01*
X-27557Y15720D01*
X-27560Y15568D01*
X-28360D01*
X-28363Y15720D01*
X-28385Y15976D01*
X-28404Y16080D01*
X-28429Y16168D01*
X-28460Y16240D01*
X-28495Y16296D01*
X-28537Y16336D01*
X-28584Y16360D01*
X-28637Y16368D01*
X-27283D01*
Y16688D01*
X-27316Y16691D01*
X-27468Y16694D01*
Y17494D01*
X-27316Y17497D01*
X-27283Y17501D01*
Y17820D01*
X-27275Y17758D01*
D02*
G37*
G36*
X3280Y16213D02*
X3290Y16131D01*
X3307Y16052D01*
X3330Y15975D01*
X3360Y15900D01*
X3398Y15827D01*
X3441Y15757D01*
X3492Y15689D01*
X3549Y15623D01*
X3613Y15559D01*
X2353Y15526D01*
X2415Y15594D01*
X2470Y15663D01*
X2518Y15734D01*
X2560Y15807D01*
X2596Y15881D01*
X2625Y15958D01*
X2647Y16036D01*
X2664Y16115D01*
X2673Y16197D01*
X2676Y16280D01*
X3276Y16296D01*
X3280Y16213D01*
D02*
G37*
G36*
X-23379Y16358D02*
X-23410Y16328D01*
X-23436Y16278D01*
X-23459Y16208D01*
X-23479Y16118D01*
X-23494Y16008D01*
X-23516Y15728D01*
X-23523Y15368D01*
X-24523D01*
X-24525Y15558D01*
X-24567Y16118D01*
X-24587Y16208D01*
X-24610Y16278D01*
X-24636Y16328D01*
X-24666Y16358D01*
X-24700Y16368D01*
X-23346D01*
X-23379Y16358D01*
D02*
G37*
G36*
X-45432Y15476D02*
X-45436Y15452D01*
X-45439Y15413D01*
X-45448Y14973D01*
X-45449Y14684D01*
X-46249D01*
X-46250Y14836D01*
X-46284Y15284D01*
X-46299Y15357D01*
X-46317Y15413D01*
X-46338Y15452D01*
X-46362Y15476D01*
X-46389Y15484D01*
X-45428D01*
X-45432Y15476D01*
D02*
G37*
G36*
X-45445Y14331D02*
X-45433Y14189D01*
X-45413Y14063D01*
X-45386Y13954D01*
X-45350Y13862D01*
X-45307Y13787D01*
X-45255Y13729D01*
X-45196Y13687D01*
X-45129Y13662D01*
X-45053Y13653D01*
X-46644D01*
X-46569Y13662D01*
X-46502Y13687D01*
X-46443Y13729D01*
X-46391Y13787D01*
X-46348Y13862D01*
X-46312Y13954D01*
X-46284Y14063D01*
X-46265Y14189D01*
X-46253Y14331D01*
X-46249Y14490D01*
X-45449D01*
X-45445Y14331D01*
D02*
G37*
G36*
X-41801Y14517D02*
X-41789Y14359D01*
X-41768Y14215D01*
X-41739Y14085D01*
X-41701Y13971D01*
X-41655Y13871D01*
X-41601Y13785D01*
X-41538Y13714D01*
X-41467Y13658D01*
X-41388Y13616D01*
X-43223D01*
X-43144Y13658D01*
X-43073Y13714D01*
X-43010Y13785D01*
X-42956Y13871D01*
X-42910Y13971D01*
X-42872Y14085D01*
X-42843Y14215D01*
X-42822Y14359D01*
X-42810Y14517D01*
X-42805Y14690D01*
X-41805D01*
X-41801Y14517D01*
D02*
G37*
G36*
X-49342Y14513D02*
X-49314Y14204D01*
X-49288Y14074D01*
X-49256Y13958D01*
X-49217Y13859D01*
X-49171Y13775D01*
X-49117Y13706D01*
X-49056Y13653D01*
X-48988Y13616D01*
X-50823D01*
X-50732Y13662D01*
X-50651Y13722D01*
X-50580Y13795D01*
X-50517Y13882D01*
X-50465Y13983D01*
X-50422Y14097D01*
X-50389Y14225D01*
X-50365Y14367D01*
X-50350Y14521D01*
X-50346Y14690D01*
X-49346D01*
X-49342Y14513D01*
D02*
G37*
G36*
X-23519Y14488D02*
X-23492Y14179D01*
X-23467Y14048D01*
X-23436Y13933D01*
X-23397Y13833D01*
X-23352Y13749D01*
X-23300Y13681D01*
X-23241Y13629D01*
X-23175Y13592D01*
X-25009D01*
X-24917Y13639D01*
X-24834Y13700D01*
X-24761Y13773D01*
X-24698Y13861D01*
X-24644Y13961D01*
X-24601Y14075D01*
X-24567Y14203D01*
X-24542Y14344D01*
X-24528Y14499D01*
X-24523Y14666D01*
X-23523D01*
X-23519Y14488D01*
D02*
G37*
G36*
X-27556Y14309D02*
X-27544Y14168D01*
X-27524Y14045D01*
X-27496Y13938D01*
X-27460Y13848D01*
X-27416Y13776D01*
X-27364Y13720D01*
X-27304Y13681D01*
X-27236Y13659D01*
X-27160Y13654D01*
X-28553Y13592D01*
X-28516Y13615D01*
X-28483Y13653D01*
X-28454Y13704D01*
X-28429Y13770D01*
X-28408Y13850D01*
X-28391Y13945D01*
X-28377Y14054D01*
X-28362Y14314D01*
X-28360Y14466D01*
X-27560D01*
X-27556Y14309D01*
D02*
G37*
G36*
X-56746Y13224D02*
X-56725Y13219D01*
X-56694Y13215D01*
X-56600Y13207D01*
X-56292Y13200D01*
X-56189Y13200D01*
Y12000D01*
X-56757Y11970D01*
Y13230D01*
X-56746Y13224D01*
D02*
G37*
G36*
X-23104Y13300D02*
X-23080Y13232D01*
X-23039Y13172D01*
X-22983Y13120D01*
X-22909Y13076D01*
X-22820Y13040D01*
X-22715Y13012D01*
X-22593Y12992D01*
X-22455Y12980D01*
X-22300Y12976D01*
Y12176D01*
X-22455Y12172D01*
X-22593Y12160D01*
X-22715Y12140D01*
X-22820Y12112D01*
X-22909Y12076D01*
X-22983Y12032D01*
X-23039Y11980D01*
X-23080Y11920D01*
X-23104Y11852D01*
X-23112Y11776D01*
Y13376D01*
X-23104Y13300D01*
D02*
G37*
G36*
X-41348Y13432D02*
X-41319Y13362D01*
X-41271Y13301D01*
X-41204Y13247D01*
X-41118Y13202D01*
X-41013Y13165D01*
X-40888Y13137D01*
X-40745Y13116D01*
X-40582Y13104D01*
X-40400Y13100D01*
Y12100D01*
X-40582Y12096D01*
X-40745Y12084D01*
X-40888Y12063D01*
X-41013Y12034D01*
X-41118Y11998D01*
X-41204Y11953D01*
X-41271Y11899D01*
X-41319Y11838D01*
X-41348Y11768D01*
X-41357Y11691D01*
Y13510D01*
X-41348Y13432D01*
D02*
G37*
G36*
X-54366Y11584D02*
X-54410Y11663D01*
X-54472Y11734D01*
X-54553Y11796D01*
X-54653Y11850D01*
X-54771Y11896D01*
X-54908Y11934D01*
X-55063Y11963D01*
X-55237Y11983D01*
X-55429Y11996D01*
X-55640Y12000D01*
Y13200D01*
X-55429Y13204D01*
X-55063Y13237D01*
X-54908Y13266D01*
X-54771Y13304D01*
X-54653Y13350D01*
X-54553Y13404D01*
X-54472Y13466D01*
X-54410Y13537D01*
X-54366Y13616D01*
Y11584D01*
D02*
G37*
G36*
X44603Y11688D02*
X44853Y11439D01*
X44987Y11113D01*
Y10937D01*
Y10761D01*
X44853Y10435D01*
X44603Y10186D01*
X44278Y10051D01*
X44102D01*
X44102Y10051D01*
X41641Y10051D01*
X41641Y10634D01*
X41561Y10624D01*
X41481Y10607D01*
X41403Y10584D01*
X41328Y10554D01*
X41254Y10518D01*
X41183Y10475D01*
X41113Y10426D01*
X41045Y10370D01*
X40980Y10307D01*
Y11567D01*
X41045Y11504D01*
X41113Y11448D01*
X41183Y11399D01*
X41254Y11356D01*
X41328Y11320D01*
X41403Y11290D01*
X41481Y11267D01*
X41561Y11250D01*
X41641Y11240D01*
X41641Y11823D01*
X44102Y11823D01*
X44278D01*
X44603Y11688D01*
D02*
G37*
G36*
X-49027Y11560D02*
X-49062Y11523D01*
X-49093Y11471D01*
X-49119Y11405D01*
X-49142Y11326D01*
X-49160Y11232D01*
X-49174Y11125D01*
X-49191Y10869D01*
X-49193Y10720D01*
X-50193D01*
X-50196Y10875D01*
X-50219Y11134D01*
X-50239Y11239D01*
X-50265Y11328D01*
X-50297Y11400D01*
X-50335Y11455D01*
X-50378Y11494D01*
X-50428Y11516D01*
X-50483Y11522D01*
X-48988Y11584D01*
X-49027Y11560D01*
D02*
G37*
G36*
X-26984Y11498D02*
X-27060Y11493D01*
X-27128Y11471D01*
X-27188Y11432D01*
X-27240Y11376D01*
X-27284Y11303D01*
X-27320Y11214D01*
X-27348Y11107D01*
X-27367Y10988D01*
X-27356Y10912D01*
X-27340Y10838D01*
X-27320Y10768D01*
X-27297Y10702D01*
X-27270Y10642D01*
X-27239Y10585D01*
X-27206Y10534D01*
X-28114Y10686D01*
X-28184D01*
X-28185Y10698D01*
X-28448Y10742D01*
X-28398Y10782D01*
X-28353Y10828D01*
X-28313Y10880D01*
X-28279Y10937D01*
X-28250Y11001D01*
X-28226Y11071D01*
X-28222Y11088D01*
X-28243Y11173D01*
X-28276Y11266D01*
X-28317Y11347D01*
X-28365Y11418D01*
X-28420Y11477D01*
X-28483Y11524D01*
X-28553Y11560D01*
X-26984Y11498D01*
D02*
G37*
G36*
X-41467Y11542D02*
X-41538Y11486D01*
X-41601Y11415D01*
X-41655Y11329D01*
X-41701Y11229D01*
X-41739Y11115D01*
X-41768Y10985D01*
X-41789Y10842D01*
X-41801Y10683D01*
X-41805Y10510D01*
X-42805D01*
X-42810Y10683D01*
X-42822Y10842D01*
X-42843Y10985D01*
X-42872Y11115D01*
X-42910Y11229D01*
X-42956Y11329D01*
X-43010Y11415D01*
X-43073Y11486D01*
X-43144Y11542D01*
X-43223Y11584D01*
X-41388D01*
X-41467Y11542D01*
D02*
G37*
G36*
X54154Y12032D02*
X54224Y11975D01*
X54297Y11923D01*
X54372Y11878D01*
X54450Y11838D01*
X54487Y11823D01*
X56405Y11823D01*
X56405Y10051D01*
X53768D01*
X53442Y10186D01*
X53193Y10435D01*
X53058Y10761D01*
Y10937D01*
Y11113D01*
X53193Y11439D01*
X53442Y11688D01*
X53768Y11823D01*
X53813D01*
X54086Y12096D01*
X54154Y12032D01*
D02*
G37*
G36*
X-15677Y7344D02*
X-15684Y7322D01*
X-15690Y7289D01*
X-15695Y7247D01*
X-15706Y7059D01*
X-15710Y6781D01*
X-16891D01*
X-16891Y6883D01*
X-16916Y7322D01*
X-16923Y7344D01*
X-16930Y7357D01*
X-15670D01*
X-15677Y7344D01*
D02*
G37*
G36*
X57218Y6258D02*
X57175Y6306D01*
X57126Y6349D01*
X57072Y6386D01*
X57012Y6419D01*
X56946Y6447D01*
X56875Y6470D01*
X56799Y6487D01*
X56717Y6500D01*
X56629Y6508D01*
X56536Y6510D01*
X56625Y7310D01*
X56718Y7312D01*
X56890Y7328D01*
X56969Y7342D01*
X57044Y7361D01*
X57113Y7383D01*
X57178Y7409D01*
X57238Y7439D01*
X57293Y7473D01*
X57344Y7511D01*
X57218Y6258D01*
D02*
G37*
G36*
X44603Y7751D02*
X44853Y7502D01*
X44987Y7176D01*
Y7000D01*
Y6824D01*
X44853Y6498D01*
X44603Y6249D01*
X44278Y6114D01*
X44102D01*
X44102Y6114D01*
X41641Y6114D01*
Y6390D01*
X41002Y6400D01*
X40837Y7400D01*
X41018Y7402D01*
X41475Y7431D01*
X41597Y7448D01*
X41641Y7457D01*
Y7886D01*
X44102Y7886D01*
X44278D01*
X44603Y7751D01*
D02*
G37*
G36*
X56405Y7886D02*
X56405Y6114D01*
X53944Y6114D01*
X53768D01*
X53442Y6249D01*
X53193Y6498D01*
X53058Y6824D01*
Y7000D01*
Y7176D01*
X53193Y7502D01*
X53442Y7751D01*
X53768Y7886D01*
X53944D01*
X53944Y7886D01*
X56405Y7886D01*
D02*
G37*
G36*
X-13644Y6673D02*
X-13697Y6646D01*
X-13745Y6610D01*
X-13787Y6568D01*
X-13823Y6518D01*
X-13854Y6460D01*
X-13880Y6396D01*
X-13899Y6324D01*
X-13913Y6244D01*
X-13922Y6157D01*
X-13924Y6063D01*
X-14724Y6120D01*
X-14725Y6274D01*
X-14771Y6949D01*
X-14785Y7020D01*
X-14801Y7080D01*
X-14819Y7128D01*
X-13644Y6673D01*
D02*
G37*
G36*
X-263Y5825D02*
Y5806D01*
X-300D01*
Y5825D01*
Y5843D01*
X-263D01*
Y5825D01*
D02*
G37*
G36*
X9591Y6000D02*
X9526Y5997D01*
X9461Y5988D01*
X9396Y5971D01*
X9331Y5948D01*
X9265Y5918D01*
X9199Y5881D01*
X9132Y5837D01*
X9065Y5787D01*
X8998Y5729D01*
X8931Y5665D01*
X8365Y6231D01*
X8429Y6298D01*
X8487Y6365D01*
X8537Y6432D01*
X8581Y6499D01*
X8618Y6565D01*
X8648Y6631D01*
X8671Y6696D01*
X8688Y6762D01*
X8697Y6826D01*
X8700Y6891D01*
X9591Y6000D01*
D02*
G37*
G36*
X-47746Y6592D02*
X-47736Y6593D01*
X-47738Y6584D01*
X-47741Y6566D01*
X-47743Y6543D01*
X-47713Y6200D01*
X-47684Y6044D01*
X-47646Y5912D01*
X-47601Y5804D01*
X-47547Y5720D01*
X-47484Y5660D01*
X-47414Y5624D01*
X-47335Y5612D01*
X-49366D01*
X-49287Y5624D01*
X-49216Y5660D01*
X-49154Y5720D01*
X-49100Y5804D01*
X-49054Y5912D01*
X-49017Y6044D01*
X-48988Y6200D01*
X-48970Y6356D01*
X-48978Y6488D01*
X-48985Y6511D01*
X-48994Y6523D01*
X-48958Y6526D01*
X-48954Y6584D01*
X-48950Y6812D01*
X-47750D01*
X-47746Y6592D01*
D02*
G37*
G36*
X-44514Y6910D02*
X-44553Y6857D01*
X-44587Y6799D01*
X-44617Y6736D01*
X-44642Y6669D01*
X-44663Y6596D01*
X-44679Y6518D01*
X-44691Y6435D01*
X-44698Y6347D01*
X-44698Y6335D01*
X-44696Y6258D01*
X-44684Y6120D01*
X-44664Y5998D01*
X-44636Y5893D01*
X-44600Y5803D01*
X-44556Y5730D01*
X-44504Y5674D01*
X-44444Y5633D01*
X-44376Y5609D01*
X-44300Y5600D01*
X-45900D01*
X-45824Y5609D01*
X-45756Y5633D01*
X-45696Y5674D01*
X-45644Y5730D01*
X-45600Y5803D01*
X-45564Y5893D01*
X-45536Y5998D01*
X-45516Y6120D01*
X-45504Y6258D01*
X-45502Y6335D01*
X-45502Y6347D01*
X-45509Y6435D01*
X-45521Y6518D01*
X-45537Y6596D01*
X-45557Y6669D01*
X-45583Y6736D01*
X-45613Y6799D01*
X-45647Y6857D01*
X-45686Y6910D01*
X-45730Y6957D01*
X-44470D01*
X-44514Y6910D01*
D02*
G37*
G36*
X-17694Y6153D02*
X-17750Y6085D01*
X-17800Y6016D01*
X-17843Y5944D01*
X-17879Y5870D01*
X-17909Y5795D01*
X-17932Y5717D01*
X-17948Y5638D01*
X-17958Y5556D01*
X-17961Y5473D01*
X-18561D01*
X-18565Y5556D01*
X-18575Y5638D01*
X-18591Y5717D01*
X-18614Y5795D01*
X-18644Y5870D01*
X-18680Y5944D01*
X-18723Y6016D01*
X-18773Y6085D01*
X-18829Y6153D01*
X-18891Y6219D01*
X-17631D01*
X-17694Y6153D01*
D02*
G37*
G36*
X-32210Y6686D02*
X-32157Y6647D01*
X-32099Y6613D01*
X-32037Y6583D01*
X-31969Y6558D01*
X-31896Y6537D01*
X-31818Y6521D01*
X-31735Y6509D01*
X-31647Y6502D01*
X-31554Y6500D01*
Y5700D01*
X-31647Y5698D01*
X-31735Y5691D01*
X-31818Y5679D01*
X-31896Y5663D01*
X-31969Y5643D01*
X-32037Y5617D01*
X-32099Y5587D01*
X-32157Y5553D01*
X-32210Y5514D01*
X-32257Y5470D01*
Y6730D01*
X-32210Y6686D01*
D02*
G37*
G36*
X25863Y7272D02*
X26863Y6272D01*
X26863Y5272D01*
X22613Y5272D01*
X24113Y7272D01*
X25863Y7272D01*
D02*
G37*
G36*
X-13924Y5430D02*
X-13885Y4854D01*
X-13873Y4814D01*
X-13859Y4790D01*
X-13844Y4782D01*
X-14805D01*
X-14789Y4790D01*
X-14776Y4814D01*
X-14764Y4854D01*
X-14753Y4910D01*
X-14744Y4982D01*
X-14732Y5174D01*
X-14724Y5582D01*
X-13924D01*
X-13924Y5430D01*
D02*
G37*
G36*
X-17960Y5268D02*
X-17945Y5076D01*
X-17933Y4998D01*
X-17916Y4932D01*
X-17897Y4878D01*
X-17873Y4836D01*
X-17846Y4806D01*
X-17816Y4788D01*
X-17781Y4782D01*
X-18742D01*
X-18707Y4788D01*
X-18677Y4806D01*
X-18650Y4836D01*
X-18626Y4878D01*
X-18606Y4932D01*
X-18590Y4998D01*
X-18578Y5076D01*
X-18569Y5166D01*
X-18561Y5382D01*
X-17961D01*
X-17960Y5268D01*
D02*
G37*
G36*
X-20647Y5240D02*
X-20431Y5059D01*
X-20326Y4986D01*
X-20224Y4924D01*
X-20124Y4873D01*
X-20027Y4833D01*
X-19932Y4805D01*
X-19840Y4788D01*
X-19750Y4782D01*
X-20710Y3723D01*
X-20716Y3813D01*
X-20733Y3906D01*
X-20761Y4001D01*
X-20800Y4098D01*
X-20851Y4198D01*
X-20914Y4300D01*
X-20987Y4404D01*
X-21072Y4512D01*
X-21276Y4733D01*
X-20759Y5348D01*
X-20647Y5240D01*
D02*
G37*
G36*
X-9000Y5000D02*
Y1000D01*
X-10000Y0D01*
X-12000D01*
X-12067Y-67D01*
X-13383D01*
X-13567Y-143D01*
X-15081D01*
X-15266Y-67D01*
X-16500D01*
X-16806Y-194D01*
X-17306Y-694D01*
X-17433Y-1000D01*
Y-2433D01*
X-18000Y-3000D01*
Y-8000D01*
X-19000Y-9000D01*
X-20226D01*
X-20188Y-9046D01*
X-20241Y-9000D01*
X-20716D01*
X-20791Y-9032D01*
X-20967Y-9134D01*
X-21162Y-9271D01*
X-21376Y-9444D01*
X-21750Y-9792D01*
X-21985Y-10056D01*
X-21996Y-10077D01*
X-22000Y-10091D01*
X-22891Y-9200D01*
X-22877Y-9196D01*
X-22856Y-9185D01*
X-22829Y-9166D01*
X-22795Y-9140D01*
X-22654Y-9014D01*
X-22500Y-8864D01*
X-22443Y-8805D01*
X-22495Y-8689D01*
X-22538Y-8500D01*
X-22275Y-8107D01*
X-22174Y-7600D01*
X-22267Y-7134D01*
X-22243Y-7075D01*
X-22141Y-6922D01*
X-22086Y-6649D01*
Y-4568D01*
X-20458Y-2939D01*
X-20415Y-2924D01*
X-20189Y-2714D01*
X-20107Y-2648D01*
X-20037Y-2599D01*
X-20028Y-2594D01*
X-19912D01*
X-19861Y-2615D01*
X-19829Y-2601D01*
X-19794Y-2610D01*
X-19338Y-2594D01*
X-19338Y-2537D01*
X-19338Y-2537D01*
Y-711D01*
X-21122D01*
Y-1240D01*
X-21138Y-1266D01*
X-21129Y-1301D01*
X-21143Y-1334D01*
X-21122Y-1384D01*
Y-1500D01*
X-21127Y-1509D01*
X-21172Y-1574D01*
X-21337Y-1768D01*
X-21446Y-1881D01*
X-21463Y-1926D01*
X-23305Y-3767D01*
X-23459Y-3999D01*
X-23514Y-4272D01*
Y-6277D01*
X-24007Y-6375D01*
X-24437Y-6663D01*
X-24725Y-7093D01*
X-24825Y-7600D01*
X-24725Y-8107D01*
X-24462Y-8500D01*
X-24505Y-8689D01*
X-24645Y-9000D01*
X-27000D01*
X-28000Y-8000D01*
Y-3758D01*
X-28033Y-3738D01*
X-28164Y-3685D01*
X-28319Y-3644D01*
X-28497Y-3614D01*
X-28574Y-3607D01*
X-28722Y-3616D01*
X-28745Y-3622D01*
X-28757Y-3630D01*
Y-3595D01*
X-28926Y-3591D01*
Y-2410D01*
X-28757Y-2408D01*
Y-2370D01*
X-28745Y-2378D01*
X-28722Y-2384D01*
X-28689Y-2390D01*
X-28646Y-2395D01*
X-28591Y-2398D01*
X-28040Y-2355D01*
X-28000Y-2345D01*
Y-2000D01*
X-27000Y-1000D01*
X-23000D01*
X-22000Y0D01*
Y1367D01*
X-20230D01*
X-20102Y1392D01*
X-19289D01*
Y2867D01*
X-19185Y3208D01*
X-18845Y3311D01*
X-17369D01*
Y4685D01*
X-17361Y4698D01*
X-17355Y4707D01*
X-17363Y4747D01*
X-17348Y4782D01*
X-17369Y5194D01*
X-17456Y5576D01*
X-17134Y6000D01*
X-15421D01*
X-15283Y5785D01*
X-15239Y5685D01*
X-15216Y5194D01*
X-15237Y4782D01*
X-15216Y4732D01*
Y3311D01*
X-13432D01*
Y4694D01*
X-13432Y4732D01*
X-13411Y4782D01*
X-13432Y5194D01*
X-13415Y5687D01*
X-13392Y5742D01*
X-13230Y6000D01*
X-10000D01*
X-9000Y5000D01*
D02*
G37*
G36*
X28000Y1000D02*
X27000Y0D01*
X26000Y-0D01*
X23433Y-2567D01*
X23000D01*
X22694Y-2694D01*
X21694Y-3694D01*
X21694Y-3695D01*
X21693Y-3695D01*
X21631Y-3847D01*
X21567Y-4000D01*
X21567Y-4001D01*
X21567Y-4001D01*
X21577Y-7365D01*
X21602Y-7425D01*
X21596Y-7490D01*
X21663Y-7572D01*
X21704Y-7671D01*
X21765Y-7695D01*
X21806Y-7746D01*
X21875Y-8293D01*
X21775Y-8800D01*
X21875Y-9307D01*
X21813Y-9860D01*
X21771Y-9911D01*
X21711Y-9937D01*
X21670Y-10035D01*
X21603Y-10117D01*
X21610Y-10182D01*
X21585Y-10243D01*
X21585Y-10415D01*
X20500Y-11500D01*
X19562D01*
X19537Y-11463D01*
X19107Y-11175D01*
X18600Y-11074D01*
X18093Y-11175D01*
X17774Y-11389D01*
X17479Y-11406D01*
X17121Y-11389D01*
X16988Y-11375D01*
X16912Y-11363D01*
X16912Y-11198D01*
X16500Y-11177D01*
X16449Y-11198D01*
X16431Y-11198D01*
X16386Y-11192D01*
X16379Y-11198D01*
X12372D01*
Y-13757D01*
X12372D01*
Y-14016D01*
X8755Y-17633D01*
X8722Y-17713D01*
X8661Y-17773D01*
X8600Y-17920D01*
X8520Y-18000D01*
X5500D01*
X4000Y-16500D01*
Y-15624D01*
X3931Y-15582D01*
X3842Y-15546D01*
X3736Y-15518D01*
X3615Y-15498D01*
X3477Y-15486D01*
X3322Y-15482D01*
Y-14682D01*
X3477Y-14678D01*
X3615Y-14666D01*
X3736Y-14646D01*
X3842Y-14618D01*
X3931Y-14582D01*
X4000Y-14541D01*
Y-14500D01*
X4117Y-14383D01*
X4126Y-14358D01*
X4134Y-14282D01*
Y-14366D01*
X4500Y-14000D01*
X7500D01*
X7731Y-13769D01*
X8250D01*
Y-13250D01*
X8800Y-12700D01*
Y-11650D01*
X8852Y-11605D01*
X9300Y-11429D01*
X9593Y-11625D01*
X10100Y-11726D01*
X10607Y-11625D01*
X11037Y-11337D01*
X11325Y-10907D01*
X11426Y-10400D01*
X11325Y-9893D01*
X11037Y-9463D01*
X10607Y-9175D01*
X10100Y-9075D01*
X10015Y-9091D01*
X9852Y-8982D01*
X9462Y-8905D01*
X9075D01*
X9044Y-8891D01*
X8825Y-8889D01*
X8800Y-8887D01*
Y-4131D01*
X9136Y-3699D01*
X9220Y-3648D01*
X9668Y-3641D01*
X9793Y-3725D01*
X10300Y-3825D01*
X10807Y-3725D01*
X11237Y-3437D01*
X11525Y-3007D01*
X11626Y-2500D01*
X11525Y-1993D01*
X11237Y-1563D01*
X10807Y-1275D01*
X10300Y-1175D01*
X9793Y-1275D01*
X9363Y-1563D01*
X9300Y-1567D01*
X8861Y-1252D01*
X8848Y-1235D01*
X8800Y-1123D01*
Y1400D01*
X10400Y3000D01*
X23945D01*
Y2772D01*
X25781Y2772D01*
Y3000D01*
X28000D01*
Y1000D01*
D02*
G37*
G36*
X44603Y3814D02*
X44853Y3565D01*
X44987Y3239D01*
Y3063D01*
Y2887D01*
X44853Y2561D01*
X44603Y2312D01*
X44278Y2177D01*
X44102D01*
Y2177D01*
X41641Y2177D01*
X41641Y3949D01*
X44278D01*
X44603Y3814D01*
D02*
G37*
G36*
X56405Y3949D02*
X56405Y2177D01*
X53944Y2177D01*
X53768D01*
X53442Y2312D01*
X53193Y2561D01*
X53058Y2887D01*
Y3063D01*
Y3239D01*
X53193Y3565D01*
X53442Y3814D01*
X53768Y3949D01*
X53944D01*
X56405Y3949D01*
D02*
G37*
G36*
X-47416Y3262D02*
X-47488Y3227D01*
X-47552Y3168D01*
X-47607Y3085D01*
X-47654Y2979D01*
X-47692Y2849D01*
X-47722Y2695D01*
X-47743Y2518D01*
X-47756Y2317D01*
X-47760Y2093D01*
X-48941D01*
X-48945Y2317D01*
X-48979Y2695D01*
X-49009Y2849D01*
X-49047Y2979D01*
X-49094Y3085D01*
X-49149Y3168D01*
X-49213Y3227D01*
X-49285Y3262D01*
X-49366Y3274D01*
X-47335D01*
X-47416Y3262D01*
D02*
G37*
G36*
X-23833Y3189D02*
X-23803Y3104D01*
X-23753Y3029D01*
X-23682Y2964D01*
X-23591Y2909D01*
X-23479Y2864D01*
X-23348Y2829D01*
X-23196Y2804D01*
X-23024Y2789D01*
X-22832Y2784D01*
Y1784D01*
X-23024Y1779D01*
X-23196Y1764D01*
X-23348Y1739D01*
X-23479Y1704D01*
X-23591Y1659D01*
X-23682Y1604D01*
X-23753Y1539D01*
X-23803Y1464D01*
X-23833Y1379D01*
X-23844Y1284D01*
Y3284D01*
X-23833Y3189D01*
D02*
G37*
G36*
X-263Y1040D02*
Y1022D01*
X-300D01*
Y1040D01*
Y1059D01*
X-263D01*
Y1040D01*
D02*
G37*
G36*
X-31234Y175D02*
X-31310Y228D01*
X-31387Y276D01*
X-31465Y318D01*
X-31543Y355D01*
X-31622Y386D01*
X-31701Y411D01*
X-31780Y431D01*
X-31861Y445D01*
X-31942Y453D01*
X-32023Y456D01*
X-32126Y1056D01*
X-32041Y1060D01*
X-31960Y1070D01*
X-31882Y1089D01*
X-31807Y1114D01*
X-31736Y1147D01*
X-31669Y1187D01*
X-31605Y1234D01*
X-31545Y1288D01*
X-31488Y1350D01*
X-31435Y1419D01*
X-31234Y175D01*
D02*
G37*
G36*
X-37222Y1299D02*
X-37204Y1248D01*
X-37173Y1203D01*
X-37130Y1164D01*
X-37075Y1131D01*
X-37008Y1104D01*
X-36928Y1083D01*
X-36836Y1068D01*
X-36732Y1059D01*
X-36616Y1056D01*
Y456D01*
X-36732Y453D01*
X-36836Y444D01*
X-36928Y429D01*
X-37008Y408D01*
X-37075Y381D01*
X-37130Y348D01*
X-37173Y309D01*
X-37204Y264D01*
X-37222Y213D01*
X-37228Y156D01*
Y1356D01*
X-37222Y1299D01*
D02*
G37*
G36*
X-41144Y156D02*
X-41150Y213D01*
X-41168Y264D01*
X-41199Y309D01*
X-41242Y348D01*
X-41297Y381D01*
X-41364Y408D01*
X-41443Y429D01*
X-41535Y444D01*
X-41639Y453D01*
X-41756Y456D01*
Y1056D01*
X-41639Y1059D01*
X-41535Y1068D01*
X-41443Y1083D01*
X-41364Y1104D01*
X-41297Y1131D01*
X-41242Y1164D01*
X-41199Y1203D01*
X-41168Y1248D01*
X-41150Y1299D01*
X-41144Y1356D01*
Y156D01*
D02*
G37*
G36*
X-44104Y1299D02*
X-44086Y1248D01*
X-44056Y1203D01*
X-44013Y1164D01*
X-43957Y1131D01*
X-43890Y1104D01*
X-43811Y1083D01*
X-43719Y1068D01*
X-43615Y1059D01*
X-43499Y1056D01*
Y456D01*
X-43615Y453D01*
X-43719Y444D01*
X-43811Y429D01*
X-43890Y408D01*
X-43957Y381D01*
X-44013Y348D01*
X-44056Y309D01*
X-44086Y264D01*
X-44104Y213D01*
X-44111Y156D01*
Y1356D01*
X-44104Y1299D01*
D02*
G37*
G36*
X-8500Y-1000D02*
Y-1163D01*
X-8446Y-1168D01*
X-8287Y-1172D01*
Y-1972D01*
X-8446Y-1976D01*
X-8500Y-1980D01*
Y-4500D01*
X-10500Y-6500D01*
Y-14000D01*
X-11000Y-14500D01*
X-17000D01*
X-17500Y-14000D01*
Y-11000D01*
X-17000Y-10500D01*
Y-1000D01*
X-16500Y-500D01*
X-15266D01*
Y-576D01*
X-13383D01*
Y-500D01*
X-9000D01*
X-8500Y-1000D01*
D02*
G37*
G36*
X-19861Y-2182D02*
X-19908Y-2148D01*
X-19963Y-2131D01*
X-20027D01*
X-20099Y-2148D01*
X-20180Y-2182D01*
X-20269Y-2233D01*
X-20366Y-2301D01*
X-20472Y-2386D01*
X-20710Y-2606D01*
X-21134Y-2182D01*
X-21015Y-2059D01*
X-20829Y-1838D01*
X-20761Y-1741D01*
X-20710Y-1652D01*
X-20676Y-1571D01*
X-20659Y-1499D01*
Y-1435D01*
X-20676Y-1380D01*
X-20710Y-1334D01*
X-19861Y-2182D01*
D02*
G37*
G36*
X9743Y-3207D02*
X9213Y-3215D01*
X9002Y-2015D01*
X9104Y-2014D01*
X9512Y-1987D01*
X9545Y-1978D01*
X9568Y-1968D01*
X9582Y-1957D01*
X9743Y-3207D01*
D02*
G37*
G36*
X-48564Y-3812D02*
X-48608Y-3776D01*
X-48662Y-3758D01*
X-48724Y-3757D01*
X-48796Y-3773D01*
X-48876Y-3807D01*
X-48966Y-3858D01*
X-49064Y-3926D01*
X-49171Y-4012D01*
X-49280Y-4113D01*
X-49313Y-4156D01*
X-49358Y-4224D01*
X-49396Y-4295D01*
X-49429Y-4370D01*
X-49455Y-4448D01*
X-49475Y-4529D01*
X-49490Y-4613D01*
X-49498Y-4700D01*
X-49500Y-4791D01*
X-50391Y-3900D01*
X-50300Y-3898D01*
X-50213Y-3890D01*
X-50129Y-3875D01*
X-50047Y-3855D01*
X-49970Y-3829D01*
X-49895Y-3796D01*
X-49824Y-3758D01*
X-49756Y-3713D01*
X-49692Y-3663D01*
X-49682Y-3654D01*
X-49673Y-3645D01*
X-49490Y-3427D01*
X-49422Y-3330D01*
X-49372Y-3241D01*
X-49338Y-3161D01*
X-49320Y-3088D01*
X-49319Y-3023D01*
X-49334Y-2966D01*
X-49366Y-2917D01*
X-48564Y-3812D01*
D02*
G37*
G36*
X7981Y-4246D02*
X6754Y-4258D01*
X6762Y-4251D01*
X6768Y-4232D01*
X6774Y-4199D01*
X6779Y-4154D01*
X6789Y-3939D01*
X6793Y-3607D01*
X7993D01*
X7981Y-4246D01*
D02*
G37*
G36*
X50214Y-3105D02*
X50406Y-3270D01*
X50463Y-3310D01*
X50516Y-3343D01*
X50565Y-3368D01*
X50611Y-3386D01*
X50653Y-3397D01*
X50691Y-3400D01*
X49800Y-4291D01*
X49797Y-4253D01*
X49786Y-4211D01*
X49768Y-4165D01*
X49743Y-4116D01*
X49710Y-4063D01*
X49670Y-4006D01*
X49567Y-3882D01*
X49505Y-3814D01*
X49435Y-3743D01*
X50143Y-3036D01*
X50214Y-3105D01*
D02*
G37*
G36*
X-44390Y-3808D02*
X-44458Y-3833D01*
X-44518Y-3873D01*
X-44570Y-3930D01*
X-44614Y-4003D01*
X-44650Y-4093D01*
X-44678Y-4198D01*
X-44698Y-4320D01*
X-44710Y-4458D01*
X-44714Y-4612D01*
X-45514D01*
X-45518Y-4458D01*
X-45530Y-4320D01*
X-45550Y-4198D01*
X-45578Y-4093D01*
X-45614Y-4003D01*
X-45658Y-3930D01*
X-45710Y-3873D01*
X-45770Y-3833D01*
X-45838Y-3808D01*
X-45914Y-3800D01*
X-44314D01*
X-44390Y-3808D01*
D02*
G37*
G36*
X-44710Y-6267D02*
X-44698Y-6408D01*
X-44678Y-6531D01*
X-44650Y-6638D01*
X-44614Y-6727D01*
X-44570Y-6800D01*
X-44518Y-6856D01*
X-44458Y-6895D01*
X-44390Y-6917D01*
X-44314Y-6922D01*
X-45860Y-6984D01*
X-45794Y-6950D01*
X-45735Y-6904D01*
X-45684Y-6845D01*
X-45638Y-6776D01*
X-45601Y-6694D01*
X-45569Y-6601D01*
X-45545Y-6496D01*
X-45528Y-6379D01*
X-45518Y-6250D01*
X-45514Y-6110D01*
X-44714D01*
X-44710Y-6267D01*
D02*
G37*
G36*
X-22588Y-6861D02*
X-22625Y-6898D01*
X-22728Y-7015D01*
X-22743Y-7036D01*
X-22754Y-7054D01*
X-22760Y-7068D01*
X-22762Y-7080D01*
X-22760Y-7088D01*
X-23315Y-6719D01*
X-23309Y-6717D01*
X-23297Y-6709D01*
X-23281Y-6695D01*
X-23198Y-6619D01*
X-23012Y-6436D01*
X-22588Y-6861D01*
D02*
G37*
G36*
X-38131Y-6135D02*
X-38232Y-6171D01*
X-38320Y-6230D01*
X-38397Y-6314D01*
X-38462Y-6421D01*
X-38515Y-6553D01*
X-38556Y-6708D01*
X-38586Y-6887D01*
X-38593Y-6968D01*
X-38584Y-7122D01*
X-38577Y-7145D01*
X-38570Y-7157D01*
X-38605D01*
X-38609Y-7316D01*
X-39791D01*
X-39795Y-7157D01*
X-39830D01*
X-39823Y-7145D01*
X-39816Y-7122D01*
X-39810Y-7089D01*
X-39805Y-7046D01*
X-39803Y-7015D01*
X-39814Y-6887D01*
X-39844Y-6708D01*
X-39885Y-6553D01*
X-39938Y-6421D01*
X-40003Y-6314D01*
X-40080Y-6230D01*
X-40168Y-6171D01*
X-40269Y-6135D01*
X-40381Y-6123D01*
X-38019D01*
X-38131Y-6135D01*
D02*
G37*
G36*
X780Y-7384D02*
X741Y-7437D01*
X707Y-7495D01*
X677Y-7558D01*
X652Y-7625D01*
X631Y-7698D01*
X617Y-7766D01*
X630Y-7845D01*
X658Y-7951D01*
X694Y-8040D01*
X738Y-8113D01*
X790Y-8170D01*
X850Y-8211D01*
X918Y-8235D01*
X994Y-8243D01*
X-606D01*
X-530Y-8235D01*
X-462Y-8211D01*
X-402Y-8170D01*
X-350Y-8113D01*
X-306Y-8040D01*
X-270Y-7951D01*
X-242Y-7845D01*
X-229Y-7766D01*
X-243Y-7698D01*
X-263Y-7625D01*
X-289Y-7558D01*
X-319Y-7495D01*
X-353Y-7437D01*
X-392Y-7384D01*
X-436Y-7337D01*
X824D01*
X780Y-7384D01*
D02*
G37*
G36*
X-44180Y-9046D02*
X-44247Y-9073D01*
X-44306Y-9116D01*
X-44358Y-9177D01*
X-44401Y-9254D01*
X-44437Y-9347D01*
X-44464Y-9458D01*
X-44484Y-9585D01*
X-44496Y-9729D01*
X-44500Y-9890D01*
X-45300D01*
X-45304Y-9733D01*
X-45316Y-9592D01*
X-45336Y-9469D01*
X-45363Y-9362D01*
X-45399Y-9271D01*
X-45442Y-9198D01*
X-45494Y-9141D01*
X-45553Y-9101D01*
X-45620Y-9077D01*
X-45695Y-9071D01*
X-44105Y-9036D01*
X-44180Y-9046D01*
D02*
G37*
G36*
X33000Y-5000D02*
Y-6000D01*
X33000Y-9000D01*
X32000Y-10000D01*
X29000Y-10000D01*
X28470Y-10530D01*
X28061D01*
Y-10939D01*
X27500Y-11500D01*
Y-12000D01*
X27500Y-19910D01*
X25324Y-22086D01*
X25065Y-22194D01*
X25004Y-22340D01*
X23559D01*
X23499Y-22194D01*
X23193Y-22067D01*
Y-17670D01*
X22023Y-16500D01*
X22023Y-12000D01*
X22018Y-10242D01*
X22517Y-9974D01*
X22593Y-10025D01*
X23100Y-10125D01*
X23607Y-10025D01*
X24037Y-9737D01*
X24325Y-9307D01*
X24426Y-8800D01*
X24325Y-8293D01*
X24037Y-7863D01*
X23607Y-7575D01*
X23100Y-7474D01*
X22593Y-7575D01*
X22510Y-7631D01*
X22010Y-7364D01*
X22000Y-4000D01*
X23000Y-3000D01*
X31000D01*
X33000Y-5000D01*
D02*
G37*
G36*
X-47631Y-9053D02*
X-47686Y-9109D01*
X-47735Y-9186D01*
X-47778Y-9282D01*
X-47813Y-9397D01*
X-47843Y-9533D01*
X-47866Y-9688D01*
X-47877Y-9812D01*
X-47873Y-9883D01*
X-47865Y-9927D01*
X-47856Y-9961D01*
X-47846Y-9985D01*
X-47834Y-10000D01*
X-47887Y-10005D01*
X-47895Y-10271D01*
X-49076D01*
X-49079Y-10119D01*
X-49088Y-10120D01*
X-49086Y-10112D01*
X-49084Y-10093D01*
X-49081Y-10035D01*
X-49106Y-9688D01*
X-49129Y-9533D01*
X-49158Y-9397D01*
X-49194Y-9282D01*
X-49236Y-9186D01*
X-49285Y-9109D01*
X-49341Y-9053D01*
X-49403Y-9016D01*
X-47568D01*
X-47631Y-9053D01*
D02*
G37*
G36*
X7850Y-9103D02*
X7886Y-9149D01*
X7946Y-9190D01*
X8030Y-9226D01*
X8138Y-9256D01*
X8270Y-9281D01*
X8426Y-9300D01*
X8810Y-9322D01*
X9038Y-9324D01*
Y-9374D01*
X9837Y-9539D01*
X9221Y-10595D01*
X9213Y-10582D01*
X9194Y-10570D01*
X9165Y-10559D01*
X9125Y-10550D01*
X9075Y-10542D01*
X8944Y-10531D01*
X8827Y-10527D01*
X8810Y-10527D01*
X8270Y-10568D01*
X8138Y-10593D01*
X8030Y-10623D01*
X7946Y-10659D01*
X7886Y-10700D01*
X7850Y-10746D01*
X7838Y-10798D01*
Y-9051D01*
X7850Y-9103D01*
D02*
G37*
G36*
X-44498Y-10247D02*
X-44491Y-10335D01*
X-44479Y-10418D01*
X-44463Y-10496D01*
X-44442Y-10569D01*
X-44417Y-10637D01*
X-44387Y-10699D01*
X-44353Y-10757D01*
X-44314Y-10810D01*
X-44270Y-10857D01*
X-45530D01*
X-45486Y-10810D01*
X-45447Y-10757D01*
X-45413Y-10699D01*
X-45383Y-10637D01*
X-45357Y-10569D01*
X-45337Y-10496D01*
X-45321Y-10418D01*
X-45309Y-10335D01*
X-45302Y-10247D01*
X-45300Y-10154D01*
X-44500D01*
X-44498Y-10247D01*
D02*
G37*
G36*
X2100Y-10068D02*
X2072Y-10134D01*
X2067Y-10212D01*
X2085Y-10302D01*
X2127Y-10405D01*
X2192Y-10519D01*
X2280Y-10646D01*
X2391Y-10785D01*
X2683Y-11099D01*
X2008Y-11555D01*
X1849Y-11402D01*
X1563Y-11161D01*
X1435Y-11071D01*
X1317Y-11003D01*
X1209Y-10956D01*
X1110Y-10929D01*
X1022Y-10924D01*
X944Y-10940D01*
X876Y-10977D01*
X2152Y-10014D01*
X2100Y-10068D01*
D02*
G37*
G36*
X-3528Y-3472D02*
X-3537Y-3963D01*
X-3825Y-4393D01*
X-3926Y-4900D01*
X-3825Y-5407D01*
X-3537Y-5837D01*
X-3500Y-5862D01*
Y-16500D01*
X-14403Y-27403D01*
X-14466Y-27429D01*
X-14492Y-27492D01*
X-14500Y-27500D01*
Y-27511D01*
X-14593Y-27735D01*
Y-30093D01*
X-15000Y-30500D01*
X-15026D01*
Y-30531D01*
Y-30640D01*
X-15110Y-30843D01*
X-15265Y-30998D01*
X-15468Y-31082D01*
X-15687D01*
X-15889Y-30998D01*
X-16044Y-30843D01*
X-16128Y-30640D01*
Y-30531D01*
Y-30372D01*
X-16500Y-30000D01*
Y-25500D01*
X-15721Y-24721D01*
X-15591D01*
Y-24591D01*
X-15500Y-24500D01*
Y-19000D01*
X-11433Y-14933D01*
X-11000D01*
X-10694Y-14806D01*
X-10194Y-14306D01*
X-10067Y-14000D01*
Y-10977D01*
X-9970Y-10940D01*
X-9567Y-10893D01*
X-9337Y-11237D01*
X-8907Y-11525D01*
X-8400Y-11626D01*
X-7893Y-11525D01*
X-7463Y-11237D01*
X-7175Y-10807D01*
X-7074Y-10300D01*
X-7175Y-9793D01*
X-7463Y-9363D01*
X-7893Y-9075D01*
X-8400Y-8975D01*
X-8907Y-9075D01*
X-9337Y-9363D01*
X-9567Y-9707D01*
X-9970Y-9660D01*
X-10067Y-9623D01*
Y-6679D01*
X-8194Y-4806D01*
X-8067Y-4500D01*
Y-2567D01*
X-8000Y-2500D01*
X-4500D01*
X-3528Y-3472D01*
D02*
G37*
G36*
X-20666Y-13416D02*
X-20703Y-13354D01*
X-20760Y-13299D01*
X-20836Y-13250D01*
X-20932Y-13208D01*
X-21047Y-13172D01*
X-21183Y-13143D01*
X-21338Y-13120D01*
X-21434Y-13111D01*
X-21522Y-13116D01*
X-21545Y-13123D01*
X-21557Y-13130D01*
Y-13102D01*
X-21921Y-13091D01*
Y-11909D01*
X-21722Y-11904D01*
X-21557Y-11890D01*
Y-11870D01*
X-21545Y-11878D01*
X-21522Y-11884D01*
X-21517Y-11885D01*
X-21373Y-11862D01*
X-21223Y-11825D01*
X-21089Y-11778D01*
X-20971Y-11720D01*
X-20870Y-11652D01*
X-20786Y-11573D01*
X-20718Y-11484D01*
X-20666Y-11384D01*
Y-13416D01*
D02*
G37*
G36*
X54464Y-10194D02*
X54501Y-10296D01*
X54561Y-10386D01*
X54646Y-10464D01*
X54755Y-10530D01*
X54889Y-10584D01*
X55046Y-10626D01*
X55228Y-10656D01*
X55415Y-10673D01*
X55838Y-10650D01*
Y-11910D01*
X55827Y-11905D01*
X55805Y-11900D01*
X55774Y-11895D01*
X55681Y-11888D01*
X55520Y-11884D01*
X55434Y-11886D01*
X55228Y-11904D01*
X55046Y-11934D01*
X54889Y-11976D01*
X54755Y-12030D01*
X54646Y-12096D01*
X54561Y-12174D01*
X54501Y-12264D01*
X54464Y-12366D01*
X54452Y-12480D01*
Y-10080D01*
X54464Y-10194D01*
D02*
G37*
G36*
X16512Y-11654D02*
X16548Y-11693D01*
X16608Y-11728D01*
X16692Y-11758D01*
X16800Y-11784D01*
X16932Y-11805D01*
X17088Y-11821D01*
X17472Y-11839D01*
X17486Y-11840D01*
X17894Y-11815D01*
X17916Y-11808D01*
X17929Y-11801D01*
X17987Y-13059D01*
X17978Y-13056D01*
X17959Y-13053D01*
X17929Y-13050D01*
X17706Y-13043D01*
X17621Y-13043D01*
X17472Y-13045D01*
X16932Y-13092D01*
X16800Y-13121D01*
X16692Y-13155D01*
X16608Y-13196D01*
X16548Y-13244D01*
X16512Y-13297D01*
X16500Y-13357D01*
Y-11610D01*
X16512Y-11654D01*
D02*
G37*
G36*
X4134Y-13104D02*
X4127Y-13039D01*
X4104Y-12981D01*
X4066Y-12929D01*
X4013Y-12885D01*
X3945Y-12847D01*
X3862Y-12816D01*
X3764Y-12792D01*
X3651Y-12775D01*
X3522Y-12764D01*
X3379Y-12761D01*
Y-11961D01*
X3522Y-11957D01*
X3651Y-11947D01*
X3764Y-11930D01*
X3862Y-11906D01*
X3945Y-11875D01*
X4013Y-11837D01*
X4066Y-11793D01*
X4104Y-11741D01*
X4127Y-11683D01*
X4134Y-11618D01*
Y-13104D01*
D02*
G37*
G36*
X31796Y-11714D02*
X31832Y-11816D01*
X31893Y-11906D01*
X31978Y-11984D01*
X32087Y-12050D01*
X32220Y-12104D01*
X32378Y-12146D01*
X32559Y-12176D01*
X32629Y-12182D01*
X32857Y-12170D01*
Y-12196D01*
X32996Y-12200D01*
Y-13400D01*
X32857Y-13404D01*
Y-13430D01*
X32846Y-13424D01*
X32825Y-13419D01*
X32794Y-13415D01*
X32726Y-13409D01*
X32559Y-13424D01*
X32378Y-13454D01*
X32220Y-13496D01*
X32087Y-13550D01*
X31978Y-13616D01*
X31893Y-13694D01*
X31832Y-13784D01*
X31796Y-13886D01*
X31784Y-14000D01*
Y-11600D01*
X31796Y-11714D01*
D02*
G37*
G36*
X2131Y-14360D02*
X2157Y-14428D01*
X2200Y-14488D01*
X2259Y-14539D01*
X2334Y-14583D01*
X2427Y-14619D01*
X2536Y-14647D01*
X2662Y-14666D01*
X2805Y-14678D01*
X2964Y-14682D01*
Y-15482D01*
X2806Y-15486D01*
X2665Y-15498D01*
X2541Y-15518D01*
X2433Y-15546D01*
X2342Y-15582D01*
X2268Y-15626D01*
X2211Y-15677D01*
X2170Y-15737D01*
X2145Y-15804D01*
X2138Y-15880D01*
X2122Y-14285D01*
X2131Y-14360D01*
D02*
G37*
G36*
X-16387Y-16491D02*
X-16329Y-17158D01*
X-16294Y-17321D01*
X-16251Y-17454D01*
X-16201Y-17558D01*
X-16143Y-17632D01*
X-16077Y-17677D01*
X-16003Y-17692D01*
X-18578D01*
X-18504Y-17677D01*
X-18438Y-17632D01*
X-18380Y-17558D01*
X-18330Y-17454D01*
X-18287Y-17321D01*
X-18252Y-17158D01*
X-18225Y-16965D01*
X-18206Y-16743D01*
X-18191Y-16209D01*
X-16391D01*
X-16387Y-16491D01*
D02*
G37*
G36*
X-22030Y-20081D02*
X-22042Y-19969D01*
X-22078Y-19869D01*
X-22138Y-19780D01*
X-22221Y-19703D01*
X-22329Y-19638D01*
X-22460Y-19585D01*
X-22615Y-19544D01*
X-22794Y-19514D01*
X-22997Y-19496D01*
X-23046Y-19495D01*
X-23231Y-19498D01*
X-23223Y-19428D01*
Y-18309D01*
X-23098Y-18306D01*
X-23091Y-18245D01*
X-23076Y-18258D01*
X-23052Y-18268D01*
X-23018Y-18278D01*
X-22973Y-18286D01*
X-22920Y-18293D01*
X-22899Y-18295D01*
X-22794Y-18286D01*
X-22615Y-18256D01*
X-22460Y-18215D01*
X-22329Y-18162D01*
X-22221Y-18097D01*
X-22138Y-18020D01*
X-22078Y-17932D01*
X-22042Y-17831D01*
X-22030Y-17719D01*
Y-20081D01*
D02*
G37*
G36*
X-16390Y-20109D02*
X-16003D01*
X-16077Y-20127D01*
X-16143Y-20180D01*
X-16201Y-20270D01*
X-16251Y-20396D01*
X-16294Y-20559D01*
X-16329Y-20756D01*
X-16350Y-20943D01*
X-16329Y-21244D01*
X-16294Y-21441D01*
X-16251Y-21603D01*
X-16201Y-21730D01*
X-16143Y-21820D01*
X-16077Y-21873D01*
X-16003Y-21892D01*
X-16390D01*
X-16391Y-21908D01*
X-18191D01*
X-18191Y-21892D01*
X-18578D01*
X-18504Y-21873D01*
X-18438Y-21820D01*
X-18380Y-21730D01*
X-18330Y-21603D01*
X-18287Y-21441D01*
X-18252Y-21244D01*
X-18231Y-21057D01*
X-18252Y-20756D01*
X-18287Y-20559D01*
X-18330Y-20396D01*
X-18380Y-20270D01*
X-18438Y-20180D01*
X-18504Y-20127D01*
X-18578Y-20109D01*
X-18191D01*
X-18191Y-20091D01*
X-16391D01*
X-16390Y-20109D01*
D02*
G37*
G36*
X-22030Y-24281D02*
X-22042Y-24169D01*
X-22078Y-24069D01*
X-22138Y-23980D01*
X-22221Y-23903D01*
X-22329Y-23838D01*
X-22460Y-23785D01*
X-22615Y-23744D01*
X-22794Y-23714D01*
X-22997Y-23697D01*
X-23054Y-23695D01*
X-23422Y-23716D01*
X-23445Y-23722D01*
X-23457Y-23730D01*
X-23457Y-22470D01*
X-23445Y-22478D01*
X-23422Y-22484D01*
X-23389Y-22490D01*
X-23347Y-22495D01*
X-23159Y-22506D01*
X-23111Y-22506D01*
X-22997Y-22504D01*
X-22794Y-22486D01*
X-22615Y-22456D01*
X-22460Y-22415D01*
X-22329Y-22362D01*
X-22221Y-22297D01*
X-22138Y-22220D01*
X-22078Y-22131D01*
X-22042Y-22031D01*
X-22030Y-21919D01*
Y-24281D01*
D02*
G37*
G36*
X46523Y-16500D02*
Y-23500D01*
X45461Y-24562D01*
X45020Y-24567D01*
X39766D01*
X39355Y-24067D01*
X39376Y-23965D01*
X39275Y-23457D01*
X38987Y-23027D01*
X38557Y-22740D01*
X38050Y-22639D01*
X37543Y-22740D01*
X37113Y-23027D01*
X36826Y-23457D01*
X36725Y-23965D01*
X36745Y-24067D01*
X36335Y-24567D01*
X29023D01*
X28717Y-24694D01*
X27661Y-25750D01*
X22773D01*
X21433Y-24410D01*
Y-22772D01*
X21306Y-22466D01*
X21067Y-22367D01*
Y-19228D01*
X21306Y-19129D01*
X21360Y-19000D01*
X22523D01*
Y-22500D01*
X23193D01*
Y-22772D01*
X25371D01*
Y-22500D01*
X25523D01*
X32523Y-15500D01*
X45523D01*
X46523Y-16500D01*
D02*
G37*
G36*
X8623Y-24765D02*
X7138Y-26250D01*
X-2127D01*
X-5577Y-29700D01*
X-9677Y-29700D01*
X-10898Y-30920D01*
X-11250D01*
X-11328Y-30998D01*
X-11530Y-31082D01*
X-11750D01*
X-11952Y-30998D01*
X-12030Y-30920D01*
X-12191D01*
Y-30640D01*
Y-30531D01*
Y-27735D01*
Y-27314D01*
X-11577Y-26700D01*
X-9577D01*
X-7803Y-24926D01*
X-7300Y-25025D01*
X-6793Y-24925D01*
X-6363Y-24637D01*
X-6075Y-24207D01*
X-5974Y-23700D01*
X-6075Y-23197D01*
X-3377Y-20500D01*
X8623D01*
Y-24765D01*
D02*
G37*
G36*
X56000Y-22000D02*
Y-25523D01*
X52365Y-29158D01*
X51868Y-29108D01*
X51837Y-29063D01*
X51407Y-28775D01*
X50900Y-28675D01*
X50393Y-28775D01*
X49963Y-29063D01*
X49675Y-29493D01*
X49575Y-30000D01*
X49675Y-30507D01*
X49963Y-30937D01*
X50008Y-30968D01*
X50058Y-31465D01*
X44533Y-36990D01*
X44085Y-36741D01*
X43218Y-38305D01*
X42023Y-39500D01*
X35663D01*
X35426Y-39369D01*
X35353Y-39500D01*
X30523D01*
X22523Y-47500D01*
Y-52500D01*
X21523Y-53500D01*
X20135D01*
X19829Y-53194D01*
X19523Y-53067D01*
X15802D01*
X12056Y-49321D01*
Y-41179D01*
X12302Y-40933D01*
X17523D01*
X17829Y-40806D01*
X18829Y-39806D01*
X18956Y-39500D01*
Y-36500D01*
X18829Y-36194D01*
X17956Y-35321D01*
X17956Y-31679D01*
X18013Y-31622D01*
X18097Y-31420D01*
X18299Y-31336D01*
X18299Y-31336D01*
X18702Y-30933D01*
X20523Y-30933D01*
X20829Y-30806D01*
X20878Y-30757D01*
X20931Y-30629D01*
X21001Y-30508D01*
X21063Y-30034D01*
X21055Y-30005D01*
X21067Y-29977D01*
Y-26956D01*
X21523Y-26500D01*
X22523D01*
X22523Y-33500D01*
X24523Y-35500D01*
X27523D01*
Y-34295D01*
X27788Y-34118D01*
X28028Y-33758D01*
X28113Y-33333D01*
Y-32964D01*
X28613Y-32813D01*
X28763Y-33037D01*
X29193Y-33325D01*
X29700Y-33426D01*
X30207Y-33325D01*
X30637Y-33037D01*
X30925Y-32607D01*
X31025Y-32100D01*
X30925Y-31593D01*
X30637Y-31163D01*
X30207Y-30875D01*
X29700Y-30775D01*
X29193Y-30875D01*
X28763Y-31163D01*
X28533Y-31506D01*
X28178Y-31523D01*
X27995Y-31481D01*
X27788Y-31170D01*
X27523Y-30993D01*
Y-26500D01*
X29023Y-25000D01*
X37260D01*
X37543Y-25189D01*
X38050Y-25290D01*
X38557Y-25189D01*
X38840Y-25000D01*
X45023D01*
X46011Y-24989D01*
X50000Y-21000D01*
X55000D01*
X56000Y-22000D01*
D02*
G37*
G36*
X-16460Y-24309D02*
X-16562Y-24346D01*
X-16652Y-24407D01*
X-16730Y-24492D01*
X-16796Y-24601D01*
X-16850Y-24734D01*
X-16892Y-24892D01*
X-16922Y-25073D01*
X-16940Y-25279D01*
X-16946Y-25508D01*
X-18146D01*
X-18150Y-25280D01*
X-18184Y-24896D01*
X-18215Y-24740D01*
X-18254Y-24609D01*
X-18301Y-24500D01*
X-18357Y-24417D01*
X-18422Y-24356D01*
X-18496Y-24320D01*
X-18578Y-24308D01*
X-16346Y-24296D01*
X-16460Y-24309D01*
D02*
G37*
G36*
X17000Y-15000D02*
Y-16914D01*
X16939Y-17061D01*
X11611Y-22389D01*
X11612Y-22583D01*
X11612Y-22870D01*
X11607Y-22878D01*
X11598Y-22922D01*
X11567Y-22953D01*
X11563Y-22962D01*
X11334Y-23115D01*
D01*
X11263Y-23163D01*
X11209Y-23243D01*
X11163Y-23312D01*
Y-23312D01*
X10975Y-23593D01*
X10875Y-24100D01*
X10975Y-24607D01*
X11163Y-24888D01*
Y-24888D01*
X11215Y-24966D01*
X11215Y-24966D01*
X11263Y-25037D01*
X11567Y-25240D01*
X11571Y-25250D01*
X11602Y-25281D01*
X11610Y-25324D01*
X11616Y-25333D01*
X11623Y-29500D01*
X11623Y-38358D01*
Y-38414D01*
X11562Y-38561D01*
X11423Y-38700D01*
X11416Y-38707D01*
D01*
X10843Y-39280D01*
X10792Y-39331D01*
D01*
X10484Y-39639D01*
X10337Y-39700D01*
X5823Y-39700D01*
X1509Y-39700D01*
X1362Y-39639D01*
X423Y-38700D01*
Y-36700D01*
X282D01*
X228Y-36430D01*
X-13Y-36070D01*
X-373Y-35829D01*
X-798Y-35745D01*
X-2232D01*
X-3277Y-34700D01*
X-6077D01*
X-7113D01*
Y-34783D01*
X-10018D01*
X-10217Y-34700D01*
X-10577D01*
Y-33700D01*
X-10065D01*
X-10018Y-33680D01*
X-9908D01*
Y-33680D01*
X-7113D01*
Y-33700D01*
X-5360D01*
X-3377Y-31732D01*
Y-29500D01*
X-1877Y-28000D01*
X6000Y-28000D01*
X7444Y-26556D01*
X7444D01*
X8859Y-25141D01*
X8962Y-25038D01*
X9122D01*
Y-20301D01*
X9000D01*
Y-18086D01*
X9061Y-17939D01*
X13000Y-14000D01*
X16000D01*
X17000Y-15000D01*
D02*
G37*
G36*
X-26697Y-27562D02*
X-26647Y-28183D01*
X-26617Y-28335D01*
X-26581Y-28460D01*
X-26538Y-28556D01*
X-26488Y-28625D01*
X-26432Y-28667D01*
X-26369Y-28681D01*
X-28786D01*
X-28731Y-28667D01*
X-28683Y-28625D01*
X-28640Y-28556D01*
X-28603Y-28460D01*
X-28571Y-28335D01*
X-28546Y-28183D01*
X-28526Y-28004D01*
X-28503Y-27562D01*
X-28500Y-27300D01*
X-26700D01*
X-26697Y-27562D01*
D02*
G37*
G36*
X24825Y-29571D02*
X24774Y-29589D01*
X24729Y-29619D01*
X24690Y-29661D01*
X24657Y-29715D01*
X24630Y-29781D01*
X24609Y-29859D01*
X24594Y-29949D01*
X24585Y-30051D01*
X24582Y-30165D01*
X23982D01*
X23979Y-30051D01*
X23970Y-29949D01*
X23955Y-29859D01*
X23934Y-29781D01*
X23907Y-29715D01*
X23874Y-29661D01*
X23835Y-29619D01*
X23790Y-29589D01*
X23739Y-29571D01*
X23682Y-29565D01*
X24882D01*
X24825Y-29571D01*
D02*
G37*
G36*
X21000Y-18000D02*
Y-18787D01*
X20914Y-18823D01*
X20634D01*
Y-22772D01*
X20914D01*
X20975Y-22798D01*
X21000Y-22859D01*
Y-26028D01*
X20634D01*
Y-29977D01*
X20634Y-29977D01*
X20583Y-30366D01*
X20556Y-30412D01*
X20552Y-30442D01*
X20534Y-30460D01*
X20437Y-30500D01*
X18523Y-30500D01*
X18396Y-30627D01*
X18396Y-30627D01*
X18054Y-30969D01*
X17931Y-31020D01*
X17921Y-31030D01*
X17707D01*
Y-31244D01*
X17697Y-31254D01*
X17646Y-31377D01*
X17523Y-31500D01*
X17523Y-35500D01*
X17650Y-35627D01*
X17650Y-35627D01*
X18462Y-36439D01*
X18523Y-36586D01*
Y-39414D01*
X18462Y-39561D01*
X17584Y-40439D01*
X17437Y-40500D01*
X12123D01*
X11623Y-41000D01*
Y-49500D01*
X15623Y-53500D01*
X19437D01*
X19584Y-53561D01*
X20523Y-54500D01*
Y-60500D01*
X19523Y-61500D01*
X4523D01*
X3523Y-60500D01*
Y-53500D01*
X2523Y-52500D01*
X-146D01*
X-251Y-52412D01*
X-356Y-52310D01*
X-400Y-52293D01*
X-1763Y-50930D01*
Y-46500D01*
X-1818Y-46227D01*
X-1973Y-45995D01*
X-2772Y-45195D01*
X-3004Y-45041D01*
X-3277Y-44986D01*
X-5763D01*
Y-41860D01*
X-3904Y-40000D01*
X1157D01*
X1196Y-40039D01*
X1343Y-40100D01*
X1429D01*
X1509Y-40133D01*
X5823Y-40133D01*
X10337Y-40133D01*
X10416Y-40100D01*
X10502D01*
X10649Y-40039D01*
X10656Y-40033D01*
X10658Y-40035D01*
X10719Y-39974D01*
X10790Y-39945D01*
X11868Y-38867D01*
X11901Y-38787D01*
X11962Y-38727D01*
X12023Y-38580D01*
Y-38493D01*
X12056Y-38414D01*
X12056Y-29500D01*
X12056Y-29500D01*
X12056Y-29499D01*
X12049Y-25332D01*
X12031Y-25289D01*
X12035Y-25280D01*
X12034Y-25280D01*
X12030Y-25268D01*
X12035Y-25240D01*
X12035Y-25240D01*
X12026Y-25196D01*
X11984Y-25133D01*
X11976Y-25092D01*
X11970Y-25084D01*
Y-25084D01*
X11966Y-25074D01*
X11936Y-25044D01*
X11908Y-24974D01*
X11876Y-24943D01*
X11876Y-24943D01*
X11850Y-24932D01*
X11843Y-24922D01*
X11842Y-24921D01*
X11833Y-24919D01*
X11807Y-24880D01*
X11575Y-24725D01*
X11523Y-24647D01*
Y-23553D01*
X11575Y-23475D01*
X11804Y-23322D01*
X11829Y-23284D01*
X11839Y-23282D01*
X11839Y-23281D01*
X11846Y-23270D01*
X11873Y-23259D01*
X11873Y-23259D01*
X11905Y-23227D01*
X11934Y-23156D01*
X11963Y-23127D01*
X11967Y-23118D01*
X11967Y-23118D01*
X11972Y-23110D01*
X11980Y-23070D01*
X12023Y-23006D01*
X12032Y-22962D01*
X12032Y-22962D01*
X12026Y-22934D01*
X12031Y-22922D01*
X12031Y-22921D01*
X12027Y-22912D01*
X12045Y-22869D01*
X12045Y-22568D01*
X17245Y-17367D01*
X17278Y-17288D01*
X17339Y-17227D01*
X17400Y-17080D01*
X17480Y-17000D01*
X20000D01*
X21000Y-18000D01*
D02*
G37*
G36*
X-13058Y-30531D02*
Y-30640D01*
X-13141Y-30843D01*
X-13296Y-30998D01*
X-13499Y-31082D01*
X-13718D01*
X-13921Y-30998D01*
X-14076Y-30843D01*
X-14160Y-30640D01*
Y-30531D01*
Y-27735D01*
X-13058D01*
X-13058Y-30531D01*
D02*
G37*
G36*
X-16995D02*
Y-30640D01*
X-17078Y-30843D01*
X-17233Y-30998D01*
X-17436Y-31082D01*
X-17655D01*
X-17858Y-30998D01*
X-18013Y-30843D01*
X-18097Y-30640D01*
Y-30531D01*
X-18097D01*
Y-27735D01*
X-16995D01*
Y-30531D01*
D02*
G37*
G36*
X-24896Y-21604D02*
X-24945Y-22101D01*
X-25037Y-22163D01*
X-25325Y-22593D01*
X-25425Y-23100D01*
X-25325Y-23607D01*
X-25037Y-24037D01*
X-24607Y-24325D01*
X-24100Y-24426D01*
X-23593Y-24325D01*
X-23322Y-24144D01*
X-23048Y-24128D01*
X-23021Y-24129D01*
X-22848Y-24144D01*
X-22706Y-24168D01*
X-22597Y-24196D01*
X-22523Y-24227D01*
X-22482Y-24251D01*
X-22468Y-24264D01*
X-22468Y-24265D01*
X-22467Y-24266D01*
X-22461Y-24327D01*
X-22454Y-24339D01*
Y-24721D01*
X-21779D01*
X-19000Y-27500D01*
Y-27735D01*
X-18963D01*
Y-30531D01*
Y-30640D01*
X-19047Y-30843D01*
X-19202Y-30998D01*
X-19405Y-31082D01*
X-19624D01*
X-19826Y-30998D01*
X-19981Y-30843D01*
X-20065Y-30640D01*
Y-30531D01*
Y-30500D01*
X-22500Y-30500D01*
X-28044Y-24956D01*
X-27995Y-24459D01*
X-27963Y-24437D01*
X-27675Y-24007D01*
X-27575Y-23500D01*
X-27675Y-22993D01*
X-27963Y-22563D01*
X-28393Y-22275D01*
X-28900Y-22174D01*
X-29407Y-22275D01*
X-29837Y-22563D01*
X-29859Y-22595D01*
X-30356Y-22644D01*
X-30500Y-22500D01*
X-53000D01*
X-54000Y-21500D01*
Y-15000D01*
X-53000Y-14000D01*
X-32500D01*
X-24896Y-21604D01*
D02*
G37*
G36*
X24585Y-30802D02*
X24594Y-30922D01*
X24609Y-31025D01*
X24630Y-31112D01*
X24657Y-31182D01*
X24690Y-31234D01*
X24729Y-31270D01*
X24774Y-31289D01*
X24825Y-31291D01*
X24882Y-31277D01*
X23806Y-31691D01*
X23839Y-31635D01*
X23869Y-31573D01*
X23896Y-31504D01*
X23918Y-31430D01*
X23938Y-31349D01*
X23954Y-31261D01*
X23975Y-31068D01*
X23980Y-30962D01*
X23982Y-30849D01*
X24582Y-30665D01*
X24585Y-30802D01*
D02*
G37*
G36*
X-23526Y-30763D02*
X-24225Y-31761D01*
X-24298Y-31689D01*
X-24606Y-31420D01*
X-24635Y-31403D01*
X-24659Y-31393D01*
X-24676Y-31391D01*
X-23906Y-30394D01*
X-23526Y-30763D01*
D02*
G37*
G36*
X-13173Y-31531D02*
X-13161Y-31669D01*
X-13141Y-31791D01*
X-13113Y-31896D01*
X-13077Y-31986D01*
X-13033Y-32059D01*
X-12981Y-32116D01*
X-12921Y-32156D01*
X-12853Y-32181D01*
X-12777Y-32189D01*
X-14377D01*
X-14301Y-32181D01*
X-14233Y-32156D01*
X-14173Y-32116D01*
X-14121Y-32059D01*
X-14077Y-31986D01*
X-14041Y-31896D01*
X-14013Y-31791D01*
X-13993Y-31669D01*
X-13981Y-31531D01*
X-13977Y-31377D01*
X-13177D01*
X-13173Y-31531D01*
D02*
G37*
G36*
X-5624Y-32091D02*
X-5641Y-32093D01*
X-5665Y-32103D01*
X-5694Y-32120D01*
X-5730Y-32146D01*
X-5772Y-32179D01*
X-5935Y-32325D01*
X-6075Y-32461D01*
X-6774Y-31463D01*
X-6394Y-31094D01*
X-5624Y-32091D01*
D02*
G37*
G36*
X-7113Y-32814D02*
X-10018D01*
X-10220Y-32730D01*
X-10375Y-32575D01*
X-10459Y-32373D01*
Y-32263D01*
Y-32153D01*
X-10375Y-31951D01*
X-10220Y-31796D01*
X-10018Y-31712D01*
X-7113D01*
Y-32814D01*
D02*
G37*
G36*
X-20934Y-31796D02*
X-20868Y-31862D01*
X-20721Y-31863D01*
Y-32091D01*
X-20695Y-32153D01*
Y-32263D01*
Y-32373D01*
X-20721Y-32435D01*
Y-32663D01*
X-20870Y-32666D01*
X-20934Y-32730D01*
X-21137Y-32814D01*
X-24042D01*
Y-31712D01*
X-21137D01*
X-20934Y-31796D01*
D02*
G37*
G36*
X-10754Y-32663D02*
X-10907Y-32667D01*
X-11044Y-32679D01*
X-11166Y-32699D01*
X-11271Y-32727D01*
X-11360Y-32763D01*
X-11433Y-32807D01*
X-11490Y-32859D01*
X-11531Y-32919D01*
X-11557Y-32987D01*
X-11566Y-33063D01*
X-11554Y-32177D01*
X-11546Y-32117D01*
X-11522Y-32064D01*
X-11482Y-32017D01*
X-11426Y-31976D01*
X-11354Y-31941D01*
X-11266Y-31913D01*
X-11162Y-31891D01*
X-11042Y-31876D01*
X-10906Y-31866D01*
X-10754Y-31863D01*
Y-32663D01*
D02*
G37*
G36*
X-20249Y-31866D02*
X-19993Y-31891D01*
X-19889Y-31913D01*
X-19801Y-31941D01*
X-19729Y-31976D01*
X-19673Y-32017D01*
X-19633Y-32064D01*
X-19609Y-32117D01*
X-19601Y-32177D01*
Y-33063D01*
X-19609Y-32987D01*
X-19633Y-32919D01*
X-19673Y-32859D01*
X-19729Y-32807D01*
X-19801Y-32763D01*
X-19889Y-32727D01*
X-19993Y-32699D01*
X-20113Y-32679D01*
X-20249Y-32667D01*
X-20401Y-32663D01*
Y-31863D01*
X-20249Y-31866D01*
D02*
G37*
G36*
X-29000Y-32000D02*
X-26000D01*
X-24500Y-33500D01*
X-21000D01*
X-20500Y-34000D01*
Y-34500D01*
X-21000Y-35000D01*
X-25056D01*
X-25093Y-34975D01*
X-25600Y-34874D01*
X-26107Y-34975D01*
X-26144Y-35000D01*
X-27000D01*
X-34500Y-42500D01*
X-36500D01*
X-46000Y-33000D01*
X-52000D01*
X-54000Y-31000D01*
Y-26000D01*
X-53000Y-25000D01*
X-36000D01*
X-29000Y-32000D01*
D02*
G37*
G36*
X52266Y-34556D02*
X52215Y-34603D01*
X52170Y-34657D01*
X52131Y-34718D01*
X52098Y-34787D01*
X52071Y-34863D01*
X52050Y-34947D01*
X52035Y-35038D01*
X52026Y-35137D01*
X52023Y-35242D01*
X51423D01*
X51420Y-35137D01*
X51411Y-35038D01*
X51396Y-34947D01*
X51375Y-34863D01*
X51348Y-34787D01*
X51315Y-34718D01*
X51276Y-34657D01*
X51231Y-34603D01*
X51180Y-34556D01*
X51123Y-34517D01*
X52323D01*
X52266Y-34556D01*
D02*
G37*
G36*
X-7113Y-36751D02*
X-10018D01*
X-10220Y-36667D01*
X-10375Y-36512D01*
X-10459Y-36310D01*
Y-36200D01*
Y-36090D01*
X-10375Y-35888D01*
X-10220Y-35733D01*
X-10018Y-35649D01*
X-7113D01*
Y-36751D01*
D02*
G37*
G36*
X-20934Y-35733D02*
X-20779Y-35888D01*
X-20695Y-36090D01*
Y-36200D01*
Y-36310D01*
X-20779Y-36512D01*
X-20934Y-36667D01*
X-21137Y-36751D01*
X-24042D01*
Y-35649D01*
X-21137D01*
X-20934Y-35733D01*
D02*
G37*
G36*
X-24946Y-35576D02*
X-24925Y-35581D01*
X-24894Y-35585D01*
X-24801Y-35592D01*
X-24492Y-35600D01*
X-24389Y-35600D01*
Y-36800D01*
X-24957Y-36830D01*
Y-35570D01*
X-24946Y-35576D01*
D02*
G37*
G36*
X-6220Y-36930D02*
X-6267Y-36886D01*
X-6320Y-36847D01*
X-6378Y-36813D01*
X-6441Y-36783D01*
X-6509Y-36757D01*
X-6581Y-36737D01*
X-6659Y-36721D01*
X-6742Y-36709D01*
X-6830Y-36702D01*
X-6923Y-36700D01*
Y-35900D01*
X-6830Y-35898D01*
X-6742Y-35891D01*
X-6659Y-35879D01*
X-6581Y-35863D01*
X-6509Y-35842D01*
X-6441Y-35817D01*
X-6378Y-35787D01*
X-6320Y-35753D01*
X-6267Y-35714D01*
X-6220Y-35670D01*
Y-36930D01*
D02*
G37*
G36*
X50194Y-35947D02*
X50262Y-36003D01*
X50331Y-36053D01*
X50403Y-36096D01*
X50476Y-36132D01*
X50552Y-36162D01*
X50630Y-36185D01*
X50709Y-36201D01*
X50791Y-36211D01*
X50874Y-36215D01*
Y-36814D01*
X50791Y-36818D01*
X50709Y-36828D01*
X50630Y-36844D01*
X50552Y-36867D01*
X50476Y-36897D01*
X50403Y-36933D01*
X50331Y-36976D01*
X50262Y-37026D01*
X50194Y-37082D01*
X50128Y-37145D01*
Y-35884D01*
X50194Y-35947D01*
D02*
G37*
G36*
X-7113Y-38720D02*
X-9908Y-38720D01*
X-10018D01*
X-10220Y-38636D01*
X-10375Y-38481D01*
X-10459Y-38278D01*
Y-38168D01*
Y-38059D01*
X-10375Y-37856D01*
X-10220Y-37701D01*
X-10018Y-37617D01*
X-7113D01*
Y-38720D01*
D02*
G37*
G36*
X-21246Y-37617D02*
X-21137D01*
X-20934Y-37701D01*
X-20779Y-37856D01*
X-20695Y-38059D01*
Y-38168D01*
Y-38278D01*
X-20779Y-38481D01*
X-20934Y-38636D01*
X-21137Y-38720D01*
X-21246D01*
Y-38720D01*
X-24042Y-38720D01*
Y-37617D01*
X-21246Y-37617D01*
D02*
G37*
G36*
X-3905Y-38349D02*
X-2988Y-38911D01*
X-3042Y-38887D01*
X-3103Y-38878D01*
X-3171Y-38884D01*
X-3245Y-38904D01*
X-3325Y-38940D01*
X-3413Y-38990D01*
X-3506Y-39055D01*
X-3607Y-39134D01*
X-3714Y-39229D01*
X-3827Y-39338D01*
X-4355Y-39017D01*
X-4246Y-38905D01*
X-4079Y-38705D01*
X-4021Y-38618D01*
X-3980Y-38539D01*
X-3972Y-38516D01*
X-3997Y-38499D01*
X-4066Y-38467D01*
X-4149Y-38440D01*
X-4245Y-38420D01*
X-4355Y-38405D01*
X-4478Y-38396D01*
X-4615Y-38394D01*
X-4647Y-37793D01*
X-4522Y-37791D01*
X-4412Y-37782D01*
X-4316Y-37767D01*
X-4233Y-37745D01*
X-4165Y-37718D01*
X-4111Y-37685D01*
X-4071Y-37646D01*
X-4045Y-37602D01*
X-4033Y-37551D01*
X-4035Y-37494D01*
X-3905Y-38349D01*
D02*
G37*
G36*
X-26361Y-37697D02*
X-26337Y-37712D01*
X-26297Y-37725D01*
X-26241Y-37737D01*
X-26169Y-37747D01*
X-25977Y-37761D01*
X-25569Y-37769D01*
Y-38568D01*
X-25722Y-38572D01*
X-25860Y-38585D01*
X-25981Y-38605D01*
X-26087Y-38633D01*
X-26176Y-38669D01*
X-26249Y-38712D01*
X-26306Y-38765D01*
X-26347Y-38824D01*
X-26372Y-38892D01*
X-26381Y-38969D01*
X-26369Y-37681D01*
X-26361Y-37697D01*
D02*
G37*
G36*
X35562Y-39891D02*
X35663Y-39933D01*
X37956D01*
X39523Y-41500D01*
Y-43500D01*
X38062D01*
X35574Y-42121D01*
X35466Y-42109D01*
X35365Y-42067D01*
X33523D01*
X33217Y-42194D01*
X28217Y-47194D01*
X28090Y-47500D01*
Y-51321D01*
X26344Y-53067D01*
X23523D01*
X23217Y-53194D01*
X22829Y-52806D01*
X22956Y-52500D01*
Y-47679D01*
X30702Y-39933D01*
X35353D01*
X35411Y-39909D01*
X35473Y-39916D01*
X35511Y-39885D01*
X35562Y-39891D01*
D02*
G37*
G36*
X-19601Y-40223D02*
X-19609Y-40283D01*
X-19633Y-40336D01*
X-19673Y-40383D01*
X-19729Y-40424D01*
X-19801Y-40459D01*
X-19889Y-40487D01*
X-19993Y-40509D01*
X-20113Y-40525D01*
X-20249Y-40534D01*
X-20401Y-40537D01*
Y-39737D01*
X-20249Y-39733D01*
X-20113Y-39721D01*
X-19993Y-39701D01*
X-19889Y-39673D01*
X-19801Y-39637D01*
X-19729Y-39593D01*
X-19673Y-39541D01*
X-19633Y-39481D01*
X-19609Y-39413D01*
X-19601Y-39337D01*
Y-40223D01*
D02*
G37*
G36*
X-7113Y-40688D02*
X-10018D01*
X-10220Y-40604D01*
X-10375Y-40449D01*
X-10459Y-40247D01*
Y-40137D01*
Y-40027D01*
X-10375Y-39825D01*
X-10220Y-39670D01*
X-10018Y-39586D01*
X-7113D01*
Y-40688D01*
D02*
G37*
G36*
X-20934Y-39670D02*
X-20779Y-39825D01*
X-20695Y-40027D01*
Y-40137D01*
Y-40247D01*
X-20779Y-40449D01*
X-20934Y-40604D01*
X-21137Y-40688D01*
X-21246D01*
Y-40688D01*
X-24042Y-40688D01*
Y-39586D01*
X-21137D01*
X-20934Y-39670D01*
D02*
G37*
G36*
X-12853Y-40220D02*
X-12921Y-40244D01*
X-12981Y-40284D01*
X-13033Y-40341D01*
X-13077Y-40414D01*
X-13113Y-40504D01*
X-13141Y-40609D01*
X-13161Y-40731D01*
X-13173Y-40869D01*
X-13177Y-41023D01*
X-13977D01*
X-13981Y-40869D01*
X-13993Y-40731D01*
X-14013Y-40609D01*
X-14041Y-40504D01*
X-14077Y-40414D01*
X-14121Y-40341D01*
X-14173Y-40284D01*
X-14233Y-40244D01*
X-14301Y-40220D01*
X-14377Y-40211D01*
X-12777D01*
X-12853Y-40220D01*
D02*
G37*
G36*
X-26373Y-41976D02*
X-26348Y-42044D01*
X-26308Y-42104D01*
X-26251Y-42156D01*
X-26178Y-42200D01*
X-26088Y-42236D01*
X-25983Y-42264D01*
X-25861Y-42284D01*
X-25723Y-42296D01*
X-25569Y-42300D01*
Y-43100D01*
X-25723Y-43104D01*
X-25861Y-43116D01*
X-25983Y-43136D01*
X-26088Y-43164D01*
X-26178Y-43200D01*
X-26251Y-43244D01*
X-26308Y-43296D01*
X-26348Y-43356D01*
X-26373Y-43424D01*
X-26381Y-43500D01*
Y-41900D01*
X-26373Y-41976D01*
D02*
G37*
G36*
X-28786Y-43720D02*
X-28802Y-43678D01*
X-28850Y-43641D01*
X-28931Y-43608D01*
X-29044Y-43579D01*
X-29189Y-43555D01*
X-29367Y-43535D01*
X-29819Y-43509D01*
X-30400Y-43500D01*
Y-41700D01*
X-30093Y-41695D01*
X-29577Y-41650D01*
X-29367Y-41611D01*
X-29189Y-41561D01*
X-29044Y-41500D01*
X-28931Y-41428D01*
X-28850Y-41345D01*
X-28802Y-41251D01*
X-28786Y-41145D01*
Y-43720D01*
D02*
G37*
G36*
X-13296Y-41402D02*
X-13141Y-41557D01*
X-13058Y-41760D01*
Y-41869D01*
X-13058D01*
Y-44665D01*
X-14160D01*
Y-41869D01*
Y-41760D01*
X-14076Y-41557D01*
X-13921Y-41402D01*
X-13718Y-41318D01*
X-13499D01*
X-13296Y-41402D01*
D02*
G37*
G36*
X-19202D02*
X-19047Y-41557D01*
X-18963Y-41760D01*
Y-41869D01*
X-18963D01*
Y-44665D01*
X-20065D01*
X-20065Y-41869D01*
Y-41760D01*
X-19981Y-41557D01*
X-19826Y-41402D01*
X-19624Y-41318D01*
X-19405D01*
X-19202Y-41402D01*
D02*
G37*
G36*
X-11328D02*
X-11173Y-41557D01*
X-11089Y-41760D01*
Y-41869D01*
Y-44665D01*
X-12191Y-44665D01*
Y-41869D01*
Y-41760D01*
X-12107Y-41557D01*
X-11952Y-41402D01*
X-11750Y-41318D01*
X-11530D01*
X-11328Y-41402D01*
D02*
G37*
G36*
X-15265D02*
X-15110Y-41557D01*
X-15026Y-41760D01*
Y-41869D01*
X-15026D01*
X-15026Y-44665D01*
X-16128Y-44665D01*
Y-41869D01*
Y-41760D01*
X-16044Y-41557D01*
X-15889Y-41402D01*
X-15687Y-41318D01*
X-15468D01*
X-15265Y-41402D01*
D02*
G37*
G36*
X-17233D02*
X-17078Y-41557D01*
X-16995Y-41760D01*
Y-41869D01*
X-16995D01*
X-16995Y-44665D01*
X-18097Y-44665D01*
X-18097Y-41869D01*
Y-41760D01*
X-18013Y-41557D01*
X-17858Y-41402D01*
X-17655Y-41318D01*
X-17436D01*
X-17233Y-41402D01*
D02*
G37*
G36*
X-26909Y-44814D02*
X-26856Y-44853D01*
X-26798Y-44887D01*
X-26736Y-44917D01*
X-26668Y-44943D01*
X-26595Y-44963D01*
X-26517Y-44979D01*
X-26434Y-44991D01*
X-26346Y-44998D01*
X-26253Y-45000D01*
Y-45800D01*
X-26346Y-45802D01*
X-26434Y-45809D01*
X-26517Y-45821D01*
X-26595Y-45837D01*
X-26668Y-45858D01*
X-26736Y-45883D01*
X-26798Y-45913D01*
X-26856Y-45947D01*
X-26909Y-45986D01*
X-26956Y-46030D01*
Y-44770D01*
X-26909Y-44814D01*
D02*
G37*
G36*
X-15173Y-46098D02*
X-15161Y-46248D01*
X-15142Y-46381D01*
X-15114Y-46497D01*
X-15079Y-46595D01*
X-15036Y-46677D01*
X-14984Y-46742D01*
X-14925Y-46789D01*
X-14859Y-46819D01*
X-14784Y-46832D01*
X-16377Y-46742D01*
X-16301Y-46738D01*
X-16233Y-46717D01*
X-16173Y-46679D01*
X-16121Y-46623D01*
X-16077Y-46551D01*
X-16041Y-46461D01*
X-16013Y-46354D01*
X-15993Y-46230D01*
X-15981Y-46089D01*
X-15977Y-45930D01*
X-15177D01*
X-15173Y-46098D01*
D02*
G37*
G36*
X-33883Y-45018D02*
X-33953Y-45095D01*
X-34001Y-45187D01*
X-34027Y-45293D01*
X-34031Y-45414D01*
X-34011Y-45549D01*
X-33970Y-45699D01*
X-33906Y-45863D01*
X-33819Y-46042D01*
X-33750Y-46164D01*
X-33521Y-46502D01*
X-33503Y-46518D01*
X-33490Y-46525D01*
X-34571Y-47173D01*
X-34571Y-47158D01*
X-34577Y-47135D01*
X-34589Y-47104D01*
X-34606Y-47065D01*
X-34694Y-46898D01*
X-34781Y-46748D01*
X-34874Y-46603D01*
X-34992Y-46441D01*
X-35108Y-46304D01*
X-35223Y-46193D01*
X-35336Y-46108D01*
X-35447Y-46048D01*
X-35557Y-46014D01*
X-35666Y-46006D01*
X-35773Y-46023D01*
X-35878Y-46066D01*
X-33790Y-44955D01*
X-33883Y-45018D01*
D02*
G37*
G36*
X37963Y-43941D02*
X38523Y-44500D01*
Y-48470D01*
X38092Y-48724D01*
X37595Y-48449D01*
X34917Y-53280D01*
X38523Y-55279D01*
Y-57500D01*
X36599Y-59423D01*
X33924Y-60258D01*
X32996Y-60500D01*
X23523D01*
X22523Y-59500D01*
Y-54500D01*
X23523Y-53500D01*
X26523D01*
X28523Y-51500D01*
Y-47500D01*
X33523Y-42500D01*
X35365D01*
X37963Y-43941D01*
D02*
G37*
G36*
X-23569Y-49186D02*
X-23577Y-49110D01*
X-23602Y-49043D01*
X-23644Y-48983D01*
X-23702Y-48931D01*
X-23777Y-48888D01*
X-23869Y-48852D01*
X-23978Y-48824D01*
X-24103Y-48804D01*
X-24244Y-48792D01*
X-24403Y-48788D01*
Y-47988D01*
X-24244Y-47984D01*
X-24103Y-47972D01*
X-23978Y-47952D01*
X-23869Y-47925D01*
X-23777Y-47889D01*
X-23702Y-47845D01*
X-23644Y-47793D01*
X-23602Y-47734D01*
X-23577Y-47666D01*
X-23569Y-47591D01*
Y-49186D01*
D02*
G37*
G36*
X-25643Y-47666D02*
X-25617Y-47734D01*
X-25574Y-47793D01*
X-25515Y-47845D01*
X-25438Y-47889D01*
X-25346Y-47925D01*
X-25236Y-47952D01*
X-25110Y-47972D01*
X-24967Y-47984D01*
X-24807Y-47988D01*
Y-48788D01*
X-24965Y-48792D01*
X-25105Y-48804D01*
X-25229Y-48824D01*
X-25337Y-48852D01*
X-25427Y-48888D01*
X-25501Y-48931D01*
X-25558Y-48983D01*
X-25599Y-49043D01*
X-25623Y-49110D01*
X-25630Y-49186D01*
X-25652Y-47591D01*
X-25643Y-47666D01*
D02*
G37*
G36*
X-16682Y-50617D02*
X-16712Y-50541D01*
X-16756Y-50490D01*
X-16812Y-50463D01*
X-16882Y-50461D01*
X-16966Y-50483D01*
X-17062Y-50530D01*
X-17172Y-50601D01*
X-17295Y-50696D01*
X-17431Y-50815D01*
X-17581Y-50960D01*
X-18016Y-50264D01*
X-17832Y-50074D01*
X-17528Y-49726D01*
X-17410Y-49568D01*
X-17313Y-49422D01*
X-17238Y-49286D01*
X-17184Y-49160D01*
X-17153Y-49046D01*
X-17144Y-48942D01*
X-17156Y-48850D01*
X-16682Y-50617D01*
D02*
G37*
G36*
X-5360Y-50858D02*
X-5407Y-50800D01*
X-5468Y-50767D01*
X-5541Y-50757D01*
X-5627Y-50770D01*
X-5725Y-50807D01*
X-5835Y-50868D01*
X-5959Y-50953D01*
X-6094Y-51061D01*
X-6243Y-51193D01*
X-6404Y-51348D01*
X-6778Y-50591D01*
X-6631Y-50438D01*
X-6396Y-50159D01*
X-6308Y-50033D01*
X-6241Y-49915D01*
X-6193Y-49807D01*
X-6165Y-49707D01*
X-6157Y-49616D01*
X-6169Y-49533D01*
X-6200Y-49460D01*
X-5360Y-50858D01*
D02*
G37*
G36*
X-19126Y-52504D02*
X-19282Y-52666D01*
X-19527Y-52955D01*
X-19616Y-53083D01*
X-19682Y-53199D01*
X-19726Y-53303D01*
X-19747Y-53397D01*
X-19745Y-53478D01*
X-19722Y-53549D01*
X-19675Y-53608D01*
X-20839Y-52533D01*
X-20776Y-52575D01*
X-20702Y-52595D01*
X-20618Y-52594D01*
X-20522Y-52570D01*
X-20416Y-52525D01*
X-20299Y-52457D01*
X-20170Y-52368D01*
X-20032Y-52257D01*
X-19721Y-51968D01*
X-19126Y-52504D01*
D02*
G37*
G36*
X-13888Y-52877D02*
X-14041Y-53035D01*
X-14284Y-53322D01*
X-14373Y-53451D01*
X-14442Y-53569D01*
X-14489Y-53677D01*
X-14515Y-53775D01*
X-14520Y-53863D01*
X-14503Y-53940D01*
X-14466Y-54008D01*
X-15439Y-52742D01*
X-15385Y-52793D01*
X-15318Y-52821D01*
X-15240Y-52826D01*
X-15149Y-52807D01*
X-15047Y-52766D01*
X-14932Y-52701D01*
X-14805Y-52613D01*
X-14667Y-52501D01*
X-14352Y-52210D01*
X-13888Y-52877D01*
D02*
G37*
G36*
X-541Y-52733D02*
X-333Y-52908D01*
X-240Y-52972D01*
X-156Y-53019D01*
X-80Y-53050D01*
X-11Y-53065D01*
X50Y-53064D01*
X103Y-53047D01*
X148Y-53014D01*
X-689Y-53850D01*
X-655Y-53805D01*
X-638Y-53752D01*
X-637Y-53692D01*
X-652Y-53623D01*
X-683Y-53546D01*
X-731Y-53462D01*
X-794Y-53370D01*
X-874Y-53270D01*
X-969Y-53162D01*
X-1081Y-53046D01*
X-656Y-52622D01*
X-541Y-52733D01*
D02*
G37*
G36*
X-26393Y-55336D02*
X-26456Y-55374D01*
X-26511Y-55439D01*
X-26559Y-55529D01*
X-26601Y-55644D01*
X-26635Y-55786D01*
X-26662Y-55953D01*
X-26681Y-56145D01*
X-26700Y-56608D01*
X-28500Y-56592D01*
X-28501Y-56351D01*
X-28527Y-55945D01*
X-28551Y-55780D01*
X-28583Y-55640D01*
X-28622Y-55526D01*
X-28669Y-55437D01*
X-28723Y-55374D01*
X-28785Y-55336D01*
X-28854Y-55323D01*
X-26324D01*
X-26393Y-55336D01*
D02*
G37*
G36*
X-5015Y-56929D02*
X-5079Y-56888D01*
X-5154Y-56869D01*
X-5239Y-56871D01*
X-5335Y-56895D01*
X-5442Y-56941D01*
X-5560Y-57009D01*
X-5688Y-57098D01*
X-5827Y-57209D01*
X-6137Y-57497D01*
X-6746Y-56976D01*
X-6590Y-56813D01*
X-6345Y-56524D01*
X-6256Y-56397D01*
X-6190Y-56281D01*
X-6147Y-56177D01*
X-6126Y-56084D01*
X-6128Y-56003D01*
X-6153Y-55934D01*
X-6200Y-55876D01*
X-5015Y-56929D01*
D02*
G37*
%LPC*%
G36*
X-38220Y54688D02*
X-38248Y54656D01*
X-38273Y54587D01*
X-38274Y54505D01*
X-38251Y54411D01*
X-38205Y54304D01*
X-38202Y54299D01*
X-38220Y54688D01*
D02*
G37*
G36*
X19723Y-32121D02*
X19294Y-32206D01*
X18930Y-32449D01*
X18687Y-32813D01*
X18601Y-33242D01*
X18687Y-33672D01*
X18930Y-34035D01*
X18987Y-34093D01*
X18988Y-34093D01*
X18988Y-34094D01*
X19002Y-34108D01*
X19366Y-34351D01*
X19795Y-34436D01*
X20224Y-34350D01*
X20588Y-34107D01*
X20831Y-33743D01*
X20916Y-33313D01*
X20830Y-32884D01*
X20587Y-32521D01*
X20573Y-32506D01*
X20516Y-32450D01*
X20152Y-32206D01*
X19723Y-32121D01*
D02*
G37*
G36*
X35550Y-35139D02*
X35043Y-35240D01*
X34613Y-35527D01*
X34326Y-35957D01*
X34225Y-36464D01*
X34326Y-36972D01*
X34613Y-37402D01*
X35043Y-37689D01*
X35550Y-37790D01*
X36057Y-37689D01*
X36487Y-37402D01*
X36775Y-36972D01*
X36876Y-36464D01*
X36775Y-35957D01*
X36487Y-35527D01*
X36057Y-35240D01*
X35550Y-35139D01*
D02*
G37*
%LPD*%
D10*
X36200Y57100D02*
G03*
X34200Y55100I0J-2000D01*
G01*
Y55100D02*
G03*
X36200Y53100I2000J0D01*
G01*
X22863Y2772D02*
G03*
X26863Y2772I2000J0D01*
G01*
Y5272D02*
G03*
X22863Y5272I-2000J0D01*
G01*
X42092Y49221D02*
G03*
X40270Y48044I0J-2000D01*
G01*
D02*
G03*
X40270Y46398I1823J-823D01*
G01*
D02*
G03*
X42092Y45221I1823J823D01*
G01*
X46592Y47221D02*
G03*
X44592Y49221I-2000J0D01*
G01*
Y45221D02*
G03*
X46592Y47221I0J2000D01*
G01*
X40523Y54277D02*
G03*
X40700Y55100I-1823J823D01*
G01*
X38700Y53100D02*
G03*
X40523Y54277I0J2000D01*
G01*
X40700Y55100D02*
G03*
X38700Y57100I-2000J-0D01*
G01*
X36200Y53100D02*
Y57100D01*
X39700Y2200D02*
X40700Y1200D01*
X45200D01*
X39700Y2200D02*
Y5900D01*
X45200Y1200D02*
X50700Y-4300D01*
X40700Y6900D02*
X43400D01*
X39700Y5900D02*
X40700Y6900D01*
X42527Y7000D02*
X42527Y7000D01*
X22863Y5272D02*
X26863D01*
X22863Y2772D02*
X26863Y2772D01*
X24863Y2772D02*
Y5272D01*
X42092Y47221D02*
X44592Y47221D01*
X42092Y45221D02*
Y45221D01*
X42092Y47221D02*
X42092Y45221D01*
X42092Y49221D02*
X42092Y47221D01*
X42092Y49221D02*
Y49221D01*
X44592Y47221D02*
X44592Y48221D01*
Y49221D01*
Y49221D01*
X44592Y45221D02*
Y45221D01*
X44592Y47221D01*
X38700Y53100D02*
Y53100D01*
Y53100D02*
Y53100D01*
Y55100D01*
Y57100D01*
Y57100D01*
X-40400Y12600D02*
X-36300Y16700D01*
X-35000D01*
X-42305Y12600D02*
X-40400D01*
X-42891Y9900D02*
X-42305Y10486D01*
X-48873Y9900D02*
X-42891D01*
X-42305Y10486D02*
Y12600D01*
X-43300Y17047D02*
X-42873D01*
X-42305Y16480D01*
Y12600D02*
Y16480D01*
X-25723Y2284D02*
X-20230D01*
X-25788Y2350D02*
X-25723Y2284D01*
X1303Y37514D02*
X1591Y37802D01*
Y39074D01*
X1900Y39384D01*
Y39600D01*
X-49693Y10720D02*
Y12387D01*
Y10720D02*
X-48873Y9900D01*
X-49905Y12600D02*
X-49693Y12387D01*
X-49846Y12660D02*
Y16408D01*
X-49905Y12600D02*
X-49846Y12660D01*
X-24023Y12645D02*
Y17094D01*
X-24092Y12576D02*
X-24023Y12645D01*
D24*
X6323Y50900D02*
D03*
X11343D02*
D03*
X-2043Y34168D02*
D03*
X-2043Y37514D02*
D03*
Y40861D02*
D03*
Y44207D02*
D03*
Y47554D02*
D03*
X-2043Y50900D02*
D03*
X-4602Y31609D02*
D03*
Y35841D02*
D03*
Y39187D02*
D03*
Y42534D02*
D03*
Y45880D02*
D03*
Y49227D02*
D03*
Y52573D02*
D03*
Y57396D02*
D03*
Y62219D02*
D03*
X-370Y31609D02*
D03*
X1303Y34168D02*
D03*
X4650D02*
D03*
X7996D02*
D03*
X11343D02*
D03*
X14689Y34168D02*
D03*
X17248Y35841D02*
D03*
Y39187D02*
D03*
X14689Y40861D02*
D03*
X2976Y31609D02*
D03*
X6323D02*
D03*
X9669D02*
D03*
X13016D02*
D03*
X17248D02*
D03*
X14689Y37514D02*
D03*
X17248Y42534D02*
D03*
Y45880D02*
D03*
Y49227D02*
D03*
X17248Y52573D02*
D03*
Y62219D02*
D03*
X1303Y44207D02*
D03*
X6323Y37514D02*
D03*
X11343Y44207D02*
D03*
X14689D02*
D03*
Y47554D02*
D03*
Y50900D02*
D03*
X17248Y57396D02*
D03*
X1303Y50900D02*
D03*
X1303Y37514D02*
D03*
X11343D02*
D03*
D25*
X15491Y26563D02*
D03*
X18955D02*
D03*
X7691D02*
D03*
X11155D02*
D03*
D26*
X43314Y10937D02*
D03*
X42527Y7000D02*
D03*
X43225Y3063D02*
D03*
X54732Y3063D02*
D03*
X54821Y7000D02*
D03*
X54821Y10937D02*
D03*
D27*
X-39716Y-52788D02*
D03*
X-46000Y-40969D02*
D03*
D28*
X-35340Y-44665D02*
D03*
X-36819Y-41884D02*
D03*
D29*
X18244Y20063D02*
D03*
X8402D02*
D03*
D30*
X52606Y-23682D02*
D03*
X52606Y-11280D02*
D03*
D31*
X-2077Y-43056D02*
D03*
Y-37544D02*
D03*
X23256Y60578D02*
D03*
X23256Y55067D02*
D03*
X194Y-9610D02*
D03*
X194Y-15122D02*
D03*
X34802Y27271D02*
D03*
X34802Y21759D02*
D03*
X-21633Y-53900D02*
D03*
Y-48388D02*
D03*
X-39186Y-4756D02*
D03*
X-39186Y756D02*
D03*
X25723Y-32644D02*
D03*
X25723Y-38156D02*
D03*
X-27577Y-48444D02*
D03*
Y-53956D02*
D03*
D32*
X-10277Y-48700D02*
D03*
X-15789Y-48700D02*
D03*
X-4833Y-48900D02*
D03*
X679D02*
D03*
X-15833Y-54700D02*
D03*
X-10321D02*
D03*
X-4833Y-54972D02*
D03*
X679D02*
D03*
D33*
X40710Y39777D02*
D03*
X44568Y39777D02*
D03*
X10355Y-5651D02*
D03*
X6497Y-5651D02*
D03*
X45169Y21723D02*
D03*
X41310Y21723D02*
D03*
D34*
X5980Y-15043D02*
D03*
X5980Y-12483D02*
D03*
X5980Y-9924D02*
D03*
X14642Y-9924D02*
D03*
X14642Y-12483D02*
D03*
X14642Y-15043D02*
D03*
D35*
X22923Y30191D02*
D03*
Y33735D02*
D03*
X-10177Y-1572D02*
D03*
X-10177Y1972D02*
D03*
X-18377Y22639D02*
D03*
X-18377Y19096D02*
D03*
X9623Y-41772D02*
D03*
Y-38228D02*
D03*
X-39277Y54672D02*
D03*
Y51128D02*
D03*
D36*
X44487Y31205D02*
D03*
D37*
X47637Y35732D02*
D03*
X41338Y35732D02*
D03*
X47637Y26677D02*
D03*
X44487Y26677D02*
D03*
X41338Y26677D02*
D03*
X44487Y35732D02*
D03*
D38*
X-25788Y2350D02*
D03*
Y-3950D02*
D03*
D39*
X-16206Y-12400D02*
D03*
X-19749Y-12400D02*
D03*
X17123Y-38600D02*
D03*
X20666Y-38600D02*
D03*
X-27635Y12576D02*
D03*
X-24092Y12576D02*
D03*
X-48486Y-8000D02*
D03*
X-44942Y-8000D02*
D03*
X-53449Y12600D02*
D03*
X-49905Y12600D02*
D03*
X-45849D02*
D03*
X-42305Y12600D02*
D03*
D40*
X-14324Y4253D02*
D03*
Y-1653D02*
D03*
X-16293Y-1653D02*
D03*
X-18261D02*
D03*
X-20230Y-1653D02*
D03*
X-20230Y4253D02*
D03*
X-18261D02*
D03*
X-16293Y4253D02*
D03*
D41*
X-14324Y2284D02*
D03*
X-14324Y316D02*
D03*
X-20230D02*
D03*
X-20230Y2284D02*
D03*
D42*
X-14720Y-7200D02*
D03*
X-20035Y-7200D02*
D03*
X24820Y-12800D02*
D03*
X30135D02*
D03*
X19780Y-33300D02*
D03*
X14465D02*
D03*
D43*
X24863Y6272D02*
D03*
X24863Y1772D02*
D03*
D44*
X41092Y47221D02*
D03*
X45592D02*
D03*
X35200Y55100D02*
D03*
X39700Y55100D02*
D03*
D45*
X-32777Y33572D02*
D03*
X-27777D02*
D03*
X-22777D02*
D03*
X-17777D02*
D03*
X-32777Y55028D02*
D03*
X-27777D02*
D03*
X-22777D02*
D03*
X-17777D02*
D03*
D46*
X29134Y53407D02*
D03*
X29134Y59312D02*
D03*
D47*
X3923Y-43350D02*
D03*
Y-37050D02*
D03*
D48*
X35300Y-44482D02*
D03*
X36826Y-41728D02*
D03*
D49*
X39533Y-52681D02*
D03*
X46022Y-40973D02*
D03*
D50*
X19164Y-28002D02*
D03*
X21723Y-28002D02*
D03*
X24282Y-28002D02*
D03*
X19164Y-20798D02*
D03*
X21723D02*
D03*
X24282D02*
D03*
D51*
X-24023Y17094D02*
D03*
X-25991Y17094D02*
D03*
X-27960Y17094D02*
D03*
X-27960Y23098D02*
D03*
X-25991D02*
D03*
X-24023Y23098D02*
D03*
D52*
X-28993Y19112D02*
D03*
X-28993Y21080D02*
D03*
X-22989D02*
D03*
X-22989Y19112D02*
D03*
D53*
X-52454Y22953D02*
D03*
X-52454Y20984D02*
D03*
X-52454Y19016D02*
D03*
X-52454Y17047D02*
D03*
X-43300Y19016D02*
D03*
X-43300Y20984D02*
D03*
X-43300Y22953D02*
D03*
X-43300Y17047D02*
D03*
D54*
X-49846Y16408D02*
D03*
X-47877Y16408D02*
D03*
X-45909Y16408D02*
D03*
X-45909Y23593D02*
D03*
X-47877Y23593D02*
D03*
X-49846Y23593D02*
D03*
D55*
X-22368Y-32263D02*
D03*
Y-34231D02*
D03*
X-23491Y-36200D02*
D03*
Y-38168D02*
D03*
Y-40137D02*
D03*
X-19514Y-42991D02*
D03*
X-17546D02*
D03*
X-15577Y-44074D02*
D03*
X-13609D02*
D03*
X-11640D02*
D03*
X-8786Y-40137D02*
D03*
Y-38168D02*
D03*
X-7703Y-36200D02*
D03*
Y-34231D02*
D03*
X-7703Y-32263D02*
D03*
X-11640Y-29409D02*
D03*
X-13609Y-29409D02*
D03*
X-15577Y-28287D02*
D03*
X-17546D02*
D03*
X-19514D02*
D03*
D56*
X-15577Y-36200D02*
D03*
D57*
X37723Y-19235D02*
D03*
X37723Y-28565D02*
D03*
D58*
X-44377Y-28315D02*
D03*
X-44377Y-17685D02*
D03*
D59*
X2423Y-22669D02*
D03*
Y-31331D02*
D03*
D60*
X16986Y-50063D02*
D03*
X24860Y-50063D02*
D03*
X24860Y-57937D02*
D03*
D61*
X17773D02*
D03*
D62*
X-27577Y-38968D02*
D03*
Y-42432D02*
D03*
Y-29968D02*
D03*
Y-33432D02*
D03*
D63*
X-17291Y-23100D02*
D03*
X-20755Y-23100D02*
D03*
Y-18900D02*
D03*
X-17291Y-18900D02*
D03*
D64*
X-50671Y900D02*
G03*
X-50671Y900I-2608J0D01*
G01*
X-48350Y1350D02*
Y4443D01*
X-49000Y700D02*
X-48350Y1350D01*
X-50600Y700D02*
X-49000D01*
X-2077Y-43056D02*
X3923Y-43350D01*
X7700Y-48900D01*
X679D02*
X7700D01*
X9623Y-41772D02*
X9700Y-44100D01*
X-35340Y-44665D02*
X-33700Y-47400D01*
X-24100Y-23100D02*
X-24100Y-23100D01*
X-20755D01*
X-23800Y-18800D02*
X-23700Y-18900D01*
X-20755D01*
X45169Y21723D02*
X48177D01*
X44487Y26677D02*
Y31205D01*
Y22404D02*
Y26677D01*
Y22404D02*
X45169Y21723D01*
X44487Y31205D02*
X44487Y31205D01*
X39900Y31200D02*
X39905Y31205D01*
X44487D01*
X48895D02*
X49000Y31100D01*
X44487Y31205D02*
X48895D01*
X47637Y35732D02*
X47669Y35700D01*
X49600D01*
X38600Y42100D02*
X40710Y39990D01*
Y39777D02*
Y39990D01*
X-16517Y24500D02*
X-16300D01*
X-18377Y22639D02*
X-16517Y24500D01*
X-16300Y4260D02*
X-16293Y4253D01*
X-16300Y4260D02*
Y8000D01*
X-19849Y-12500D02*
X-19749Y-12400D01*
X-22200Y-12500D02*
X-19849D01*
X-20035Y-7235D02*
Y-7200D01*
X-22900Y-10100D02*
X-20035Y-7235D01*
X-29400Y-3000D02*
X-26738D01*
X-25788Y-3950D01*
X-39200Y-4770D02*
X-39186Y-4756D01*
X-39200Y-7800D02*
Y-4770D01*
X-48486Y-10614D02*
X-48400Y-10700D01*
X-48486Y-10614D02*
Y-8000D01*
D65*
X14465Y-33300D02*
X14500Y-30100D01*
X14700Y-38600D02*
X17123D01*
X-27600Y-56600D02*
X-27577Y-53956D01*
X14100Y-58100D02*
X17773Y-57937D01*
X-17291Y-18900D02*
Y-16209D01*
X-27745Y-42600D02*
X-27577Y-42432D01*
X-30400Y-42600D02*
X-27745D01*
X-27600Y-29945D02*
X-27577Y-29968D01*
X-27600Y-29945D02*
Y-27300D01*
X-17291Y-23100D02*
Y-18900D01*
X17773Y-57937D02*
X17960D01*
D68*
X49023Y7000D02*
D03*
D87*
X-45114Y900D02*
D03*
X-45114Y-2643D02*
D03*
X-48350Y-2643D02*
D03*
X-48350Y4443D02*
D03*
X-45114Y4443D02*
D03*
D105*
X-9677Y-17600D02*
D03*
X51723Y-33500D02*
D03*
X-39993Y30916D02*
D03*
X31523Y-55800D02*
D03*
X17123Y-45400D02*
D03*
X23923Y-5500D02*
D03*
X11423Y-19700D02*
D03*
X-33477Y-34400D02*
D03*
D106*
X-53279Y-1708D02*
D03*
D107*
X-56700Y19400D02*
X-54347Y17047D01*
X-52454D01*
X34200Y55100D02*
X35200D01*
X33452D02*
X34200D01*
X51723Y-35977D02*
Y-33500D01*
X51186Y-36514D02*
X51723Y-35977D01*
X49485Y-36514D02*
X51186D01*
X-39993Y20007D02*
Y30916D01*
X-40984Y19016D02*
X-39993Y20007D01*
X-43300Y19016D02*
X-40984D01*
X40337Y10937D02*
X43314D01*
X50300Y13800D02*
X51200Y12900D01*
X47637Y26677D02*
X50300Y24014D01*
Y13800D02*
Y24014D01*
X51200Y12900D02*
X52858D01*
X36920Y45880D02*
X37123Y45677D01*
X36900Y45900D02*
X36920Y45880D01*
X17248D02*
X36920D01*
X15412Y23855D02*
Y26563D01*
X18244Y20063D02*
Y21638D01*
X16379Y23503D02*
X18244Y21638D01*
X15763Y23503D02*
X16379D01*
X15412Y23855D02*
X15763Y23503D01*
X8402Y20063D02*
Y21638D01*
X10267Y23503D01*
X10804Y23503D01*
X11155Y23855D01*
Y26563D01*
X13016Y29038D02*
Y31609D01*
Y29038D02*
X14452Y27602D01*
Y27523D02*
Y27602D01*
Y27523D02*
X15412Y26563D01*
X11343Y26750D02*
Y34168D01*
X11155Y26563D02*
X11343Y26750D01*
X40500Y43200D02*
X47600D01*
X37123Y45677D02*
X38023D01*
X40500Y43200D01*
X51200Y30536D02*
Y39600D01*
X47600Y43200D02*
X51200Y39600D01*
X32500Y55900D02*
X32651D01*
X33452Y55100D01*
X1303Y44207D02*
X4193D01*
X39700Y55100D02*
X40523Y54277D01*
X42600Y52200D01*
X44592Y49221D02*
Y50208D01*
Y49221D02*
Y49221D01*
Y48221D02*
Y49221D01*
X42600Y52200D02*
X44592Y50208D01*
X29980Y44221D02*
X34200Y40000D01*
X52858Y12900D02*
X54821Y10937D01*
X38987Y35000D02*
X40850D01*
X37771Y33784D02*
X38987Y35000D01*
X40850D02*
X41338Y35487D01*
Y36028D01*
X37771Y33784D02*
X37771D01*
X43296Y10919D02*
X43314Y10937D01*
X47637Y26677D02*
Y26972D01*
X51200Y30536D01*
X14702Y44221D02*
X29980D01*
X34200Y40000D02*
Y40000D01*
Y40000D02*
X37685Y36515D01*
X40850D01*
X41338Y36028D01*
X14689Y44207D02*
X14702Y44221D01*
X14689Y50900D02*
X18499D01*
X22666Y55067D01*
X23256D01*
X21514Y35914D02*
X23100Y37500D01*
X17321Y35914D02*
X21514D01*
X17248Y39187D02*
X25087D01*
X14689Y37514D02*
X20786D01*
X14750Y40800D02*
X22100D01*
X-45909Y23593D02*
X-45904Y23597D01*
Y34696D01*
X-45900Y34700D01*
X14689Y40861D02*
X14750Y40800D01*
X-23500Y-7600D02*
Y-7349D01*
X-22800Y-6649D01*
Y-4272D01*
X17248Y35841D02*
X17321Y35914D01*
X-22800Y-4272D02*
X-20230Y-1702D01*
Y-1653D01*
X-18261Y4253D02*
Y6861D01*
X9669Y31609D02*
Y41531D01*
X9600Y41600D02*
X9669Y41531D01*
X9007Y44207D02*
X11343D01*
X9000Y44200D02*
X9007Y44207D01*
X2976Y24624D02*
Y31609D01*
X4900Y20900D02*
Y22700D01*
X2976Y24624D02*
X4900Y22700D01*
X2976Y14924D02*
Y18976D01*
X4900Y20900D01*
X-48350Y-2797D02*
Y-2643D01*
X-49078Y-3524D02*
X-48350Y-2797D01*
X-49124Y-3524D02*
X-49078D01*
X-50400Y-4800D02*
X-49124Y-3524D01*
X-39186Y756D02*
X-30844D01*
X-30700Y900D01*
X-45114Y900D02*
X-44970Y756D01*
X-39186D01*
X4650Y34168D02*
Y35949D01*
X3800Y36798D02*
X4650Y35949D01*
X3800Y36798D02*
Y36900D01*
X2976Y14924D02*
X3000Y14900D01*
X-32777Y39223D02*
X-29300Y42700D01*
X-14200D02*
X-9014Y37514D01*
X-29300Y42700D02*
X-14200D01*
X-32777Y33572D02*
Y39223D01*
X-9014Y37514D02*
X-2043D01*
X-2816Y-37903D02*
X-2457Y-37544D01*
X-3316Y-38403D02*
X-2816Y-37903D01*
X25343Y-32644D02*
X25723Y-32644D01*
X-8786Y-38168D02*
X-8711Y-38094D01*
X-3277Y-45700D02*
X-2477Y-46500D01*
X-6477Y-45349D02*
X-6126Y-45700D01*
X-3277D01*
X-6477Y-45349D02*
Y-41564D01*
X-3526Y-38193D02*
Y-38094D01*
X-2627D02*
X-2267Y-37734D01*
X-2077Y-37544D01*
X-2457D02*
X-2077D01*
X679Y-54972D02*
Y-54381D01*
X-2477Y-51225D02*
Y-46500D01*
X-6477Y-41564D02*
X-3316Y-38403D01*
X-2477Y-51225D02*
X679Y-54381D01*
X-8711Y-38094D02*
X-3526D01*
X24282Y-31583D02*
Y-28002D01*
Y-31583D02*
X25343Y-32644D01*
D108*
X27133Y26563D02*
X27285Y26715D01*
X18955Y26563D02*
X27133D01*
X18955D02*
X18955D01*
X24863Y6272D02*
Y9637D01*
X24800Y9700D02*
X24863Y9637D01*
X18849Y26669D02*
Y28471D01*
X18049Y29271D02*
X18849Y28471D01*
Y26669D02*
X18955Y26563D01*
X22923Y33735D02*
X26680D01*
X27500Y30300D02*
Y32915D01*
X26680Y33735D02*
X27500Y32915D01*
X15500Y33700D02*
X22540D01*
X15120Y34080D02*
X15500Y33700D01*
X14776Y34080D02*
X15120D01*
X14689Y34168D02*
X14776Y34080D01*
X19723Y-33242D02*
X19780Y-33300D01*
X19794Y-33314D01*
X24860Y-50063D02*
X24860Y-49090D01*
D109*
X24590Y14900D02*
X24700Y15010D01*
X-15972Y33572D02*
X-13600Y31200D01*
X-17777Y33572D02*
X-15972D01*
X18966Y-20600D02*
X19164Y-20798D01*
X16500Y-20600D02*
X18966D01*
X16600Y-28100D02*
X16698Y-28002D01*
X19164D01*
X-48400Y7200D02*
X-48350Y7150D01*
Y4443D02*
Y7150D01*
X-57400Y12600D02*
X-53449D01*
X-41872Y51128D02*
X-39277D01*
X30135Y-12800D02*
X33500D01*
X14642Y-12483D02*
X14683Y-12442D01*
X18558D01*
X18600Y-12400D01*
X5980Y-9924D02*
X9462D01*
X9938Y-10400D01*
X10100D01*
X10185Y-2615D02*
X10300Y-2500D01*
X8385Y-2615D02*
X10185D01*
X7393Y-3607D02*
X8385Y-2615D01*
X7393Y-4834D02*
Y-3607D01*
X6497Y-5651D02*
X6576D01*
X7393Y-4834D01*
X17436Y29885D02*
X18049Y29271D01*
X17248Y31609D02*
X17436Y31421D01*
Y29885D02*
Y31421D01*
X22923Y30191D02*
X23021D01*
X26498Y26715D01*
X27285D01*
X5000Y38837D02*
X6323Y37514D01*
X5000Y38837D02*
Y39000D01*
X7031Y27223D02*
X7691Y26563D01*
X5890Y27223D02*
X7031D01*
X5428Y27685D02*
X5890Y27223D01*
X4815Y27685D02*
X5428D01*
X4700Y27800D02*
X4815Y27685D01*
X-4602Y31609D02*
X-2894Y29900D01*
X-2800D01*
X29134Y53407D02*
X29167Y53440D01*
Y56367D01*
X29200Y56400D01*
X17224Y62195D02*
X17248Y62219D01*
X17224Y59924D02*
Y62195D01*
X17200Y59900D02*
X17224Y59924D01*
Y57420D02*
X17248Y57396D01*
X17224Y57420D02*
Y59876D01*
X17200Y59900D02*
X17224Y59876D01*
Y57372D02*
X17248Y57396D01*
X17224Y55024D02*
Y57372D01*
X17200Y55000D02*
X17224Y55024D01*
Y52597D02*
X17248Y52573D01*
X17224Y52597D02*
Y54976D01*
X17200Y55000D02*
X17224Y54976D01*
X11242Y50800D02*
X11343Y50900D01*
X8900Y50800D02*
X11242D01*
X8800Y50700D02*
X8900Y50800D01*
X6323Y50900D02*
X8438D01*
X8638Y50700D01*
X8800D01*
X4062Y50900D02*
X6323D01*
X3862Y50700D02*
X4062Y50900D01*
X3700Y50700D02*
X3862D01*
X1303Y50900D02*
X1403Y50800D01*
X3600D01*
X3700Y50700D01*
X-4701Y52672D02*
X-4602Y52573D01*
X-4701Y52672D02*
Y55001D01*
X-4800Y55100D02*
X-4701Y55001D01*
Y57297D02*
X-4602Y57396D01*
X-4701Y55199D02*
Y57297D01*
X-4800Y55100D02*
X-4701Y55199D01*
Y57495D02*
X-4602Y57396D01*
X-4701Y57495D02*
Y59801D01*
X-4800Y59900D02*
X-4701Y59801D01*
Y62120D02*
X-4602Y62219D01*
X-4701Y59999D02*
Y62120D01*
X-4800Y59900D02*
X-4701Y59999D01*
X23256Y60578D02*
X23895D01*
X25161Y59312D01*
X29134D01*
X52606Y-11280D02*
X56480D01*
X-25600Y-36200D02*
X-23491D01*
X-7703Y-32263D02*
X-6725D01*
X-5662Y-31200D01*
X-5500D01*
X-22875Y-32263D02*
X-22368D01*
X-24638Y-30500D02*
X-22875Y-32263D01*
X-24800Y-30500D02*
X-24638D01*
X-17291Y-18900D02*
X-17291Y-18900D01*
X-17546Y-28287D02*
Y-23355D01*
X-17291Y-23100D01*
D110*
X11371Y37543D02*
Y39771D01*
X-45909Y16408D02*
X-45849Y16348D01*
X-46001Y16500D02*
X-45909Y16408D01*
X-45849Y12600D02*
Y16348D01*
X-46001Y16500D02*
Y17801D01*
X-47000Y18800D02*
X-46001Y17801D01*
X-47000Y18800D02*
Y18800D01*
X-47877Y16408D02*
X-47785Y16500D01*
Y18015D01*
X-47000Y18800D01*
X-52454Y19016D02*
X-52362Y19108D01*
X-51263D01*
X-50371Y20000D01*
X-52454Y20984D02*
X-52362Y20892D01*
X-51263D01*
X-50371Y20000D01*
X44487Y35732D02*
Y40058D01*
X44568Y39777D02*
X47977D01*
X-1800Y19100D02*
X-370Y20530D01*
X-8324Y12576D02*
X-1800Y19100D01*
X-24092Y12576D02*
X-8324D01*
X-8577Y-36300D02*
X-5577D01*
X-21923Y-45400D02*
X-19514Y-42991D01*
X-27599Y-45400D02*
X-21923D01*
X17248Y49227D02*
X39273D01*
X40792Y47708D01*
Y47000D02*
Y47708D01*
X24266Y42534D02*
X34802Y31999D01*
X14716Y47580D02*
X29820D01*
X14689Y47554D02*
X14716Y47580D01*
X29820D02*
X29900Y47500D01*
X17248Y42534D02*
X24266D01*
X34802Y27271D02*
Y31999D01*
X44469Y40077D02*
X44487Y40058D01*
X54535Y6910D02*
X57831D01*
X54473Y6848D02*
X54535Y6910D01*
X57831D02*
X57920Y6820D01*
X-10600Y45800D02*
X-7334Y42534D01*
X-4602D01*
X-11600Y46800D02*
X-10600Y45800D01*
X-8792Y39187D02*
X-4602D01*
X41310Y21723D02*
X41338Y21750D01*
Y26677D01*
X34802Y21759D02*
X41274D01*
X41310Y21723D01*
X-10177Y-1572D02*
X1128D01*
X9600Y6900D01*
X7900Y39900D02*
X7996Y39804D01*
X-14000Y7229D02*
Y7500D01*
X194Y-9610D02*
Y-6694D01*
X3379Y-12361D02*
X5858D01*
X628Y-9610D02*
X3379Y-12361D01*
X5858D02*
X5980Y-12483D01*
X194Y-9610D02*
X628D01*
X5940Y-15082D02*
X5980Y-15043D01*
X234Y-15082D02*
X5940D01*
X194Y-15122D02*
X234Y-15082D01*
X-14324Y4253D02*
Y6905D01*
X-14000Y7229D01*
X-16206Y-12400D02*
Y-12302D01*
X-15821Y-11917D01*
X-15723D01*
X-14720Y-10914D01*
Y-7200D01*
X-14324Y-1653D02*
X-10357D01*
X-10276Y-1572D01*
X-10660Y-1956D02*
X-10357Y-1653D01*
X-10276Y-1572D02*
X-10177D01*
X-10660Y-3140D02*
Y-1956D01*
X-13450Y-5930D02*
X-10660Y-3140D01*
X-13646Y-5930D02*
X-13450D01*
X-14720Y-7003D02*
X-13646Y-5930D01*
X-14720Y-7200D02*
Y-7003D01*
X11443Y39700D02*
X11700D01*
X11371Y39771D02*
X11443Y39700D01*
X7996Y34168D02*
Y39804D01*
X-16293Y-1653D02*
X-16100Y-1846D01*
Y-5820D02*
Y-1846D01*
Y-5820D02*
X-14720Y-7200D01*
X11343Y37514D02*
X11371Y37543D01*
X-44942Y-8000D02*
X-44900Y-8042D01*
X-45114Y-7828D02*
X-44942Y-8000D01*
X-44900Y-11500D02*
Y-8042D01*
X-9300Y47400D02*
X-8994D01*
X-8841Y47554D01*
X-2043D01*
X-11600Y46800D02*
Y46900D01*
X-17777Y53077D02*
X-11600Y46900D01*
X-8527Y49227D02*
X-4602D01*
X-8900Y49600D02*
X-8527Y49227D01*
X-10700Y51300D02*
X-8196D01*
X-11100Y50900D02*
X-10700Y51300D01*
X-7796Y50900D02*
X-2043D01*
X-8196Y51300D02*
X-7796Y50900D01*
X-7400Y45600D02*
Y45804D01*
X-7476Y45880D02*
X-7400Y45804D01*
X-45114Y-7828D02*
Y-2643D01*
X-45114Y4443D02*
X-45100Y4457D01*
Y7600D01*
X6323Y31609D02*
X6361Y31570D01*
Y29439D02*
Y31570D01*
Y29439D02*
X6400Y29400D01*
X-120Y40880D02*
X-100Y40900D01*
X-2024Y40880D02*
X-120D01*
X-2043Y40861D02*
X-2024Y40880D01*
X6300Y31586D02*
X6323Y31609D01*
X-34580Y21080D02*
X-28993D01*
X-34700Y21200D02*
X-34580Y21080D01*
X-31288Y19112D02*
X-28993D01*
X-31300Y19100D02*
X-31288Y19112D01*
X-18377Y19096D02*
X-18373Y19100D01*
X-1800D01*
X-370Y20530D02*
Y31609D01*
X1303Y17669D02*
Y34168D01*
X300Y16700D02*
X335D01*
X1303Y17669D01*
X-2043Y44207D02*
X600Y46850D01*
Y46900D01*
X-17777Y53077D02*
Y55028D01*
X-22777Y53173D02*
Y55028D01*
Y53173D02*
X-8792Y39187D01*
X-38594Y53989D02*
X-29605Y45000D01*
X-23000D01*
X-27777Y37723D02*
X-24200Y41300D01*
X-15300D02*
X-9841Y35841D01*
X-24200Y41300D02*
X-15300D01*
X-39277Y54672D02*
X-39179D01*
X-38594Y54087D01*
Y53989D02*
Y54087D01*
X-23000Y29271D02*
X-22777Y29493D01*
X-39277Y54672D02*
X-38921Y55028D01*
X-32777D01*
X-27777D01*
X-7476Y45880D02*
X-4602D01*
X-27784Y12427D02*
X-27635Y12576D01*
X-27784Y10153D02*
Y12427D01*
X-27933Y10004D02*
X-27784Y10153D01*
X-25991Y17094D02*
X-25991Y17094D01*
X-25996Y17098D02*
X-25991Y17094D01*
X-25996Y17098D02*
Y18796D01*
X-26000Y18800D02*
X-25996Y18796D01*
X-27960Y12901D02*
Y17094D01*
Y12901D02*
X-27635Y12576D01*
X-27960Y17094D02*
X-25991D01*
X-27960Y17094D02*
X-27960Y17094D01*
X-24023Y23098D02*
Y23147D01*
X-23734Y23436D01*
X-23685D01*
X-22791Y24329D01*
Y24709D01*
X-22600Y24900D01*
X-22989Y19112D02*
X-18393D01*
X-18377Y19096D01*
X-20230Y4253D02*
Y4302D01*
X-20322Y4394D02*
X-20230Y4302D01*
X-20371Y4394D02*
X-20322D01*
X-22077Y6100D02*
X-20371Y4394D01*
X-32900Y6100D02*
X-22077D01*
X-52897Y22953D02*
X-52454D01*
X-52989Y23045D02*
X-52897Y22953D01*
X-52989Y23045D02*
Y23289D01*
X-54400Y24700D02*
X-52989Y23289D01*
X-32898Y23098D02*
X-27960D01*
X-33000Y23200D02*
X-32898Y23098D01*
X-49846Y30854D02*
X-49800Y30900D01*
X-49846Y23593D02*
Y30854D01*
X-47877Y23593D02*
Y28377D01*
X-47900Y28400D02*
X-47877Y28377D01*
X-20346Y-55653D02*
X-17100Y-58900D01*
X-8105D01*
X-4833Y-55628D01*
X-21633Y-53900D02*
X-21303D01*
X-20346Y-55653D02*
Y-54856D01*
X-21303Y-53900D02*
X-20346Y-54856D01*
X-19600Y29400D02*
X-10600D01*
X-22400Y26600D02*
X-19600Y29400D01*
X-24000Y26600D02*
X-22400D01*
X-25991Y24609D02*
X-24000Y26600D01*
X-25991Y23098D02*
Y24609D01*
X-20900Y25700D02*
X-19800Y26800D01*
X-15200D01*
X-20900Y21549D02*
Y25700D01*
X-22989Y21080D02*
X-21369D01*
X-20900Y21549D01*
X-22829Y29100D02*
X-22800D01*
X-23000Y29271D02*
X-22829Y29100D01*
X-27777Y23281D02*
Y33572D01*
X-27960Y23098D02*
X-27777Y23281D01*
X-22777Y29493D02*
Y33572D01*
Y37223D01*
X-9841Y35841D02*
X-4602D01*
X-16500Y40000D02*
X-10668Y34168D01*
X-2043D01*
X-20000Y40000D02*
X-16500D01*
X-22777Y37223D02*
X-20000Y40000D01*
X-27777Y33572D02*
Y37723D01*
X-27521Y-48388D02*
X-21633D01*
X-27577Y-48444D02*
X-27521Y-48388D01*
X-21633D02*
X-20833Y-47589D01*
X-19466D01*
X-17546Y-45669D02*
Y-42991D01*
X-19466Y-47589D02*
X-17546Y-45669D01*
X-4833Y-48900D02*
Y-48466D01*
X-5789Y-47510D02*
X-4833Y-48466D01*
X-6223Y-47510D02*
X-5789D01*
X-8786Y-44947D02*
X-6223Y-47510D01*
X-8786Y-44947D02*
Y-40137D01*
X-10321Y-54700D02*
Y-54266D01*
X-9365Y-53310D01*
X-8931D01*
X-5911Y-50290D01*
X-5789D01*
X-4833Y-49334D01*
Y-48900D01*
X-10277Y-49134D02*
Y-48700D01*
X-11233Y-50090D02*
X-10277Y-49134D01*
X-11667Y-50090D02*
X-11233D01*
X-15833Y-54256D02*
X-11667Y-50090D01*
X-15833Y-54700D02*
Y-54256D01*
X-11640Y-46663D02*
Y-44074D01*
Y-46663D02*
X-10277Y-48026D01*
Y-48700D02*
Y-48026D01*
X54321Y7000D02*
X54473Y6848D01*
X-16789Y-49976D02*
X-15577Y-48764D01*
Y-44074D02*
Y-43200D01*
Y-48764D02*
Y-44074D01*
X-27577Y-42432D02*
X-27309Y-42700D01*
X-27577Y-38968D02*
X-26778Y-38168D01*
X-17163Y-49976D02*
X-16789D01*
X-20187Y-53000D02*
Y-53000D01*
X-17163Y-49976D01*
X-21143Y-53956D02*
X-20187Y-53000D01*
X-13609Y-44074D02*
X-13572Y-44111D01*
X-15577Y-36200D02*
X-13577Y-38200D01*
X-15577Y-36200D02*
X-13577Y-34200D01*
X-13609Y-29409D02*
X-13577Y-29377D01*
X-5333Y-54972D02*
Y-54537D01*
X-23491Y-41843D02*
Y-40137D01*
X-19514D01*
X-22368Y-32263D02*
X-19514D01*
X-13577Y-43200D02*
Y-38200D01*
Y-34200D02*
Y-29377D01*
Y-34200D02*
X-11640Y-32263D01*
X-4833Y-55628D02*
Y-54972D01*
X-24077Y-42429D02*
X-23491Y-41843D01*
X-24077Y-42700D02*
Y-42429D01*
X-27309Y-42700D02*
X-24077D01*
X-26778Y-38168D02*
X-23491D01*
X-19514Y-40137D02*
X-15577Y-36200D01*
X-19514Y-32263D02*
X-15577Y-36200D01*
X-11640Y-32263D02*
X-7703D01*
D111*
X-27733Y-53800D02*
X-27577Y-53956D01*
X24860Y-50063D02*
X25033Y-50063D01*
D112*
X-53280Y900D02*
D03*
D113*
X24700Y15010D02*
D03*
X34600Y-2700D02*
D03*
X29900Y26600D02*
D03*
X53526Y24274D02*
D03*
X24800Y9700D02*
D03*
X20800Y4900D02*
D03*
X-23100Y47200D02*
D03*
X-54200Y7800D02*
D03*
X50900Y-30000D02*
D03*
X-16900Y14500D02*
D03*
X40337Y10937D02*
D03*
X50700Y-4300D02*
D03*
X36300Y35500D02*
D03*
X29700Y-32100D02*
D03*
X-33417Y-25083D02*
D03*
X-27600Y-56600D02*
D03*
X48177Y21723D02*
D03*
X-57400Y12600D02*
D03*
X-41872Y51128D02*
D03*
X5000Y39000D02*
D03*
X-16300Y8000D02*
D03*
X-22900Y-10100D02*
D03*
X-22200Y-12500D02*
D03*
X-29400Y-3000D02*
D03*
X-10200Y4200D02*
D03*
X38600Y42100D02*
D03*
X49000Y31100D02*
D03*
X39900Y31200D02*
D03*
X10300Y-2500D02*
D03*
X-24100Y-23100D02*
D03*
X-23800Y-18800D02*
D03*
X-33700Y-47400D02*
D03*
X12200Y-24100D02*
D03*
X-7300Y-23700D02*
D03*
X-28900Y-23500D02*
D03*
X-5100Y8900D02*
D03*
X4700Y27800D02*
D03*
X27400Y26600D02*
D03*
X49600Y35700D02*
D03*
X29200Y56400D02*
D03*
X-4800Y55100D02*
D03*
Y59900D02*
D03*
X17200D02*
D03*
Y55000D02*
D03*
X8800Y50700D02*
D03*
X3700D02*
D03*
X-2800Y29900D02*
D03*
X-13600Y31200D02*
D03*
X-16300Y24500D02*
D03*
X-50100Y20000D02*
D03*
X-47000Y18800D02*
D03*
X-48400Y7200D02*
D03*
Y-10700D02*
D03*
X-39200Y-7800D02*
D03*
X48500Y-11900D02*
D03*
X55200Y-18200D02*
D03*
X33500Y-12800D02*
D03*
X10100Y-10400D02*
D03*
X18600Y-12400D02*
D03*
X16500Y-20600D02*
D03*
X16600Y-28100D02*
D03*
X14500Y-30100D02*
D03*
X14100Y-58100D02*
D03*
X14700Y-38600D02*
D03*
X9700Y-44100D02*
D03*
X7700Y-48900D02*
D03*
X-13609Y-36200D02*
D03*
X-17546D02*
D03*
X-15577Y-34231D02*
D03*
Y-38168D02*
D03*
X-56700Y19400D02*
D03*
X-35000Y16700D02*
D03*
X24266Y42534D02*
D03*
X47977Y39777D02*
D03*
X32500Y55900D02*
D03*
X-6400Y27500D02*
D03*
X-41643Y46900D02*
D03*
X27500Y30300D02*
D03*
X47000Y-7000D02*
D03*
Y-5000D02*
D03*
X31000Y-8000D02*
D03*
Y-6000D02*
D03*
X56480Y-11280D02*
D03*
X49485Y-36514D02*
D03*
X-27599Y-45400D02*
D03*
X-17291Y-16209D02*
D03*
X-25600Y-36200D02*
D03*
X-30400Y-42600D02*
D03*
X-5500Y-31200D02*
D03*
X-24800Y-30500D02*
D03*
X-27600Y-27300D02*
D03*
X-5000Y-9500D02*
D03*
Y-12000D02*
D03*
X4193Y44207D02*
D03*
X-4500Y22300D02*
D03*
X42600Y52200D02*
D03*
X31700Y42600D02*
D03*
X36900Y45900D02*
D03*
X37771Y33784D02*
D03*
X29900Y47500D02*
D03*
X56400Y18400D02*
D03*
X57920Y6820D02*
D03*
X23100Y37500D02*
D03*
X25087Y39187D02*
D03*
X20786Y37514D02*
D03*
X22100Y40800D02*
D03*
X-2400Y900D02*
D03*
X9600Y6900D02*
D03*
X7900Y39900D02*
D03*
X-14000Y7500D02*
D03*
X194Y-6694D02*
D03*
X-2600Y-4900D02*
D03*
X-45900Y34700D02*
D03*
X-23500Y-7600D02*
D03*
X23100Y-8800D02*
D03*
X-18261Y6861D02*
D03*
X11700Y39700D02*
D03*
X9600Y41600D02*
D03*
X-43900Y42400D02*
D03*
X9000Y44200D02*
D03*
X-44900Y-11500D02*
D03*
X-8400Y-10300D02*
D03*
X-9300Y47400D02*
D03*
X-11600Y46900D02*
D03*
X-8900Y49600D02*
D03*
X-7400Y45600D02*
D03*
X-45100Y7600D02*
D03*
X6500Y13600D02*
D03*
X6400Y29400D02*
D03*
X4700Y25500D02*
D03*
X-50400Y-4800D02*
D03*
X-2500Y24400D02*
D03*
X-30700Y900D02*
D03*
X3800Y36900D02*
D03*
X3000Y14900D02*
D03*
X-100Y40900D02*
D03*
X1900Y39600D02*
D03*
X-37300Y40600D02*
D03*
X-34700Y21200D02*
D03*
X-31300Y19100D02*
D03*
X3200Y21800D02*
D03*
X300Y16700D02*
D03*
X-14400Y60900D02*
D03*
X-24300Y61000D02*
D03*
X-15300Y46000D02*
D03*
X600Y46900D02*
D03*
X-29400Y47200D02*
D03*
X-23000Y45000D02*
D03*
X-34300Y45100D02*
D03*
X-11100Y50900D02*
D03*
X-27933Y10004D02*
D03*
X-26000Y18800D02*
D03*
X-22600Y24900D02*
D03*
X-32900Y6100D02*
D03*
X-54400Y24700D02*
D03*
X-33000Y23200D02*
D03*
X-49800Y30900D02*
D03*
X-47900Y28400D02*
D03*
X-10600Y29400D02*
D03*
X-15200Y26800D02*
D03*
X-22800Y29100D02*
D03*
X35550Y-36464D02*
D03*
X38050Y-23965D02*
D03*
X-5577Y-36300D02*
D03*
M02*
