G04*
G04 #@! TF.GenerationSoftware,Altium Limited,Altium Designer,20.2.6 (244)*
G04*
G04 Layer_Color=32768*
%FSLAX25Y25*%
%MOIN*%
G70*
G04*
G04 #@! TF.SameCoordinates,E73447B6-61B4-4EEF-956E-7A2C62B3FEF5*
G04*
G04*
G04 #@! TF.FilePolarity,Positive*
G04*
G01*
G75*
%ADD12C,0.00787*%
%ADD13C,0.00394*%
%ADD136C,0.00197*%
D12*
X-57768Y6510D02*
X-43201Y6510D01*
X-57768Y-4710D02*
X-57768Y6510D01*
X-57768Y-4710D02*
X-43201Y-4710D01*
X-43201Y6510D01*
X-6719Y-45058D02*
Y-27342D01*
X-24435Y-45058D02*
X-6719Y-45058D01*
X-24435Y-45058D02*
Y-27342D01*
X-6719Y-27342D01*
D13*
X17223Y27744D02*
X17223Y25382D01*
X16042Y26563D02*
X18404Y26563D01*
X-55388Y-38827D02*
X-36965Y-29031D01*
X-55388Y-38827D02*
X-43190Y-61769D01*
X-24766Y-51973D01*
X-36965Y-29031D02*
X-24766Y-51973D01*
X11354Y20063D02*
X15291D01*
X13323Y18094D02*
Y22031D01*
X52606Y-19450D02*
X52606Y-15513D01*
X50638Y-17481D02*
X54575Y-17481D01*
X8242Y26563D02*
X10604D01*
X9423Y27744D02*
X9423Y25382D01*
X-2077Y-42072D02*
Y-38528D01*
X-3849Y-40300D02*
X-305D01*
X-14805Y-48700D02*
X-11261D01*
X-13033Y-46928D02*
X-13033Y-50472D01*
X41557Y39777D02*
X43722Y39777D01*
X42639Y38695D02*
X42639Y40860D01*
X21484Y57823D02*
X25028Y57823D01*
X23256Y59594D02*
X23256Y56051D01*
X8426Y-6734D02*
X8426Y-4569D01*
X7343Y-5651D02*
X9509D01*
X194Y-10594D02*
X194Y-14138D01*
X-1578Y-12366D02*
X1966Y-12366D01*
X42519Y31205D02*
X46456Y31205D01*
X44487Y29236D02*
Y33173D01*
X34802Y22743D02*
X34802Y26287D01*
X33030Y24515D02*
X36573Y24515D01*
X42157Y21723D02*
X44322Y21723D01*
X43239Y20640D02*
X43239Y22806D01*
X-19246Y1300D02*
X-15309D01*
X-17277Y3269D02*
X-17277Y-668D01*
X-17377Y-8972D02*
X-17377Y-5428D01*
X-19149Y-7200D02*
X-15606Y-7200D01*
X-25277Y42331D02*
Y46268D01*
X-27246Y44300D02*
X-23309D01*
X-52453Y900D02*
X-48516Y900D01*
X-50484Y-1068D02*
X-50484Y2868D01*
X-52453Y900D02*
X-48516Y900D01*
X-50484Y-1068D02*
X-50484Y2868D01*
X28150Y56360D02*
X30118Y56360D01*
X29134Y57344D02*
X29134Y55375D01*
X-23405Y-51144D02*
X-19861Y-51144D01*
X-21633Y-49372D02*
X-21633Y-52916D01*
X27477Y-14572D02*
Y-11028D01*
X25706Y-12800D02*
X29249Y-12800D01*
X17123Y-31528D02*
X17123Y-35072D01*
X15351Y-33300D02*
X18894Y-33300D01*
X3923Y-41972D02*
Y-38428D01*
X2151Y-40200D02*
X5694D01*
X24599Y-51605D02*
X37197Y-28879D01*
X55446Y-38995D01*
X42849Y-61721D02*
X55446Y-38995D01*
X24599Y-51605D02*
X42849Y-61721D01*
X19754Y-24400D02*
X23691D01*
X21723Y-26368D02*
Y-22432D01*
X-49846Y20000D02*
X-45909D01*
X-47877Y18032D02*
X-47877Y21969D01*
X-15577Y-38857D02*
Y-33542D01*
X-18235Y-36200D02*
X-12920D01*
X-39186Y-3772D02*
X-39186Y-228D01*
X-40957Y-2000D02*
X-37414Y-2000D01*
X25723Y-33628D02*
X25723Y-37172D01*
X23951Y-35400D02*
X27494Y-35400D01*
X-2077Y-50672D02*
Y-47128D01*
X-3849Y-48900D02*
X-305D01*
X-29349Y-51200D02*
X-25806D01*
X-27577Y-52972D02*
Y-49428D01*
X-13077Y-56472D02*
Y-52928D01*
X-14849Y-54700D02*
X-11305D01*
X-2077Y-56743D02*
Y-53200D01*
X-3849Y-54972D02*
X-305D01*
X35754Y-23900D02*
X39691D01*
X37723Y-21932D02*
X37723Y-25868D01*
X-53432Y-34024D02*
X-35322D01*
X-53432Y-11976D02*
X-35322D01*
X-53432D02*
X-53432Y-34024D01*
X-35322D02*
Y-11976D01*
X-44377Y-24969D02*
Y-21032D01*
X-46346Y-23000D02*
X-42409Y-23000D01*
X-4467Y-18142D02*
X9313D01*
X-4467Y-35858D02*
X9313D01*
Y-18142D01*
X-4467Y-35858D02*
Y-18142D01*
X2423Y-28969D02*
Y-25032D01*
X454Y-27000D02*
X4391D01*
X18954Y-54000D02*
X22891D01*
X20923Y-55968D02*
Y-52031D01*
X16729Y-37419D02*
X21060Y-37419D01*
X16729Y-39781D02*
X21060Y-39781D01*
X16729Y-39781D02*
Y-37419D01*
X21060Y-39781D02*
Y-37419D01*
X-28660Y-40700D02*
X-26495D01*
X-27577Y-41783D02*
Y-39617D01*
Y-32783D02*
Y-30617D01*
X-28660Y-31700D02*
X-26495D01*
X-19023Y-24183D02*
X-19023Y-22017D01*
X-20106Y-23100D02*
X-17940D01*
X-20106Y-18900D02*
X-17940Y-18900D01*
X-19023Y-19983D02*
Y-17817D01*
D136*
X6323Y44995D02*
Y48932D01*
X4354Y46963D02*
X8291D01*
X-7260Y28951D02*
Y64778D01*
X19906Y28951D02*
Y64778D01*
X-7260Y28951D02*
X19906D01*
X-7260Y64778D02*
X19906D01*
X13483Y28532D02*
X20963D01*
X13483Y24595D02*
X20963D01*
X13483D02*
X13483Y28532D01*
X20963D02*
X20963Y24595D01*
X5843Y15929D02*
Y24197D01*
X20803Y24197D01*
X20803Y15929D01*
X5843Y15929D02*
X20803Y15929D01*
X-11646Y-19568D02*
X-7709D01*
X-11646D02*
Y-15631D01*
X-7709D01*
Y-19568D02*
Y-15631D01*
X49161Y-9115D02*
X56051Y-9115D01*
X49161Y-25847D02*
X56051D01*
X56051Y-9115D02*
X56051Y-25847D01*
X49161D02*
Y-9115D01*
X49754Y-35469D02*
X53691D01*
X49754D02*
Y-31532D01*
X53691D01*
Y-35469D02*
Y-31532D01*
X-38024Y28947D02*
Y32884D01*
X-41961D02*
X-38024D01*
X-41961Y28947D02*
Y32884D01*
Y28947D02*
X-38024D01*
X33491Y-57768D02*
Y-53831D01*
X29554D02*
X33491D01*
X29554Y-57768D02*
Y-53831D01*
Y-57768D02*
X33491D01*
X19091Y-47368D02*
Y-43431D01*
X15154D02*
X19091D01*
X15154Y-47368D02*
Y-43431D01*
Y-47368D02*
X19091D01*
X25891Y-7468D02*
Y-3531D01*
X21954D02*
X25891D01*
X21954Y-7468D02*
Y-3531D01*
Y-7468D02*
X25891D01*
X13391Y-21668D02*
Y-17731D01*
X9454D02*
X13391D01*
X9454Y-21668D02*
Y-17731D01*
Y-21668D02*
X13391D01*
X-31509Y-36369D02*
Y-32432D01*
X-35446D02*
X-31509D01*
X-35446Y-36369D02*
Y-32432D01*
Y-36369D02*
X-31509D01*
X5683Y28532D02*
X5683Y24595D01*
X13163D02*
Y28532D01*
X5683D02*
X13163D01*
X5683Y24595D02*
X13163D01*
X-4833Y-45418D02*
X679D01*
X-4833Y-35182D02*
X679D01*
X-4833Y-45418D02*
Y-35182D01*
X679Y-45418D02*
Y-35182D01*
X-7915Y-51456D02*
Y-45944D01*
X-18151Y-51456D02*
X-18151Y-45944D01*
X-18151Y-51456D02*
X-7915Y-51456D01*
X-18151Y-45944D02*
X-7915Y-45944D01*
X38309Y37415D02*
Y42139D01*
X46970Y42139D02*
X46970Y37415D01*
X38309Y42139D02*
X46970Y42139D01*
X38309Y37415D02*
X46970D01*
X26012Y62941D02*
X26012Y52704D01*
X20500Y52704D02*
Y62941D01*
X26012Y62941D01*
X20500Y52704D02*
X26012Y52704D01*
X17496Y-17700D02*
Y-7267D01*
X3126D02*
X17496D01*
X3126Y-17700D02*
X3126Y-7267D01*
X3126Y-17700D02*
X17496Y-17700D01*
X4095Y-8013D02*
X12757Y-8013D01*
X4095Y-3289D02*
X12757D01*
X12757Y-8013D01*
X4095Y-8013D02*
X4095Y-3289D01*
X-2562Y-7248D02*
X2950Y-7248D01*
X-2562Y-17484D02*
X2950Y-17484D01*
X2950Y-7248D01*
X-2562Y-17484D02*
X-2562Y-7248D01*
X50393Y38311D02*
X50393Y24098D01*
X38582Y24098D02*
Y38311D01*
X50393Y38311D01*
X38582Y24098D02*
X50393Y24098D01*
X32046Y29633D02*
X37557Y29633D01*
X32046Y19397D02*
X37558Y19397D01*
X37557Y29633D02*
X37558Y19397D01*
X32046Y29633D02*
X32046Y19397D01*
X47570Y19361D02*
X47570Y24085D01*
X38909Y19361D02*
X38909Y24085D01*
X38909Y19361D02*
X47570Y19361D01*
X38909Y24085D02*
X47570Y24085D01*
X-27658Y-800D02*
X-23918Y-800D01*
X-25788Y-2670D02*
X-25788Y1070D01*
X-22835Y-6706D02*
Y5105D01*
X-28741Y5105D02*
X-28741Y-6706D01*
X-28741Y5105D02*
X-22835Y5105D01*
X-28741Y-6706D02*
X-22835D01*
X-22198Y6221D02*
X-22198Y-3621D01*
X-12356Y6221D02*
X-12356Y-3621D01*
X-22198D02*
X-12356D01*
X-22198Y6221D02*
X-12356Y6221D01*
X-22692Y-10153D02*
X-12062D01*
X-22692Y-4247D02*
X-12062Y-4247D01*
Y-10153D02*
Y-4247D01*
X-22692Y-4247D02*
X-22692Y-10153D01*
X-36104Y29733D02*
X-14450D01*
X-36104Y58867D02*
X-14450D01*
X-36104Y29733D02*
Y58867D01*
X-14450Y29733D02*
Y58867D01*
X27165Y51438D02*
X31102Y51438D01*
X27165Y51438D02*
X27165Y61281D01*
X31102Y51438D02*
Y61281D01*
X27165Y61281D02*
X31102Y61281D01*
X-24389Y-46026D02*
X-24389Y-56262D01*
X-18877Y-56262D02*
X-18877Y-46026D01*
X-24389Y-56262D02*
X-18877Y-56262D01*
X-24389Y-46026D02*
X-18877Y-46026D01*
X22162Y-9847D02*
X32792Y-9847D01*
X22162Y-15753D02*
X32792Y-15753D01*
X22162Y-15753D02*
X22162Y-9847D01*
X32792Y-9847D02*
X32792Y-15753D01*
X11808Y-36253D02*
X22438D01*
X11808Y-30347D02*
X22438D01*
X22438Y-36253D01*
X11808D02*
Y-30347D01*
X970Y-45515D02*
X6876D01*
X970Y-34885D02*
X6876D01*
X970Y-45515D02*
Y-34885D01*
X6876Y-45515D02*
Y-34885D01*
X16605Y-29341D02*
Y-19459D01*
X26841Y-19459D02*
X26841Y-29341D01*
X16605Y-29341D02*
X26841Y-29341D01*
X16605Y-19459D02*
X26841Y-19459D01*
X-54177Y14685D02*
X-41579Y14685D01*
X-54177Y25315D02*
X-54177Y14685D01*
X-41579Y25315D02*
X-41579Y14685D01*
X-54177Y25315D02*
X-41579Y25315D01*
X-41942Y-7118D02*
X-36430Y-7118D01*
X-41942Y3118D02*
X-36430Y3118D01*
X-41942Y-7118D02*
X-41942Y3118D01*
X-36430Y3118D02*
X-36430Y-7118D01*
X22967Y-30282D02*
X28479D01*
X22967Y-40518D02*
X28479Y-40518D01*
Y-30282D01*
X22967Y-40518D02*
Y-30282D01*
X-7195Y-46144D02*
X3041Y-46144D01*
X-7195Y-51656D02*
X3041Y-51656D01*
X-7195Y-46144D02*
X-7195Y-51656D01*
X3041Y-46144D02*
X3041Y-51656D01*
X-24821Y-56318D02*
Y-46082D01*
X-30333Y-56318D02*
Y-46082D01*
X-24821D01*
X-30333Y-56318D02*
X-24821D01*
X-18195Y-51944D02*
X-7959D01*
X-18195Y-57456D02*
X-7959D01*
X-18195D02*
Y-51944D01*
X-7959Y-57456D02*
Y-51944D01*
X-7195Y-52216D02*
X3041D01*
X-7195Y-57728D02*
X3041D01*
X-7195D02*
Y-52216D01*
X3041Y-57728D02*
Y-52216D01*
X46778Y-35219D02*
X46778Y-12581D01*
X28668Y-35219D02*
X28668Y-12581D01*
X46778D01*
X28668Y-35219D02*
X46778D01*
X26828Y-60102D02*
Y-47898D01*
X15017Y-60102D02*
Y-47898D01*
X26828D01*
X15017Y-60102D02*
X26828D01*
X-25609Y-44440D02*
Y-36960D01*
X-29546Y-44440D02*
Y-36960D01*
X-25609D01*
X-29546Y-44440D02*
X-25609D01*
X-29546Y-27960D02*
X-25609Y-27960D01*
X-29546Y-35440D02*
X-25609D01*
Y-27960D01*
X-29546Y-35440D02*
Y-27960D01*
X-22763Y-25069D02*
X-15283D01*
X-22763Y-21132D02*
X-15283Y-21132D01*
X-15283Y-25069D01*
X-22763Y-21132D02*
X-22763Y-25069D01*
X-22763Y-16931D02*
X-22763Y-20868D01*
X-15283Y-20868D02*
Y-16931D01*
X-22763Y-16931D02*
X-15283Y-16931D01*
X-22763Y-20868D02*
X-15283Y-20868D01*
M02*
