G04*
G04 #@! TF.GenerationSoftware,Altium Limited,Altium Designer,20.2.6 (244)*
G04*
G04 Layer_Color=32768*
%FSLAX25Y25*%
%MOIN*%
G70*
G04*
G04 #@! TF.SameCoordinates,E73447B6-61B4-4EEF-956E-7A2C62B3FEF5*
G04*
G04*
G04 #@! TF.FilePolarity,Positive*
G04*
G01*
G75*
%ADD10C,0.01000*%
D10*
X-42477Y58500D02*
G03*
X-42477Y-58500I85485J-58500D01*
G01*
X42523Y-58500D02*
G03*
X42523Y58500I-86023J58500D01*
G01*
X-42477Y58500D02*
G03*
X-42477Y-58500I85485J-58500D01*
G01*
X-19913Y64390D02*
G03*
X-42477Y58500I19936J-122546D01*
G01*
X42523D02*
G03*
X19959Y64390I-42500J-116656D01*
G01*
X19959Y-64390D02*
G03*
X42523Y-58500I-19936J122546D01*
G01*
X-42477D02*
G03*
X-19913Y-64390I42500J116656D01*
G01*
X19959D02*
G03*
X42523Y-58500I-19936J122546D01*
G01*
X-42477D02*
G03*
X-19913Y-64390I42500J116656D01*
G01*
X42523Y-58500D02*
G03*
X42523Y58500I-86023J58500D01*
G01*
X-19913Y64390D02*
G03*
X-42477Y58500I19936J-122546D01*
G01*
X42523D02*
G03*
X19959Y64390I-42500J-116656D01*
G01*
X37299Y16050D02*
X43900Y16050D01*
X44049Y16050D01*
X44325Y15936D01*
X44536Y15725D01*
X44650Y15449D01*
Y15151D02*
Y15449D01*
X44536Y14875D02*
X44650Y15151D01*
X44325Y14664D02*
X44536Y14875D01*
X44049Y14550D02*
X44325Y14664D01*
X43900Y14550D02*
X44049Y14550D01*
X37900Y14550D02*
X43900D01*
X37900Y8627D02*
X37900Y14550D01*
X37900Y8627D02*
X37900Y-450D01*
X43900Y-450D01*
X44049Y-450D01*
X44325Y-564D01*
X44536Y-775D01*
X44650Y-1051D01*
Y-1349D02*
Y-1051D01*
X44536Y-1625D02*
X44650Y-1349D01*
X44325Y-1836D02*
X44536Y-1625D01*
X44049Y-1950D02*
X44325Y-1836D01*
X43900Y-1950D02*
X44049Y-1950D01*
X37001Y-1950D02*
X43900D01*
X36725Y-1836D02*
X37001Y-1950D01*
X36514Y-1625D02*
X36725Y-1836D01*
X36400Y-1349D02*
X36514Y-1625D01*
X36400Y-1349D02*
Y-1200D01*
X36400Y9200D02*
X36400Y-1200D01*
X36400Y9200D02*
X36400D01*
X36400Y15300D02*
X36400Y9200D01*
X36400Y15300D02*
Y15449D01*
X36514Y15725D01*
X36725Y15936D01*
X37001Y16050D01*
X37299D01*
X19959Y64390D02*
X22841Y63921D01*
X-19913Y64390D02*
X19959D01*
X-22795Y63921D02*
X-19913Y64390D01*
X-28508Y62713D02*
X-22795Y63921D01*
X-34159Y61238D02*
X-28508Y62713D01*
X-39734Y59500D02*
X-34159Y61238D01*
X-42477Y58500D02*
X-39734Y59500D01*
X-44233Y55934D02*
X-42477Y58500D01*
X-47431Y50601D02*
X-44233Y55934D01*
X-50303Y45086D02*
X-47431Y50601D01*
X-52839Y39408D02*
X-50303Y45086D01*
X-55030Y33588D02*
X-52839Y39408D01*
X-56868Y27648D02*
X-55030Y33588D01*
X-58346Y21608D02*
X-56868Y27648D01*
X-59460Y15490D02*
X-58346Y21608D01*
X-60205Y9316D02*
X-59460Y15490D01*
X-60578Y3109D02*
X-60205Y9316D01*
X-60578Y-3109D02*
Y3109D01*
Y-3109D02*
X-60205Y-9316D01*
X-59460Y-15490D01*
X-58346Y-21608D01*
X-56868Y-27648D01*
X-55030Y-33588D01*
X-52839Y-39408D01*
X-50303Y-45086D01*
X-47431Y-50601D01*
X-44233Y-55934D01*
X-42477Y-58500D01*
X-39734Y-59500D01*
X-34159Y-61238D01*
X-28508Y-62713D01*
X-22795Y-63921D01*
X-19913Y-64390D01*
X19959Y-64390D01*
X22841Y-63921D01*
X28554Y-62713D01*
X34205Y-61238D01*
X39779Y-59500D01*
X42523Y-58500D01*
X44270Y-55931D01*
X47452Y-50592D01*
X50309Y-45074D01*
X52833Y-39394D01*
X55012Y-33574D01*
X56840Y-27635D01*
X58311Y-21596D01*
X59418Y-15481D01*
X60159Y-9311D01*
X60530Y-3107D01*
Y-2000D01*
X52651D02*
X60530D01*
X52375Y-1886D02*
X52651Y-2000D01*
X52164Y-1675D02*
X52375Y-1886D01*
X52050Y-1399D02*
X52164Y-1675D01*
X52050Y-1399D02*
Y-1101D01*
X52164Y-825D01*
X52375Y-614D01*
X52651Y-500D01*
X60530D01*
Y3107D01*
X60159Y9311D02*
X60530Y3107D01*
X59536Y14500D02*
X60159Y9311D01*
X52651Y14500D02*
X59536D01*
X52375Y14614D02*
X52651Y14500D01*
X52164Y14825D02*
X52375Y14614D01*
X52050Y15101D02*
X52164Y14825D01*
X52050Y15101D02*
Y15399D01*
X52164Y15675D01*
X52375Y15886D01*
X52651Y16000D01*
X59324D01*
X58311Y21596D02*
X59324Y16000D01*
X56840Y27635D02*
X58311Y21596D01*
X55012Y33574D02*
X56840Y27635D01*
X52833Y39394D02*
X55012Y33574D01*
X50309Y45074D02*
X52833Y39394D01*
X47452Y50592D02*
X50309Y45074D01*
X44270Y55931D02*
X47452Y50592D01*
X42523Y58500D02*
X44270Y55931D01*
X39779Y59500D02*
X42523Y58500D01*
X34205Y61238D02*
X39779Y59500D01*
X28554Y62713D02*
X34205Y61238D01*
X22841Y63921D02*
X28554Y62713D01*
X-42477Y58500D02*
X-42477Y58500D01*
X-19913Y64390D02*
X19959D01*
X42523Y-58500D02*
X42523Y-58500D01*
X-19913Y-64390D02*
X19959D01*
X-19959D02*
X19959D01*
X-19959Y64390D02*
X19959D01*
M02*
