G04*
G04 #@! TF.GenerationSoftware,Altium Limited,Altium Designer,20.2.6 (244)*
G04*
G04 Layer_Color=16711935*
%FSLAX25Y25*%
%MOIN*%
G70*
G04*
G04 #@! TF.SameCoordinates,E73447B6-61B4-4EEF-956E-7A2C62B3FEF5*
G04*
G04*
G04 #@! TF.FilePolarity,Positive*
G04*
G01*
G75*
%ADD10C,0.01000*%
D10*
X93000Y29900D02*
Y23902D01*
X95999D01*
X96999Y24902D01*
Y25902D01*
X95999Y26901D01*
X93000D01*
X95999D01*
X96999Y27901D01*
Y28901D01*
X95999Y29900D01*
X93000D01*
X99998Y23902D02*
X101997D01*
X102997Y24902D01*
Y26901D01*
X101997Y27901D01*
X99998D01*
X98998Y26901D01*
Y24902D01*
X99998Y23902D01*
X105996Y27901D02*
X107995D01*
X108995Y26901D01*
Y23902D01*
X105996D01*
X104996Y24902D01*
X105996Y25902D01*
X108995D01*
X110994Y27901D02*
Y23902D01*
Y25902D01*
X111994Y26901D01*
X112994Y27901D01*
X113993D01*
X120991Y29900D02*
Y23902D01*
X117992D01*
X116992Y24902D01*
Y26901D01*
X117992Y27901D01*
X120991D01*
X128988Y29900D02*
X132987D01*
X130988D01*
Y23902D01*
X134986Y29900D02*
Y23902D01*
Y26901D01*
X135986Y27901D01*
X137985D01*
X138985Y26901D01*
Y23902D01*
X140984D02*
X142984D01*
X141984D01*
Y27901D01*
X140984D01*
X149982D02*
X146983D01*
X145983Y26901D01*
Y24902D01*
X146983Y23902D01*
X149982D01*
X151981D02*
Y29900D01*
Y25902D02*
X154980Y27901D01*
X151981Y25902D02*
X154980Y23902D01*
X157979D02*
Y27901D01*
X160978D01*
X161978Y26901D01*
Y23902D01*
X166976D02*
X164977D01*
X163977Y24902D01*
Y26901D01*
X164977Y27901D01*
X166976D01*
X167976Y26901D01*
Y25902D01*
X163977D01*
X169975Y23902D02*
X172974D01*
X173974Y24902D01*
X172974Y25902D01*
X170975D01*
X169975Y26901D01*
X170975Y27901D01*
X173974D01*
X175973Y23902D02*
X178972D01*
X179972Y24902D01*
X178972Y25902D01*
X176973D01*
X175973Y26901D01*
X176973Y27901D01*
X179972D01*
X187969Y25902D02*
X191968D01*
X187969Y27901D02*
X191968D01*
X199965Y28901D02*
X200965Y29900D01*
X202964D01*
X203964Y28901D01*
Y24902D01*
X202964Y23902D01*
X200965D01*
X199965Y24902D01*
Y28901D01*
X205963Y23902D02*
Y24902D01*
X206963D01*
Y23902D01*
X205963D01*
X210962Y28901D02*
X211962Y29900D01*
X213961D01*
X214961Y28901D01*
Y24902D01*
X213961Y23902D01*
X211962D01*
X210962Y24902D01*
Y28901D01*
X220959Y29900D02*
X218959Y28901D01*
X216960Y26901D01*
Y24902D01*
X217960Y23902D01*
X219959D01*
X220959Y24902D01*
Y25902D01*
X219959Y26901D01*
X216960D01*
X226957Y23902D02*
X222958D01*
X226957Y27901D01*
Y28901D01*
X225957Y29900D01*
X223958D01*
X222958Y28901D01*
X229956Y30900D02*
Y28901D01*
X228956Y27901D01*
X233954Y30900D02*
Y28901D01*
X232955Y27901D01*
X96999Y19303D02*
X95999Y20303D01*
X94000D01*
X93000Y19303D01*
Y18303D01*
X94000Y17304D01*
X95999D01*
X96999Y16304D01*
Y15304D01*
X95999Y14305D01*
X94000D01*
X93000Y15304D01*
X98998Y18303D02*
Y15304D01*
X99998Y14305D01*
X102997D01*
Y18303D01*
X104996D02*
Y14305D01*
Y16304D01*
X105996Y17304D01*
X106995Y18303D01*
X107995D01*
X111994Y14305D02*
Y19303D01*
Y17304D01*
X110994D01*
X112994D01*
X111994D01*
Y19303D01*
X112994Y20303D01*
X116992Y18303D02*
X118992D01*
X119991Y17304D01*
Y14305D01*
X116992D01*
X115993Y15304D01*
X116992Y16304D01*
X119991D01*
X125989Y18303D02*
X122990D01*
X121991Y17304D01*
Y15304D01*
X122990Y14305D01*
X125989D01*
X130988D02*
X128988D01*
X127989Y15304D01*
Y17304D01*
X128988Y18303D01*
X130988D01*
X131987Y17304D01*
Y16304D01*
X127989D01*
X143983Y20303D02*
X139985D01*
Y17304D01*
X141984D01*
X139985D01*
Y14305D01*
X145983D02*
X147982D01*
X146983D01*
Y18303D01*
X145983D01*
X150981Y14305D02*
Y18303D01*
X153980D01*
X154980Y17304D01*
Y14305D01*
X156979D02*
X158979D01*
X157979D01*
Y18303D01*
X156979D01*
X161978Y14305D02*
X164977D01*
X165976Y15304D01*
X164977Y16304D01*
X162977D01*
X161978Y17304D01*
X162977Y18303D01*
X165976D01*
X167976Y20303D02*
Y14305D01*
Y17304D01*
X168975Y18303D01*
X170975D01*
X171975Y17304D01*
Y14305D01*
X179972Y16304D02*
X183971D01*
X179972Y18303D02*
X183971D01*
X195967Y20303D02*
X191968D01*
Y14305D01*
X195967D01*
X191968Y17304D02*
X193967D01*
X197966Y14305D02*
Y20303D01*
X201965Y14305D01*
Y20303D01*
X203964D02*
X205963D01*
X204964D01*
Y14305D01*
X203964D01*
X205963D01*
X212961Y19303D02*
X211962Y20303D01*
X209962D01*
X208962Y19303D01*
Y15304D01*
X209962Y14305D01*
X211962D01*
X212961Y15304D01*
Y17304D01*
X210962D01*
X96999Y9705D02*
X95999Y10705D01*
X94000D01*
X93000Y9705D01*
Y5707D01*
X94000Y4707D01*
X95999D01*
X96999Y5707D01*
X99998Y4707D02*
X101997D01*
X102997Y5707D01*
Y7706D01*
X101997Y8706D01*
X99998D01*
X98998Y7706D01*
Y5707D01*
X99998Y4707D01*
X104996Y2708D02*
Y8706D01*
X107995D01*
X108995Y7706D01*
Y5707D01*
X107995Y4707D01*
X104996D01*
X110994Y2708D02*
Y8706D01*
X113993D01*
X114993Y7706D01*
Y5707D01*
X113993Y4707D01*
X110994D01*
X119991D02*
X117992D01*
X116992Y5707D01*
Y7706D01*
X117992Y8706D01*
X119991D01*
X120991Y7706D01*
Y6706D01*
X116992D01*
X122990Y8706D02*
Y4707D01*
Y6706D01*
X123990Y7706D01*
X124990Y8706D01*
X125989D01*
X134986Y10705D02*
Y4707D01*
X136986Y6706D01*
X138985Y4707D01*
Y10705D01*
X143983Y4707D02*
X141984D01*
X140984Y5707D01*
Y7706D01*
X141984Y8706D01*
X143983D01*
X144983Y7706D01*
Y6706D01*
X140984D01*
X146983Y4707D02*
X148982D01*
X147982D01*
Y8706D01*
X146983D01*
X153980Y2708D02*
X154980D01*
X155980Y3707D01*
Y8706D01*
X152981D01*
X151981Y7706D01*
Y5707D01*
X152981Y4707D01*
X155980D01*
X157979Y10705D02*
Y4707D01*
Y7706D01*
X158979Y8706D01*
X160978D01*
X161978Y7706D01*
Y4707D01*
X164977Y9705D02*
Y8706D01*
X163977D01*
X165976D01*
X164977D01*
Y5707D01*
X165976Y4707D01*
X168975D02*
X171975D01*
X172974Y5707D01*
X171975Y6706D01*
X169975D01*
X168975Y7706D01*
X169975Y8706D01*
X172974D01*
X180972Y6706D02*
X184970D01*
X180972Y8706D02*
X184970D01*
X192968Y4707D02*
X194967D01*
X193967D01*
Y10705D01*
X192968Y9705D01*
X204964Y4707D02*
X206963D01*
X207963Y5707D01*
Y7706D01*
X206963Y8706D01*
X204964D01*
X203964Y7706D01*
Y5707D01*
X204964Y4707D01*
X209962Y8706D02*
X213961D01*
X209962Y4707D01*
X213961D01*
X224957D02*
X222958D01*
X221958Y5707D01*
Y7706D01*
X222958Y8706D01*
X224957D01*
X225957Y7706D01*
Y6706D01*
X221958D01*
X227956Y8706D02*
X231955Y4707D01*
X229956Y6706D01*
X231955Y8706D01*
X227956Y4707D01*
X234954Y9705D02*
Y8706D01*
X233954D01*
X235954D01*
X234954D01*
Y5707D01*
X235954Y4707D01*
X241952D02*
X239952D01*
X238953Y5707D01*
Y7706D01*
X239952Y8706D01*
X241952D01*
X242951Y7706D01*
Y6706D01*
X238953D01*
X244951Y8706D02*
Y4707D01*
Y6706D01*
X245951Y7706D01*
X246950Y8706D01*
X247950D01*
X250949Y4707D02*
Y8706D01*
X253948D01*
X254948Y7706D01*
Y4707D01*
X257947Y8706D02*
X259946D01*
X260946Y7706D01*
Y4707D01*
X257947D01*
X256947Y5707D01*
X257947Y6706D01*
X260946D01*
X262945Y4707D02*
X264944D01*
X263945D01*
Y10705D01*
X262945D01*
X273941Y4707D02*
X277940Y8706D01*
X285938Y9705D02*
X286937Y10705D01*
X288937D01*
X289936Y9705D01*
Y5707D01*
X288937Y4707D01*
X286937D01*
X285938Y5707D01*
Y9705D01*
X291936Y4707D02*
Y5707D01*
X292935D01*
Y4707D01*
X291936D01*
X300933Y10705D02*
X296934D01*
Y7706D01*
X298933Y8706D01*
X299933D01*
X300933Y7706D01*
Y5707D01*
X299933Y4707D01*
X297934D01*
X296934Y5707D01*
X309930Y4707D02*
X311929D01*
X312929Y5707D01*
Y7706D01*
X311929Y8706D01*
X309930D01*
X308930Y7706D01*
Y5707D01*
X309930Y4707D01*
X314928Y8706D02*
X318927D01*
X314928Y4707D01*
X318927D01*
X326924D02*
X328924D01*
X327924D01*
Y8706D01*
X326924D01*
X331923Y4707D02*
Y8706D01*
X334922D01*
X335921Y7706D01*
Y4707D01*
X338920Y9705D02*
Y8706D01*
X337921D01*
X339920D01*
X338920D01*
Y5707D01*
X339920Y4707D01*
X345918D02*
X343919D01*
X342919Y5707D01*
Y7706D01*
X343919Y8706D01*
X345918D01*
X346918Y7706D01*
Y6706D01*
X342919D01*
X348917Y8706D02*
Y4707D01*
Y6706D01*
X349917Y7706D01*
X350917Y8706D01*
X351916D01*
X354915Y4707D02*
Y8706D01*
X357914D01*
X358914Y7706D01*
Y4707D01*
X361913Y8706D02*
X363912D01*
X364912Y7706D01*
Y4707D01*
X361913D01*
X360913Y5707D01*
X361913Y6706D01*
X364912D01*
X366911Y4707D02*
X368911D01*
X367911D01*
Y10705D01*
X366911D01*
X93000Y-6890D02*
Y-892D01*
X96999Y-6890D01*
Y-892D01*
X98998Y-2891D02*
Y-5890D01*
X99998Y-6890D01*
X102997D01*
Y-2891D01*
X104996Y-6890D02*
Y-2891D01*
X105996D01*
X106995Y-3891D01*
Y-6890D01*
Y-3891D01*
X107995Y-2891D01*
X108995Y-3891D01*
Y-6890D01*
X116992Y-892D02*
Y-6890D01*
X120991D01*
X123990Y-2891D02*
X125989D01*
X126989Y-3891D01*
Y-6890D01*
X123990D01*
X122990Y-5890D01*
X123990Y-4891D01*
X126989D01*
X128988Y-2891D02*
Y-5890D01*
X129988Y-6890D01*
X132987D01*
Y-7890D01*
X131987Y-8889D01*
X130988D01*
X132987Y-6890D02*
Y-2891D01*
X137985Y-6890D02*
X135986D01*
X134986Y-5890D01*
Y-3891D01*
X135986Y-2891D01*
X137985D01*
X138985Y-3891D01*
Y-4891D01*
X134986D01*
X140984Y-2891D02*
Y-6890D01*
Y-4891D01*
X141984Y-3891D01*
X142984Y-2891D01*
X143983D01*
X146983Y-6890D02*
X149982D01*
X150981Y-5890D01*
X149982Y-4891D01*
X147982D01*
X146983Y-3891D01*
X147982Y-2891D01*
X150981D01*
X158979Y-4891D02*
X162977D01*
X158979Y-2891D02*
X162977D01*
X174973Y-892D02*
X172974Y-1892D01*
X170975Y-3891D01*
Y-5890D01*
X171975Y-6890D01*
X173974D01*
X174973Y-5890D01*
Y-4891D01*
X173974Y-3891D01*
X170975D01*
M02*
