G04*
G04 #@! TF.GenerationSoftware,Altium Limited,Altium Designer,20.2.6 (244)*
G04*
G04 Layer_Physical_Order=3*
G04 Layer_Color=36540*
%FSLAX25Y25*%
%MOIN*%
G70*
G04*
G04 #@! TF.SameCoordinates,E73447B6-61B4-4EEF-956E-7A2C62B3FEF5*
G04*
G04*
G04 #@! TF.FilePolarity,Positive*
G04*
G01*
G75*
%ADD10C,0.01000*%
%ADD107C,0.00600*%
%ADD109C,0.01200*%
%ADD110C,0.00800*%
%ADD113C,0.01800*%
G36*
X30486Y46810D02*
X30447Y46757D01*
X30413Y46699D01*
X30383Y46637D01*
X30358Y46569D01*
X30337Y46496D01*
X30321Y46418D01*
X30309Y46335D01*
X30302Y46247D01*
X30300Y46154D01*
X29500D01*
X29498Y46247D01*
X29491Y46335D01*
X29479Y46418D01*
X29463Y46496D01*
X29443Y46569D01*
X29417Y46637D01*
X29387Y46699D01*
X29353Y46757D01*
X29314Y46810D01*
X29270Y46857D01*
X30530D01*
X30486Y46810D01*
D02*
G37*
G36*
X-8714Y46710D02*
X-8753Y46657D01*
X-8787Y46599D01*
X-8817Y46536D01*
X-8843Y46469D01*
X-8863Y46396D01*
X-8879Y46318D01*
X-8891Y46235D01*
X-8898Y46147D01*
X-8900Y46054D01*
X-9700D01*
X-9702Y46147D01*
X-9709Y46235D01*
X-9721Y46318D01*
X-9737Y46396D01*
X-9758Y46469D01*
X-9783Y46536D01*
X-9813Y46599D01*
X-9847Y46657D01*
X-9886Y46710D01*
X-9930Y46757D01*
X-8670D01*
X-8714Y46710D01*
D02*
G37*
G36*
X-11014Y46210D02*
X-11053Y46157D01*
X-11087Y46099D01*
X-11117Y46036D01*
X-11142Y45969D01*
X-11163Y45896D01*
X-11179Y45818D01*
X-11191Y45735D01*
X-11198Y45647D01*
X-11200Y45554D01*
X-12000D01*
X-12002Y45647D01*
X-12009Y45735D01*
X-12021Y45818D01*
X-12037Y45896D01*
X-12058Y45969D01*
X-12083Y46036D01*
X-12113Y46099D01*
X-12147Y46157D01*
X-12186Y46210D01*
X-12230Y46257D01*
X-10970D01*
X-11014Y46210D01*
D02*
G37*
G36*
X-14714Y45310D02*
X-14753Y45257D01*
X-14787Y45199D01*
X-14817Y45136D01*
X-14842Y45069D01*
X-14863Y44996D01*
X-14879Y44918D01*
X-14891Y44835D01*
X-14898Y44747D01*
X-14900Y44654D01*
X-15700D01*
X-15702Y44747D01*
X-15709Y44835D01*
X-15721Y44918D01*
X-15737Y44996D01*
X-15757Y45069D01*
X-15783Y45136D01*
X-15813Y45199D01*
X-15847Y45257D01*
X-15886Y45310D01*
X-15930Y45357D01*
X-14670D01*
X-14714Y45310D01*
D02*
G37*
G36*
X-22414Y44310D02*
X-22453Y44257D01*
X-22487Y44199D01*
X-22517Y44137D01*
X-22543Y44069D01*
X-22563Y43996D01*
X-22579Y43918D01*
X-22591Y43835D01*
X-22598Y43747D01*
X-22600Y43654D01*
X-23400D01*
X-23402Y43747D01*
X-23409Y43835D01*
X-23421Y43918D01*
X-23437Y43996D01*
X-23458Y44069D01*
X-23483Y44137D01*
X-23513Y44199D01*
X-23547Y44257D01*
X-23586Y44310D01*
X-23630Y44357D01*
X-22370D01*
X-22414Y44310D01*
D02*
G37*
G36*
X3550Y43577D02*
X3484Y43640D01*
X3417Y43696D01*
X3347Y43745D01*
X3276Y43788D01*
X3202Y43825D01*
X3126Y43854D01*
X3049Y43877D01*
X2969Y43894D01*
X2888Y43904D01*
X2804Y43907D01*
Y44507D01*
X2888Y44510D01*
X2969Y44520D01*
X3049Y44537D01*
X3126Y44560D01*
X3202Y44590D01*
X3276Y44626D01*
X3347Y44669D01*
X3417Y44718D01*
X3484Y44774D01*
X3550Y44837D01*
Y43577D01*
D02*
G37*
G36*
X-43333Y41692D02*
X-43389Y41624D01*
X-43438Y41554D01*
X-43481Y41483D01*
X-43518Y41409D01*
X-43547Y41333D01*
X-43570Y41256D01*
X-43587Y41176D01*
X-43597Y41095D01*
X-43600Y41012D01*
X-44200D01*
X-44203Y41095D01*
X-44213Y41176D01*
X-44230Y41256D01*
X-44253Y41333D01*
X-44282Y41409D01*
X-44319Y41483D01*
X-44362Y41554D01*
X-44411Y41624D01*
X-44467Y41692D01*
X-44530Y41757D01*
X-43270D01*
X-43333Y41692D01*
D02*
G37*
G36*
X10186Y40910D02*
X10147Y40857D01*
X10113Y40799D01*
X10083Y40736D01*
X10058Y40669D01*
X10037Y40596D01*
X10021Y40518D01*
X10009Y40435D01*
X10002Y40347D01*
X10000Y40254D01*
X9200D01*
X9198Y40347D01*
X9191Y40435D01*
X9179Y40518D01*
X9163Y40596D01*
X9143Y40669D01*
X9117Y40736D01*
X9087Y40799D01*
X9053Y40857D01*
X9014Y40910D01*
X8970Y40957D01*
X10230D01*
X10186Y40910D01*
D02*
G37*
G36*
X-36397Y40526D02*
X-36388Y40462D01*
X-36371Y40396D01*
X-36348Y40331D01*
X-36318Y40265D01*
X-36281Y40199D01*
X-36237Y40132D01*
X-36187Y40066D01*
X-36129Y39998D01*
X-36065Y39931D01*
X-36631Y39365D01*
X-36698Y39429D01*
X-36766Y39487D01*
X-36832Y39537D01*
X-36899Y39581D01*
X-36965Y39618D01*
X-37031Y39648D01*
X-37096Y39671D01*
X-37161Y39688D01*
X-37226Y39697D01*
X-37291Y39700D01*
X-36400Y40591D01*
X-36397Y40526D01*
D02*
G37*
G36*
X25655Y38479D02*
X25599Y38411D01*
X25549Y38342D01*
X25506Y38270D01*
X25470Y38197D01*
X25440Y38121D01*
X25417Y38043D01*
X25401Y37964D01*
X25391Y37882D01*
X25387Y37799D01*
X24787D01*
X24784Y37882D01*
X24774Y37964D01*
X24758Y38043D01*
X24735Y38121D01*
X24705Y38197D01*
X24669Y38270D01*
X24626Y38342D01*
X24576Y38411D01*
X24520Y38479D01*
X24457Y38545D01*
X25717D01*
X25655Y38479D01*
D02*
G37*
G36*
X21364Y36815D02*
X21309Y36746D01*
X21260Y36676D01*
X21217Y36603D01*
X21181Y36529D01*
X21152Y36453D01*
X21129Y36375D01*
X21113Y36296D01*
X21103Y36214D01*
X21100Y36131D01*
X20500Y36121D01*
X20497Y36204D01*
X20487Y36286D01*
X20470Y36365D01*
X20447Y36443D01*
X20416Y36518D01*
X20380Y36591D01*
X20336Y36662D01*
X20286Y36731D01*
X20230Y36797D01*
X20166Y36862D01*
X21426Y36882D01*
X21364Y36815D01*
D02*
G37*
G36*
X23667Y36792D02*
X23611Y36724D01*
X23562Y36654D01*
X23519Y36583D01*
X23483Y36509D01*
X23453Y36434D01*
X23430Y36356D01*
X23413Y36276D01*
X23403Y36195D01*
X23400Y36112D01*
X22800D01*
X22797Y36195D01*
X22787Y36276D01*
X22770Y36356D01*
X22747Y36434D01*
X22717Y36509D01*
X22681Y36583D01*
X22638Y36654D01*
X22589Y36724D01*
X22533Y36792D01*
X22470Y36857D01*
X23730D01*
X23667Y36792D01*
D02*
G37*
G36*
X3619Y36018D02*
X3596Y36019D01*
X3570Y36014D01*
X3539Y36002D01*
X3504Y35983D01*
X3466Y35958D01*
X3423Y35927D01*
X3325Y35845D01*
X3212Y35736D01*
X2788Y36161D01*
X2835Y36209D01*
X2910Y36297D01*
X2939Y36337D01*
X2962Y36374D01*
X2979Y36408D01*
X2990Y36439D01*
X2994Y36467D01*
X2993Y36493D01*
X2986Y36516D01*
X3619Y36018D01*
D02*
G37*
G36*
X-22597Y30424D02*
X-22589Y30337D01*
X-22576Y30256D01*
X-22557Y30181D01*
X-22532Y30113D01*
X-22502Y30051D01*
X-22467Y29995D01*
X-22426Y29946D01*
X-22380Y29903D01*
X-22329Y29867D01*
X-23557Y29587D01*
X-23527Y29638D01*
X-23501Y29694D01*
X-23477Y29754D01*
X-23457Y29820D01*
X-23439Y29890D01*
X-23425Y29965D01*
X-23406Y30128D01*
X-23402Y30217D01*
X-23400Y30311D01*
X-22600Y30518D01*
X-22597Y30424D01*
D02*
G37*
G36*
X-11200Y30568D02*
X-11066Y30457D01*
X-11001Y30412D01*
X-10939Y30375D01*
X-10878Y30345D01*
X-10818Y30323D01*
X-10761Y30307D01*
X-10705Y30299D01*
X-10650Y30299D01*
X-11499Y29450D01*
X-11499Y29505D01*
X-11507Y29561D01*
X-11523Y29618D01*
X-11545Y29678D01*
X-11575Y29739D01*
X-11612Y29801D01*
X-11657Y29866D01*
X-11709Y29932D01*
X-11768Y30000D01*
X-11835Y30069D01*
X-11269Y30635D01*
X-11200Y30568D01*
D02*
G37*
G36*
X6986Y28710D02*
X6947Y28657D01*
X6913Y28599D01*
X6883Y28536D01*
X6858Y28469D01*
X6837Y28396D01*
X6821Y28318D01*
X6809Y28235D01*
X6802Y28147D01*
X6800Y28054D01*
X6000D01*
X5998Y28147D01*
X5991Y28235D01*
X5979Y28318D01*
X5963Y28396D01*
X5943Y28469D01*
X5917Y28536D01*
X5887Y28599D01*
X5853Y28657D01*
X5814Y28710D01*
X5770Y28757D01*
X7030D01*
X6986Y28710D01*
D02*
G37*
G36*
X-14798Y28053D02*
X-14791Y27965D01*
X-14779Y27882D01*
X-14763Y27804D01*
X-14742Y27731D01*
X-14717Y27663D01*
X-14687Y27601D01*
X-14653Y27543D01*
X-14614Y27490D01*
X-14570Y27443D01*
X-15830D01*
X-15786Y27490D01*
X-15747Y27543D01*
X-15713Y27601D01*
X-15683Y27663D01*
X-15657Y27731D01*
X-15637Y27804D01*
X-15621Y27882D01*
X-15609Y27965D01*
X-15602Y28053D01*
X-15600Y28146D01*
X-14800D01*
X-14798Y28053D01*
D02*
G37*
G36*
X30302Y27853D02*
X30309Y27765D01*
X30321Y27682D01*
X30337Y27604D01*
X30358Y27531D01*
X30383Y27463D01*
X30413Y27401D01*
X30447Y27343D01*
X30486Y27290D01*
X30530Y27243D01*
X29270D01*
X29314Y27290D01*
X29353Y27343D01*
X29387Y27401D01*
X29417Y27463D01*
X29443Y27531D01*
X29463Y27604D01*
X29479Y27682D01*
X29491Y27765D01*
X29498Y27853D01*
X29500Y27946D01*
X30300D01*
X30302Y27853D01*
D02*
G37*
G36*
X-14297Y26726D02*
X-14288Y26662D01*
X-14271Y26596D01*
X-14248Y26531D01*
X-14218Y26465D01*
X-14181Y26399D01*
X-14137Y26332D01*
X-14087Y26265D01*
X-14029Y26198D01*
X-13965Y26131D01*
X-14531Y25565D01*
X-14598Y25629D01*
X-14665Y25687D01*
X-14732Y25737D01*
X-14799Y25781D01*
X-14865Y25818D01*
X-14931Y25848D01*
X-14996Y25871D01*
X-15062Y25888D01*
X-15126Y25897D01*
X-15191Y25900D01*
X-14300Y26791D01*
X-14297Y26726D01*
D02*
G37*
G36*
X3784Y26497D02*
X3850Y26447D01*
X3918Y26406D01*
X3987Y26374D01*
X4059Y26350D01*
X4132Y26335D01*
X4207Y26329D01*
X4284Y26332D01*
X4364Y26343D01*
X4445Y26363D01*
X3832Y25262D01*
X3805Y25352D01*
X3743Y25521D01*
X3707Y25601D01*
X3626Y25748D01*
X3580Y25817D01*
X3532Y25882D01*
X3481Y25943D01*
X3426Y26001D01*
X3721Y26555D01*
X3784Y26497D01*
D02*
G37*
G36*
X-1859Y23758D02*
X-1910Y23683D01*
X-1954Y23608D01*
X-1993Y23532D01*
X-2026Y23454D01*
X-2052Y23376D01*
X-2073Y23297D01*
X-2088Y23217D01*
X-2097Y23136D01*
X-2100Y23054D01*
X-2700Y22983D01*
X-2703Y23067D01*
X-2714Y23149D01*
X-2732Y23227D01*
X-2757Y23303D01*
X-2789Y23375D01*
X-2828Y23445D01*
X-2874Y23511D01*
X-2927Y23574D01*
X-2987Y23634D01*
X-3055Y23691D01*
X-1802Y23831D01*
X-1859Y23758D01*
D02*
G37*
G36*
X-4197Y23605D02*
X-4187Y23524D01*
X-4170Y23444D01*
X-4147Y23367D01*
X-4118Y23291D01*
X-4081Y23217D01*
X-4038Y23146D01*
X-3989Y23076D01*
X-3933Y23008D01*
X-3870Y22943D01*
X-5130D01*
X-5067Y23008D01*
X-5011Y23076D01*
X-4962Y23146D01*
X-4919Y23217D01*
X-4882Y23291D01*
X-4853Y23367D01*
X-4830Y23444D01*
X-4813Y23524D01*
X-4803Y23605D01*
X-4800Y23688D01*
X-4200D01*
X-4197Y23605D01*
D02*
G37*
G36*
X2760Y23008D02*
X2892Y22897D01*
X2957Y22850D01*
X3022Y22808D01*
X3085Y22773D01*
X3148Y22743D01*
X3210Y22720D01*
X3272Y22702D01*
X3333Y22690D01*
X2313Y21950D01*
X2320Y22014D01*
X2318Y22078D01*
X2309Y22143D01*
X2293Y22208D01*
X2268Y22274D01*
X2235Y22340D01*
X2195Y22406D01*
X2146Y22473D01*
X2090Y22541D01*
X2026Y22609D01*
X2693Y23073D01*
X2760Y23008D01*
D02*
G37*
G36*
X-32414Y22510D02*
X-32453Y22457D01*
X-32487Y22399D01*
X-32517Y22336D01*
X-32542Y22269D01*
X-32563Y22196D01*
X-32579Y22118D01*
X-32591Y22035D01*
X-32598Y21947D01*
X-32600Y21854D01*
X-33400D01*
X-33402Y21947D01*
X-33409Y22035D01*
X-33421Y22118D01*
X-33437Y22196D01*
X-33457Y22269D01*
X-33483Y22336D01*
X-33513Y22399D01*
X-33547Y22457D01*
X-33586Y22510D01*
X-33630Y22557D01*
X-32370D01*
X-32414Y22510D01*
D02*
G37*
G36*
X-34298Y22453D02*
X-34291Y22365D01*
X-34279Y22282D01*
X-34263Y22204D01*
X-34242Y22131D01*
X-34217Y22063D01*
X-34187Y22001D01*
X-34153Y21943D01*
X-34114Y21890D01*
X-34070Y21843D01*
X-35330D01*
X-35286Y21890D01*
X-35247Y21943D01*
X-35213Y22001D01*
X-35183Y22063D01*
X-35157Y22131D01*
X-35137Y22204D01*
X-35121Y22282D01*
X-35109Y22365D01*
X-35102Y22453D01*
X-35100Y22546D01*
X-34300D01*
X-34298Y22453D01*
D02*
G37*
G36*
X-55992Y19967D02*
X-55924Y19911D01*
X-55854Y19862D01*
X-55783Y19819D01*
X-55709Y19782D01*
X-55633Y19753D01*
X-55556Y19730D01*
X-55476Y19713D01*
X-55395Y19703D01*
X-55312Y19700D01*
Y19100D01*
X-55395Y19097D01*
X-55476Y19087D01*
X-55556Y19070D01*
X-55633Y19047D01*
X-55709Y19017D01*
X-55783Y18981D01*
X-55854Y18938D01*
X-55924Y18889D01*
X-55992Y18833D01*
X-56057Y18770D01*
Y20030D01*
X-55992Y19967D01*
D02*
G37*
G36*
X6803Y14895D02*
X6810Y14808D01*
X6823Y14726D01*
X6841Y14649D01*
X6864Y14578D01*
X6892Y14513D01*
X6925Y14454D01*
X6963Y14400D01*
X7006Y14351D01*
X7055Y14309D01*
X5802Y14169D01*
X5840Y14220D01*
X5874Y14275D01*
X5903Y14335D01*
X5929Y14400D01*
X5951Y14470D01*
X5968Y14544D01*
X5982Y14623D01*
X5992Y14707D01*
X6000Y14888D01*
X6800Y14988D01*
X6803Y14895D01*
D02*
G37*
G36*
X3567Y14192D02*
X3511Y14124D01*
X3462Y14054D01*
X3419Y13983D01*
X3382Y13909D01*
X3353Y13834D01*
X3330Y13756D01*
X3313Y13676D01*
X3303Y13595D01*
X3300Y13511D01*
X2700D01*
X2697Y13595D01*
X2687Y13676D01*
X2670Y13756D01*
X2647Y13834D01*
X2617Y13909D01*
X2581Y13983D01*
X2538Y14054D01*
X2489Y14124D01*
X2433Y14192D01*
X2370Y14257D01*
X3630D01*
X3567Y14192D01*
D02*
G37*
G36*
X-13598Y8753D02*
X-13591Y8665D01*
X-13579Y8582D01*
X-13563Y8504D01*
X-13543Y8431D01*
X-13517Y8364D01*
X-13487Y8301D01*
X-13453Y8243D01*
X-13414Y8190D01*
X-13370Y8143D01*
X-14630D01*
X-14586Y8190D01*
X-14547Y8243D01*
X-14513Y8301D01*
X-14483Y8364D01*
X-14457Y8431D01*
X-14437Y8504D01*
X-14421Y8582D01*
X-14409Y8665D01*
X-14402Y8753D01*
X-14400Y8846D01*
X-13600D01*
X-13598Y8753D01*
D02*
G37*
G36*
X10002Y8153D02*
X10009Y8065D01*
X10021Y7982D01*
X10037Y7904D01*
X10058Y7831D01*
X10083Y7763D01*
X10113Y7701D01*
X10147Y7643D01*
X10186Y7590D01*
X10230Y7543D01*
X8970D01*
X9014Y7590D01*
X9053Y7643D01*
X9087Y7701D01*
X9117Y7763D01*
X9143Y7831D01*
X9163Y7904D01*
X9179Y7982D01*
X9191Y8065D01*
X9198Y8153D01*
X9200Y8246D01*
X10000D01*
X10002Y8153D01*
D02*
G37*
G36*
X-32597Y7395D02*
X-32590Y7308D01*
X-32577Y7226D01*
X-32559Y7149D01*
X-32536Y7078D01*
X-32508Y7013D01*
X-32475Y6954D01*
X-32437Y6900D01*
X-32394Y6851D01*
X-32345Y6809D01*
X-33597Y6669D01*
X-33560Y6719D01*
X-33526Y6775D01*
X-33497Y6835D01*
X-33471Y6900D01*
X-33449Y6970D01*
X-33432Y7044D01*
X-33418Y7123D01*
X-33408Y7207D01*
X-33400Y7388D01*
X-32600Y7489D01*
X-32597Y7395D01*
D02*
G37*
G36*
X21103Y6205D02*
X21113Y6124D01*
X21130Y6044D01*
X21153Y5966D01*
X21182Y5891D01*
X21219Y5817D01*
X21262Y5746D01*
X21311Y5676D01*
X21367Y5608D01*
X21430Y5543D01*
X20170D01*
X20233Y5608D01*
X20289Y5676D01*
X20338Y5746D01*
X20381Y5817D01*
X20417Y5891D01*
X20447Y5966D01*
X20470Y6044D01*
X20487Y6124D01*
X20497Y6205D01*
X20500Y6289D01*
X21100D01*
X21103Y6205D01*
D02*
G37*
G36*
X-2097Y2205D02*
X-2087Y2124D01*
X-2070Y2044D01*
X-2047Y1966D01*
X-2018Y1891D01*
X-1981Y1817D01*
X-1938Y1746D01*
X-1889Y1676D01*
X-1833Y1608D01*
X-1770Y1543D01*
X-3030D01*
X-2967Y1608D01*
X-2911Y1676D01*
X-2862Y1746D01*
X-2819Y1817D01*
X-2782Y1891D01*
X-2753Y1966D01*
X-2730Y2044D01*
X-2713Y2124D01*
X-2703Y2205D01*
X-2700Y2289D01*
X-2100D01*
X-2097Y2205D01*
D02*
G37*
G36*
X34903Y-1395D02*
X34913Y-1476D01*
X34930Y-1556D01*
X34953Y-1633D01*
X34982Y-1709D01*
X35019Y-1783D01*
X35062Y-1854D01*
X35111Y-1924D01*
X35167Y-1992D01*
X35230Y-2057D01*
X33970D01*
X34033Y-1992D01*
X34089Y-1924D01*
X34138Y-1854D01*
X34181Y-1783D01*
X34218Y-1709D01*
X34247Y-1633D01*
X34270Y-1556D01*
X34287Y-1476D01*
X34297Y-1395D01*
X34300Y-1311D01*
X34900D01*
X34903Y-1395D01*
D02*
G37*
G36*
X-1406Y-4130D02*
X-1463Y-4192D01*
X-1513Y-4256D01*
X-1558Y-4324D01*
X-1596Y-4395D01*
X-1629Y-4470D01*
X-1655Y-4547D01*
X-1675Y-4628D01*
X-1690Y-4713D01*
X-1698Y-4800D01*
X-1700Y-4891D01*
X-2591Y-4000D01*
X-2500Y-3998D01*
X-2413Y-3990D01*
X-2328Y-3976D01*
X-2248Y-3955D01*
X-2170Y-3929D01*
X-2095Y-3896D01*
X-2024Y-3858D01*
X-1956Y-3813D01*
X-1892Y-3763D01*
X-1830Y-3706D01*
X-1406Y-4130D01*
D02*
G37*
G36*
X23403Y-7495D02*
X23413Y-7576D01*
X23430Y-7656D01*
X23453Y-7734D01*
X23483Y-7809D01*
X23519Y-7883D01*
X23562Y-7954D01*
X23611Y-8024D01*
X23667Y-8092D01*
X23730Y-8157D01*
X22470D01*
X22533Y-8092D01*
X22589Y-8024D01*
X22638Y-7954D01*
X22681Y-7883D01*
X22717Y-7809D01*
X22747Y-7734D01*
X22770Y-7656D01*
X22787Y-7576D01*
X22797Y-7495D01*
X22800Y-7412D01*
X23400D01*
X23403Y-7495D01*
D02*
G37*
G36*
X-7998Y-9047D02*
X-7991Y-9135D01*
X-7979Y-9218D01*
X-7963Y-9296D01*
X-7942Y-9369D01*
X-7917Y-9437D01*
X-7887Y-9499D01*
X-7853Y-9557D01*
X-7814Y-9610D01*
X-7770Y-9657D01*
X-9030D01*
X-8986Y-9610D01*
X-8947Y-9557D01*
X-8913Y-9499D01*
X-8883Y-9437D01*
X-8857Y-9369D01*
X-8837Y-9296D01*
X-8821Y-9218D01*
X-8809Y-9135D01*
X-8802Y-9047D01*
X-8800Y-8954D01*
X-8000D01*
X-7998Y-9047D01*
D02*
G37*
G36*
X-16666Y-16863D02*
X-16671Y-16884D01*
X-16676Y-16916D01*
X-16683Y-17009D01*
X-16690Y-17318D01*
X-16691Y-17420D01*
X-17891D01*
X-17921Y-16852D01*
X-16661D01*
X-16666Y-16863D01*
D02*
G37*
G36*
X38655Y-24637D02*
X38633Y-24674D01*
X38614Y-24719D01*
X38597Y-24772D01*
X38583Y-24832D01*
X38571Y-24901D01*
X38555Y-25061D01*
X38552Y-25153D01*
X38550Y-25253D01*
X37550D01*
X37549Y-25153D01*
X37530Y-24901D01*
X37518Y-24832D01*
X37503Y-24772D01*
X37486Y-24719D01*
X37467Y-24674D01*
X37445Y-24637D01*
X37420Y-24607D01*
X38680D01*
X38655Y-24637D01*
D02*
G37*
G36*
X-24320Y-35768D02*
X-24700Y-36191D01*
X-25591Y-35300D01*
X-25579Y-35296D01*
X-25561Y-35285D01*
X-25535Y-35266D01*
X-25464Y-35205D01*
X-25241Y-34992D01*
X-25168Y-34920D01*
X-24320Y-35768D01*
D02*
G37*
G36*
X36815Y-35907D02*
X36745Y-35978D01*
X36581Y-36171D01*
X36540Y-36227D01*
X36508Y-36280D01*
X36482Y-36330D01*
X36464Y-36375D01*
X36454Y-36417D01*
X36450Y-36456D01*
X35559Y-35565D01*
X35598Y-35561D01*
X35639Y-35550D01*
X35685Y-35533D01*
X35734Y-35507D01*
X35787Y-35474D01*
X35844Y-35434D01*
X35969Y-35332D01*
X36036Y-35269D01*
X36108Y-35200D01*
X36815Y-35907D01*
D02*
G37*
D10*
X35550Y-36464D02*
X38050Y-33964D01*
Y-23965D01*
D107*
X-56700Y19400D02*
X-53600D01*
X-43900Y29100D02*
Y42400D01*
X-53600Y19400D02*
X-43900Y29100D01*
X34600Y-2700D02*
Y15800D01*
X32300Y18100D02*
X34600Y15800D01*
X25087Y25313D02*
Y39187D01*
Y25313D02*
X32300Y18100D01*
X23100Y-8800D02*
Y37500D01*
X20800Y5000D02*
Y37500D01*
X-1793Y44207D02*
X4193D01*
X-4500Y41500D02*
X-1793Y44207D01*
X-4500Y22300D02*
Y41500D01*
X-2400Y900D02*
Y24300D01*
X3000Y700D02*
Y14900D01*
X-2600Y-4900D02*
X3000Y700D01*
X4700Y25399D02*
Y25500D01*
X4576Y25275D02*
X4700Y25399D01*
X3000Y26851D02*
X4576Y25275D01*
X3000Y26851D02*
Y35949D01*
X3800Y36748D01*
Y36900D01*
X-2500Y24400D02*
X-2400Y24300D01*
D109*
X-25600Y-36200D02*
X-17291Y-27891D01*
Y-16209D01*
D110*
X29900Y26600D02*
Y47500D01*
X20786Y37514D02*
X20800Y37500D01*
X9600Y6900D02*
Y41600D01*
X-14000Y7500D02*
Y25600D01*
X-15200Y26800D02*
X-14000Y25600D01*
X-15200Y26800D02*
Y29000D01*
X-8400Y-10300D02*
Y31400D01*
X-9300Y32300D02*
X-8400Y31400D01*
X-9300Y32300D02*
Y47400D01*
X-11600Y30400D02*
Y46900D01*
Y30400D02*
X-10600Y29400D01*
X6400Y13700D02*
Y29400D01*
Y13700D02*
X6500Y13600D01*
X3200Y21800D02*
Y22000D01*
X1200Y24000D02*
X3200Y22000D01*
X1200Y24000D02*
Y38631D01*
X1900Y39331D01*
Y39600D01*
X-34700Y21200D02*
Y38000D01*
X-37300Y40600D02*
X-34700Y38000D01*
X-15300Y29100D02*
X-15200Y29000D01*
X-15300Y29100D02*
Y46000D01*
X-23000Y29300D02*
X-22800Y29100D01*
X-23000Y29300D02*
Y45000D01*
X-33000Y6200D02*
Y23200D01*
Y6200D02*
X-32900Y6100D01*
D113*
X34600Y-2700D02*
D03*
X29900Y26600D02*
D03*
X20800Y4900D02*
D03*
X-56700Y19400D02*
D03*
X-17291Y-16209D02*
D03*
X-25600Y-36200D02*
D03*
X4193Y44207D02*
D03*
X-4500Y22300D02*
D03*
X29900Y47500D02*
D03*
X23100Y37500D02*
D03*
X25087Y39187D02*
D03*
X20786Y37514D02*
D03*
X-2400Y900D02*
D03*
X9600Y6900D02*
D03*
X-14000Y7500D02*
D03*
X-2600Y-4900D02*
D03*
X23100Y-8800D02*
D03*
X9600Y41600D02*
D03*
X-43900Y42400D02*
D03*
X-8400Y-10300D02*
D03*
X-9300Y47400D02*
D03*
X-11600Y46900D02*
D03*
X6500Y13600D02*
D03*
X6400Y29400D02*
D03*
X4700Y25500D02*
D03*
X-2500Y24400D02*
D03*
X3800Y36900D02*
D03*
X3000Y14900D02*
D03*
X1900Y39600D02*
D03*
X-37300Y40600D02*
D03*
X-34700Y21200D02*
D03*
X3200Y21800D02*
D03*
X-15300Y46000D02*
D03*
X-23000Y45000D02*
D03*
X-32900Y6100D02*
D03*
X-33000Y23200D02*
D03*
X-10600Y29400D02*
D03*
X-15200Y26800D02*
D03*
X-22800Y29100D02*
D03*
X35550Y-36464D02*
D03*
X38050Y-23965D02*
D03*
M02*
