G04*
G04 #@! TF.GenerationSoftware,Altium Limited,Altium Designer,20.2.6 (244)*
G04*
G04 Layer_Physical_Order=5*
G04 Layer_Color=16737945*
%FSLAX25Y25*%
%MOIN*%
G70*
G04*
G04 #@! TF.SameCoordinates,E73447B6-61B4-4EEF-956E-7A2C62B3FEF5*
G04*
G04*
G04 #@! TF.FilePolarity,Positive*
G04*
G01*
G75*
%ADD107C,0.00600*%
%ADD108C,0.01400*%
%ADD110C,0.00800*%
%ADD113C,0.01800*%
G36*
X22653Y62918D02*
X28320Y61721D01*
X33924Y60258D01*
X39453Y58533D01*
X41865Y57655D01*
X43410Y55382D01*
X44239Y53991D01*
X43867Y53638D01*
X43341Y53990D01*
X42600Y54137D01*
X41859Y53990D01*
X41230Y53570D01*
X40810Y52941D01*
X40663Y52200D01*
X40810Y51459D01*
X41230Y50830D01*
X41859Y50410D01*
X42600Y50263D01*
X43341Y50410D01*
X43970Y50830D01*
X44390Y51459D01*
X44537Y52200D01*
X44443Y52672D01*
X44917Y52854D01*
X46561Y50096D01*
X49390Y44632D01*
X51888Y39008D01*
X54047Y33245D01*
X55857Y27364D01*
X57313Y21385D01*
X57468Y20527D01*
X57017Y20214D01*
X56400Y20337D01*
X55659Y20190D01*
X55030Y19770D01*
X54610Y19141D01*
X54463Y18400D01*
X54610Y17659D01*
X54703Y17520D01*
X54436Y17020D01*
X52651D01*
X52261Y16942D01*
X51985Y16828D01*
X51984Y16827D01*
X44790D01*
X44715Y16878D01*
X44439Y16992D01*
X44439Y16992D01*
X44195Y17041D01*
X44049Y17070D01*
X44049Y17070D01*
X44049Y17070D01*
X43900Y17070D01*
X37001Y17070D01*
X36611Y16992D01*
X36335Y16878D01*
X36260Y16827D01*
X36227D01*
X36163Y16763D01*
X36004Y16657D01*
X35793Y16446D01*
X35572Y16115D01*
X35458Y15839D01*
X35380Y15449D01*
X35380Y9200D01*
X35380Y9200D01*
X35380Y-408D01*
X34880Y-819D01*
X34600Y-763D01*
X33859Y-910D01*
X33230Y-1330D01*
X32810Y-1959D01*
X32663Y-2700D01*
X32810Y-3441D01*
X33230Y-4070D01*
X33859Y-4490D01*
X34600Y-4637D01*
X35341Y-4490D01*
X35970Y-4070D01*
X36390Y-3441D01*
X36413Y-3324D01*
X36611Y-2892D01*
X37001Y-2970D01*
X43900D01*
X44049Y-2970D01*
X44049Y-2970D01*
X44049Y-2970D01*
X44219Y-2936D01*
X44439Y-2892D01*
X44439Y-2892D01*
X44715Y-2778D01*
X44715Y-2778D01*
X44922Y-2639D01*
X45046Y-2557D01*
X45257Y-2346D01*
X45354Y-2200D01*
X49523D01*
X49675Y-2700D01*
X49330Y-2930D01*
X48910Y-3559D01*
X48763Y-4300D01*
X48910Y-5041D01*
X49330Y-5670D01*
X49959Y-6090D01*
X50700Y-6237D01*
X51441Y-6090D01*
X52070Y-5670D01*
X52490Y-5041D01*
X52637Y-4300D01*
X52490Y-3559D01*
X52443Y-3488D01*
X52566Y-3211D01*
X52731Y-3020D01*
X59025D01*
X59484Y-3520D01*
X59198Y-8300D01*
X33183D01*
X32937Y-8000D01*
X32790Y-7259D01*
X32617Y-7000D01*
X32790Y-6741D01*
X32937Y-6000D01*
X32790Y-5259D01*
X32370Y-4630D01*
X31741Y-4210D01*
X31000Y-4063D01*
X30259Y-4210D01*
X29630Y-4630D01*
X29210Y-5259D01*
X29063Y-6000D01*
X29210Y-6741D01*
X29383Y-7000D01*
X29210Y-7259D01*
X29063Y-8000D01*
X28817Y-8300D01*
X24938D01*
X24890Y-8059D01*
X24470Y-7430D01*
X23841Y-7010D01*
X23100Y-6863D01*
X22359Y-7010D01*
X21730Y-7430D01*
X21310Y-8059D01*
X21262Y-8300D01*
X2008D01*
X1740Y-7800D01*
X1984Y-7435D01*
X2131Y-6694D01*
X1984Y-5953D01*
X1564Y-5324D01*
X935Y-4904D01*
X194Y-4757D01*
X-204Y-4836D01*
X-556Y-4885D01*
X-748Y-4473D01*
X-810Y-4159D01*
X-1230Y-3530D01*
X-1859Y-3110D01*
X-2600Y-2963D01*
X-3341Y-3110D01*
X-3970Y-3530D01*
X-4390Y-4159D01*
X-4537Y-4900D01*
X-4390Y-5641D01*
X-3970Y-6270D01*
X-3341Y-6690D01*
X-2600Y-6837D01*
X-2201Y-6758D01*
X-1850Y-6709D01*
X-1658Y-7121D01*
X-1596Y-7435D01*
X-1352Y-7800D01*
X-1619Y-8300D01*
X-3517D01*
X-3630Y-8130D01*
X-4259Y-7710D01*
X-5000Y-7563D01*
X-5741Y-7710D01*
X-6370Y-8130D01*
X-6483Y-8300D01*
X-21308D01*
X-21625Y-7914D01*
X-21563Y-7600D01*
X-21710Y-6859D01*
X-22130Y-6230D01*
X-22759Y-5810D01*
X-23500Y-5663D01*
X-24241Y-5810D01*
X-24870Y-6230D01*
X-25290Y-6859D01*
X-25437Y-7600D01*
X-25375Y-7914D01*
X-25692Y-8300D01*
X-36968Y-8300D01*
X-37285Y-7914D01*
X-37263Y-7800D01*
X-37410Y-7059D01*
X-37830Y-6430D01*
X-38459Y-6010D01*
X-39200Y-5863D01*
X-39941Y-6010D01*
X-40570Y-6430D01*
X-40990Y-7059D01*
X-41137Y-7800D01*
X-41115Y-7914D01*
X-41432Y-8300D01*
X-59244D01*
X-59558Y-3079D01*
Y3079D01*
X-59189Y9225D01*
X-59001Y10783D01*
X-58468Y11028D01*
X-58141Y10810D01*
X-57400Y10663D01*
X-56659Y10810D01*
X-56030Y11230D01*
X-55610Y11859D01*
X-55463Y12600D01*
X-55610Y13341D01*
X-56030Y13970D01*
X-56659Y14390D01*
X-57400Y14537D01*
X-58060Y14406D01*
X-58530Y14685D01*
X-58451Y15338D01*
X-58055Y17517D01*
X-57594Y17713D01*
X-57441Y17610D01*
X-56700Y17463D01*
X-55959Y17610D01*
X-55330Y18030D01*
X-54910Y18659D01*
X-54763Y19400D01*
X-54910Y20141D01*
X-55330Y20770D01*
X-55959Y21190D01*
X-56700Y21337D01*
X-56856Y21306D01*
X-57266Y21734D01*
X-56709Y24008D01*
X-56197Y23997D01*
X-56190Y23959D01*
X-55770Y23330D01*
X-55141Y22910D01*
X-54400Y22763D01*
X-53659Y22910D01*
X-53030Y23330D01*
X-52610Y23959D01*
X-52463Y24700D01*
X-52610Y25441D01*
X-53030Y26070D01*
X-53659Y26490D01*
X-54400Y26637D01*
X-55141Y26490D01*
X-55674Y26134D01*
X-56040Y26309D01*
X-56127Y26387D01*
X-55885Y27376D01*
X-54065Y33258D01*
X-51896Y39020D01*
X-49384Y44642D01*
X-46541Y50103D01*
X-43374Y55384D01*
X-41821Y57654D01*
X-39407Y58533D01*
X-33878Y60258D01*
X-28274Y61721D01*
X-26394Y62118D01*
X-26104Y61668D01*
X-26237Y61000D01*
X-26090Y60259D01*
X-25670Y59630D01*
X-25041Y59210D01*
X-24300Y59063D01*
X-23559Y59210D01*
X-22930Y59630D01*
X-22510Y60259D01*
X-22363Y61000D01*
X-22510Y61741D01*
X-22930Y62370D01*
X-22941Y62377D01*
X-22846Y62868D01*
X-22608Y62918D01*
X-19831Y63370D01*
X-6276D01*
Y63006D01*
X-3815D01*
Y62082D01*
X-4315Y61741D01*
X-4800Y61837D01*
X-5541Y61690D01*
X-6170Y61270D01*
X-6590Y60641D01*
X-6737Y59900D01*
X-6590Y59159D01*
X-6170Y58530D01*
X-5541Y58110D01*
X-4800Y57963D01*
X-4315Y58059D01*
X-3856Y57746D01*
Y57254D01*
X-4315Y56941D01*
X-4800Y57037D01*
X-5541Y56890D01*
X-6170Y56470D01*
X-6590Y55841D01*
X-6737Y55100D01*
X-6590Y54359D01*
X-6170Y53730D01*
X-5541Y53310D01*
X-4800Y53163D01*
X-4315Y53259D01*
X-3815Y52917D01*
Y51687D01*
X1519D01*
X1860Y51187D01*
X1763Y50700D01*
X1910Y49959D01*
X2330Y49330D01*
X2959Y48910D01*
X3700Y48763D01*
X4441Y48910D01*
X5070Y49330D01*
X5490Y49959D01*
X5637Y50700D01*
X5540Y51187D01*
X5881Y51687D01*
X6619D01*
X6960Y51187D01*
X6863Y50700D01*
X7010Y49959D01*
X7430Y49330D01*
X8059Y48910D01*
X8800Y48763D01*
X9541Y48910D01*
X10170Y49330D01*
X10590Y49959D01*
X10737Y50700D01*
X10640Y51187D01*
X10981Y51687D01*
X15870D01*
Y53073D01*
X16311Y53309D01*
X16459Y53210D01*
X17200Y53063D01*
X17941Y53210D01*
X18570Y53630D01*
X18990Y54259D01*
X19137Y55000D01*
X18990Y55741D01*
X18570Y56370D01*
X17941Y56790D01*
X17200Y56937D01*
X16459Y56790D01*
X16311Y56691D01*
X15870Y56927D01*
X15870Y57973D01*
X16311Y58209D01*
X16459Y58110D01*
X17200Y57963D01*
X17941Y58110D01*
X18570Y58530D01*
X18990Y59159D01*
X19137Y59900D01*
X18990Y60641D01*
X18570Y61270D01*
X17941Y61690D01*
X17200Y61837D01*
X16459Y61690D01*
X16311Y61591D01*
X15870Y61827D01*
Y63006D01*
X18921Y63006D01*
Y63370D01*
X19876D01*
X22653Y62918D01*
D02*
G37*
G36*
X59004Y-10374D02*
X58410Y-15330D01*
X57313Y-21385D01*
X55857Y-27364D01*
X54047Y-33245D01*
X51888Y-39008D01*
X49390Y-44632D01*
X46561Y-50096D01*
X43410Y-55382D01*
X41865Y-57655D01*
X39453Y-58533D01*
X33924Y-60258D01*
X28320Y-61721D01*
X22653Y-62918D01*
X19876Y-63370D01*
X-19831Y-63370D01*
X-22608Y-62918D01*
X-28274Y-61721D01*
X-33878Y-60258D01*
X-39407Y-58533D01*
X-41821Y-57654D01*
X-43374Y-55384D01*
X-46541Y-50103D01*
X-49384Y-44642D01*
X-51896Y-39020D01*
X-54065Y-33258D01*
X-55885Y-27376D01*
X-57349Y-21395D01*
X-58451Y-15337D01*
X-59050Y-10374D01*
X-58718Y-10000D01*
X-46784D01*
X-46517Y-10500D01*
X-46690Y-10759D01*
X-46837Y-11500D01*
X-46690Y-12241D01*
X-46270Y-12870D01*
X-45641Y-13290D01*
X-44900Y-13437D01*
X-44159Y-13290D01*
X-43530Y-12870D01*
X-43110Y-12241D01*
X-42963Y-11500D01*
X-43110Y-10759D01*
X-43283Y-10500D01*
X-43016Y-10000D01*
X-10583D01*
X-10337Y-10300D01*
X-10190Y-11041D01*
X-9770Y-11670D01*
X-9141Y-12090D01*
X-8400Y-12237D01*
X-7659Y-12090D01*
X-7422Y-11931D01*
X-7330Y-11945D01*
X-6900Y-12184D01*
X-6790Y-12741D01*
X-6370Y-13370D01*
X-5741Y-13790D01*
X-5000Y-13937D01*
X-4259Y-13790D01*
X-3630Y-13370D01*
X-3210Y-12741D01*
X-3063Y-12000D01*
X-3210Y-11259D01*
X-3550Y-10750D01*
X-3210Y-10241D01*
X-3162Y-10000D01*
X21617D01*
X21730Y-10170D01*
X22359Y-10590D01*
X23100Y-10737D01*
X23841Y-10590D01*
X24470Y-10170D01*
X24583Y-10000D01*
X58673D01*
X59004Y-10374D01*
D02*
G37*
%LPC*%
G36*
X-14400Y62837D02*
X-15141Y62690D01*
X-15770Y62270D01*
X-16190Y61641D01*
X-16337Y60900D01*
X-16190Y60159D01*
X-15770Y59530D01*
X-15141Y59110D01*
X-14400Y58963D01*
X-13659Y59110D01*
X-13030Y59530D01*
X-12610Y60159D01*
X-12463Y60900D01*
X-12610Y61641D01*
X-13030Y62270D01*
X-13659Y62690D01*
X-14400Y62837D01*
D02*
G37*
G36*
X29200Y58337D02*
X28459Y58190D01*
X27830Y57770D01*
X27410Y57141D01*
X27263Y56400D01*
X27410Y55659D01*
X27830Y55030D01*
X28459Y54610D01*
X29200Y54463D01*
X29941Y54610D01*
X30570Y55030D01*
X30990Y55659D01*
X31137Y56400D01*
X30990Y57141D01*
X30570Y57770D01*
X29941Y58190D01*
X29200Y58337D01*
D02*
G37*
G36*
X-41872Y53066D02*
X-42613Y52918D01*
X-43242Y52498D01*
X-43661Y51870D01*
X-43809Y51128D01*
X-43661Y50387D01*
X-43242Y49758D01*
X-42613Y49339D01*
X-41872Y49191D01*
X-41130Y49339D01*
X-40502Y49758D01*
X-40082Y50387D01*
X-39934Y51128D01*
X-40082Y51870D01*
X-40502Y52498D01*
X-41130Y52918D01*
X-41872Y53066D01*
D02*
G37*
G36*
X-11100Y52837D02*
X-11841Y52690D01*
X-12470Y52270D01*
X-12890Y51641D01*
X-13037Y50900D01*
X-12890Y50159D01*
X-12470Y49530D01*
X-12059Y49256D01*
X-12165Y48725D01*
X-12341Y48690D01*
X-12970Y48270D01*
X-13390Y47641D01*
X-13417Y47502D01*
X-13930Y47370D01*
X-14559Y47790D01*
X-15300Y47937D01*
X-16041Y47790D01*
X-16670Y47370D01*
X-17090Y46741D01*
X-17237Y46000D01*
X-17090Y45259D01*
X-16670Y44630D01*
X-16041Y44210D01*
X-15300Y44063D01*
X-14559Y44210D01*
X-13930Y44630D01*
X-13510Y45259D01*
X-13483Y45398D01*
X-12970Y45530D01*
X-12341Y45110D01*
X-11600Y44963D01*
X-10859Y45110D01*
X-10230Y45530D01*
X-10135Y45673D01*
X-10041Y45610D01*
X-9310Y45465D01*
X-9190Y44859D01*
X-8770Y44230D01*
X-8141Y43810D01*
X-7400Y43663D01*
X-6659Y43810D01*
X-6030Y44230D01*
X-5610Y44859D01*
X-5463Y45600D01*
X-5610Y46341D01*
X-6030Y46970D01*
X-6659Y47390D01*
X-7390Y47535D01*
X-7510Y48141D01*
X-7557Y48212D01*
X-7530Y48230D01*
X-7110Y48859D01*
X-6963Y49600D01*
X-7110Y50341D01*
X-7530Y50970D01*
X-8159Y51390D01*
X-8900Y51537D01*
X-9275Y51463D01*
X-9310Y51641D01*
X-9730Y52270D01*
X-10359Y52690D01*
X-11100Y52837D01*
D02*
G37*
G36*
X29900Y49437D02*
X29159Y49290D01*
X28530Y48870D01*
X28110Y48241D01*
X27963Y47500D01*
X28110Y46759D01*
X28530Y46130D01*
X29159Y45710D01*
X29900Y45563D01*
X30641Y45710D01*
X31270Y46130D01*
X31690Y46759D01*
X31837Y47500D01*
X31690Y48241D01*
X31270Y48870D01*
X30641Y49290D01*
X29900Y49437D01*
D02*
G37*
G36*
X-29400Y49137D02*
X-30141Y48990D01*
X-30770Y48570D01*
X-31190Y47941D01*
X-31337Y47200D01*
X-31190Y46459D01*
X-30770Y45830D01*
X-30141Y45410D01*
X-29400Y45263D01*
X-28659Y45410D01*
X-28030Y45830D01*
X-27610Y46459D01*
X-27463Y47200D01*
X-27610Y47941D01*
X-28030Y48570D01*
X-28659Y48990D01*
X-29400Y49137D01*
D02*
G37*
G36*
X600Y48837D02*
X-141Y48690D01*
X-770Y48270D01*
X-1190Y47641D01*
X-1337Y46900D01*
X-1190Y46159D01*
X-770Y45530D01*
X-141Y45110D01*
X600Y44963D01*
X1341Y45110D01*
X1970Y45530D01*
X2390Y46159D01*
X2537Y46900D01*
X2390Y47641D01*
X1970Y48270D01*
X1341Y48690D01*
X600Y48837D01*
D02*
G37*
G36*
X-34300Y47037D02*
X-35041Y46890D01*
X-35670Y46470D01*
X-36090Y45841D01*
X-36237Y45100D01*
X-36090Y44359D01*
X-35670Y43730D01*
X-35041Y43310D01*
X-34300Y43163D01*
X-33559Y43310D01*
X-32930Y43730D01*
X-32510Y44359D01*
X-32363Y45100D01*
X-32510Y45841D01*
X-32930Y46470D01*
X-33559Y46890D01*
X-34300Y47037D01*
D02*
G37*
G36*
X-23100Y49137D02*
X-23841Y48990D01*
X-24470Y48570D01*
X-24890Y47941D01*
X-25037Y47200D01*
X-24890Y46459D01*
X-24600Y46025D01*
X-24790Y45741D01*
X-24937Y45000D01*
X-24790Y44259D01*
X-24370Y43630D01*
X-23741Y43210D01*
X-23000Y43063D01*
X-22259Y43210D01*
X-21630Y43630D01*
X-21210Y44259D01*
X-21063Y45000D01*
X-21210Y45741D01*
X-21500Y46175D01*
X-21310Y46459D01*
X-21163Y47200D01*
X-21310Y47941D01*
X-21730Y48570D01*
X-22359Y48990D01*
X-23100Y49137D01*
D02*
G37*
G36*
X24266Y44471D02*
X23525Y44324D01*
X22896Y43904D01*
X22476Y43275D01*
X22359Y42686D01*
X22100Y42737D01*
X21359Y42590D01*
X20730Y42170D01*
X20310Y41541D01*
X20163Y40800D01*
X20310Y40059D01*
X20474Y39813D01*
X20283Y39351D01*
X20044Y39304D01*
X19416Y38884D01*
X18996Y38256D01*
X18849Y37514D01*
X18996Y36773D01*
X19416Y36144D01*
X20044Y35724D01*
X20786Y35577D01*
X21527Y35724D01*
X21932Y35995D01*
X22359Y35710D01*
X23100Y35563D01*
X23841Y35710D01*
X24470Y36130D01*
X24890Y36759D01*
X24991Y37269D01*
X25087Y37250D01*
X25829Y37398D01*
X26457Y37818D01*
X26877Y38446D01*
X27025Y39187D01*
X26877Y39929D01*
X26457Y40557D01*
X25993Y40867D01*
X25830Y41003D01*
X25849Y41483D01*
X26056Y41793D01*
X26203Y42534D01*
X26056Y43275D01*
X25636Y43904D01*
X25008Y44324D01*
X24266Y44471D01*
D02*
G37*
G36*
X4193Y46144D02*
X3452Y45997D01*
X2823Y45577D01*
X2403Y44948D01*
X2256Y44207D01*
X2403Y43466D01*
X2823Y42837D01*
X3452Y42417D01*
X4193Y42270D01*
X4934Y42417D01*
X5563Y42837D01*
X5983Y43466D01*
X6130Y44207D01*
X5983Y44948D01*
X5563Y45577D01*
X4934Y45997D01*
X4193Y46144D01*
D02*
G37*
G36*
X9000Y46137D02*
X8259Y45990D01*
X7630Y45570D01*
X7210Y44941D01*
X7063Y44200D01*
X7210Y43459D01*
X7630Y42830D01*
X7981Y42596D01*
X7810Y42341D01*
X7702Y41798D01*
X7159Y41690D01*
X6530Y41270D01*
X6343Y40989D01*
X5741Y40790D01*
X5000Y40937D01*
X4259Y40790D01*
X3658Y40389D01*
X3270Y40970D01*
X2641Y41390D01*
X1900Y41537D01*
X1718Y41501D01*
X1690Y41641D01*
X1270Y42270D01*
X641Y42690D01*
X-100Y42837D01*
X-841Y42690D01*
X-1470Y42270D01*
X-1890Y41641D01*
X-2037Y40900D01*
X-1890Y40159D01*
X-1470Y39530D01*
X-841Y39110D01*
X-100Y38963D01*
X82Y38999D01*
X110Y38859D01*
X530Y38230D01*
X1159Y37810D01*
X1900Y37663D01*
X1920Y37188D01*
X1863Y36900D01*
X2010Y36159D01*
X2430Y35530D01*
X3059Y35110D01*
X3800Y34963D01*
X4541Y35110D01*
X5170Y35530D01*
X5590Y36159D01*
X5737Y36900D01*
X5678Y37198D01*
X5741Y37210D01*
X6370Y37630D01*
X6557Y37911D01*
X7159Y38110D01*
X7900Y37963D01*
X8641Y38110D01*
X9270Y38530D01*
X9455Y38808D01*
X9496Y38821D01*
X10034Y38774D01*
X10330Y38330D01*
X10959Y37910D01*
X11700Y37763D01*
X12441Y37910D01*
X13070Y38330D01*
X13490Y38959D01*
X13637Y39700D01*
X13490Y40441D01*
X13070Y41070D01*
X12441Y41490D01*
X11700Y41637D01*
X11536Y41605D01*
X11390Y42341D01*
X10970Y42970D01*
X10620Y43204D01*
X10790Y43459D01*
X10937Y44200D01*
X10790Y44941D01*
X10370Y45570D01*
X9741Y45990D01*
X9000Y46137D01*
D02*
G37*
G36*
X31700Y44537D02*
X30959Y44390D01*
X30330Y43970D01*
X29910Y43341D01*
X29763Y42600D01*
X29910Y41859D01*
X30330Y41230D01*
X30959Y40810D01*
X31700Y40663D01*
X32441Y40810D01*
X33070Y41230D01*
X33490Y41859D01*
X33637Y42600D01*
X33490Y43341D01*
X33070Y43970D01*
X32441Y44390D01*
X31700Y44537D01*
D02*
G37*
G36*
X-43900Y44337D02*
X-44641Y44190D01*
X-45270Y43770D01*
X-45690Y43141D01*
X-45837Y42400D01*
X-45690Y41659D01*
X-45270Y41030D01*
X-44641Y40610D01*
X-43900Y40463D01*
X-43159Y40610D01*
X-42530Y41030D01*
X-42110Y41659D01*
X-41963Y42400D01*
X-42110Y43141D01*
X-42530Y43770D01*
X-43159Y44190D01*
X-43900Y44337D01*
D02*
G37*
G36*
X36900Y47837D02*
X36159Y47690D01*
X35530Y47270D01*
X35110Y46641D01*
X34963Y45900D01*
X35110Y45159D01*
X35530Y44530D01*
X36159Y44110D01*
X36900Y43963D01*
X37139Y44010D01*
X37334Y43539D01*
X37230Y43470D01*
X36810Y42841D01*
X36663Y42100D01*
X36810Y41359D01*
X37230Y40730D01*
X37859Y40310D01*
X38600Y40163D01*
X39341Y40310D01*
X39970Y40730D01*
X40390Y41359D01*
X40537Y42100D01*
X40390Y42841D01*
X39970Y43470D01*
X39341Y43890D01*
X38600Y44037D01*
X38361Y43990D01*
X38166Y44461D01*
X38270Y44530D01*
X38690Y45159D01*
X38837Y45900D01*
X38690Y46641D01*
X38270Y47270D01*
X37641Y47690D01*
X36900Y47837D01*
D02*
G37*
G36*
X-37300Y42537D02*
X-38041Y42390D01*
X-38670Y41970D01*
X-39090Y41341D01*
X-39237Y40600D01*
X-39090Y39859D01*
X-38670Y39230D01*
X-38041Y38810D01*
X-37300Y38663D01*
X-36559Y38810D01*
X-35930Y39230D01*
X-35510Y39859D01*
X-35363Y40600D01*
X-35510Y41341D01*
X-35930Y41970D01*
X-36559Y42390D01*
X-37300Y42537D01*
D02*
G37*
G36*
X47977Y41714D02*
X47236Y41567D01*
X46607Y41147D01*
X46187Y40519D01*
X46040Y39777D01*
X46187Y39036D01*
X46607Y38407D01*
X47236Y37987D01*
X47977Y37840D01*
X48719Y37987D01*
X49347Y38407D01*
X49767Y39036D01*
X49914Y39777D01*
X49767Y40519D01*
X49347Y41147D01*
X48719Y41567D01*
X47977Y41714D01*
D02*
G37*
G36*
X49600Y37637D02*
X48859Y37490D01*
X48230Y37070D01*
X47810Y36441D01*
X47663Y35700D01*
X47810Y34959D01*
X48230Y34330D01*
X48859Y33910D01*
X49600Y33763D01*
X50341Y33910D01*
X50970Y34330D01*
X51390Y34959D01*
X51537Y35700D01*
X51390Y36441D01*
X50970Y37070D01*
X50341Y37490D01*
X49600Y37637D01*
D02*
G37*
G36*
X-45900Y36637D02*
X-46641Y36490D01*
X-47270Y36070D01*
X-47690Y35441D01*
X-47837Y34700D01*
X-47690Y33959D01*
X-47270Y33330D01*
X-46641Y32910D01*
X-45900Y32763D01*
X-45159Y32910D01*
X-44530Y33330D01*
X-44110Y33959D01*
X-43963Y34700D01*
X-44110Y35441D01*
X-44530Y36070D01*
X-45159Y36490D01*
X-45900Y36637D01*
D02*
G37*
G36*
X36300Y37437D02*
X35559Y37290D01*
X34930Y36870D01*
X34510Y36241D01*
X34363Y35500D01*
X34510Y34759D01*
X34930Y34130D01*
X35559Y33710D01*
X35861Y33650D01*
X35982Y33043D01*
X36402Y32414D01*
X37030Y31995D01*
X37589Y31883D01*
X38007Y31423D01*
X37963Y31200D01*
X38110Y30459D01*
X38530Y29830D01*
X39159Y29410D01*
X39900Y29263D01*
X40641Y29410D01*
X41270Y29830D01*
X41690Y30459D01*
X41837Y31200D01*
X41690Y31941D01*
X41270Y32570D01*
X40641Y32990D01*
X40083Y33101D01*
X39664Y33561D01*
X39709Y33784D01*
X39561Y34526D01*
X39141Y35154D01*
X38513Y35574D01*
X38210Y35634D01*
X38090Y36241D01*
X37670Y36870D01*
X37041Y37290D01*
X36300Y37437D01*
D02*
G37*
G36*
X49000Y33037D02*
X48259Y32890D01*
X47630Y32470D01*
X47210Y31841D01*
X47063Y31100D01*
X47210Y30359D01*
X47630Y29730D01*
X48259Y29310D01*
X49000Y29163D01*
X49741Y29310D01*
X50370Y29730D01*
X50790Y30359D01*
X50937Y31100D01*
X50790Y31841D01*
X50370Y32470D01*
X49741Y32890D01*
X49000Y33037D01*
D02*
G37*
G36*
X29900Y28537D02*
X29159Y28390D01*
X28650Y28050D01*
X28141Y28390D01*
X27400Y28537D01*
X26659Y28390D01*
X26030Y27970D01*
X25610Y27341D01*
X25463Y26600D01*
X25610Y25859D01*
X26030Y25230D01*
X26659Y24810D01*
X27400Y24663D01*
X28141Y24810D01*
X28650Y25150D01*
X29159Y24810D01*
X29900Y24663D01*
X30641Y24810D01*
X31270Y25230D01*
X31690Y25859D01*
X31837Y26600D01*
X31690Y27341D01*
X31270Y27970D01*
X30641Y28390D01*
X29900Y28537D01*
D02*
G37*
G36*
X-2800Y31837D02*
X-3541Y31690D01*
X-4170Y31270D01*
X-4590Y30641D01*
X-4737Y29900D01*
X-4590Y29159D01*
X-4170Y28530D01*
X-3541Y28110D01*
X-2800Y27963D01*
X-2059Y28110D01*
X-1430Y28530D01*
X-1010Y29159D01*
X-863Y29900D01*
X-1010Y30641D01*
X-1430Y31270D01*
X-2059Y31690D01*
X-2800Y31837D01*
D02*
G37*
G36*
X-13600Y33137D02*
X-14341Y32990D01*
X-14970Y32570D01*
X-15390Y31941D01*
X-15537Y31200D01*
X-15390Y30459D01*
X-14970Y29830D01*
X-14341Y29410D01*
X-13600Y29263D01*
X-13004Y29381D01*
X-12834Y29388D01*
X-12471Y29068D01*
X-12390Y28659D01*
X-11970Y28030D01*
X-11341Y27610D01*
X-10600Y27463D01*
X-9859Y27610D01*
X-9230Y28030D01*
X-8810Y28659D01*
X-8663Y29400D01*
X-8810Y30141D01*
X-9230Y30770D01*
X-9859Y31190D01*
X-10600Y31337D01*
X-11196Y31219D01*
X-11366Y31212D01*
X-11729Y31532D01*
X-11810Y31941D01*
X-12230Y32570D01*
X-12859Y32990D01*
X-13600Y33137D01*
D02*
G37*
G36*
X-49800Y32837D02*
X-50541Y32690D01*
X-51170Y32270D01*
X-51590Y31641D01*
X-51737Y30900D01*
X-51590Y30159D01*
X-51170Y29530D01*
X-50541Y29110D01*
X-50218Y29046D01*
X-49820Y28488D01*
X-49837Y28400D01*
X-49690Y27659D01*
X-49270Y27030D01*
X-48641Y26610D01*
X-47900Y26463D01*
X-47159Y26610D01*
X-46530Y27030D01*
X-46110Y27659D01*
X-45963Y28400D01*
X-46110Y29141D01*
X-46530Y29770D01*
X-47159Y30190D01*
X-47482Y30254D01*
X-47880Y30812D01*
X-47863Y30900D01*
X-48010Y31641D01*
X-48430Y32270D01*
X-49059Y32690D01*
X-49800Y32837D01*
D02*
G37*
G36*
X-22800Y31037D02*
X-23541Y30890D01*
X-24170Y30470D01*
X-24590Y29841D01*
X-24737Y29100D01*
X-24590Y28359D01*
X-24170Y27730D01*
X-23541Y27310D01*
X-23163Y27235D01*
Y26725D01*
X-23341Y26690D01*
X-23970Y26270D01*
X-24390Y25641D01*
X-24537Y24900D01*
X-24390Y24159D01*
X-23970Y23530D01*
X-23341Y23110D01*
X-22600Y22963D01*
X-21859Y23110D01*
X-21230Y23530D01*
X-20810Y24159D01*
X-20663Y24900D01*
X-20810Y25641D01*
X-21230Y26270D01*
X-21859Y26690D01*
X-22237Y26765D01*
Y27275D01*
X-22059Y27310D01*
X-21430Y27730D01*
X-21010Y28359D01*
X-20863Y29100D01*
X-21010Y29841D01*
X-21430Y30470D01*
X-22059Y30890D01*
X-22800Y31037D01*
D02*
G37*
G36*
X-15200Y28737D02*
X-15941Y28590D01*
X-16570Y28170D01*
X-16990Y27541D01*
X-17137Y26800D01*
X-17036Y26291D01*
X-17041Y26290D01*
X-17670Y25870D01*
X-18090Y25241D01*
X-18237Y24500D01*
X-18090Y23759D01*
X-17670Y23130D01*
X-17041Y22710D01*
X-16300Y22563D01*
X-15559Y22710D01*
X-14930Y23130D01*
X-14510Y23759D01*
X-14363Y24500D01*
X-14464Y25009D01*
X-14459Y25010D01*
X-13830Y25430D01*
X-13410Y26059D01*
X-13263Y26800D01*
X-13410Y27541D01*
X-13830Y28170D01*
X-14459Y28590D01*
X-15200Y28737D01*
D02*
G37*
G36*
X53526Y26212D02*
X52784Y26064D01*
X52156Y25644D01*
X51736Y25016D01*
X51588Y24274D01*
X51736Y23533D01*
X52156Y22905D01*
X52784Y22485D01*
X53526Y22337D01*
X54267Y22485D01*
X54895Y22905D01*
X55315Y23533D01*
X55463Y24274D01*
X55315Y25016D01*
X54895Y25644D01*
X54267Y26064D01*
X53526Y26212D01*
D02*
G37*
G36*
X-2500Y26337D02*
X-3241Y26190D01*
X-3870Y25770D01*
X-4290Y25141D01*
X-4373Y24722D01*
X-4500Y24237D01*
X-5241Y24090D01*
X-5870Y23670D01*
X-6290Y23041D01*
X-6437Y22300D01*
X-6290Y21559D01*
X-5870Y20930D01*
X-5241Y20510D01*
X-4500Y20363D01*
X-3759Y20510D01*
X-3130Y20930D01*
X-2710Y21559D01*
X-2627Y21978D01*
X-2539Y22312D01*
X-2101Y22542D01*
X-1759Y22610D01*
X-1130Y23030D01*
X-710Y23659D01*
X-563Y24400D01*
X-710Y25141D01*
X-1130Y25770D01*
X-1759Y26190D01*
X-2500Y26337D01*
D02*
G37*
G36*
X6400Y31337D02*
X5659Y31190D01*
X5030Y30770D01*
X4610Y30141D01*
X4523Y29702D01*
X3959Y29590D01*
X3330Y29170D01*
X2910Y28541D01*
X2763Y27800D01*
X2910Y27059D01*
X3183Y26650D01*
X2910Y26241D01*
X2763Y25500D01*
X2910Y24759D01*
X3269Y24222D01*
X3249Y24081D01*
X3178Y23893D01*
X3060Y23709D01*
X2459Y23590D01*
X1830Y23170D01*
X1410Y22541D01*
X1263Y21800D01*
X1410Y21059D01*
X1830Y20430D01*
X2459Y20010D01*
X3200Y19863D01*
X3941Y20010D01*
X4570Y20430D01*
X4990Y21059D01*
X5137Y21800D01*
X4990Y22541D01*
X4631Y23078D01*
X4651Y23219D01*
X4722Y23407D01*
X4840Y23591D01*
X5441Y23710D01*
X6070Y24130D01*
X6490Y24759D01*
X6637Y25500D01*
X6490Y26241D01*
X6217Y26650D01*
X6490Y27059D01*
X6577Y27498D01*
X7141Y27610D01*
X7770Y28030D01*
X8190Y28659D01*
X8337Y29400D01*
X8190Y30141D01*
X7770Y30770D01*
X7141Y31190D01*
X6400Y31337D01*
D02*
G37*
G36*
X48177Y23660D02*
X47436Y23513D01*
X46807Y23093D01*
X46387Y22464D01*
X46240Y21723D01*
X46387Y20981D01*
X46807Y20353D01*
X47436Y19933D01*
X48177Y19786D01*
X48919Y19933D01*
X49547Y20353D01*
X49967Y20981D01*
X50114Y21723D01*
X49967Y22464D01*
X49547Y23093D01*
X48919Y23513D01*
X48177Y23660D01*
D02*
G37*
G36*
X-33000Y25137D02*
X-33741Y24990D01*
X-34370Y24570D01*
X-34790Y23941D01*
X-34937Y23200D01*
X-34916Y23094D01*
X-35441Y22990D01*
X-36070Y22570D01*
X-36490Y21941D01*
X-36637Y21200D01*
X-36490Y20459D01*
X-36070Y19830D01*
X-35441Y19410D01*
X-34700Y19263D01*
X-33959Y19410D01*
X-33643Y19621D01*
X-33193Y19320D01*
X-33237Y19100D01*
X-33090Y18359D01*
X-32670Y17730D01*
X-32041Y17310D01*
X-31300Y17163D01*
X-30559Y17310D01*
X-29930Y17730D01*
X-29510Y18359D01*
X-29363Y19100D01*
X-29510Y19841D01*
X-29930Y20470D01*
X-30559Y20890D01*
X-31300Y21037D01*
X-32041Y20890D01*
X-32073Y20869D01*
X-32523Y21169D01*
X-32484Y21365D01*
X-32259Y21410D01*
X-31630Y21830D01*
X-31210Y22459D01*
X-31063Y23200D01*
X-31210Y23941D01*
X-31630Y24570D01*
X-32259Y24990D01*
X-33000Y25137D01*
D02*
G37*
G36*
X-26000Y20737D02*
X-26741Y20590D01*
X-27370Y20170D01*
X-27790Y19541D01*
X-27937Y18800D01*
X-27790Y18059D01*
X-27370Y17430D01*
X-26741Y17010D01*
X-26000Y16863D01*
X-25259Y17010D01*
X-24630Y17430D01*
X-24210Y18059D01*
X-24063Y18800D01*
X-24210Y19541D01*
X-24630Y20170D01*
X-25259Y20590D01*
X-26000Y20737D01*
D02*
G37*
G36*
X-50100Y21937D02*
X-50841Y21790D01*
X-51470Y21370D01*
X-51890Y20741D01*
X-52037Y20000D01*
X-51890Y19259D01*
X-51470Y18630D01*
X-50841Y18210D01*
X-50100Y18063D01*
X-49359Y18210D01*
X-49257Y18278D01*
X-48795Y18087D01*
X-48790Y18059D01*
X-48370Y17430D01*
X-47741Y17010D01*
X-47000Y16863D01*
X-46259Y17010D01*
X-45630Y17430D01*
X-45210Y18059D01*
X-45063Y18800D01*
X-45210Y19541D01*
X-45630Y20170D01*
X-46259Y20590D01*
X-47000Y20737D01*
X-47741Y20590D01*
X-47843Y20522D01*
X-48206Y20673D01*
X-48342Y20789D01*
X-48730Y21370D01*
X-49359Y21790D01*
X-50100Y21937D01*
D02*
G37*
G36*
X-35000Y18637D02*
X-35741Y18490D01*
X-36370Y18070D01*
X-36790Y17441D01*
X-36937Y16700D01*
X-36790Y15959D01*
X-36370Y15330D01*
X-35741Y14910D01*
X-35000Y14763D01*
X-34259Y14910D01*
X-33630Y15330D01*
X-33210Y15959D01*
X-33063Y16700D01*
X-33210Y17441D01*
X-33630Y18070D01*
X-34259Y18490D01*
X-35000Y18637D01*
D02*
G37*
G36*
X24700Y16948D02*
X23959Y16800D01*
X23330Y16380D01*
X22910Y15752D01*
X22763Y15010D01*
X22910Y14269D01*
X23330Y13640D01*
X23959Y13220D01*
X24700Y13073D01*
X25441Y13220D01*
X26070Y13640D01*
X26490Y14269D01*
X26637Y15010D01*
X26490Y15752D01*
X26070Y16380D01*
X25441Y16800D01*
X24700Y16948D01*
D02*
G37*
G36*
X-16900Y16437D02*
X-17641Y16290D01*
X-18270Y15870D01*
X-18690Y15241D01*
X-18837Y14500D01*
X-18690Y13759D01*
X-18270Y13130D01*
X-17641Y12710D01*
X-16900Y12563D01*
X-16159Y12710D01*
X-15530Y13130D01*
X-15110Y13759D01*
X-14963Y14500D01*
X-15110Y15241D01*
X-15530Y15870D01*
X-16159Y16290D01*
X-16900Y16437D01*
D02*
G37*
G36*
X300Y18637D02*
X-441Y18490D01*
X-1070Y18070D01*
X-1490Y17441D01*
X-1637Y16700D01*
X-1490Y15959D01*
X-1070Y15330D01*
X-441Y14910D01*
X300Y14763D01*
X607Y14824D01*
X1044Y14897D01*
X1150Y14461D01*
X1210Y14159D01*
X1630Y13530D01*
X2259Y13110D01*
X3000Y12963D01*
X3741Y13110D01*
X4102Y13352D01*
X4657Y13128D01*
X4710Y12859D01*
X5130Y12230D01*
X5759Y11810D01*
X6500Y11663D01*
X7241Y11810D01*
X7870Y12230D01*
X8290Y12859D01*
X8437Y13600D01*
X8290Y14341D01*
X7870Y14970D01*
X7241Y15390D01*
X6500Y15537D01*
X5759Y15390D01*
X5398Y15148D01*
X4843Y15372D01*
X4790Y15641D01*
X4370Y16270D01*
X3741Y16690D01*
X3000Y16837D01*
X2693Y16776D01*
X2255Y16703D01*
X2150Y17139D01*
X2090Y17441D01*
X1670Y18070D01*
X1041Y18490D01*
X300Y18637D01*
D02*
G37*
G36*
X-16300Y9937D02*
X-17041Y9790D01*
X-17670Y9370D01*
X-18076Y8762D01*
X-18261Y8799D01*
X-19003Y8651D01*
X-19631Y8231D01*
X-20051Y7603D01*
X-20199Y6861D01*
X-20051Y6120D01*
X-19631Y5492D01*
X-19003Y5072D01*
X-18261Y4924D01*
X-17520Y5072D01*
X-16892Y5492D01*
X-16485Y6100D01*
X-16300Y6063D01*
X-15559Y6210D01*
X-15465Y6273D01*
X-15370Y6130D01*
X-14741Y5710D01*
X-14000Y5563D01*
X-13259Y5710D01*
X-12630Y6130D01*
X-12210Y6759D01*
X-12063Y7500D01*
X-12210Y8241D01*
X-12630Y8870D01*
X-13259Y9290D01*
X-14000Y9437D01*
X-14741Y9290D01*
X-14835Y9227D01*
X-14930Y9370D01*
X-15559Y9790D01*
X-16300Y9937D01*
D02*
G37*
G36*
X-45100Y9537D02*
X-45841Y9390D01*
X-46470Y8970D01*
X-46606Y8766D01*
X-47243Y8712D01*
X-47659Y8990D01*
X-48400Y9137D01*
X-49141Y8990D01*
X-49770Y8570D01*
X-50190Y7941D01*
X-50337Y7200D01*
X-50190Y6459D01*
X-49770Y5830D01*
X-49141Y5410D01*
X-48400Y5263D01*
X-47659Y5410D01*
X-47030Y5830D01*
X-46894Y6034D01*
X-46257Y6088D01*
X-45841Y5810D01*
X-45100Y5663D01*
X-44359Y5810D01*
X-43730Y6230D01*
X-43310Y6859D01*
X-43163Y7600D01*
X-43310Y8341D01*
X-43730Y8970D01*
X-44359Y9390D01*
X-45100Y9537D01*
D02*
G37*
G36*
X-27933Y11942D02*
X-28675Y11794D01*
X-29303Y11374D01*
X-29723Y10746D01*
X-29870Y10004D01*
X-29723Y9263D01*
X-29303Y8635D01*
X-28675Y8215D01*
X-27933Y8067D01*
X-27192Y8215D01*
X-26563Y8635D01*
X-26143Y9263D01*
X-25996Y10004D01*
X-26143Y10746D01*
X-26563Y11374D01*
X-27192Y11794D01*
X-27933Y11942D01*
D02*
G37*
G36*
X-5100Y10837D02*
X-5841Y10690D01*
X-6470Y10270D01*
X-6890Y9641D01*
X-7037Y8900D01*
X-6890Y8159D01*
X-6470Y7530D01*
X-5841Y7110D01*
X-5100Y6963D01*
X-4359Y7110D01*
X-3730Y7530D01*
X-3310Y8159D01*
X-3163Y8900D01*
X-3310Y9641D01*
X-3730Y10270D01*
X-4359Y10690D01*
X-5100Y10837D01*
D02*
G37*
G36*
X-54200Y9737D02*
X-54941Y9590D01*
X-55570Y9170D01*
X-55990Y8541D01*
X-56137Y7800D01*
X-55990Y7059D01*
X-55570Y6430D01*
X-54941Y6010D01*
X-54200Y5863D01*
X-53459Y6010D01*
X-52830Y6430D01*
X-52410Y7059D01*
X-52263Y7800D01*
X-52410Y8541D01*
X-52830Y9170D01*
X-53459Y9590D01*
X-54200Y9737D01*
D02*
G37*
G36*
X9600Y8837D02*
X8859Y8690D01*
X8230Y8270D01*
X7810Y7641D01*
X7663Y6900D01*
X7810Y6159D01*
X8230Y5530D01*
X8859Y5110D01*
X9600Y4963D01*
X10341Y5110D01*
X10970Y5530D01*
X11390Y6159D01*
X11537Y6900D01*
X11390Y7641D01*
X10970Y8270D01*
X10341Y8690D01*
X9600Y8837D01*
D02*
G37*
G36*
X-32900Y8037D02*
X-33641Y7890D01*
X-34270Y7470D01*
X-34690Y6841D01*
X-34837Y6100D01*
X-34690Y5359D01*
X-34270Y4730D01*
X-33641Y4310D01*
X-32900Y4163D01*
X-32159Y4310D01*
X-31530Y4730D01*
X-31110Y5359D01*
X-30963Y6100D01*
X-31110Y6841D01*
X-31530Y7470D01*
X-32159Y7890D01*
X-32900Y8037D01*
D02*
G37*
G36*
X20800Y6837D02*
X20059Y6690D01*
X19430Y6270D01*
X19010Y5641D01*
X18863Y4900D01*
X19010Y4159D01*
X19430Y3530D01*
X20059Y3110D01*
X20800Y2963D01*
X21541Y3110D01*
X22170Y3530D01*
X22590Y4159D01*
X22737Y4900D01*
X22590Y5641D01*
X22170Y6270D01*
X21541Y6690D01*
X20800Y6837D01*
D02*
G37*
G36*
X-10200Y6137D02*
X-10941Y5990D01*
X-11570Y5570D01*
X-11990Y4941D01*
X-12137Y4200D01*
X-11990Y3459D01*
X-11570Y2830D01*
X-10941Y2410D01*
X-10200Y2263D01*
X-9459Y2410D01*
X-8830Y2830D01*
X-8410Y3459D01*
X-8263Y4200D01*
X-8410Y4941D01*
X-8830Y5570D01*
X-9459Y5990D01*
X-10200Y6137D01*
D02*
G37*
G36*
X-2400Y2837D02*
X-3141Y2690D01*
X-3770Y2270D01*
X-4190Y1641D01*
X-4337Y900D01*
X-4190Y159D01*
X-3770Y-470D01*
X-3141Y-890D01*
X-2400Y-1037D01*
X-1659Y-890D01*
X-1030Y-470D01*
X-610Y159D01*
X-463Y900D01*
X-610Y1641D01*
X-1030Y2270D01*
X-1659Y2690D01*
X-2400Y2837D01*
D02*
G37*
G36*
X10823Y-667D02*
X10300Y-1100D01*
X9511Y-742D01*
X8930Y-1130D01*
X8510Y-1759D01*
X8363Y-2500D01*
X8510Y-3241D01*
X8930Y-3870D01*
X9559Y-4290D01*
X10300Y-4437D01*
X11041Y-4290D01*
X11670Y-3870D01*
X12090Y-3241D01*
X12237Y-2500D01*
X12090Y-1759D01*
X11670Y-1130D01*
X11041Y-710D01*
X10823Y-667D01*
D02*
G37*
G36*
X-53280Y2923D02*
X-54054Y2769D01*
X-54710Y2331D01*
X-55149Y1674D01*
X-55303Y900D01*
X-55149Y126D01*
X-54710Y-531D01*
X-54054Y-969D01*
X-53280Y-1123D01*
X-52505Y-969D01*
X-51849Y-531D01*
X-51410Y126D01*
X-51256Y900D01*
X-51410Y1674D01*
X-51849Y2331D01*
X-52505Y2769D01*
X-53280Y2923D01*
D02*
G37*
G36*
X-30700Y2837D02*
X-31441Y2690D01*
X-32070Y2270D01*
X-32490Y1641D01*
X-32637Y900D01*
X-32490Y159D01*
X-32070Y-470D01*
X-31441Y-890D01*
X-30764Y-1025D01*
X-30668Y-1217D01*
X-30613Y-1526D01*
X-30770Y-1630D01*
X-31190Y-2259D01*
X-31337Y-3000D01*
X-31190Y-3741D01*
X-30770Y-4370D01*
X-30141Y-4790D01*
X-29400Y-4937D01*
X-28659Y-4790D01*
X-28030Y-4370D01*
X-27610Y-3741D01*
X-27463Y-3000D01*
X-27610Y-2259D01*
X-28030Y-1630D01*
X-28659Y-1210D01*
X-29337Y-1075D01*
X-29432Y-883D01*
X-29487Y-575D01*
X-29330Y-470D01*
X-28910Y159D01*
X-28763Y900D01*
X-28910Y1641D01*
X-29330Y2270D01*
X-29959Y2690D01*
X-30700Y2837D01*
D02*
G37*
G36*
X-50400Y-2863D02*
X-51141Y-3010D01*
X-51770Y-3430D01*
X-52190Y-4059D01*
X-52337Y-4800D01*
X-52190Y-5541D01*
X-51770Y-6170D01*
X-51141Y-6590D01*
X-50400Y-6737D01*
X-49659Y-6590D01*
X-49030Y-6170D01*
X-48610Y-5541D01*
X-48463Y-4800D01*
X-48610Y-4059D01*
X-49030Y-3430D01*
X-49659Y-3010D01*
X-50400Y-2863D01*
D02*
G37*
G36*
X-17291Y-14272D02*
X-18032Y-14420D01*
X-18660Y-14840D01*
X-19080Y-15468D01*
X-19228Y-16209D01*
X-19080Y-16951D01*
X-18660Y-17579D01*
X-18032Y-17999D01*
X-17291Y-18147D01*
X-16549Y-17999D01*
X-15921Y-17579D01*
X-15501Y-16951D01*
X-15353Y-16209D01*
X-15501Y-15468D01*
X-15921Y-14840D01*
X-16549Y-14420D01*
X-17291Y-14272D01*
D02*
G37*
G36*
X38050Y-22027D02*
X37309Y-22175D01*
X36680Y-22595D01*
X36261Y-23223D01*
X36113Y-23965D01*
X36261Y-24706D01*
X36680Y-25334D01*
X37309Y-25754D01*
X38050Y-25902D01*
X38792Y-25754D01*
X39420Y-25334D01*
X39840Y-24706D01*
X39987Y-23965D01*
X39840Y-23223D01*
X39420Y-22595D01*
X38792Y-22175D01*
X38050Y-22027D01*
D02*
G37*
G36*
X-25600Y-34263D02*
X-26341Y-34410D01*
X-26970Y-34830D01*
X-27390Y-35459D01*
X-27537Y-36200D01*
X-27390Y-36941D01*
X-26970Y-37570D01*
X-26341Y-37990D01*
X-25600Y-38137D01*
X-24859Y-37990D01*
X-24230Y-37570D01*
X-23810Y-36941D01*
X-23663Y-36200D01*
X-23810Y-35459D01*
X-24230Y-34830D01*
X-24859Y-34410D01*
X-25600Y-34263D01*
D02*
G37*
G36*
X-5577Y-34363D02*
X-6318Y-34510D01*
X-6947Y-34930D01*
X-7367Y-35559D01*
X-7514Y-36300D01*
X-7367Y-37041D01*
X-6947Y-37670D01*
X-6318Y-38090D01*
X-5577Y-38237D01*
X-4836Y-38090D01*
X-4207Y-37670D01*
X-3787Y-37041D01*
X-3640Y-36300D01*
X-3787Y-35559D01*
X-4207Y-34930D01*
X-4836Y-34510D01*
X-5577Y-34363D01*
D02*
G37*
G36*
X35550Y-34527D02*
X34809Y-34675D01*
X34180Y-35095D01*
X33760Y-35723D01*
X33613Y-36464D01*
X33760Y-37206D01*
X34180Y-37834D01*
X34809Y-38254D01*
X35550Y-38402D01*
X36292Y-38254D01*
X36920Y-37834D01*
X37340Y-37206D01*
X37488Y-36464D01*
X37340Y-35723D01*
X36920Y-35095D01*
X36292Y-34675D01*
X35550Y-34527D01*
D02*
G37*
G36*
X49485Y-34577D02*
X48744Y-34725D01*
X48116Y-35145D01*
X47696Y-35773D01*
X47548Y-36514D01*
X47696Y-37256D01*
X48116Y-37884D01*
X48744Y-38304D01*
X49485Y-38452D01*
X50227Y-38304D01*
X50855Y-37884D01*
X51275Y-37256D01*
X51423Y-36514D01*
X51275Y-35773D01*
X50855Y-35145D01*
X50227Y-34725D01*
X49485Y-34577D01*
D02*
G37*
G36*
X-27599Y-43463D02*
X-28341Y-43610D01*
X-28969Y-44030D01*
X-29389Y-44659D01*
X-29536Y-45400D01*
X-29389Y-46141D01*
X-28969Y-46770D01*
X-28341Y-47190D01*
X-27599Y-47337D01*
X-26858Y-47190D01*
X-26229Y-46770D01*
X-25809Y-46141D01*
X-25662Y-45400D01*
X-25809Y-44659D01*
X-26229Y-44030D01*
X-26858Y-43610D01*
X-27599Y-43463D01*
D02*
G37*
%LPD*%
D107*
X22800Y5625D02*
X25000Y7825D01*
X22400Y5225D02*
X22800Y5625D01*
X20075Y2900D02*
X20475Y3300D01*
X19038Y1862D02*
X20075Y2900D01*
X18238Y1062D02*
X19038Y1862D01*
X18014Y839D02*
X18238Y1062D01*
X18000Y825D02*
X18014Y839D01*
X24800Y8500D02*
Y9700D01*
Y8100D02*
Y8500D01*
Y8053D02*
Y8100D01*
Y8025D02*
Y8053D01*
X24986Y7839D02*
X25000Y7825D01*
X24800Y8025D02*
X24986Y7839D01*
X22400Y4237D02*
Y5225D01*
X21463Y3300D02*
X22400Y4237D01*
X20475Y3300D02*
X21463D01*
X18000Y825D02*
X20000Y-1175D01*
X19775Y-1400D02*
X20000Y-1175D01*
X19175Y-800D02*
X19775Y-1400D01*
X10300Y-800D02*
X19175D01*
X-41643Y9343D02*
X-31500Y-800D01*
X10300D01*
X-6400Y15900D02*
X10300Y-800D01*
X-41643Y9343D02*
Y46900D01*
X-6400Y15900D02*
Y27500D01*
D108*
X33128Y-200D02*
X33700Y-772D01*
X32600Y-1872D02*
X33700Y-772D01*
X32600Y-3528D02*
Y-1872D01*
Y-3528D02*
X33772Y-4700D01*
X34900D01*
X35200Y-5000D01*
X31472Y-200D02*
X33128D01*
X30936Y-736D02*
X31472Y-200D01*
X29400Y800D02*
X30936Y-736D01*
X22800Y5653D02*
Y5728D01*
Y4072D02*
Y5625D01*
Y5653D01*
X20075Y2900D02*
X21628D01*
X20047D02*
X20075D01*
X19972D02*
X20047D01*
X19038Y1862D02*
X20100Y800D01*
X19024Y1877D02*
X19038Y1862D01*
X18800Y2100D02*
X19024Y1877D01*
X16600Y4300D02*
X18800Y2100D01*
X18238Y1062D02*
X20100Y-800D01*
X18224Y1077D02*
X18238Y1062D01*
X18000Y1300D02*
X18224Y1077D01*
X18014Y839D02*
X20177Y-1323D01*
X18000Y853D02*
X18014Y839D01*
X18800Y2100D02*
X19786Y3086D01*
X18000Y1300D02*
X18800Y2100D01*
X19024Y1877D02*
X20047Y2900D01*
X18224Y1077D02*
X19024Y1877D01*
X18000Y853D02*
X18224Y1077D01*
X24986Y7839D02*
X25000Y7853D01*
X22800Y5653D02*
X24986Y7839D01*
X24800Y8100D02*
X25000Y8300D01*
X22614Y5914D02*
X24800Y8100D01*
Y8500D02*
X25000Y8300D01*
X24800Y8053D02*
X25000Y7853D01*
X22614Y5914D02*
X22800Y5728D01*
X21628Y2900D02*
X22800Y4072D01*
X19786Y3086D02*
X19972Y2900D01*
X16600Y4300D02*
Y19400D01*
X20100Y800D02*
X34300Y15000D01*
X20100Y-800D02*
Y800D01*
X34300Y15000D02*
Y54208D01*
X32608Y55900D02*
X34300Y54208D01*
X32500Y55900D02*
X32608D01*
X16600Y19400D02*
X27500Y30300D01*
X21476Y-1323D02*
X23600Y800D01*
X20177Y-1323D02*
X21476D01*
X23600Y800D02*
X29400D01*
X35200Y-5000D02*
X47000D01*
Y-7000D02*
Y-5000D01*
D110*
X-45100Y7600D02*
X-45000Y7500D01*
D113*
X24800Y9700D02*
D03*
X50900Y-30000D02*
D03*
X29700Y-32100D02*
D03*
X-33417Y-25083D02*
D03*
X-27600Y-56600D02*
D03*
X-22900Y-10100D02*
D03*
X-22200Y-12500D02*
D03*
X-24100Y-23100D02*
D03*
X-23800Y-18800D02*
D03*
X-33700Y-47400D02*
D03*
X12200Y-24100D02*
D03*
X-7300Y-23700D02*
D03*
X-28900Y-23500D02*
D03*
X-48400Y-10700D02*
D03*
X48500Y-11900D02*
D03*
X55200Y-18200D02*
D03*
X33500Y-12800D02*
D03*
X10100Y-10400D02*
D03*
X18600Y-12400D02*
D03*
X16500Y-20600D02*
D03*
X16600Y-28100D02*
D03*
X14500Y-30100D02*
D03*
X14100Y-58100D02*
D03*
X14700Y-38600D02*
D03*
X9700Y-44100D02*
D03*
X7700Y-48900D02*
D03*
X-13609Y-36200D02*
D03*
X-17546D02*
D03*
X-15577Y-34231D02*
D03*
Y-38168D02*
D03*
X32500Y55900D02*
D03*
X-6400Y27500D02*
D03*
X-41643Y46900D02*
D03*
X27500Y30300D02*
D03*
X47000Y-7000D02*
D03*
Y-5000D02*
D03*
X56480Y-11280D02*
D03*
X-30400Y-42600D02*
D03*
X-5500Y-31200D02*
D03*
X-24800Y-30500D02*
D03*
X-27600Y-27300D02*
D03*
X-45100Y7600D02*
D03*
M02*
