G04*
G04 #@! TF.GenerationSoftware,Altium Limited,Altium Designer,20.2.6 (244)*
G04*
G04 Layer_Color=255*
%FSLAX25Y25*%
%MOIN*%
G70*
G04*
G04 #@! TF.SameCoordinates,E73447B6-61B4-4EEF-956E-7A2C62B3FEF5*
G04*
G04*
G04 #@! TF.FilePolarity,Positive*
G04*
G01*
G75*
%ADD24R,0.01575X0.01575*%
%ADD25R,0.02677X0.02520*%
%ADD26C,0.01595*%
G04:AMPARAMS|DCode=27|XSize=66.93mil|YSize=47.24mil|CornerRadius=0mil|HoleSize=0mil|Usage=FLASHONLY|Rotation=28.000|XOffset=0mil|YOffset=0mil|HoleType=Round|Shape=Rectangle|*
%AMROTATEDRECTD27*
4,1,4,-0.01846,-0.03657,-0.04064,0.00515,0.01846,0.03657,0.04064,-0.00515,-0.01846,-0.03657,0.0*
%
%ADD27ROTATEDRECTD27*%

G04:AMPARAMS|DCode=28|XSize=39.37mil|YSize=19.68mil|CornerRadius=0mil|HoleSize=0mil|Usage=FLASHONLY|Rotation=28.000|XOffset=0mil|YOffset=0mil|HoleType=Round|Shape=Rectangle|*
%AMROTATEDRECTD28*
4,1,4,-0.01276,-0.01793,-0.02200,-0.00055,0.01276,0.01793,0.02200,0.00055,-0.01276,-0.01793,0.0*
%
%ADD28ROTATEDRECTD28*%

%ADD29R,0.04331X0.07480*%
%ADD30R,0.03740X0.03543*%
G04:AMPARAMS|DCode=31|XSize=39.37mil|YSize=27.56mil|CornerRadius=6.89mil|HoleSize=0mil|Usage=FLASHONLY|Rotation=180.000|XOffset=0mil|YOffset=0mil|HoleType=Round|Shape=RoundedRectangle|*
%AMROUNDEDRECTD31*
21,1,0.03937,0.01378,0,0,180.0*
21,1,0.02559,0.02756,0,0,180.0*
1,1,0.01378,-0.01280,0.00689*
1,1,0.01378,0.01280,0.00689*
1,1,0.01378,0.01280,-0.00689*
1,1,0.01378,-0.01280,-0.00689*
%
%ADD31ROUNDEDRECTD31*%
G04:AMPARAMS|DCode=32|XSize=39.37mil|YSize=27.56mil|CornerRadius=6.89mil|HoleSize=0mil|Usage=FLASHONLY|Rotation=270.000|XOffset=0mil|YOffset=0mil|HoleType=Round|Shape=RoundedRectangle|*
%AMROUNDEDRECTD32*
21,1,0.03937,0.01378,0,0,270.0*
21,1,0.02559,0.02756,0,0,270.0*
1,1,0.01378,-0.00689,-0.01280*
1,1,0.01378,-0.00689,0.01280*
1,1,0.01378,0.00689,0.01280*
1,1,0.01378,0.00689,-0.01280*
%
%ADD32ROUNDEDRECTD32*%
%ADD33R,0.02992X0.02835*%
%ADD34R,0.03740X0.01772*%
G04:AMPARAMS|DCode=35|XSize=21.65mil|YSize=19.68mil|CornerRadius=2.46mil|HoleSize=0mil|Usage=FLASHONLY|Rotation=0.000|XOffset=0mil|YOffset=0mil|HoleType=Round|Shape=RoundedRectangle|*
%AMROUNDEDRECTD35*
21,1,0.02165,0.01476,0,0,0.0*
21,1,0.01673,0.01968,0,0,0.0*
1,1,0.00492,0.00837,-0.00738*
1,1,0.00492,-0.00837,-0.00738*
1,1,0.00492,-0.00837,0.00738*
1,1,0.00492,0.00837,0.00738*
%
%ADD35ROUNDEDRECTD35*%
%ADD36R,0.06693X0.04921*%
%ADD37R,0.01575X0.02165*%
%ADD38R,0.03937X0.03543*%
G04:AMPARAMS|DCode=39|XSize=21.65mil|YSize=19.68mil|CornerRadius=2.46mil|HoleSize=0mil|Usage=FLASHONLY|Rotation=270.000|XOffset=0mil|YOffset=0mil|HoleType=Round|Shape=RoundedRectangle|*
%AMROUNDEDRECTD39*
21,1,0.02165,0.01476,0,0,270.0*
21,1,0.01673,0.01968,0,0,270.0*
1,1,0.00492,-0.00738,-0.00837*
1,1,0.00492,-0.00738,0.00837*
1,1,0.00492,0.00738,0.00837*
1,1,0.00492,0.00738,-0.00837*
%
%ADD39ROUNDEDRECTD39*%
%ADD40R,0.00984X0.01083*%
%ADD41R,0.01083X0.00984*%
%ADD42R,0.03347X0.03740*%
G04:AMPARAMS|DCode=43|XSize=10mil|YSize=10mil|CornerRadius=1.25mil|HoleSize=0mil|Usage=FLASHONLY|Rotation=90.000|XOffset=0mil|YOffset=0mil|HoleType=Round|Shape=RoundedRectangle|*
%AMROUNDEDRECTD43*
21,1,0.01000,0.00750,0,0,90.0*
21,1,0.00750,0.01000,0,0,90.0*
1,1,0.00250,0.00375,0.00375*
1,1,0.00250,0.00375,-0.00375*
1,1,0.00250,-0.00375,-0.00375*
1,1,0.00250,-0.00375,0.00375*
%
%ADD43ROUNDEDRECTD43*%
G04:AMPARAMS|DCode=44|XSize=10mil|YSize=10mil|CornerRadius=1.25mil|HoleSize=0mil|Usage=FLASHONLY|Rotation=180.000|XOffset=0mil|YOffset=0mil|HoleType=Round|Shape=RoundedRectangle|*
%AMROUNDEDRECTD44*
21,1,0.01000,0.00750,0,0,180.0*
21,1,0.00750,0.01000,0,0,180.0*
1,1,0.00250,-0.00375,0.00375*
1,1,0.00250,0.00375,0.00375*
1,1,0.00250,0.00375,-0.00375*
1,1,0.00250,-0.00375,-0.00375*
%
%ADD44ROUNDEDRECTD44*%
%ADD45O,0.02362X0.05709*%
%ADD46R,0.03150X0.03150*%
%ADD47R,0.03740X0.02165*%
G04:AMPARAMS|DCode=48|XSize=39.37mil|YSize=19.68mil|CornerRadius=0mil|HoleSize=0mil|Usage=FLASHONLY|Rotation=151.000|XOffset=0mil|YOffset=0mil|HoleType=Round|Shape=Rectangle|*
%AMROTATEDRECTD48*
4,1,4,0.02199,-0.00094,0.01245,-0.01815,-0.02199,0.00094,-0.01245,0.01815,0.02199,-0.00094,0.0*
%
%ADD48ROTATEDRECTD48*%

G04:AMPARAMS|DCode=49|XSize=66.93mil|YSize=47.24mil|CornerRadius=0mil|HoleSize=0mil|Usage=FLASHONLY|Rotation=151.000|XOffset=0mil|YOffset=0mil|HoleType=Round|Shape=Rectangle|*
%AMROTATEDRECTD49*
4,1,4,0.04072,0.00444,0.01782,-0.03688,-0.04072,-0.00444,-0.01782,0.03688,0.04072,0.00444,0.0*
%
%ADD49ROTATEDRECTD49*%

%ADD50R,0.01378X0.03150*%
%ADD51R,0.01378X0.01476*%
%ADD52R,0.01476X0.01378*%
%ADD53R,0.01870X0.00984*%
%ADD54R,0.00984X0.01870*%
%ADD55C,0.00992*%
%ADD56R,0.08071X0.08071*%
%ADD57R,0.14567X0.03858*%
%ADD58R,0.16929X0.06299*%
%ADD59R,0.12598X0.03937*%
%ADD60R,0.03150X0.03543*%
%ADD61R,0.04724X0.03543*%
%ADD62R,0.02441X0.02598*%
%ADD63R,0.02598X0.02441*%
%ADD68R,0.06299X0.09843*%
%ADD87R,0.02055X0.02362*%
%ADD105C,0.02362*%
%ADD106C,0.01181*%
%ADD112C,0.01968*%
D24*
X6323Y50900D02*
D03*
X11343D02*
D03*
X-2043Y34168D02*
D03*
X-2043Y37514D02*
D03*
Y40861D02*
D03*
Y44207D02*
D03*
Y47554D02*
D03*
X-2043Y50900D02*
D03*
X-4602Y31609D02*
D03*
Y35841D02*
D03*
Y39187D02*
D03*
Y42534D02*
D03*
Y45880D02*
D03*
Y49227D02*
D03*
Y52573D02*
D03*
Y57396D02*
D03*
Y62219D02*
D03*
X-370Y31609D02*
D03*
X1303Y34168D02*
D03*
X4650D02*
D03*
X7996D02*
D03*
X11343D02*
D03*
X14689Y34168D02*
D03*
X17248Y35841D02*
D03*
Y39187D02*
D03*
X14689Y40861D02*
D03*
X2976Y31609D02*
D03*
X6323D02*
D03*
X9669D02*
D03*
X13016D02*
D03*
X17248D02*
D03*
X14689Y37514D02*
D03*
X17248Y42534D02*
D03*
Y45880D02*
D03*
Y49227D02*
D03*
X17248Y52573D02*
D03*
Y62219D02*
D03*
X1303Y44207D02*
D03*
X6323Y37514D02*
D03*
X11343Y44207D02*
D03*
X14689D02*
D03*
Y47554D02*
D03*
Y50900D02*
D03*
X17248Y57396D02*
D03*
X1303Y50900D02*
D03*
X1303Y37514D02*
D03*
X11343D02*
D03*
D25*
X15491Y26563D02*
D03*
X18955D02*
D03*
X7691D02*
D03*
X11155D02*
D03*
D26*
X43314Y10937D02*
D03*
X42527Y7000D02*
D03*
X43225Y3063D02*
D03*
X54732Y3063D02*
D03*
X54821Y7000D02*
D03*
X54821Y10937D02*
D03*
D27*
X-39716Y-52788D02*
D03*
X-46000Y-40969D02*
D03*
D28*
X-35340Y-44665D02*
D03*
X-36819Y-41884D02*
D03*
D29*
X18244Y20063D02*
D03*
X8402D02*
D03*
D30*
X52606Y-23682D02*
D03*
X52606Y-11280D02*
D03*
D31*
X-2077Y-43056D02*
D03*
Y-37544D02*
D03*
X23256Y60578D02*
D03*
X23256Y55067D02*
D03*
X194Y-9610D02*
D03*
X194Y-15122D02*
D03*
X34802Y27271D02*
D03*
X34802Y21759D02*
D03*
X-21633Y-53900D02*
D03*
Y-48388D02*
D03*
X-39186Y-4756D02*
D03*
X-39186Y756D02*
D03*
X25723Y-32644D02*
D03*
X25723Y-38156D02*
D03*
X-27577Y-48444D02*
D03*
Y-53956D02*
D03*
D32*
X-10277Y-48700D02*
D03*
X-15789Y-48700D02*
D03*
X-4833Y-48900D02*
D03*
X679D02*
D03*
X-15833Y-54700D02*
D03*
X-10321D02*
D03*
X-4833Y-54972D02*
D03*
X679D02*
D03*
D33*
X40710Y39777D02*
D03*
X44568Y39777D02*
D03*
X10355Y-5651D02*
D03*
X6497Y-5651D02*
D03*
X45169Y21723D02*
D03*
X41310Y21723D02*
D03*
D34*
X5980Y-15043D02*
D03*
X5980Y-12483D02*
D03*
X5980Y-9924D02*
D03*
X14642Y-9924D02*
D03*
X14642Y-12483D02*
D03*
X14642Y-15043D02*
D03*
D35*
X22923Y30191D02*
D03*
Y33735D02*
D03*
X-10177Y-1572D02*
D03*
X-10177Y1972D02*
D03*
X-18377Y22639D02*
D03*
X-18377Y19096D02*
D03*
X9623Y-41772D02*
D03*
Y-38228D02*
D03*
X-39277Y54672D02*
D03*
Y51128D02*
D03*
D36*
X44487Y31205D02*
D03*
D37*
X47637Y35732D02*
D03*
X41338Y35732D02*
D03*
X47637Y26677D02*
D03*
X44487Y26677D02*
D03*
X41338Y26677D02*
D03*
X44487Y35732D02*
D03*
D38*
X-25788Y2350D02*
D03*
Y-3950D02*
D03*
D39*
X-16206Y-12400D02*
D03*
X-19749Y-12400D02*
D03*
X17123Y-38600D02*
D03*
X20666Y-38600D02*
D03*
X-27635Y12576D02*
D03*
X-24092Y12576D02*
D03*
X-48486Y-8000D02*
D03*
X-44942Y-8000D02*
D03*
X-53449Y12600D02*
D03*
X-49905Y12600D02*
D03*
X-45849D02*
D03*
X-42305Y12600D02*
D03*
D40*
X-14324Y4253D02*
D03*
Y-1653D02*
D03*
X-16293Y-1653D02*
D03*
X-18261D02*
D03*
X-20230Y-1653D02*
D03*
X-20230Y4253D02*
D03*
X-18261D02*
D03*
X-16293Y4253D02*
D03*
D41*
X-14324Y2284D02*
D03*
X-14324Y316D02*
D03*
X-20230D02*
D03*
X-20230Y2284D02*
D03*
D42*
X-14720Y-7200D02*
D03*
X-20035Y-7200D02*
D03*
X24820Y-12800D02*
D03*
X30135D02*
D03*
X19780Y-33300D02*
D03*
X14465D02*
D03*
D43*
X24863Y6272D02*
D03*
X24863Y1772D02*
D03*
D44*
X41092Y47221D02*
D03*
X45592D02*
D03*
X35200Y55100D02*
D03*
X39700Y55100D02*
D03*
D45*
X-32777Y33572D02*
D03*
X-27777D02*
D03*
X-22777D02*
D03*
X-17777D02*
D03*
X-32777Y55028D02*
D03*
X-27777D02*
D03*
X-22777D02*
D03*
X-17777D02*
D03*
D46*
X29134Y53407D02*
D03*
X29134Y59312D02*
D03*
D47*
X3923Y-43350D02*
D03*
Y-37050D02*
D03*
D48*
X35300Y-44482D02*
D03*
X36826Y-41728D02*
D03*
D49*
X39533Y-52681D02*
D03*
X46022Y-40973D02*
D03*
D50*
X19164Y-28002D02*
D03*
X21723Y-28002D02*
D03*
X24282Y-28002D02*
D03*
X19164Y-20798D02*
D03*
X21723D02*
D03*
X24282D02*
D03*
D51*
X-24023Y17094D02*
D03*
X-25991Y17094D02*
D03*
X-27960Y17094D02*
D03*
X-27960Y23098D02*
D03*
X-25991D02*
D03*
X-24023Y23098D02*
D03*
D52*
X-28993Y19112D02*
D03*
X-28993Y21080D02*
D03*
X-22989D02*
D03*
X-22989Y19112D02*
D03*
D53*
X-52454Y22953D02*
D03*
X-52454Y20984D02*
D03*
X-52454Y19016D02*
D03*
X-52454Y17047D02*
D03*
X-43300Y19016D02*
D03*
X-43300Y20984D02*
D03*
X-43300Y22953D02*
D03*
X-43300Y17047D02*
D03*
D54*
X-49846Y16408D02*
D03*
X-47877Y16408D02*
D03*
X-45909Y16408D02*
D03*
X-45909Y23593D02*
D03*
X-47877Y23593D02*
D03*
X-49846Y23593D02*
D03*
D55*
X-22368Y-32263D02*
D03*
Y-34231D02*
D03*
X-23491Y-36200D02*
D03*
Y-38168D02*
D03*
Y-40137D02*
D03*
X-19514Y-42991D02*
D03*
X-17546D02*
D03*
X-15577Y-44074D02*
D03*
X-13609D02*
D03*
X-11640D02*
D03*
X-8786Y-40137D02*
D03*
Y-38168D02*
D03*
X-7703Y-36200D02*
D03*
Y-34231D02*
D03*
X-7703Y-32263D02*
D03*
X-11640Y-29409D02*
D03*
X-13609Y-29409D02*
D03*
X-15577Y-28287D02*
D03*
X-17546D02*
D03*
X-19514D02*
D03*
D56*
X-15577Y-36200D02*
D03*
D57*
X37723Y-19235D02*
D03*
X37723Y-28565D02*
D03*
D58*
X-44377Y-28315D02*
D03*
X-44377Y-17685D02*
D03*
D59*
X2423Y-22669D02*
D03*
Y-31331D02*
D03*
D60*
X16986Y-50063D02*
D03*
X24860Y-50063D02*
D03*
X24860Y-57937D02*
D03*
D61*
X17773D02*
D03*
D62*
X-27577Y-38968D02*
D03*
Y-42432D02*
D03*
Y-29968D02*
D03*
Y-33432D02*
D03*
D63*
X-17291Y-23100D02*
D03*
X-20755Y-23100D02*
D03*
Y-18900D02*
D03*
X-17291Y-18900D02*
D03*
D68*
X49023Y7000D02*
D03*
D87*
X-45114Y900D02*
D03*
X-45114Y-2643D02*
D03*
X-48350Y-2643D02*
D03*
X-48350Y4443D02*
D03*
X-45114Y4443D02*
D03*
D105*
X-9677Y-17600D02*
D03*
X51723Y-33500D02*
D03*
X-39993Y30916D02*
D03*
X31523Y-55800D02*
D03*
X17123Y-45400D02*
D03*
X23923Y-5500D02*
D03*
X11423Y-19700D02*
D03*
X-33477Y-34400D02*
D03*
D106*
X-53279Y-1708D02*
D03*
D112*
X-53280Y900D02*
D03*
M02*
